<svg xmlns="http://www.w3.org/2000/svg" xmlns:xlink="http://www.w3.org/1999/xlink" width="293.431" height="141.982" viewBox="0 0 163.017 78.879"><rect width="100%" height="100%" fill="white"/><clipPath id="a"><path transform="matrix(1 0 0 -1 -218.759 781.941)" d="M0 0h595.276v841.89H0z"/></clipPath><g clip-path="url(#a)"><symbol id="b"><path d="M.333.389C.315.426.286.453.241.453.124.453 0 .306 0 .16 0 .066.055 0 .133 0c.02 0 .07.004.13.075A.09.09 0 0 1 .354 0c.035 0 .058.023.074.055.017.036.03.097.03.099 0 .01-.009.01-.012.01C.436.164.435.16.432.146.415.081.397.022.356.022c-.027 0-.03.026-.03.046 0 .022.002.03.013.074l.022.09.036.14C.404.4.404.402.404.406c0 .017-.012.027-.029.027C.351.433.336.411.333.389M.268.13C.263.112.263.11.248.093.204.038.163.022.135.022c-.05 0-.064.055-.064.094 0 .05.032.173.055.219.031.059.076.096.116.096.065 0 .079-.082.079-.088C.321.337.319.331.318.326L.268.13z"/></symbol><use xlink:href="#b" transform="matrix(10.9091 0 0 -10.9091 21.827 16.749)"/><symbol id="c"><path d="M.366.696C.361.709.359.716.343.716S.324.71.319.696L.112.098C.094.047.054.032 0 .031V0c.023.001.066.003.102.003L.217 0v.031c-.05 0-.075.025-.075.051l.002.015.046.131h.247L.49.075.493.061c0-.03-.056-.03-.083-.03V0a2.274 2.274 0 0 0 .275 0v.031H.667c-.06 0-.074.007-.085.04L.366.696M.313.584.426.259H.201l.112.325z"/></symbol><symbol id="d"><path d="M.353.313h.279c.014 0 .033 0 .033.02s-.019.02-.033.02H.353v.28c0 .014 0 .033-.02.033S.313.647.313.633v-.28h-.28C.019.353 0 .353 0 .333s.019-.02.033-.02h.28v-.28c0-.014 0-.033.02-.033s.02.019.02.033v.28z"/></symbol><symbol id="e"><path d="M.186.366v.246c0 .033.002.04.049.04h.124C.456.652.491.567.491.514a.15.15 0 0 0-.16-.148H.186M.422.357C.519.376.588.44.588.514c0 .087-.092.169-.222.169H0V.652h.024C.101.652.103.641.103.605V.078C.103.042.101.031.024.031H0V0h.392c.133 0 .223.089.223.183C.615.27.533.345.422.357M.36.031H.235c-.047 0-.049.007-.049.04v.273h.188c.099 0 .141-.093.141-.16A.151.151 0 0 0 .36.031z"/></symbol><use xlink:href="#c" transform="matrix(10.9091 0 0 -10.9091 27.507 16.629)"/><use xlink:href="#d" transform="matrix(10.9091 0 0 -10.9091 53.754 17.534)"/><use xlink:href="#e" transform="matrix(10.9091 0 0 -10.9091 77.089 16.629)"/><symbol id="f"><path d="M.576 0c.017 0 .035 0 .035.02S.593.04.576.04H.035C.018.04 0 .04 0 .02S.018 0 .035 0h.541z"/></symbol><symbol id="g"><path d="M.779.241A.366.366 0 0 1 .636.012C.636 0 .648 0 .656 0c.017 0 .018.002.022.02a.312.312 0 0 0 .195.228c.012.004.015.006.015.013 0 .007-.006.01-.008.011a.311.311 0 0 0-.203.235C.674.519.673.522.656.522c-.008 0-.02 0-.02-.012A.36.36 0 0 1 .779.281H.036C.018.281 0 .281 0 .261s.018-.02.036-.02h.743z"/></symbol><use xlink:href="#f" transform="matrix(10.9091 0 0 -10.9091 100.384 14.12)"/><use xlink:href="#g" transform="matrix(10.9091 0 0 -10.9091 106.744 16.749)"/><symbol id="h"><path d="M.355.391c-.016 0-.03 0-.044-.014A.054.054 0 0 1 .293.338C.293.314.311.303.33.303c.029 0 .056.024.056.064 0 .049-.047.086-.118.086C.133.453 0 .31 0 .169 0 .079.058 0 .162 0c.143 0 .227.106.227.118 0 .006-.006.013-.012.013C.372.131.37.129.364.121.285.022.176.022.164.022c-.063 0-.09.049-.09.109 0 .041.02.138.054.2.031.057.086.1.141.1.034 0 .072-.013.086-.04z"/></symbol><use xlink:href="#h" transform="matrix(10.9091 0 0 -10.9091 129.76 16.749)"/><symbol id="i"><path d="M0 .364C0 .157.162 0 .348 0c.163 0 .261.139.261.255 0 .01 0 .017-.013.017C.585.272.585.266.584.256.576.113.469.031.36.031.299.031.103.065.103.363c0 .299.195.333.256.333.109 0 .198-.091.218-.237C.579.445.579.442.593.442c.016 0 .016.003.016.024v.237c0 .017 0 .024-.011.024-.004 0-.008 0-.016-.012L.532.641C.495.677.444.727.348.727A.357.357 0 0 1 0 .364z"/></symbol><use xlink:href="#i" transform="matrix(10.9091 0 0 -10.9091 134.645 16.869)"/><symbol id="j"><path d="M.059.07C.056.055.05.032.05.027.05.009.064 0 .079 0a.04.04 0 0 1 .037.028 2.1 2.1 0 0 1 .019.074l.022.09.017.067.013.05C.202.34.255.431.35.431c.045 0 .054-.037.054-.07C.404.299.355.171.339.128a.114.114 0 0 1-.01-.046A.08.08 0 0 1 .411 0c.094 0 .131.146.131.154 0 .01-.009.01-.012.01C.52.164.52.161.515.146.495.078.462.022.413.022c-.017 0-.024.01-.024.033a.19.19 0 0 0 .018.071c.019.053.061.163.061.22 0 .067-.043.107-.115.107A.193.193 0 0 1 .197.366a.09.09 0 0 1-.092.087C.059.453.04.414.03.396A.504.504 0 0 1 0 .299c0-.01.01-.01.012-.01.01 0 .011.001.017.023.017.071.037.119.073.119.02 0 .031-.013.031-.046C.133.364.13.353.117.301L.059.07z"/></symbol><use xlink:href="#j" transform="matrix(10.9091 0 0 -10.9091 34.957 33.008)"/><symbol id="k"><path d="M.205.64c0 .024 0 .026-.023.026C.12.602.032.602 0 .602V.571a.3.3 0 0 1 .131.026V.079C.131.043.128.031.038.031H.006V0c.035.003.122.003.162.003.04 0 .127 0 .162-.003v.031H.298c-.09 0-.093.011-.093.048V.64z"/></symbol><use xlink:href="#k" transform="matrix(10.9091 0 0 -10.9091 83.04 32.888)"/><use xlink:href="#f" transform="matrix(10.9091 0 0 -10.9091 27.843 46.638)"/><use xlink:href="#b" transform="matrix(10.9091 0 0 -10.9091 35.86 49.267)"/><use xlink:href="#f" transform="matrix(10.9091 0 0 -10.9091 74.49 46.638)"/><use xlink:href="#k" transform="matrix(10.9091 0 0 -10.9091 83.04 49.147)"/><use xlink:href="#d" transform="matrix(10.9091 0 0 -10.9091 129.622 50.052)"/><use xlink:href="#h" transform="matrix(10.9091 0 0 -10.9091 137.942 49.267)"/><path stroke-width=".398" stroke-miterlimit="10" fill="none" stroke="#000" d="M9.564 54.224h138.63"/><use xlink:href="#j" transform="matrix(10.9091 0 0 -10.9091 15.858 65.925)"/><use xlink:href="#f" transform="matrix(10.9091 0 0 -10.9091 25.42 63.296)"/><use xlink:href="#b" transform="matrix(10.9091 0 0 -10.9091 35.86 65.925)"/><symbol id="l"><path d="M.421.342c0 .08-.005.16-.04.234A.185.185 0 0 1 .037.569.535.535 0 0 1 0 .342C0 .267.004.177.045.101A.183.183 0 0 1 .21 0c.054 0 .13.021.174.116a.533.533 0 0 1 .037.226M.21.022C.171.022.112.047.094.143.083.203.083.295.083.354c0 .064 0 .13.008.184C.11.657.185.666.21.666.243.666.309.648.328.549c.01-.056.01-.132.01-.195 0-.075 0-.143-.011-.207C.312.052.255.022.21.022z"/></symbol><use xlink:href="#l" transform="matrix(10.9091 0 0 -10.9091 82.494 66.045)"/><use xlink:href="#h" transform="matrix(10.9091 0 0 -10.9091 137.942 65.925)"/><symbol id="m"><path d="M.232.01c0 .003 0 .005-.017.022C.09.158.058.347.058.5c0 .174.038.348.161.473.013.012.013.014.013.017 0 .007-.004.01-.01.01-.01 0-.1-.068-.159-.195A.727.727 0 0 1 0 .5C0 .422.011.301.066.188A.432.432 0 0 1 .222 0c.006 0 .01.003.01.01z"/></symbol><use xlink:href="#m" transform="matrix(10.9091 0 0 -10.9091 10.289 108.598)"/><use xlink:href="#j" transform="matrix(10.9091 0 0 -10.9091 13.767 105.991)"/><symbol id="n"><path d="M.232.5a.729.729 0 0 1-.066.312A.432.432 0 0 1 .01 1C.004 1 0 .996 0 .99 0 .987 0 .985.019.967.117.868.174.709.174.5.174.329.137.153.013.027 0 .015 0 .013 0 .01 0 .004.004 0 .01 0c.01 0 .1.068.159.195C.22.305.232.416.232.5z"/></symbol><symbol id="o"><path d="M.106.378a.053.053 0 0 1-.053.053A.053.053 0 0 1 0 .378C0 .349.024.325.053.325c.029 0 .053.024.053.053m0-.325a.053.053 0 0 1-.053.053A.053.053 0 0 1 0 .053C0 .024.024 0 .053 0c.029 0 .053.024.053.053z"/></symbol><use xlink:href="#d" transform="matrix(10.9091 0 0 -10.9091 23.034 106.776)"/><use xlink:href="#k" transform="matrix(10.9091 0 0 -10.9091 34.303 105.871)"/><use xlink:href="#n" transform="matrix(10.9091 0 0 -10.9091 39.408 108.598)"/><use xlink:href="#o" transform="matrix(10.9091 0 0 -10.9091 49.423 105.871)"/><use xlink:href="#m" transform="matrix(10.9091 0 0 -10.9091 58.052 108.598)"/><use xlink:href="#j" transform="matrix(10.9091 0 0 -10.9091 61.527 105.991)"/><use xlink:href="#f" transform="matrix(10.9091 0 0 -10.9091 71.088 103.362)"/><use xlink:href="#b" transform="matrix(10.9091 0 0 -10.9091 81.528 105.991)"/><use xlink:href="#d" transform="matrix(10.9091 0 0 -10.9091 89.894 106.776)"/><use xlink:href="#h" transform="matrix(10.9091 0 0 -10.9091 100.64 105.991)"/><symbol id="p"><path d="M.631.194c.015 0 .034 0 .034.02s-.019.02-.033.02H.033C.019.234 0 .234 0 .214s.019-.02.034-.02h.597M.632 0c.014 0 .033 0 .033.02S.646.04.631.04H.034C.019.04 0 .04 0 .02S.019 0 .033 0h.599z"/></symbol><symbol id="q"><path d="M.399.223c0 .119-.082.219-.19.219A.176.176 0 0 1 .082.391v.195A.317.317 0 0 1 .167.573C.29.573.36.664.36.677.36.683.357.688.35.688c-.001 0-.003 0-.008-.003A.33.33 0 0 0 .073.684L.061.687c-.01 0-.01-.008-.01-.024V.367c0-.018 0-.026.014-.026.007 0 .009.003.013.009.011.016.048.07.129.07C.259.42.284.374.292.356A.308.308 0 0 0 .31.23C.31.195.31.135.286.093A.125.125 0 0 0 .179.028.156.156 0 0 0 .032.14C.035.139.038.138.049.138c.033 0 .05.025.05.049a.048.048 0 0 1-.05.049C.035.236 0 .229 0 .183 0 .097.069 0 .181 0a.22.22 0 0 1 .218.223z"/></symbol><symbol id="r"><path d="M.266.165V.078C.266.042.264.031.19.031H.169V0C.21.003.262.003.304.003.346.003.399.003.44 0v.031H.419C.345.031.343.042.343.078v.087h.1v.031h-.1v.455c0 .02 0 .026-.016.026-.009 0-.012 0-.02-.012L0 .196V.165h.266m.006.031H.028l.244.373V.196z"/></symbol><use xlink:href="#n" transform="matrix(10.9091 0 0 -10.9091 105.535 108.598)"/><use xlink:href="#p" transform="matrix(10.9091 0 0 -10.9091 112.8 104.42)"/><use xlink:href="#q" transform="matrix(10.9091 0 0 -10.9091 124.255 106.111)"/><use xlink:href="#o" transform="matrix(10.9091 0 0 -10.9091 135.557 105.871)"/><use xlink:href="#r" transform="matrix(10.9091 0 0 -10.9091 143.4 105.871)"/><use xlink:href="#j" transform="matrix(10.9091 0 0 -10.9091 17.267 130.02)"/><use xlink:href="#d" transform="matrix(10.9091 0 0 -10.9091 26.534 130.805)"/><use xlink:href="#k" transform="matrix(10.9091 0 0 -10.9091 37.803 129.9)"/><use xlink:href="#p" transform="matrix(10.9091 0 0 -10.9091 45.93 128.45)"/><use xlink:href="#q" transform="matrix(10.9091 0 0 -10.9091 57.385 130.14)"/><symbol id="s"><path d="M.214.694c0 .001 0 .011-.013.011C.178.705.105.697.079.695.071.694.06.693.06.674.06.663.07.663.085.663.133.663.134.654.134.646L.131.626l-.126-.5C.002.115 0 .108 0 .092A.09.09 0 0 1 .091 0c.033 0 .058.02.075.056.018.038.03.096.03.098 0 .01-.009.01-.012.01C.174.164.173.16.17.146.153.081.134.022.094.022c-.03 0-.03.032-.03.046A.14.14 0 0 0 .07.116l.144.578z"/></symbol><symbol id="t"><path d="M.117.194C.117.26.092.299.053.299A.051.051 0 0 1 0 .246C0 .219.02.193.053.193c.012 0 .025.004.035.013l.005.003C.094.209.095.208.095.194A.242.242 0 0 0 .027.027C.016.016.016.014.016.011.016.004.021 0 .026 0c.011 0 .091.077.091.194z"/></symbol><use xlink:href="#s" transform="matrix(10.9091 0 0 -10.9091 62.767 130.02)"/><use xlink:href="#t" transform="matrix(10.9091 0 0 -10.9091 66.694 132.005)"/><use xlink:href="#j" transform="matrix(10.9091 0 0 -10.9091 73.949 130.02)"/><use xlink:href="#f" transform="matrix(10.9091 0 0 -10.9091 83.512 127.39)"/><use xlink:href="#b" transform="matrix(10.9091 0 0 -10.9091 93.952 130.02)"/><use xlink:href="#d" transform="matrix(10.9091 0 0 -10.9091 102.318 130.805)"/><use xlink:href="#h" transform="matrix(10.9091 0 0 -10.9091 113.063 130.02)"/><use xlink:href="#p" transform="matrix(10.9091 0 0 -10.9091 120.978 128.45)"/><use xlink:href="#r" transform="matrix(10.9091 0 0 -10.9091 132.192 129.9)"/><use xlink:href="#s" transform="matrix(10.9091 0 0 -10.9091 137.817 130.02)"/><use xlink:href="#q" transform="matrix(10.9091 0 0 -10.9091 35.256 154.17)"/><use xlink:href="#s" transform="matrix(10.9091 0 0 -10.9091 40.646 154.05)"/><use xlink:href="#f" transform="matrix(10.9091 0 0 -10.9091 46.964 151.421)"/><use xlink:href="#k" transform="matrix(10.9091 0 0 -10.9091 57.94 153.93)"/><use xlink:href="#f" transform="matrix(10.9091 0 0 -10.9091 65.752 151.421)"/><use xlink:href="#b" transform="matrix(10.9091 0 0 -10.9091 76.192 154.05)"/><use xlink:href="#d" transform="matrix(10.9091 0 0 -10.9091 84.558 154.836)"/><use xlink:href="#h" transform="matrix(10.9091 0 0 -10.9091 95.303 154.05)"/><use xlink:href="#p" transform="matrix(10.9091 0 0 -10.9091 103.218 152.48)"/><use xlink:href="#r" transform="matrix(10.9091 0 0 -10.9091 114.432 153.93)"/><use xlink:href="#s" transform="matrix(10.9091 0 0 -10.9091 120.057 154.05)"/><use xlink:href="#b" transform="matrix(10.9091 0 0 -10.9091 49.003 178.08)"/><use xlink:href="#f" transform="matrix(10.9091 0 0 -10.9091 57.663 175.451)"/><use xlink:href="#h" transform="matrix(10.9091 0 0 -10.9091 68.114 178.08)"/><use xlink:href="#p" transform="matrix(10.9091 0 0 -10.9091 76.029 176.51)"/><use xlink:href="#s" transform="matrix(10.9091 0 0 -10.9091 87.413 178.08)"/><use xlink:href="#f" transform="matrix(10.9091 0 0 -10.9091 93.733 175.451)"/><use xlink:href="#k" transform="matrix(10.9091 0 0 -10.9091 104.707 177.96)"/><use xlink:href="#b" transform="matrix(10.9091 0 0 -10.9091 -142.217 204.102)"/><symbol id="u"><path d="M.274.301v.161C.161.471.081.542.081.636c0 .096.087.171.205.176C.284.828.274.838.244.847l.01.019C.284.86.313.856.345.849.34.837.335.825.332.81c.11-.011.19-.083.19-.174C.522.546.446.477.34.463V.308C.458.321.569.34.668.362v.469c0 .044-.039.068-.122.088l.011.026C.622.937.693.923.744.913a.448.448 0 0 1-.01-.082V.513c.053.003.122.01.188.021L.913.472c-.051.002-.127 0-.179 0V.284C.734.203.727.064.717.005L.676 0a2.43 2.43 0 0 0-.008.213v.122a3.548 3.548 0 0 0-.484-.08A2.075 2.075 0 0 1 .038.24L0 .303A.743.743 0 0 1 .141.294l.133.007M.451.64a.144.144 0 0 1-.149.141C.217.781.152.718.152.64c0-.08.065-.139.15-.139.086 0 .149.059.149.139z"/></symbol><use xlink:href="#u" transform="matrix(10.9091 0 0 -10.9091 -135.352 205.902)"/><use xlink:href="#h" transform="matrix(10.9091 0 0 -10.9091 -121.265 204.102)"/><symbol id="v"><path d="M.705.474v-.19C.705.203.698.064.688.005L.647 0a2.43 2.43 0 0 0-.008.213v.618C.639.875.6.899.517.919l.011.026C.593.937.664.923.715.913a.448.448 0 0 1-.01-.082V.515C.758.517.831.525.9.536L.891.474c-.054.002-.134 0-.186 0M.459.778.482.757a.981.981 0 0 0-.46-.536L0 .242a.895.895 0 0 1 .387.481L.205.718A1.43 1.43 0 0 1 .067.704L.029.765a1.476 1.476 0 0 1 .43.013z"/></symbol><use xlink:href="#v" transform="matrix(10.9091 0 0 -10.9091 -115.337 205.902)"/><symbol id="w"><path d="M.677.613A1.339 1.339 0 0 1 .481.594L.455.651A.626.626 0 0 1 .568.644l.109.002v.176C.677.866.638.89.555.91l.011.026C.631.928.702.914.753.904a.448.448 0 0 1-.01-.082V.51C.743.463.734.381.727.348L.684.342a.986.986 0 0 0-.007.115v.156M.565.326C.668.317.743.25.743.164.743.07.654 0 .538 0 .421 0 .334.07.334.164c0 .088.079.157.186.163C.517.342.507.351.478.36l.01.019.09-.017C.573.351.568.34.565.326M.672.169a.13.13 0 0 1-.135.128.13.13 0 0 1-.135-.128c0-.072.059-.127.135-.127.077 0 .135.055.135.127M.344.601C.405.552.471.509.558.46L.502.41C.438.467.387.521.321.578A.943.943 0 0 0 .02.369L0 .39a.814.814 0 0 1 .383.388L.228.772A1.782 1.782 0 0 1 .09.759L.052.818a1.219 1.219 0 0 1 .404.013L.479.809A.722.722 0 0 0 .344.601z"/></symbol><use xlink:href="#w" transform="matrix(10.9091 0 0 -10.9091 -101.108 205.804)"/><symbol id="x"><path d="M.462.777C.564.72.693.671.828.629L.77.572C.674.628.546.692.439.753A1.01 1.01 0 0 0 .081.537L.062.559c.157.06.302.173.367.283.01.016.011.024-.005.035C.412.885.4.893.367.91l.017.023C.437.919.489.9.54.88A.527.527 0 0 0 .462.777m.04-.374V.221C.502.152.496.062.486.007L.443 0a1.84 1.84 0 0 0-.007.188v.214a8.78 8.78 0 0 1-.262-.01A2.358 2.358 0 0 1 .025.379L0 .447C.06.44.113.437.173.435.271.431.563.44.659.444.748.448.83.455.901.465L.891.401a5.644 5.644 0 0 1-.389.002z"/></symbol><use xlink:href="#x" transform="matrix(10.9091 0 0 -10.9091 -91.158 205.87)"/><symbol id="y"><path d="M.257.735C.372.724.456.644.456.542.456.43.357.347.227.347S0 .43 0 .542c0 .107.091.19.213.195C.212.755.203.765.171.775l.01.019.09-.017C.266.764.26.751.257.735m.13-.19a.155.155 0 0 1-.158.156.155.155 0 1 1 0-.31c.091 0 .158.066.158.154m.142.374L.54.945C.605.937.676.923.727.913a.448.448 0 0 1-.01-.082V.284C.717.203.71.064.7.005L.659 0a2.43 2.43 0 0 0-.008.213v.618c0 .044-.039.068-.122.088z"/></symbol><use xlink:href="#y" transform="matrix(10.9091 0 0 -10.9091 -80.108 205.902)"/><symbol id="z"><path d="M.675.346.717.35.704.296A5.466 5.466 0 0 1 .26.297a.168.168 0 0 0-.005-.04L.217.251a.597.597 0 0 0-.015.094L.185.583C.181.633.174.64.118.656l.011.025C.297.661.53.669.708.684A6.915 6.915 0 0 1 .675.346M.623.342l.008.292C.548.638.325.634.252.629l.01-.266v-.03c.1 0 .252.003.361.009M.881.087.871.023C.819.026.739.026.651.027.541.028.254.017.174.012.124.009.073.006.025 0L0 .068C.06.061.113.058.173.056c.098-.004.37.005.466.009.089.004.171.012.242.022z"/></symbol><use xlink:href="#z" transform="matrix(10.9091 0 0 -10.9091 -70.29 204.31)"/><symbol id="A"><path d="m.496.06.143.005C.728.069.81.077.881.087L.871.023C.819.026.739.026.651.027.541.028.254.017.174.012.124.009.073.006.025 0L0 .068C.06.061.113.058.173.056c.053-.002.159 0 .258.002v.178A5.035 5.035 0 0 1 .224.23C.19.228.176.249.176.279v.115c0 .051-.009.06-.07.079l.01.022C.255.48.473.485.618.494l.01.171A4.767 4.767 0 0 1 .291.659C.263.657.202.654.153.645L.119.706a.804.804 0 0 1 .13-.013 6.32 6.32 0 0 1 .463.012.548.548 0 0 1-.014-.064L.677.498l.038.003L.71.454A6.502 6.502 0 0 1 .245.449L.243.411V.3c0-.022.009-.028.041-.029.097-.003.347.007.459.025L.729.235a4.332 4.332 0 0 1-.233.002V.06z"/></symbol><use xlink:href="#A" transform="matrix(10.9091 0 0 -10.9091 -59.927 204.44)"/><symbol id="B"><path d="M.117.194c0 .064-.024.105-.064.105C.018.299 0 .272 0 .246S.017.193.053.193c.016 0 .028.006.038.014l.002.002C.094.209.095.208.095.194A.255.255 0 0 0 .023.022C.017.016.016.015.016.011.016.004.021 0 .026 0c.012 0 .091.079.091.194z"/></symbol><use xlink:href="#B" transform="matrix(10.9091 0 0 -10.9091 -49.06 206.088)"/><use xlink:href="#s" transform="matrix(10.9091 0 0 -10.9091 -42.852 204.102)"/><symbol id="C"><path d="M.497.306V.06l.142.005C.728.069.81.077.881.087L.871.023C.819.026.739.026.651.027.541.028.254.017.174.012.124.009.073.006.025 0L0 .068C.06.061.113.058.173.056c.054-.002.159 0 .259.002v.247a4.97 4.97 0 0 1-.21-.007C.186.296.167.321.167.354v.222c0 .057-.012.07-.085.09L.093.69C.255.662.615.679.733.697L.721.637C.558.646.351.641.233.634v-.26c0-.028.01-.035.048-.036.1-.002.333.009.457.026L.726.303C.656.306.576.307.497.306z"/></symbol><use xlink:href="#C" transform="matrix(10.9091 0 0 -10.9091 -38.252 204.353)"/><use xlink:href="#w" transform="matrix(10.9091 0 0 -10.9091 -23.979 205.804)"/><use xlink:href="#x" transform="matrix(10.9091 0 0 -10.9091 -14.03 205.87)"/><use xlink:href="#y" transform="matrix(10.9091 0 0 -10.9091 -2.98 205.902)"/><symbol id="D"><path d="M.622.442v.389C.622.875.583.899.5.919l.011.026C.576.937.647.923.698.913a.448.448 0 0 1-.01-.082V.549C.741.551.816.557.886.57L.877.508c-.055.002-.138 0-.189 0V.284C.688.203.681.064.671.005L.63 0a2.43 2.43 0 0 0-.008.213v.198A2.315 2.315 0 0 0 .167.287C.109.279.086.3.086.36v.285c0 .052-.013.07-.086.09L.011.76C.153.738.337.75.471.772L.459.714A2.585 2.585 0 0 1 .152.707V.38C.152.354.168.346.19.347c.106.007.314.052.432.095z"/></symbol><use xlink:href="#D" transform="matrix(10.9091 0 0 -10.9091 6.98 205.902)"/><symbol id="E"><path d="M.106.053a.053.053 0 0 1-.053.053A.053.053 0 0 1 0 .053C0 .024.024 0 .053 0c.029 0 .053.024.053.053z"/></symbol><use xlink:href="#E" transform="matrix(10.9091 0 0 -10.9091 17.704 203.982)"/><symbol id="F"><path d="m.499.06.14.005C.728.069.81.077.881.087L.871.023C.819.026.739.026.651.027.541.028.254.017.174.012.124.009.073.006.025 0L0 .068C.06.061.113.058.173.056c.054-.002.161 0 .261.002v.136c0 .044-.02.056-.087.065l.01.025C.401.285.458.281.509.274a.396.396 0 0 1-.01-.077V.06M.51.306C.461.302.437.307.43.34A1.677 1.677 0 0 0 .224.288C.167.277.146.299.146.359v.212c0 .052-.013.07-.086.09l.011.025a.93.93 0 0 1 .34.006.908.908 0 0 1 .331.011L.731.645C.674.644.56.646.491.643V.387C.491.361.507.349.53.349.596.35.687.356.765.376L.753.315C.675.311.581.312.51.306m-.083.07V.58c0 .026-.003.06-.029.059-.054 0-.144 0-.188-.005V.375C.21.349.226.338.249.34c.049.005.13.019.178.036z"/></symbol><use xlink:href="#F" transform="matrix(10.9091 0 0 -10.9091 -142.217 222.605)"/><use xlink:href="#j" transform="matrix(10.9091 0 0 -10.9091 -128.337 222.354)"/><symbol id="G"><path d="M.591.461c.014.006.02.013.02.022 0 .01-.004.016-.02.023L.04.766C.026.773.022.773.02.773A.02.02 0 0 1 0 .753C0 .741.008.736.019.731L.544.484.021.237C.001.228 0 .22 0 .214a.02.02 0 0 1 .02-.02c.003 0 .005 0 .018.007l.553.26M.576 0c.017 0 .035 0 .035.02S.59.04.575.04H.036C.021.04 0 .04 0 .02S.018 0 .035 0h.541z"/></symbol><use xlink:href="#G" transform="matrix(10.9091 0 0 -10.9091 -118.17 223.729)"/><use xlink:href="#l" transform="matrix(10.9091 0 0 -10.9091 -107.134 222.474)"/><use xlink:href="#y" transform="matrix(10.9091 0 0 -10.9091 -99.95 224.154)"/><use xlink:href="#z" transform="matrix(10.9091 0 0 -10.9091 -90.13 222.561)"/><use xlink:href="#A" transform="matrix(10.9091 0 0 -10.9091 -79.768 222.692)"/><use xlink:href="#B" transform="matrix(10.9091 0 0 -10.9091 -68.902 224.34)"/><use xlink:href="#q" transform="matrix(10.9091 0 0 -10.9091 -62.629 222.474)"/><use xlink:href="#s" transform="matrix(10.9091 0 0 -10.9091 -57.239 222.354)"/><use xlink:href="#G" transform="matrix(10.9091 0 0 -10.9091 -50.313 223.729)"/><use xlink:href="#k" transform="matrix(10.9091 0 0 -10.9091 -38.733 222.234)"/><symbol id="H"><path d="M.647.414v.417c0 .044-.039.068-.122.088l.011.026C.601.937.672.923.723.913a.448.448 0 0 1-.01-.082V.555c.054.002.131.01.198.021L.902.514c-.052.002-.136 0-.189 0v-.23C.713.203.706.064.696.005L.655 0a2.43 2.43 0 0 0-.008.213v.171A1.128 1.128 0 0 0 .411.308C.365.299.343.312.336.352A.723.723 0 0 0 .164.296C.107.285.086.307.086.367v.28c0 .052-.013.07-.086.09l.011.025a.832.832 0 0 1 .306.005.643.643 0 0 1 .258.014L.565.726C.508.725.446.725.397.722V.394C.397.368.414.357.436.36c.053.007.149.031.211.054M.333.383v.276c0 .026-.003.06-.029.059C.25.718.194.715.15.71V.382C.15.356.167.345.189.348a.644.644 0 0 1 .144.035z"/></symbol><use xlink:href="#H" transform="matrix(10.9091 0 0 -10.9091 -142.282 242.405)"/><symbol id="I"><path d="m.358.561.009.193A1.601 1.601 0 0 1 .183.748C.155.746.094.743.045.734l-.034.06a.812.812 0 0 1 .13-.012c.072 0 .2.001.308.012A.937.937 0 0 1 .435.73L.413.565a.495.495 0 0 0 .036.004L.444.522C.297.529.204.52.137.517L.135.479V.346C.135.323.151.308.176.31c.105.008.292.04.44.086v.435c0 .044-.039.068-.122.088l.011.026C.57.937.641.923.692.913a.448.448 0 0 1-.01-.082V.56C.736.561.81.568.881.581L.872.519c-.055.002-.139 0-.19 0V.284C.682.203.675.064.665.005L.624 0a2.43 2.43 0 0 0-.008.213v.156a2.2 2.2 0 0 0-.46-.111C.092.252.07.273.07.334v.128c0 .051-.009.06-.07.079l.01.022C.144.548.256.553.358.561z"/></symbol><use xlink:href="#I" transform="matrix(10.9091 0 0 -10.9091 -131.525 242.405)"/><symbol id="J"><path d="M.306.576C.376.504.457.427.553.357L.496.302C.426.383.362.462.287.547A1.008 1.008 0 0 0 .019.278L0 .298a.847.847 0 0 1 .302.443c.005.018.01.025-.006.036a.483.483 0 0 1-.06.034l.016.021C.305.818.353.806.404.786a.956.956 0 0 0-.098-.21M.69.568A1.813 1.813 0 0 1 .46.549L.434.606A.626.626 0 0 1 .547.599C.584.6.648.6.69.602v.229C.69.875.651.899.568.919l.011.026C.644.937.715.923.766.913a.448.448 0 0 1-.01-.082V.284C.756.203.749.064.739.005L.698 0A2.43 2.43 0 0 0 .69.213v.355z"/></symbol><use xlink:href="#J" transform="matrix(10.9091 0 0 -10.9091 -121.413 242.405)"/><use xlink:href="#s" transform="matrix(10.9091 0 0 -10.9091 -107.446 240.605)"/><symbol id="K"><path d="M.495.838C.612.829.696.758.696.67.696.571.597.499.465.499.335.499.238.571.238.67c0 .092.089.164.21.17C.445.854.434.864.405.874l.009.018.095-.016L.495.838m.13-.164c0 .073-.069.137-.156.137C.38.811.311.747.311.674.311.596.38.54.469.54c.088 0 .156.056.156.134m.29-.256L.905.354a5.644 5.644 0 0 1-.22.005A12.75 12.75 0 0 1 .174.345 2.358 2.358 0 0 1 .025.332L0 .4C.06.393.113.39.173.388c.098-.004.404.005.5.009.089.004.171.011.242.021M.795.065.784.005A5.143 5.143 0 0 1 .282.002C.246 0 .231.02.231.046v.098c0 .061-.008.07-.085.09l.011.025C.196.254.262.247.302.241A.677.677 0 0 1 .297.169V.077c0-.028.01-.034.048-.035.1-.002.336.006.45.023z"/></symbol><symbol id="L"><path d="M.343.504C.411.443.478.39.577.33L.52.279C.45.353.395.404.321.478A.985.985 0 0 0 .02.241L0 .262c.186.11.346.293.4.473L.219.729A1.43 1.43 0 0 1 .081.715L.043.776a1.466 1.466 0 0 1 .429.013L.495.768A.814.814 0 0 0 .343.504M.714.495V.284C.714.203.707.064.697.005L.656 0a2.43 2.43 0 0 0-.008.213v.618c0 .044-.039.068-.122.088l.011.026C.602.937.673.923.724.913a.448.448 0 0 1-.01-.082V.536c.054.002.129.009.199.021L.904.495c-.054.002-.138 0-.19 0z"/></symbol><use xlink:href="#K" transform="matrix(10.9091 0 0 -10.9091 -103.064 242.023)"/><use xlink:href="#L" transform="matrix(10.9091 0 0 -10.9091 -88.97 242.405)"/><symbol id="M"><path d="M.247.753C.356.742.434.669.434.576a.15.15 0 0 0-.023-.08A.709.709 0 0 1 .519.49l.106.003v.195A1.14 1.14 0 0 1 .432.667L.406.724A.626.626 0 0 1 .519.717L.625.72v.076C.625.84.586.864.503.884L.514.91C.579.902.65.888.701.878a.448.448 0 0 1-.01-.082V.391C.691.332.684.251.675.207L.632.2a1.8 1.8 0 0 0-.007.158v.103A1.14 1.14 0 0 1 .432.44L.408.492C.374.435.302.398.216.398.092.398 0 .474 0 .576 0 .674.086.75.202.755.2.771.19.781.16.79l.01.019.09-.017A.198.198 0 0 1 .247.753M.364.581a.144.144 0 0 1-.147.143A.144.144 0 0 1 .07.581C.07.499.134.44.217.44c.084 0 .147.059.147.141M.757.07.746.01A5.667 5.667 0 0 1 .297.002C.261 0 .246.02.246.046v.12c0 .061-.008.07-.085.09l.011.025C.211.276.277.269.317.263A.677.677 0 0 1 .312.191V.077c0-.028.01-.034.048-.035C.46.04.643.053.757.07z"/></symbol><use xlink:href="#M" transform="matrix(10.9091 0 0 -10.9091 -77.707 242.023)"/><use xlink:href="#x" transform="matrix(10.9091 0 0 -10.9091 -68.26 242.372)"/><use xlink:href="#y" transform="matrix(10.9091 0 0 -10.9091 -57.21 242.405)"/><use xlink:href="#D" transform="matrix(10.9091 0 0 -10.9091 -47.249 242.405)"/><use xlink:href="#E" transform="matrix(10.9091 0 0 -10.9091 -36.526 240.485)"/><use xlink:href="#h" transform="matrix(10.9091 0 0 -10.9091 -142.206 258.857)"/><use xlink:href="#p" transform="matrix(10.9091 0 0 -10.9091 -134.291 257.286)"/><use xlink:href="#b" transform="matrix(10.9091 0 0 -10.9091 -122.95 258.857)"/><use xlink:href="#f" transform="matrix(10.9091 0 0 -10.9091 -114.29 256.228)"/><use xlink:href="#s" transform="matrix(10.9091 0 0 -10.9091 -103.807 258.857)"/><use xlink:href="#d" transform="matrix(10.9091 0 0 -10.9091 -97.782 259.643)"/><use xlink:href="#k" transform="matrix(10.9091 0 0 -10.9091 -86.513 258.737)"/><use xlink:href="#y" transform="matrix(10.9091 0 0 -10.9091 -79.873 260.657)"/><use xlink:href="#z" transform="matrix(10.9091 0 0 -10.9091 -70.056 259.064)"/><use xlink:href="#A" transform="matrix(10.9091 0 0 -10.9091 -59.692 259.195)"/><use xlink:href="#B" transform="matrix(10.9091 0 0 -10.9091 -48.826 260.843)"/><symbol id="N"><path d="M.409.4C.326.403.227.398.132.394A.568.568 0 0 0 .126.36L.086.354A.641.641 0 0 0 .079.45v.235C.079.73.065.746 0 .761l.01.024a1.15 1.15 0 0 0 .142-.02.396.396 0 0 1-.01-.077V.642c.085.001.166.004.264.014v.067C.406.767.387.783.317.8l.01.025C.381.819.429.813.48.803A.396.396 0 0 1 .47.726v-.22A.694.694 0 0 0 .454.371L.413.365A.31.31 0 0 0 .409.4M.406.442v.169A2.146 2.146 0 0 1 .142.605V.493A.458.458 0 0 0 .137.43c.087.001.182.005.269.012M.775.07.764.01A5.667 5.667 0 0 1 .315.002C.279 0 .264.02.264.046v.12c0 .061-.008.07-.085.09L.19.281C.229.276.295.269.335.263A.677.677 0 0 1 .33.191V.077C.33.049.34.043.378.042.478.04.661.053.775.07m-.07.485V.391C.705.332.698.251.689.207L.646.2a1.8 1.8 0 0 0-.007.158v.438C.639.84.6.864.517.884L.528.91C.593.902.664.888.715.878a.448.448 0 0 1-.01-.082V.594c.053.002.123.01.191.021L.887.555c-.053.002-.13 0-.182 0z"/></symbol><use xlink:href="#N" transform="matrix(10.9091 0 0 -10.9091 -42.65 260.275)"/><symbol id="O"><path d="M.495.881C.607.87.688.801.688.715.688.618.59.547.461.547.334.547.238.618.238.715c0 .092.09.164.21.168C.445.897.434.907.405.916l.009.018.095-.016L.495.881M.618.719c0 .073-.067.135-.153.135C.377.854.31.792.31.719.31.642.377.587.465.587c.087 0 .153.055.153.132M.915.498.905.434a5.644 5.644 0 0 1-.22.005A12.75 12.75 0 0 1 .174.425 2.358 2.358 0 0 1 .025.412L0 .48C.06.473.113.47.173.468c.098-.004.404.005.5.009.089.004.171.011.242.021M.501.329C.608.32.685.252.685.166.685.071.593 0 .472 0S.261.071.261.166c0 .089.082.159.193.164C.452.347.441.357.41.366l.011.018.093-.017A.212.212 0 0 1 .501.329M.616.171c0 .073-.062.131-.144.131C.391.302.33.244.33.171.33.097.391.04.472.04c.083 0 .144.057.144.131z"/></symbol><use xlink:href="#O" transform="matrix(10.9091 0 0 -10.9091 -32.516 260.559)"/><symbol id="P"><path d="M.41.353C.327.356.227.351.133.347L.126.309.086.303a.641.641 0 0 0-.007.096V.68C.079.725.065.741 0 .756L.01.78A1.15 1.15 0 0 0 .152.76a.396.396 0 0 1-.01-.077V.617c.085.001.167.004.266.014v.091c0 .044-.019.06-.089.077l.01.025C.383.818.431.812.482.802a.396.396 0 0 1-.01-.077v-.27A.694.694 0 0 0 .456.32L.415.314.41.353M.408.395v.191A2.174 2.174 0 0 1 .142.58V.442A.399.399 0 0 0 .138.383c.087.001.182.005.27.012M.54.919l.011.026C.616.937.687.923.738.913a.448.448 0 0 1-.01-.082V.284C.728.203.721.064.711.005L.67 0a2.43 2.43 0 0 0-.008.213v.618C.662.875.623.899.54.919z"/></symbol><use xlink:href="#P" transform="matrix(10.9091 0 0 -10.9091 -21.497 260.657)"/><symbol id="Q"><path d="M.766.607.755.545A6.473 6.473 0 0 1 .257.537C.222.535.206.565.206.601v.142c0 .06-.019.073-.095.089l.011.026C.161.853.236.847.277.84A.677.677 0 0 1 .272.768V.622C.272.593.281.578.32.577c.1-.002.322.013.446.03m.149-.18L.905.363a5.644 5.644 0 0 1-.22.005A12.75 12.75 0 0 1 .174.354 2.358 2.358 0 0 1 .025.341L0 .409C.06.402.113.399.173.397c.098-.004.404.005.5.009.089.004.171.011.242.021M.794.065.783.005A5.185 5.185 0 0 1 .279.002C.243 0 .228.02.228.046v.108c0 .061-.008.07-.085.09l.011.025C.193.264.259.257.299.251A.677.677 0 0 1 .294.179V.077c0-.028.01-.034.048-.035.1-.002.338.006.452.023z"/></symbol><use xlink:href="#Q" transform="matrix(10.9091 0 0 -10.9091 -11.789 260.243)"/><use xlink:href="#b" transform="matrix(10.9091 0 0 -10.9091 2.43 258.857)"/><use xlink:href="#o" transform="matrix(10.9091 0 0 -10.9091 11.728 258.737)"/><use xlink:href="#k" transform="matrix(10.9091 0 0 -10.9091 17.826 258.737)"/><use xlink:href="#o" transform="matrix(10.9091 0 0 -10.9091 26.281 258.737)"/><use xlink:href="#m" transform="matrix(10.9091 0 0 -10.9091 32.477 261.464)"/><use xlink:href="#b" transform="matrix(10.9091 0 0 -10.9091 36.074 258.857)"/><use xlink:href="#f" transform="matrix(10.9091 0 0 -10.9091 44.735 256.228)"/><use xlink:href="#s" transform="matrix(10.9091 0 0 -10.9091 55.218 258.857)"/><use xlink:href="#d" transform="matrix(10.9091 0 0 -10.9091 61.243 259.643)"/><use xlink:href="#k" transform="matrix(10.9091 0 0 -10.9091 72.512 258.737)"/><use xlink:href="#n" transform="matrix(10.9091 0 0 -10.9091 77.618 261.464)"/><use xlink:href="#y" transform="matrix(10.9091 0 0 -10.9091 83.394 260.657)"/><use xlink:href="#D" transform="matrix(10.9091 0 0 -10.9091 93.354 260.657)"/><use xlink:href="#E" transform="matrix(10.9091 0 0 -10.9091 104.077 258.737)"/><symbol id="R"><path d="M.172.442a.131.131 0 0 0-.108.126c0 .068.057.131.142.131.138 0 .191-.101.205-.203C.413.483.413.478.424.478c.013 0 .013.005.013.024v.201c0 .017 0 .024-.011.024C.419.727.419.726.411.714L.374.655a.217.217 0 0 1-.169.072A.199.199 0 0 1 0 .533C0 .469.034.424.047.409.094.36.124.353.207.333L.256.322C.315.308.335.303.366.269.372.262.402.228.402.174A.141.141 0 0 0 .258.031a.268.268 0 0 0-.164.051C.029.133.026.206.025.24.024.247.018.249.013.249 0 .249 0 .242 0 .224v-.2C0 .007 0 0 .011 0 .018 0 .02.003.026.012l.037.06A.272.272 0 0 1 .259 0c.125 0 .207.101.207.207 0 .08-.048.175-.158.202L.172.442z"/></symbol><symbol id="S"><path d="M.505.508H.014L0 .339h.025c.009.126.029.144.14.144.056 0 .059 0 .059-.043V.076C.224.036.22.025.143.025H.122V0C.161.003.22.003.26.003.3.003.359.003.398 0v.025H.377C.3.025.296.036.296.076V.44c0 .043.003.043.059.043.108 0 .13-.017.139-.144h.025L.505.508z"/></symbol><symbol id="T"><path d="M.445.511H0V.486C.067.486.072.48.072.439V.072C.072.031.067.025 0 .025V0h.457l.029.194H.461C.444.073.42.025.292.025H.184c-.035 0-.04.003-.04.043v.185h.07C.288.253.3.233.3.166h.025v.199H.3C.3.298.288.278.214.278h-.07v.165c0 .04.005.043.04.043h.102C.402.486.428.451.439.342h.025L.445.511z"/></symbol><symbol id="U"><path d="M.278.234c.1 0 .184.063.184.139 0 .072-.076.141-.191.141H0V.489C.067.489.072.483.072.442v-.37C.072.031.067.025 0 .025V0l.108.003L.216 0v.025C.149.025.144.031.144.072v.162h.134M.141.446c0 .04.005.043.04.043H.25C.376.489.376.413.376.373c0-.039 0-.116-.126-.116H.141v.189z"/></symbol><symbol id="V"><path d="M.263.375C.371.412.407.491.407.55c0 .081-.091.138-.192.138C.112.688.029.632.029.552.029.519.051.5.08.5.111.5.131.522.131.551c0 .05-.047.05-.061.05.028.045.095.062.141.062C.26.663.315.636.315.551c0-.01 0-.077-.042-.128C.243.388.218.386.155.382.137.381.131.381.131.37S.138.359.155.359h.05C.287.359.333.297.333.193.333.063.263.028.21.028.182.028.088.036.047.104c.037-.005.065.02.065.055a.054.054 0 0 1-.056.056C.032.215 0 .201 0 .157 0 .064.099 0 .213 0c.131 0 .223.093.223.193 0 .081-.065.16-.173.181v.001z"/></symbol><use xlink:href="#R" transform="matrix(10.9091 0 0 -10.9091 -152.776 289.184)"/><use xlink:href="#S" transform="matrix(10.9091 0 0 -10.9091 -146.504 288.944)"/><use xlink:href="#T" transform="matrix(10.9091 0 0 -10.9091 -139.98 288.944)"/><use xlink:href="#U" transform="matrix(10.9091 0 0 -10.9091 -133.871 288.944)"/><use xlink:href="#V" transform="matrix(10.9091 0 0 -10.9091 -123.518 289.184)"/><use xlink:href="#E" transform="matrix(10.9091 0 0 -10.9091 -117.188 288.944)"/><symbol id="W"><path d="M.328.659C.395.601.458.553.558.496L.502.446C.431.517.382.564.308.633a.95.95 0 0 0-.291-.23L0 .423c.144.09.27.217.314.351C.32.792.324.798.308.81.296.818.278.83.248.844l.016.02C.317.85.365.838.416.818A.63.63 0 0 0 .328.659m.237.237.011.026C.641.914.712.9.763.89a.448.448 0 0 1-.01-.082V.577C.753.53.744.448.737.415L.694.409a.986.986 0 0 0-.007.115v.284c0 .044-.039.068-.122.088M.671.218l.003.116A2.758 2.758 0 0 1 .418.328C.39.326.329.323.28.314l-.034.06a.812.812 0 0 1 .13-.012c.101-.001.25.001.378.012A.585.585 0 0 1 .741.31L.726.222l.027.003L.748.178C.598.185.434.176.367.173A.572.572 0 0 1 .365.135V.072c0-.024.008-.028.041-.029C.503.04.686.05.798.068L.784.007A5.151 5.151 0 0 1 .348.002C.314 0 .3.021.3.051v.067C.3.169.291.178.23.197l.01.022C.381.204.546.209.671.218z"/></symbol><use xlink:href="#W" transform="matrix(10.9091 0 0 -10.9091 -109.712 290.613)"/><symbol id="X"><path d="M.483.513C.479.432.395.368.29.368.183.368.096.438.096.52c0 .09.087.153.194.153.093 0 .164-.048.185-.111A.666.666 0 0 1 .552.56l.115.002v.26C.667.866.628.89.545.91l.011.026C.621.928.692.914.743.904a.448.448 0 0 1-.01-.082V.535C.733.488.724.406.717.373L.674.367a.986.986 0 0 0-.007.115v.047A1.662 1.662 0 0 1 .483.513M.167.525A.12.12 0 0 1 .29.406c.07 0 .123.052.123.119A.12.12 0 0 1 .29.643C.22.643.167.594.167.525m.256.352L.411.83C.366.831.31.828.275.828A.839.839 0 0 1 .176.821L.147.879A.553.553 0 0 1 .262.864c.032 0 .1.005.161.013M.567.779.557.723C.467.724.245.718.161.714A1.931 1.931 0 0 1 .03.702L0 .763A.827.827 0 0 1 .131.752c.09.001.317.006.436.027M.711.095a.539.539 0 0 0 .035.004L.733.045a4.153 4.153 0 0 1-.387.001.24.24 0 0 0-.006-.04L.302 0C.296.024.293.061.29.094L.278.23C.274.28.267.287.211.303l.011.025C.39.308.559.316.737.331A3.47 3.47 0 0 1 .711.095M.657.091l.003.19C.577.285.418.281.345.276L.349.112v-.03c.098 0 .216.003.308.009z"/></symbol><use xlink:href="#X" transform="matrix(10.9091 0 0 -10.9091 -99.175 290.766)"/><symbol id="Y"><path d="M.197.605c0 .036.003.047.082.047h.026v.031C.27.68.191.68.153.68.114.68.035.68 0 .683V.652h.026C.105.652.108.641.108.605V.078C.108.042.105.031.026.031H0V0c.035.003.114.003.152.003C.191.003.27.003.305 0v.031H.279C.2.031.197.042.197.078v.527z"/></symbol><use xlink:href="#Y" transform="matrix(10.9091 0 0 -10.9091 -85.578 288.944)"/><use xlink:href="#Y" transform="matrix(10.9091 0 0 -10.9091 -81.335 288.944)"/><use xlink:href="#Y" transform="matrix(10.9091 0 0 -10.9091 -77.091 288.944)"/><symbol id="Z"><path d="M.236.714C.325.704.394.647.408.571a1.706 1.706 0 0 1 .117.002v.216c0 .043-.022.066-.099.086l.011.026C.501.893.547.885.598.872a.46.46 0 0 1-.01-.083v-.47A2.38 2.38 0 0 0 .57.04L.532.035C.528.085.525.173.525.248v.291A.637.637 0 0 1 .41.523C.402.429.316.361.206.361.088.361 0 .437 0 .539c0 .097.082.172.192.177C.191.734.182.744.151.754l.01.019.088-.017A.23.23 0 0 1 .236.714M.349.542c0 .08-.06.142-.142.142A.14.14 0 0 1 .065.542c0-.08.061-.14.142-.14.082 0 .142.06.142.14m.237.377.011.026C.661.936.719.924.77.913A.448.448 0 0 1 .76.831V.284A2.39 2.39 0 0 0 .743.005L.703 0C.699.05.695.138.695.213v.618c0 .043-.027.067-.109.088z"/></symbol><use xlink:href="#Z" transform="matrix(10.9091 0 0 -10.9091 -72.597 290.864)"/><use xlink:href="#J" transform="matrix(10.9091 0 0 -10.9091 -62.583 290.864)"/><use xlink:href="#B" transform="matrix(10.9091 0 0 -10.9091 -51.794 291.05)"/><symbol id="aa"><path d="m.49.059.149.006C.728.069.81.077.881.087L.871.023C.819.026.739.026.651.027.541.028.254.017.174.012.124.009.073.006.025 0L0 .068C.06.061.113.058.173.056.225.054.327.055.425.058v.244C.36.302.298.301.254.299a.168.168 0 0 0-.005-.04L.211.253a.597.597 0 0 0-.015.094L.179.59C.175.64.168.647.112.663l.011.025C.291.668.534.676.712.691A7.008 7.008 0 0 1 .679.348l.042.004L.708.298A4.167 4.167 0 0 1 .49.303V.059m.137.285.008.297C.552.645.319.641.246.636l.01-.271v-.03c.101 0 .258.003.371.009z"/></symbol><use xlink:href="#aa" transform="matrix(10.9091 0 0 -10.9091 -45.63 289.315)"/><symbol id="ab"><path d="M.502.388V.221C.502.152.496.062.486.007L.443 0a1.84 1.84 0 0 0-.007.188v.199a8.78 8.78 0 0 1-.262-.01A2.358 2.358 0 0 1 .025.364L0 .432C.06.425.113.422.173.42c.098-.004.39.005.486.009C.748.433.83.44.901.45L.891.386a5.644 5.644 0 0 1-.389.002M.104.851l.011.024C.277.847.618.864.736.882L.724.822A4.482 4.482 0 0 1 .255.819v-.19c0-.028.01-.035.048-.036.1-.002.314.009.438.026L.729.558A5.398 5.398 0 0 1 .244.553C.208.551.189.576.189.609v.152c0 .057-.012.07-.085.09z"/></symbol><use xlink:href="#ab" transform="matrix(10.9091 0 0 -10.9091 -35.407 290.831)"/><use xlink:href="#N" transform="matrix(10.9091 0 0 -10.9091 -21.255 290.482)"/><use xlink:href="#O" transform="matrix(10.9091 0 0 -10.9091 -11.12 290.766)"/><symbol id="ac"><path d="M.716.499V.391C.716.332.709.251.7.207L.657.2A1.8 1.8 0 0 0 .65.358v.438C.65.84.611.864.528.884L.539.91C.604.902.675.888.726.878a.448.448 0 0 1-.01-.082V.538C.769.54.841.548.91.559L.901.499c-.054.002-.133 0-.185 0M.789.07.778.01A5.667 5.667 0 0 1 .329.002C.293 0 .278.02.278.046v.1c0 .061-.008.07-.085.09l.011.025C.243.256.309.249.349.243A.677.677 0 0 1 .344.171V.077c0-.028.01-.034.048-.035.1-.002.283.011.397.028M.485.466C.485.381.399.313.29.313c-.107 0-.194.07-.194.153C.096.557.183.62.29.62.405.62.485.548.485.466M.168.47C.168.405.22.349.291.349A.12.12 0 0 1 .414.47a.12.12 0 0 1-.123.119C.221.589.168.539.168.47m.399.267L.557.681C.467.682.245.676.161.672A1.931 1.931 0 0 1 .03.66L0 .721A.827.827 0 0 1 .131.71c.09.001.317.006.436.027M.423.84.411.793C.366.794.31.791.275.791A.839.839 0 0 1 .176.784L.147.842A.553.553 0 0 1 .262.827c.032 0 .1.005.161.013z"/></symbol><use xlink:href="#ac" transform="matrix(10.9091 0 0 -10.9091 -.582 290.482)"/><symbol id="ad"><path d="m.693.647.038.004L.718.597a5.248 5.248 0 0 1-.435.001L.277.568.239.562C.233.588.23.618.226.651L.211.778C.205.829.2.835.144.851l.011.025c.168-.02.392-.012.57.003C.714.806.699.714.693.647M.641.643l.007.186C.565.833.351.829.278.824L.287.667A.124.124 0 0 0 .286.634c.101 0 .248.003.355.009M.513.459V.448a.898.898 0 0 0-.007-.11c.08.002.165.005.231.011A.585.585 0 0 1 .724.285L.709.207l.027.002L.731.163A5.398 5.398 0 0 1 .305.158.536.536 0 0 1 .303.119V.072c0-.025.008-.028.041-.029C.441.04.669.05.781.068L.767.007A6.337 6.337 0 0 1 .284.002C.25 0 .236.021.236.051v.051c0 .051-.009.06-.07.079l.01.022C.318.187.516.193.652.202l.003.107A3.807 3.807 0 0 1 .354.303C.326.301.265.298.216.289L.182.35a.804.804 0 0 1 .13-.013h.135L.444.434v.024a9.038 9.038 0 0 1-.27-.01A2.358 2.358 0 0 1 .025.435L0 .503C.06.496.113.493.173.491.271.487.577.496.673.5c.089.004.171.011.242.021L.905.457a5.644 5.644 0 0 1-.392.002z"/></symbol><use xlink:href="#ad" transform="matrix(10.9091 0 0 -10.9091 13.243 290.57)"/><symbol id="ae"><path d="M.352.614C.416.566.485.529.58.483L.523.433C.453.492.4.533.328.591A1.008 1.008 0 0 0 .02.386L0 .407c.163.076.313.21.394.37L.231.77A1.782 1.782 0 0 1 .093.757L.055.816a1.286 1.286 0 0 1 .411.013L.489.807A.715.715 0 0 0 .352.614m.197.282L.56.922C.625.914.696.9.747.89a.448.448 0 0 1-.01-.082V.577C.737.53.728.448.721.415L.678.409a.986.986 0 0 0-.007.115v.284c0 .044-.039.068-.122.088M.655.217l.003.116A2.758 2.758 0 0 1 .402.327C.374.325.313.322.264.313L.23.373A.812.812 0 0 1 .36.361C.461.36.61.362.738.373A.585.585 0 0 1 .725.309L.71.221l.027.003L.732.177C.582.184.418.175.351.172L.349.134V.072C.349.051.355.044.39.043.487.04.67.05.782.068L.768.007A5.151 5.151 0 0 1 .332.002C.298 0 .284.021.284.051v.066c0 .051-.009.06-.07.079l.01.022C.365.203.53.208.655.217z"/></symbol><use xlink:href="#ae" transform="matrix(10.9091 0 0 -10.9091 24.12 290.613)"/><symbol id="af"><path d="M.496.862C.606.852.685.785.685.701.685.606.59.537.464.537.339.537.245.606.245.701c0 .089.087.159.206.163C.448.878.437.888.408.897l.009.017.092-.016A.382.382 0 0 1 .496.862m.12-.157C.616.776.55.836.465.836.38.836.314.776.314.705.314.63.38.576.465.576c.086 0 .151.054.151.129M.915.491.905.427a5.644 5.644 0 0 1-.22.005A12.75 12.75 0 0 1 .174.418 2.358 2.358 0 0 1 .025.405L0 .473C.06.466.113.463.173.461c.098-.004.404.005.5.009.089.004.171.011.242.021M.652.197l.003.102A3.807 3.807 0 0 1 .354.293C.326.291.265.288.216.279L.182.34a.804.804 0 0 1 .13-.013C.413.326.609.328.737.339.733.327.729.299.724.275L.71.202l.026.002L.731.158A5.398 5.398 0 0 1 .305.153.566.566 0 0 1 .303.114V.072c0-.024.006-.028.041-.029C.441.04.669.05.781.068L.767.007A6.337 6.337 0 0 1 .284.002C.25 0 .236.021.236.051v.046c0 .051-.009.06-.07.079l.01.022C.318.182.516.188.652.197z"/></symbol><use xlink:href="#af" transform="matrix(10.9091 0 0 -10.9091 33.97 290.57)"/><use xlink:href="#e" transform="matrix(10.9091 0 0 -10.9091 48.145 288.944)"/><use xlink:href="#I" transform="matrix(10.9091 0 0 -10.9091 56.244 290.864)"/><symbol id="ag"><path d="m.427.058.212.007C.728.069.81.077.881.087L.871.023C.819.026.739.026.651.027.541.028.254.017.174.012.124.009.073.006.025 0L0 .068C.06.061.113.058.173.056c.041-.002.114-.001.191 0v.262C.364.362.346.38.277.394l.01.024C.331.414.386.409.437.398a.396.396 0 0 1-.01-.077V.058m.231.151H.617c.031.127.051.318.056.426-.099 0-.28-.008-.36-.011C.273.622.196.619.149.61L.115.673C.167.667.223.662.264.662c.142 0 .361.005.481.024L.763.669a2.505 2.505 0 0 0-.105-.46z"/></symbol><use xlink:href="#ag" transform="matrix(10.9091 0 0 -10.9091 66.28 289.239)"/><symbol id="ah"><path d="M.607.487a.88.88 0 0 1 .126.008v.336c0 .043-.027.067-.109.088l.011.026C.699.936.757.924.808.913a.448.448 0 0 1-.01-.082V.284C.798.203.792.071.781.005L.741 0a2.481 2.481 0 0 0-.008.213v.239C.685.452.654.45.607.447V.319C.607.238.603.106.592.04L.553.035a2.412 2.412 0 0 0-.009.213v.541c0 .043-.022.066-.099.086l.011.026C.52.893.566.885.617.872a.46.46 0 0 1-.01-.083V.487m-.22.335L.375.775C.331.776.284.773.249.773A.755.755 0 0 1 .154.766L.125.824A.532.532 0 0 1 .236.809c.032 0 .092.005.151.013M.502.708.492.652A7.382 7.382 0 0 1 .155.643 1.847 1.847 0 0 1 .029.631L0 .692A.769.769 0 0 1 .127.681c.086.001.26.006.375.027M.465.422C.465.334.38.263.272.263.166.263.08.336.08.422c0 .095.086.161.192.161.114 0 .193-.075.193-.161M.151.426c0-.07.052-.128.122-.128.069 0 .122.056.122.128 0 .065-.05.125-.122.125A.12.12 0 0 1 .151.426z"/></symbol><use xlink:href="#ah" transform="matrix(10.9091 0 0 -10.9091 80.432 290.864)"/><symbol id="ai"><path d="M.631.273C.587.275.536.274.483.273V.059l.156.006C.728.069.81.077.881.087L.871.023C.819.026.739.026.651.027.541.028.254.017.174.012.124.009.073.006.025 0L0 .068C.06.061.113.058.173.056.224.054.323.055.418.057v.215C.36.271.303.268.249.266L.242.23.202.224A.641.641 0 0 0 .195.32v.278C.195.642.178.66.113.674l.01.024C.167.694.217.689.268.678a.396.396 0 0 1-.01-.077V.529c.111.001.247.004.37.014v.093c0 .044-.023.06-.093.077l.01.025C.599.732.651.726.702.716a.396.396 0 0 1-.01-.077v-.26A.728.728 0 0 0 .676.241L.635.235a.371.371 0 0 0-.004.038M.628.316v.182a4.195 4.195 0 0 1-.37-.006V.363a.31.31 0 0 0-.005-.06c.113.001.259.006.375.013z"/></symbol><use xlink:href="#ai" transform="matrix(10.9091 0 0 -10.9091 90.644 289.359)"/><use xlink:href="#L" transform="matrix(10.9091 0 0 -10.9091 100.888 290.864)"/><use xlink:href="#E" transform="matrix(10.9091 0 0 -10.9091 111.872 288.944)"/></g></svg>