<svg xmlns="http://www.w3.org/2000/svg" xmlns:xlink="http://www.w3.org/1999/xlink" width="297.217" height="204.455" viewBox="0 0 165.121 113.586"><rect width="100%" height="100%" fill="white"/><clipPath id="a"><path transform="matrix(1 0 0 -1 -215.603 567.39)" d="M0 0h595.276v841.89H0z"/></clipPath><g clip-path="url(#a)"><symbol id="b"><path d="M.248.374c.082.027.14.097.14.176C.388.632.3.688.204.688.103.688.027.628.027.552.027.519.049.5.078.5.109.5.129.522.129.551c0 .05-.047.05-.062.05C.098.65.164.663.2.663.241.663.296.641.296.551A.25.25 0 0 0 .268.437C.238.389.204.386.179.385A.554.554 0 0 0 .14.382C.132.381.125.38.125.37c0-.011.007-.011.024-.011h.044C.275.359.312.291.312.193.312.057.243.028.199.028.156.028.081.045.046.104.081.099.112.121.112.159a.054.054 0 0 1-.056.056C.032.215 0 .201 0 .157 0 .066.093 0 .202 0c.122 0 .213.091.213.193 0 .082-.063.16-.167.181z"/></symbol><symbol id="c"><path d="M.366.696C.361.709.359.716.343.716S.324.71.319.696L.112.098C.094.047.054.032 0 .031V0c.023.001.066.003.102.003L.217 0v.031c-.05 0-.075.025-.075.051l.002.015.046.131h.247L.49.075.493.061c0-.03-.056-.03-.083-.03V0a2.274 2.274 0 0 0 .275 0v.031H.667c-.06 0-.074.007-.085.04L.366.696M.313.584.426.259H.201l.112.325z"/></symbol><symbol id="d"><path d="M.353.313h.279c.014 0 .033 0 .033.02s-.019.02-.033.02H.353v.28c0 .014 0 .033-.02.033S.313.647.313.633v-.28h-.28C.019.353 0 .353 0 .333s.019-.02.033-.02h.28v-.28c0-.014 0-.033.02-.033s.02.019.02.033v.28z"/></symbol><symbol id="e"><path d="M.186.366v.246c0 .033.002.04.049.04h.124C.456.652.491.567.491.514a.15.15 0 0 0-.16-.148H.186M.422.357C.519.376.588.44.588.514c0 .087-.092.169-.222.169H0V.652h.024C.101.652.103.641.103.605V.078C.103.042.101.031.024.031H0V0h.392c.133 0 .223.089.223.183C.615.27.533.345.422.357M.36.031H.235c-.047 0-.049.007-.049.04v.273h.188c.099 0 .141-.093.141-.16A.151.151 0 0 0 .36.031z"/></symbol><use xlink:href="#b" transform="matrix(10.9091 0 0 -10.9091 16.95 20.635)"/><use xlink:href="#b" transform="matrix(10.9091 0 0 -10.9091 22.404 20.635)"/><use xlink:href="#c" transform="matrix(10.9091 0 0 -10.9091 27.75 20.395)"/><use xlink:href="#d" transform="matrix(10.9091 0 0 -10.9091 48.302 21.3)"/><use xlink:href="#e" transform="matrix(10.9091 0 0 -10.9091 72.826 20.395)"/><symbol id="f"><path d="M.576 0c.017 0 .035 0 .035.02S.593.04.576.04H.035C.018.04 0 .04 0 .02S.018 0 .035 0h.541z"/></symbol><symbol id="g"><path d="M.779.241A.366.366 0 0 1 .636.012C.636 0 .648 0 .656 0c.017 0 .018.002.022.02a.312.312 0 0 0 .195.228c.012.004.015.006.015.013 0 .007-.006.01-.008.011a.311.311 0 0 0-.203.235C.674.519.673.522.656.522c-.008 0-.02 0-.02-.012A.36.36 0 0 1 .779.281H.036C.018.281 0 .281 0 .261s.018-.02.036-.02h.743z"/></symbol><use xlink:href="#f" transform="matrix(10.9091 0 0 -10.9091 97.32 17.886)"/><use xlink:href="#g" transform="matrix(10.9091 0 0 -10.9091 103.68 20.515)"/><symbol id="h"><path d="M.077.077.183.18c.156.138.216.192.216.292 0 .114-.09.194-.212.194A.185.185 0 0 1 0 .485C0 .429.05.429.053.429c.017 0 .052.012.052.053a.05.05 0 0 1-.053.052L.039.533a.144.144 0 0 0 .135.102C.265.635.308.554.308.472c0-.08-.05-.159-.105-.221L.011.037C0 .026 0 .024 0 0h.371l.028.174H.374C.369.144.362.1.352.085.345.077.279.077.257.077h-.18z"/></symbol><symbol id="i"><path d="M.399.223c0 .119-.082.219-.19.219A.176.176 0 0 1 .082.391v.195A.317.317 0 0 1 .167.573C.29.573.36.664.36.677.36.683.357.688.35.688c-.001 0-.003 0-.008-.003A.33.33 0 0 0 .073.684L.061.687c-.01 0-.01-.008-.01-.024V.367c0-.018 0-.026.014-.026.007 0 .009.003.013.009.011.016.048.07.129.07C.259.42.284.374.292.356A.308.308 0 0 0 .31.23C.31.195.31.135.286.093A.125.125 0 0 0 .179.028.156.156 0 0 0 .032.14C.035.139.038.138.049.138c.033 0 .05.025.05.049a.048.048 0 0 1-.05.049C.035.236 0 .229 0 .183 0 .097.069 0 .181 0a.22.22 0 0 1 .218.223z"/></symbol><symbol id="j"><path d="M0 .364C0 .157.162 0 .348 0c.163 0 .261.139.261.255 0 .01 0 .017-.013.017C.585.272.585.266.584.256.576.113.469.031.36.031.299.031.103.065.103.363c0 .299.195.333.256.333.109 0 .198-.091.218-.237C.579.445.579.442.593.442c.016 0 .016.003.016.024v.237c0 .017 0 .024-.011.024-.004 0-.008 0-.016-.012L.532.641C.495.677.444.727.348.727A.357.357 0 0 1 0 .364z"/></symbol><symbol id="k"><path d="M.205.64c0 .024 0 .026-.023.026C.12.602.032.602 0 .602V.571a.3.3 0 0 1 .131.026V.079C.131.043.128.031.038.031H.006V0c.035.003.122.003.162.003.04 0 .127 0 .162-.003v.031H.298c-.09 0-.093.011-.093.048V.64z"/></symbol><use xlink:href="#h" transform="matrix(10.9091 0 0 -10.9091 127.99 20.395)"/><use xlink:href="#i" transform="matrix(10.9091 0 0 -10.9091 133.444 20.635)"/><use xlink:href="#j" transform="matrix(10.9091 0 0 -10.9091 138.964 20.635)"/><use xlink:href="#k" transform="matrix(10.9091 0 0 -10.9091 25.795 36.654)"/><use xlink:href="#k" transform="matrix(10.9091 0 0 -10.9091 31.25 36.654)"/><use xlink:href="#k" transform="matrix(10.9091 0 0 -10.9091 79.98 36.654)"/><use xlink:href="#h" transform="matrix(10.9091 0 0 -10.9091 137.362 36.654)"/><use xlink:href="#i" transform="matrix(10.9091 0 0 -10.9091 142.817 36.894)"/><use xlink:href="#f" transform="matrix(10.9091 0 0 -10.9091 17.245 58.783)"/><use xlink:href="#k" transform="matrix(10.9091 0 0 -10.9091 25.795 61.292)"/><use xlink:href="#k" transform="matrix(10.9091 0 0 -10.9091 31.25 61.292)"/><use xlink:href="#f" transform="matrix(10.9091 0 0 -10.9091 69.035 58.783)"/><use xlink:href="#k" transform="matrix(10.9091 0 0 -10.9091 78.78 53.911)"/><path stroke-width=".436" stroke-miterlimit="10" fill="none" stroke="#000" d="M77.809 58.564h5.455"/><use xlink:href="#b" transform="matrix(10.9091 0 0 -10.9091 78.267 69.015)"/><use xlink:href="#d" transform="matrix(10.9091 0 0 -10.9091 126.556 62.196)"/><use xlink:href="#h" transform="matrix(10.9091 0 0 -10.9091 136.171 53.911)"/><use xlink:href="#i" transform="matrix(10.9091 0 0 -10.9091 141.626 54.151)"/><path stroke-width=".436" stroke-miterlimit="10" fill="none" stroke="#000" d="M135.626 58.564h10.909"/><use xlink:href="#b" transform="matrix(10.9091 0 0 -10.9091 138.811 69.015)"/><path stroke-width=".398" stroke-miterlimit="10" fill="none" stroke="#000" d="M10.362 74.324h143.346"/><symbol id="l"><path d="M.421.342c0 .08-.005.16-.04.234A.185.185 0 0 1 .037.569.535.535 0 0 1 0 .342C0 .267.004.177.045.101A.183.183 0 0 1 .21 0c.054 0 .13.021.174.116a.533.533 0 0 1 .037.226M.21.022C.171.022.112.047.094.143.083.203.083.295.083.354c0 .064 0 .13.008.184C.11.657.185.666.21.666.243.666.309.648.328.549c.01-.056.01-.132.01-.195 0-.075 0-.143-.011-.207C.312.052.255.022.21.022z"/></symbol><use xlink:href="#l" transform="matrix(10.9091 0 0 -10.9091 30.704 94.523)"/><use xlink:href="#h" transform="matrix(10.9091 0 0 -10.9091 78.354 86.903)"/><path stroke-width=".436" stroke-miterlimit="10" fill="none" stroke="#000" d="M77.809 91.556h5.455"/><use xlink:href="#b" transform="matrix(10.9091 0 0 -10.9091 78.267 102.006)"/><use xlink:href="#k" transform="matrix(10.9091 0 0 -10.9091 131.142 86.903)"/><use xlink:href="#l" transform="matrix(10.9091 0 0 -10.9091 136.051 87.143)"/><use xlink:href="#l" transform="matrix(10.9091 0 0 -10.9091 141.506 87.143)"/><path stroke-width=".436" stroke-miterlimit="10" fill="none" stroke="#000" d="M130.171 91.556h16.364"/><symbol id="m"><path d="M.232.01c0 .003 0 .005-.017.022C.09.158.058.347.058.5c0 .174.038.348.161.473.013.012.013.014.013.017 0 .007-.004.01-.01.01-.01 0-.1-.068-.159-.195A.727.727 0 0 1 0 .5C0 .422.011.301.066.188A.432.432 0 0 1 .222 0c.006 0 .01.003.01.01z"/></symbol><use xlink:href="#b" transform="matrix(10.9091 0 0 -10.9091 136.084 102.006)"/><use xlink:href="#m" transform="matrix(10.9091 0 0 -10.9091 -138.417 131.774)"/><use xlink:href="#e" transform="matrix(10.9091 0 0 -10.9091 -134.86 129.047)"/><symbol id="n"><path d="M.349.567A.993.993 0 0 1 .575.44L.521.39.324.544A1.074 1.074 0 0 0 .02.356L0 .377a.919.919 0 0 1 .39.339L.233.709A1.782 1.782 0 0 1 .095.696L.057.755a1.276 1.276 0 0 1 .41.013L.491.746A.784.784 0 0 0 .349.567M.72.095a.539.539 0 0 0 .035.004L.742.045a4.175 4.175 0 0 1-.388.001.24.24 0 0 0-.006-.04L.31 0C.304.024.301.061.298.094L.286.242C.282.292.275.299.219.315L.23.34C.398.32.568.328.746.343A3.666 3.666 0 0 1 .72.095M.666.091l.003.202C.586.297.426.293.353.288L.357.112v-.03c.098 0 .217.003.309.009M.419.879.406.832C.361.833.313.83.278.83A.839.839 0 0 1 .179.823L.15.881A.553.553 0 0 1 .265.866c.032 0 .093.005.154.013M.676.578A1.37 1.37 0 0 1 .478.559L.452.616A.626.626 0 0 1 .565.609l.111.002v.211C.676.866.637.89.554.91l.011.026C.63.928.701.914.752.904a.448.448 0 0 1-.01-.082V.535C.742.488.733.406.726.373L.683.367a.986.986 0 0 0-.007.115v.096z"/></symbol><use xlink:href="#n" transform="matrix(10.9091 0 0 -10.9091 -122.68 130.869)"/><symbol id="o"><path d="M.705.474v-.19C.705.203.698.064.688.005L.647 0a2.43 2.43 0 0 0-.008.213v.618C.639.875.6.899.517.919l.011.026C.593.937.664.923.715.913a.448.448 0 0 1-.01-.082V.515C.758.517.831.525.9.536L.891.474c-.054.002-.134 0-.186 0M.459.778.482.757a.981.981 0 0 0-.46-.536L0 .242a.895.895 0 0 1 .387.481L.205.718A1.43 1.43 0 0 1 .067.704L.029.765a1.476 1.476 0 0 1 .43.013z"/></symbol><use xlink:href="#o" transform="matrix(10.9091 0 0 -10.9091 -112.417 130.967)"/><symbol id="p"><path d="M.339.552C.404.497.469.448.561.396L.505.346C.44.408.385.466.317.529A.975.975 0 0 0 .02.317L0 .338a.834.834 0 0 1 .383.4L.228.732A1.782 1.782 0 0 1 .09.719L.052.778a1.219 1.219 0 0 1 .404.013L.479.769a.76.76 0 0 0-.14-.217M.804.066.793.006A4.004 4.004 0 0 1 .348.002C.312 0 .297.02.297.046v.118c0 .061-.008.07-.085.09l.011.025C.262.274.328.267.368.261A.677.677 0 0 1 .363.189V.077c0-.028.01-.034.048-.035.1-.002.279.007.393.024M.675.561A1.369 1.369 0 0 1 .478.542L.452.599A.626.626 0 0 1 .565.592l.11.002v.202C.675.84.636.864.553.884L.564.91C.629.902.7.888.751.878a.448.448 0 0 1-.01-.082V.381C.741.322.734.241.725.197L.682.19a1.8 1.8 0 0 0-.007.158v.213z"/></symbol><use xlink:href="#p" transform="matrix(10.9091 0 0 -10.9091 -97.686 130.585)"/><symbol id="q"><path d="M.467.778.49.757A.995.995 0 0 0 .022.221L0 .242a.908.908 0 0 1 .395.481L.205.718A1.43 1.43 0 0 1 .067.704L.029.765a1.56 1.56 0 0 1 .438.013m.066.141.011.026C.609.937.68.923.731.913a.448.448 0 0 1-.01-.082V.284C.721.203.714.064.704.005L.663 0a2.43 2.43 0 0 0-.008.213v.618c0 .044-.039.068-.122.088z"/></symbol><use xlink:href="#q" transform="matrix(10.9091 0 0 -10.9091 -83.13 130.967)"/><symbol id="r"><path d="M.295.48C.353.419.429.354.486.32L.435.272C.38.335.331.393.275.455A.881.881 0 0 0 .019.247L0 .265a.799.799 0 0 1 .322.388A1.628 1.628 0 0 1 .075.632L.038.693a.775.775 0 0 1 .123-.01.837.837 0 0 1 .229.023L.413.684A.782.782 0 0 0 .295.48m.253.004A.857.857 0 0 1 .401.466L.373.522A.41.41 0 0 1 .465.515l.083.003v.271c0 .043-.022.066-.099.086L.46.901C.524.893.57.885.621.872a.46.46 0 0 1-.01-.083v-.47A2.38 2.38 0 0 0 .593.04L.555.035C.551.085.548.173.548.248v.236M.374.831.361.786C.316.787.276.784.245.784A.662.662 0 0 1 .156.777L.127.835A.492.492 0 0 1 .232.82c.032 0 .081.002.142.011m.24.088.011.026C.689.936.747.924.798.913a.448.448 0 0 1-.01-.082V.284A2.39 2.39 0 0 0 .771.005L.731 0C.727.05.723.138.723.213v.618c0 .043-.027.067-.109.088z"/></symbol><use xlink:href="#r" transform="matrix(10.9091 0 0 -10.9091 -72.876 130.967)"/><symbol id="s"><path d="M.345.806C.456.795.536.722.536.629.536.526.44.45.314.45S.095.526.095.629c0 .098.087.174.205.179C.298.824.288.834.258.844l.01.019C.298.857.327.853.359.846L.345.806m.12-.173a.145.145 0 0 1-.149.143.145.145 0 0 1-.15-.143c0-.081.065-.141.15-.141.086 0 .149.06.149.141M.687.338a3.815 3.815 0 0 0-.503-.08A2.075 2.075 0 0 1 .038.243L0 .306A.743.743 0 0 1 .141.297c.194.007.393.034.546.068v.466c0 .044-.039.068-.122.088l.011.026C.641.937.712.923.763.913a.448.448 0 0 1-.01-.082V.284C.753.203.746.064.736.005L.695 0a2.43 2.43 0 0 0-.008.213v.125z"/></symbol><use xlink:href="#s" transform="matrix(10.9091 0 0 -10.9091 -62.165 130.967)"/><use xlink:href="#p" transform="matrix(10.9091 0 0 -10.9091 -47.697 130.585)"/><use xlink:href="#r" transform="matrix(10.9091 0 0 -10.9091 -37.388 130.967)"/><symbol id="t"><path d="m.693.647.038.004L.718.597a4.015 4.015 0 0 1-.211.005V.476l.166.006c.089.004.171.011.242.021L.905.439a5.644 5.644 0 0 1-.22.005A12.75 12.75 0 0 1 .174.43 2.358 2.358 0 0 1 .025.417L0 .485C.06.478.113.475.173.473.225.471.337.472.443.475v.126a3.66 3.66 0 0 1-.16-.003L.277.568.239.562C.233.588.23.618.226.651L.211.778C.205.829.2.835.144.851l.011.025c.168-.02.392-.012.57.003C.714.806.699.714.693.647M.641.643l.007.186C.565.833.351.829.278.824L.287.667A.124.124 0 0 0 .286.634c.101 0 .248.003.355.009M.652.202l.003.107A3.807 3.807 0 0 1 .354.303C.326.301.265.298.216.289L.182.35a.804.804 0 0 1 .13-.013C.413.336.609.338.737.349A.585.585 0 0 1 .724.285L.709.207l.027.002L.731.163A5.398 5.398 0 0 1 .305.158.566.566 0 0 1 .303.119V.072c0-.024.009-.028.041-.029C.441.04.669.05.781.068L.767.007A6.337 6.337 0 0 1 .284.002C.25 0 .236.021.236.051v.051c0 .051-.009.06-.07.079l.01.022C.318.187.516.193.652.202z"/></symbol><use xlink:href="#t" transform="matrix(10.9091 0 0 -10.9091 -23.193 130.672)"/><symbol id="u"><path d="M.462.777C.564.72.693.671.828.629L.77.572C.674.628.546.692.439.753A1.01 1.01 0 0 0 .081.537L.062.559c.157.06.302.173.367.283.01.016.011.024-.005.035C.412.885.4.893.367.91l.017.023C.437.919.489.9.54.88A.527.527 0 0 0 .462.777m.04-.374V.221C.502.152.496.062.486.007L.443 0a1.84 1.84 0 0 0-.007.188v.214a8.78 8.78 0 0 1-.262-.01A2.358 2.358 0 0 1 .025.379L0 .447C.06.44.113.437.173.435.271.431.563.44.659.444.748.448.83.455.901.465L.891.401a5.644 5.644 0 0 1-.389.002z"/></symbol><use xlink:href="#u" transform="matrix(10.9091 0 0 -10.9091 -12.623 130.934)"/><symbol id="v"><path d="M.232.5a.729.729 0 0 1-.066.312A.432.432 0 0 1 .01 1C.004 1 0 .996 0 .99 0 .987 0 .985.019.967.117.868.174.709.174.5.174.329.137.153.013.027 0 .015 0 .013 0 .01 0 .004.004 0 .01 0c.01 0 .1.068.159.195C.22.305.232.416.232.5z"/></symbol><symbol id="w"><path d="M.106.378a.053.053 0 0 1-.053.053A.053.053 0 0 1 0 .378C0 .349.024.325.053.325c.029 0 .053.024.053.053m0-.325a.053.053 0 0 1-.053.053A.053.053 0 0 1 0 .053C0 .024.024 0 .053 0c.029 0 .053.024.053.053z"/></symbol><use xlink:href="#v" transform="matrix(10.9091 0 0 -10.9091 -1.932 131.774)"/><use xlink:href="#w" transform="matrix(10.9091 0 0 -10.9091 6.762 129.047)"/><use xlink:href="#m" transform="matrix(10.9091 0 0 -10.9091 15.795 131.774)"/><use xlink:href="#e" transform="matrix(10.9091 0 0 -10.9091 19.352 129.047)"/><use xlink:href="#n" transform="matrix(10.9091 0 0 -10.9091 31.524 130.869)"/><use xlink:href="#o" transform="matrix(10.9091 0 0 -10.9091 41.79 130.967)"/><symbol id="x"><path d="m.496.06.143.005C.728.069.81.077.881.087L.871.023C.819.026.739.026.651.027.541.028.254.017.174.012.124.009.073.006.025 0L0 .068C.06.061.113.058.173.056c.053-.002.159 0 .258.002v.178A5.035 5.035 0 0 1 .224.23C.19.228.176.249.176.279v.115c0 .051-.009.06-.07.079l.01.022C.255.48.473.485.618.494l.01.171A4.767 4.767 0 0 1 .291.659C.263.657.202.654.153.645L.119.706a.804.804 0 0 1 .13-.013 6.32 6.32 0 0 1 .463.012.548.548 0 0 1-.014-.064L.677.498l.038.003L.71.454A6.502 6.502 0 0 1 .245.449L.243.411V.3c0-.022.009-.028.041-.029.097-.003.347.007.459.025L.729.235a4.332 4.332 0 0 1-.233.002V.06z"/></symbol><use xlink:href="#x" transform="matrix(10.9091 0 0 -10.9091 52.238 129.505)"/><symbol id="y"><path d="M.247.753C.356.742.434.669.434.576.434.474.34.398.216.398S0 .474 0 .576C0 .674.086.75.202.755.2.771.19.781.16.79l.01.019.09-.017A.198.198 0 0 1 .247.753M.364.581a.144.144 0 0 1-.147.143A.144.144 0 0 1 .07.581C.07.499.134.44.217.44c.084 0 .147.059.147.141m.138.303L.513.91C.578.902.649.888.7.878A.448.448 0 0 1 .69.796V.391C.69.332.683.251.674.207L.631.2a1.8 1.8 0 0 0-.007.158v.438C.624.84.585.864.502.884M.756.07.745.01A5.64 5.64 0 0 1 .297.002C.261 0 .246.02.246.046v.12c0 .061-.008.07-.085.09l.011.025C.211.276.277.269.317.263A.677.677 0 0 1 .312.191V.077c0-.028.01-.034.048-.035C.46.04.642.053.756.07z"/></symbol><use xlink:href="#y" transform="matrix(10.9091 0 0 -10.9091 67.514 130.585)"/><symbol id="z"><path d="M.716.499V.391C.716.332.709.251.7.207L.657.2A1.8 1.8 0 0 0 .65.358v.438C.65.84.611.864.528.884L.539.91C.604.902.675.888.726.878a.448.448 0 0 1-.01-.082V.538C.769.54.841.548.91.559L.901.499c-.054.002-.133 0-.185 0M.789.07.778.01A5.667 5.667 0 0 1 .329.002C.293 0 .278.02.278.046v.1c0 .061-.008.07-.085.09l.011.025C.243.256.309.249.349.243A.677.677 0 0 1 .344.171V.077c0-.028.01-.034.048-.035.1-.002.283.011.397.028M.485.466C.485.381.399.313.29.313c-.107 0-.194.07-.194.153C.096.557.183.62.29.62.405.62.485.548.485.466M.168.47C.168.405.22.349.291.349A.12.12 0 0 1 .414.47a.12.12 0 0 1-.123.119C.221.589.168.539.168.47m.399.267L.557.681C.467.682.245.676.161.672A1.931 1.931 0 0 1 .03.66L0 .721A.827.827 0 0 1 .131.71c.09.001.317.006.436.027M.423.84.411.793C.366.794.31.791.275.791A.839.839 0 0 1 .176.784L.147.842A.553.553 0 0 1 .262.827c.032 0 .1.005.161.013z"/></symbol><use xlink:href="#z" transform="matrix(10.9091 0 0 -10.9091 77.19 130.585)"/><symbol id="A"><path d="M.409.4C.326.403.227.398.132.394A.568.568 0 0 0 .126.36L.086.354A.641.641 0 0 0 .079.45v.235C.079.73.065.746 0 .761l.01.024a1.15 1.15 0 0 0 .142-.02.396.396 0 0 1-.01-.077V.642c.085.001.166.004.264.014v.067C.406.767.387.783.317.8l.01.025C.381.819.429.813.48.803A.396.396 0 0 1 .47.726v-.22A.694.694 0 0 0 .454.371L.413.365A.31.31 0 0 0 .409.4M.406.442v.169A2.146 2.146 0 0 1 .142.605V.493A.458.458 0 0 0 .137.43c.087.001.182.005.269.012M.775.07.764.01A5.667 5.667 0 0 1 .315.002C.279 0 .264.02.264.046v.12c0 .061-.008.07-.085.09L.19.281C.229.276.295.269.335.263A.677.677 0 0 1 .33.191V.077C.33.049.34.043.378.042.478.04.661.053.775.07m-.07.485V.391C.705.332.698.251.689.207L.646.2a1.8 1.8 0 0 0-.007.158v.438C.639.84.6.864.517.884L.528.91C.593.902.664.888.715.878a.448.448 0 0 1-.01-.082V.594c.053.002.123.01.191.021L.887.555c-.053.002-.13 0-.182 0z"/></symbol><use xlink:href="#A" transform="matrix(10.9091 0 0 -10.9091 91.745 130.585)"/><symbol id="B"><path d="M.495.881C.607.87.688.801.688.715.688.618.59.547.461.547.334.547.238.618.238.715c0 .092.09.164.21.168C.445.897.434.907.405.916l.009.018.095-.016L.495.881M.618.719c0 .073-.067.135-.153.135C.377.854.31.792.31.719.31.642.377.587.465.587c.087 0 .153.055.153.132M.915.498.905.434a5.644 5.644 0 0 1-.22.005A12.75 12.75 0 0 1 .174.425 2.358 2.358 0 0 1 .025.412L0 .48C.06.473.113.47.173.468c.098-.004.404.005.5.009.089.004.171.011.242.021M.501.329C.608.32.685.252.685.166.685.071.593 0 .472 0S.261.071.261.166c0 .089.082.159.193.164C.452.347.441.357.41.366l.011.018.093-.017A.212.212 0 0 1 .501.329M.616.171c0 .073-.062.131-.144.131C.391.302.33.244.33.171.33.097.391.04.472.04c.083 0 .144.057.144.131z"/></symbol><use xlink:href="#B" transform="matrix(10.9091 0 0 -10.9091 102.01 130.869)"/><symbol id="C"><path d="M.502.338V.221C.502.152.496.062.486.007L.443 0a1.84 1.84 0 0 0-.007.188v.149a8.78 8.78 0 0 1-.262-.01A2.358 2.358 0 0 1 .025.314L0 .382C.06.375.113.372.173.37c.098-.004.39.005.486.009C.748.383.83.39.901.4L.891.336a5.644 5.644 0 0 1-.389.002m.153.243C.655.495.566.428.451.428.337.428.247.496.247.581c0 .091.09.151.204.151.121 0 .204-.071.204-.151M.321.58c0-.062.057-.116.131-.116.074 0 .131.051.131.116 0 .063-.051.118-.131.118C.378.698.321.651.321.58m.468.253L.774.778a7.788 7.788 0 0 1-.64-.022L.107.815A1 1 0 0 1 .252.804c.094 0 .379.01.537.029M.595.92.583.873C.538.874.457.87.422.87A.893.893 0 0 1 .317.864L.288.921A.628.628 0 0 1 .409.907c.032 0 .125.005.186.013z"/></symbol><use xlink:href="#C" transform="matrix(10.9091 0 0 -10.9091 116.588 130.934)"/><use xlink:href="#q" transform="matrix(10.9091 0 0 -10.9091 131.558 130.967)"/><use xlink:href="#r" transform="matrix(10.9091 0 0 -10.9091 141.812 130.967)"/><use xlink:href="#s" transform="matrix(10.9091 0 0 -10.9091 152.523 130.967)"/><use xlink:href="#p" transform="matrix(10.9091 0 0 -10.9091 166.991 130.585)"/><use xlink:href="#r" transform="matrix(10.9091 0 0 -10.9091 177.3 130.967)"/><use xlink:href="#t" transform="matrix(10.9091 0 0 -10.9091 191.495 130.672)"/><use xlink:href="#u" transform="matrix(10.9091 0 0 -10.9091 202.065 130.934)"/><symbol id="D"><path d="M.631.194c.015 0 .034 0 .034.02s-.019.02-.033.02H.033C.019.234 0 .234 0 .214s.019-.02.034-.02h.597M.632 0c.014 0 .033 0 .033.02S.646.04.631.04H.034C.019.04 0 .04 0 .02S.019 0 .033 0h.599z"/></symbol><symbol id="E"><path d="M.09.35v.024c0 .253.124.289.175.289.024 0 .066-.006.088-.04-.015 0-.055 0-.055-.045 0-.031.024-.046.046-.046C.36.532.39.541.39.58.39.64.346.688.263.688.135.688 0 .559 0 .338 0 .071.116 0 .209 0 .32 0 .415.094.415.226c0 .127-.089.223-.2.223C.147.449.11.398.09.35M.209.028C.146.028.116.088.11.103.092.15.092.23.092.248c0 .078.032.178.122.178.016 0 .062 0 .093-.062C.325.327.325.276.325.227c0-.048 0-.098-.017-.134C.278.033.232.028.209.028z"/></symbol><symbol id="F"><path d="M.266.165V.078C.266.042.264.031.19.031H.169V0C.21.003.262.003.304.003.346.003.399.003.44 0v.031H.419C.345.031.343.042.343.078v.087h.1v.031h-.1v.455c0 .02 0 .026-.016.026-.009 0-.012 0-.02-.012L0 .196V.165h.266m.006.031H.028l.244.373V.196z"/></symbol><use xlink:href="#v" transform="matrix(10.9091 0 0 -10.9091 212.756 131.774)"/><use xlink:href="#D" transform="matrix(10.9091 0 0 -10.9091 221.123 127.596)"/><use xlink:href="#b" transform="matrix(10.9091 0 0 -10.9091 233.603 129.287)"/><use xlink:href="#E" transform="matrix(10.9091 0 0 -10.9091 239.058 129.287)"/><use xlink:href="#w" transform="matrix(10.9091 0 0 -10.9091 249.127 129.047)"/><use xlink:href="#b" transform="matrix(10.9091 0 0 -10.9091 257.527 129.287)"/><use xlink:href="#F" transform="matrix(10.9091 0 0 -10.9091 262.829 129.047)"/><use xlink:href="#y" transform="matrix(10.9091 0 0 -10.9091 269.316 130.585)"/><symbol id="G"><path d="M.506.54A1.232 1.232 0 0 1 .324.522L.296.579A.438.438 0 0 1 .391.572l.115.003v.214c0 .043-.022.066-.099.086l.011.026C.482.893.528.885.579.872a.46.46 0 0 1-.01-.083v-.47A2.38 2.38 0 0 0 .551.04L.513.035C.509.085.506.173.506.248V.54M.152.695v-.31C.152.359.168.348.191.35.271.357.353.372.44.4L.442.372A1.177 1.177 0 0 0 .167.295C.109.286.086.306.086.366v.266c0 .052-.013.07-.086.09l.011.025C.153.725.29.738.407.759L.395.702A1.56 1.56 0 0 1 .152.695m.432.224.011.026C.659.936.717.924.768.913a.448.448 0 0 1-.01-.082V.284A2.39 2.39 0 0 0 .741.005L.701 0C.697.05.693.138.693.213v.618c0 .043-.027.067-.109.088z"/></symbol><use xlink:href="#G" transform="matrix(10.9091 0 0 -10.9091 279.35 130.967)"/><symbol id="H"><path d="M.117.194c0 .064-.024.105-.064.105C.018.299 0 .272 0 .246S.017.193.053.193c.016 0 .028.006.038.014l.002.002C.094.209.095.208.095.194A.255.255 0 0 0 .023.022C.017.016.016.015.016.011.016.004.021 0 .026 0c.012 0 .091.079.091.194z"/></symbol><use xlink:href="#H" transform="matrix(10.9091 0 0 -10.9091 289.9 131.152)"/><use xlink:href="#e" transform="matrix(10.9091 0 0 -10.9091 296.652 129.047)"/><symbol id="I"><path d="m.645.741.003.095A4.3 4.3 0 0 1 .328.83C.3.828.239.825.19.816L.156.877a.804.804 0 0 1 .13-.013C.387.863.602.865.73.876.726.864.722.836.717.812L.703.746l.026.002L.724.701A5.839 5.839 0 0 1 .282.696.51.51 0 0 1 .28.658V.624C.28.601.287.596.321.595.418.592.648.602.76.62L.746.559A6.364 6.364 0 0 1 .262.554C.228.552.214.573.214.603v.038c0 .051-.009.06-.07.079l.01.022A3.22 3.22 0 0 1 .645.741m.27-.248L.905.429a5.644 5.644 0 0 1-.22.005A12.75 12.75 0 0 1 .174.42 2.358 2.358 0 0 1 .025.407L0 .475C.06.468.113.465.173.463c.098-.004.404.005.5.009.089.004.171.011.242.021M.652.198.655.3A3.807 3.807 0 0 1 .354.294C.326.292.265.289.216.28L.182.341a.804.804 0 0 1 .13-.013C.413.327.609.329.737.34.733.328.729.3.724.276L.71.203l.026.002L.731.159A5.398 5.398 0 0 1 .305.154.566.566 0 0 1 .303.115V.072c0-.024.009-.028.041-.029C.441.04.669.05.781.068L.767.007A6.337 6.337 0 0 1 .284.002C.25 0 .236.021.236.051v.047c0 .051-.009.06-.07.079l.01.022C.318.183.516.189.652.198z"/></symbol><use xlink:href="#I" transform="matrix(10.9091 0 0 -10.9091 304.33 130.672)"/><use xlink:href="#n" transform="matrix(10.9091 0 0 -10.9091 -149.697 152.988)"/><use xlink:href="#o" transform="matrix(10.9091 0 0 -10.9091 -139.563 153.086)"/><symbol id="J"><path d="M.716.464v-.18C.716.203.709.064.699.005L.658 0A2.43 2.43 0 0 0 .65.213v.618C.65.875.611.899.528.919l.011.026C.604.937.675.923.726.913a.448.448 0 0 1-.01-.082V.505c.054.002.13.009.2.021L.907.464c-.055.002-.139 0-.191 0M.567.725.557.669C.467.67.245.664.161.66A1.931 1.931 0 0 1 .03.648L0 .709A.827.827 0 0 1 .131.698c.09.001.317.006.436.027M.495.421C.495.328.406.253.29.253.175.253.084.33.084.421c0 .101.091.17.206.17.122 0 .205-.079.205-.17m-.34.005c0-.071.059-.133.137-.133.075 0 .134.059.134.133a.131.131 0 0 1-.134.131C.214.557.155.502.155.426m.268.421L.411.8C.366.801.31.798.275.798A.839.839 0 0 1 .176.791L.147.849A.553.553 0 0 1 .262.834c.032 0 .1.005.161.013z"/></symbol><use xlink:href="#J" transform="matrix(10.9091 0 0 -10.9091 -129.286 153.086)"/><use xlink:href="#q" transform="matrix(10.9091 0 0 -10.9091 -118.551 153.086)"/><use xlink:href="#p" transform="matrix(10.9091 0 0 -10.9091 -104.606 152.704)"/><symbol id="K"><path d="M.328.659C.395.601.458.553.558.496L.502.446C.431.517.382.564.308.633a.95.95 0 0 0-.291-.23L0 .423c.144.09.27.217.314.351C.32.792.324.798.308.81.296.818.278.83.248.844l.016.02C.317.85.365.838.416.818A.63.63 0 0 0 .328.659m.237.237.011.026C.641.914.712.9.763.89a.448.448 0 0 1-.01-.082V.577C.753.53.744.448.737.415L.694.409a.986.986 0 0 0-.007.115v.284c0 .044-.039.068-.122.088M.671.218l.003.116A2.758 2.758 0 0 1 .418.328C.39.326.329.323.28.314l-.034.06a.812.812 0 0 1 .13-.012c.101-.001.25.001.378.012A.585.585 0 0 1 .741.31L.726.222l.027.003L.748.178C.598.185.434.176.367.173A.572.572 0 0 1 .365.135V.072c0-.024.008-.028.041-.029C.503.04.686.05.798.068L.784.007A5.151 5.151 0 0 1 .348.002C.314 0 .3.021.3.051v.067C.3.169.291.178.23.197l.01.022C.381.204.546.209.671.218z"/></symbol><use xlink:href="#K" transform="matrix(10.9091 0 0 -10.9091 -90.78 152.835)"/><symbol id="L"><path d="M.361.593.37.747A1.654 1.654 0 0 1 .183.741C.155.739.094.736.045.727l-.034.06a.812.812 0 0 1 .13-.012c.072 0 .203.001.311.012A.937.937 0 0 1 .438.723L.417.597l.035.004L.447.554C.3.561.204.552.137.549L.135.511V.416c0-.023.016-.039.041-.037.107.008.308.048.456.094v.323C.632.84.593.864.51.884L.521.91C.586.902.657.888.708.878a.448.448 0 0 1-.01-.082V.391C.698.332.691.251.682.207L.639.2a1.8 1.8 0 0 0-.007.158v.088A2.582 2.582 0 0 0 .156.328C.092.32.07.343.07.404v.09c0 .051-.009.06-.07.079l.01.022C.144.58.258.585.361.593M.757.07.746.01A5.667 5.667 0 0 1 .297.002C.261 0 .246.02.246.046v.106c0 .061-.008.07-.085.09l.011.025C.211.262.277.255.317.249A.677.677 0 0 1 .312.177v-.1c0-.028.01-.034.048-.035C.46.04.643.053.757.07z"/></symbol><use xlink:href="#L" transform="matrix(10.9091 0 0 -10.9091 -79.872 152.704)"/><symbol id="M"><path d="M.643.547a1.761 1.761 0 0 1-.259-.02L.358.584A.626.626 0 0 1 .471.577c.047.001.137.002.172.004v.25c0 .044-.039.068-.122.088l.011.026C.597.937.668.923.719.913a.448.448 0 0 1-.01-.082V.284C.709.203.7.071.689.005L.648 0a5.484 5.484 0 0 0-.005.213v.334M.152.709V.376C.152.35.168.342.19.343.296.35.424.372.542.409V.381A1.763 1.763 0 0 0 .167.285C.109.277.086.298.086.358v.289c0 .052-.013.07-.086.09l.011.025C.153.74.337.752.471.774L.459.716A2.585 2.585 0 0 1 .152.709z"/></symbol><use xlink:href="#M" transform="matrix(10.9091 0 0 -10.9091 -69.693 153.086)"/><use xlink:href="#s" transform="matrix(10.9091 0 0 -10.9091 -59.482 153.086)"/><symbol id="N"><path d="m.427.058.212.007C.728.069.81.077.881.087L.871.023C.819.026.739.026.651.027.541.028.254.017.174.012.124.009.073.006.025 0L0 .068C.06.061.113.058.173.056c.041-.002.114-.001.191 0v.262C.364.362.346.38.277.394l.01.024C.331.414.386.409.437.398a.396.396 0 0 1-.01-.077V.058m.231.151H.617c.031.127.051.318.056.426-.099 0-.28-.008-.36-.011C.273.622.196.619.149.61L.115.673C.167.667.223.662.264.662c.142 0 .361.005.481.024L.763.669a2.505 2.505 0 0 0-.105-.46z"/></symbol><use xlink:href="#N" transform="matrix(10.9091 0 0 -10.9091 -45.788 151.46)"/><symbol id="O"><path d="M.677.613A1.339 1.339 0 0 1 .481.594L.455.651A.626.626 0 0 1 .568.644l.109.002v.176C.677.866.638.89.555.91l.011.026C.631.928.702.914.753.904a.448.448 0 0 1-.01-.082V.51C.743.463.734.381.727.348L.684.342a.986.986 0 0 0-.007.115v.156M.565.326C.668.317.743.25.743.164.743.07.654 0 .538 0 .421 0 .334.07.334.164c0 .088.079.157.186.163C.517.342.507.351.478.36l.01.019.09-.017C.573.351.568.34.565.326M.672.169a.13.13 0 0 1-.135.128.13.13 0 0 1-.135-.128c0-.072.059-.127.135-.127.077 0 .135.055.135.127M.344.601C.405.552.471.509.558.46L.502.41C.438.467.387.521.321.578A.943.943 0 0 0 .02.369L0 .39a.814.814 0 0 1 .383.388L.228.772A1.782 1.782 0 0 1 .09.759L.052.818a1.219 1.219 0 0 1 .404.013L.479.809A.722.722 0 0 0 .344.601z"/></symbol><use xlink:href="#O" transform="matrix(10.9091 0 0 -10.9091 -35.152 152.988)"/><symbol id="P"><path d="M.348.605C.413.552.479.51.575.462L.518.412C.45.473.396.522.325.582A.97.97 0 0 0 .02.374L0 .395a.828.828 0 0 1 .39.387L.228.776A1.782 1.782 0 0 1 .09.763L.052.822a1.286 1.286 0 0 1 .411.013L.486.813A.692.692 0 0 0 .348.605M.546.327C.649.318.724.25.724.164.724.07.635 0 .519 0 .402 0 .315.07.315.164c0 .089.079.158.186.164C.498.343.488.352.459.361l.01.019.089-.017A.169.169 0 0 1 .546.327M.653.169a.13.13 0 0 1-.135.129.13.13 0 0 1-.135-.129c0-.072.059-.128.135-.128.077 0 .135.056.135.128m.073.425V.511C.726.464.717.382.71.349L.667.343A.986.986 0 0 0 .66.458v.364C.66.866.621.89.538.91l.011.026C.614.928.685.914.736.904a.448.448 0 0 1-.01-.082V.633c.053.002.125.01.194.021L.911.594c-.054.002-.133 0-.185 0z"/></symbol><use xlink:href="#P" transform="matrix(10.9091 0 0 -10.9091 -25.279 152.988)"/><symbol id="Q"><path d="M.34.493C.407.435.468.389.568.328L.511.277C.44.351.391.396.317.469A1.172 1.172 0 0 0 .019.237L0 .257c.165.1.307.255.389.425L.221.676A1.43 1.43 0 0 1 .083.662L.045.723a1.345 1.345 0 0 1 .417.013L.485.714A.917.917 0 0 0 .34.493m.076.373L.404.819C.359.82.309.817.274.817A.839.839 0 0 1 .175.81L.146.868A.553.553 0 0 1 .261.853c.032 0 .094.005.155.013m.128.053.011.026C.62.937.691.923.742.913a.448.448 0 0 1-.01-.082V.284C.732.203.725.064.715.005L.674 0a2.43 2.43 0 0 0-.008.213v.618c0 .044-.039.068-.122.088z"/></symbol><use xlink:href="#Q" transform="matrix(10.9091 0 0 -10.9091 -14.37 153.086)"/><use xlink:href="#I" transform="matrix(10.9091 0 0 -10.9091 -4.552 152.791)"/><symbol id="R"><path d="M.349.604C.413.554.481.512.577.465L.52.415C.452.477.397.522.326.581A.993.993 0 0 0 .02.375L0 .396a.828.828 0 0 1 .392.385L.23.775A1.782 1.782 0 0 1 .092.762L.054.821a1.286 1.286 0 0 1 .411.013L.488.812A.696.696 0 0 0 .349.604m.379.003v-.05C.728.51.719.428.712.395L.669.389a.986.986 0 0 0-.007.115v.318C.662.866.623.89.54.91l.011.026C.616.928.687.914.738.904a.448.448 0 0 1-.01-.082V.646c.053.002.125.01.194.021L.913.607c-.054.002-.133 0-.185 0M.7.095l.035.004L.722.045a4.004 4.004 0 0 1-.38.001.24.24 0 0 0-.006-.04L.298 0a.616.616 0 0 0-.012.094L.274.255C.27.305.263.312.207.328l.011.025c.168-.02.33-.012.508.003A3.907 3.907 0 0 1 .7.095M.646.091l.003.215C.566.31.414.306.341.301L.345.112v-.03c.098 0 .211.003.301.009z"/></symbol><use xlink:href="#R" transform="matrix(10.9091 0 0 -10.9091 9.427 152.988)"/><symbol id="S"><path d="M.334.229A.847.847 0 0 1 .486.105c.056.067.098.14.122.215.006.017.006.024-.003.035a.194.194 0 0 1-.052.034l.013.019C.6.401.666.385.701.372A.56.56 0 0 0 .636.234C.695.169.776.105.845.061L.79.012.617.203A.83.83 0 0 0 .421 0L.402.018A.595.595 0 0 1 .446.06L.314.201A.807.807 0 0 0 .097.004L.078.021c.105.08.194.186.231.289.006.017.006.024-.003.035a.194.194 0 0 1-.052.034l.013.019C.301.391.366.374.401.361A.514.514 0 0 0 .334.229m.126.61L.485.823C.416.626.208.435.019.353L0 .373a.885.885 0 0 1 .388.411C.331.784.243.78.217.778.191.776.121.772.082.763L.043.825A1.366 1.366 0 0 1 .46.839M.71.607V.585C.71.538.701.456.694.423L.651.417a.986.986 0 0 0-.007.115v.299c0 .044-.039.068-.122.088l.011.026C.598.937.669.923.72.913A.448.448 0 0 1 .71.831V.646c.053.002.125.01.194.021L.895.607c-.054.002-.133 0-.185 0z"/></symbol><use xlink:href="#S" transform="matrix(10.9091 0 0 -10.9091 19.987 153.086)"/><use xlink:href="#N" transform="matrix(10.9091 0 0 -10.9091 30.394 151.46)"/><use xlink:href="#H" transform="matrix(10.9091 0 0 -10.9091 41.26 153.271)"/><use xlink:href="#K" transform="matrix(10.9091 0 0 -10.9091 47.522 152.835)"/><use xlink:href="#L" transform="matrix(10.9091 0 0 -10.9091 58.431 152.704)"/><use xlink:href="#M" transform="matrix(10.9091 0 0 -10.9091 68.61 153.086)"/><symbol id="T"><path d="M.472.778C.576.723.701.676.835.635L.777.578C.681.631.557.695.449.754A.943.943 0 0 0 .096.547l-.02.022a.733.733 0 0 1 .36.269c.01.016.011.024-.005.035a.494.494 0 0 1-.057.033l.017.023C.444.915.496.897.547.877A.613.613 0 0 0 .472.778M.283.285c.137 0 .356.009.458.02C.737.272.736.264.736.243V.142A.666.666 0 0 0 .72.007L.677 0a1.15 1.15 0 0 0-.008.12v.139A4.016 4.016 0 0 1 .193.233L.164.294A.939.939 0 0 1 .283.285m.221.161.169.006c.089.004.171.011.242.021L.905.409a5.644 5.644 0 0 1-.22.005A12.75 12.75 0 0 1 .174.4 2.358 2.358 0 0 1 .025.387L0 .455C.06.448.113.445.173.443.225.441.334.442.439.444v.081C.439.57.429.581.362.59l.01.024a.902.902 0 0 0 .142-.01.396.396 0 0 1-.01-.077V.446z"/></symbol><use xlink:href="#T" transform="matrix(10.9091 0 0 -10.9091 81.933 152.977)"/><symbol id="U"><path d="M.495.838C.612.829.696.758.696.67.696.579.613.511.497.501V.375l.176.006c.089.004.171.011.242.021L.905.338a5.644 5.644 0 0 1-.22.005A12.75 12.75 0 0 1 .174.329 2.358 2.358 0 0 1 .025.316L0 .384C.06.377.113.374.173.372.224.37.33.371.433.373v.128C.32.511.238.579.238.67c0 .092.089.164.21.17C.445.854.434.864.405.874l.009.018.095-.016L.495.838m.13-.164c0 .073-.069.137-.156.137C.38.811.311.747.311.674.311.596.38.54.469.54c.088 0 .156.056.156.134m.17-.609L.784.005A5.143 5.143 0 0 1 .282.002C.246 0 .231.02.231.046v.098c0 .061-.008.07-.085.09l.011.025C.196.254.262.247.302.241A.677.677 0 0 1 .297.169V.077c0-.028.01-.034.048-.035.1-.002.336.006.45.023z"/></symbol><use xlink:href="#U" transform="matrix(10.9091 0 0 -10.9091 95.933 152.704)"/><symbol id="V"><path d="M.497.306V.06l.142.005C.728.069.81.077.881.087L.871.023C.819.026.739.026.651.027.541.028.254.017.174.012.124.009.073.006.025 0L0 .068C.06.061.113.058.173.056c.054-.002.159 0 .259.002v.247a4.97 4.97 0 0 1-.21-.007C.186.296.167.321.167.354v.222c0 .057-.012.07-.085.09L.093.69C.255.662.615.679.733.697L.721.637C.558.646.351.641.233.634v-.26c0-.028.01-.035.048-.036.1-.002.333.009.457.026L.726.303C.656.306.576.307.497.306z"/></symbol><use xlink:href="#V" transform="matrix(10.9091 0 0 -10.9091 106.515 151.537)"/><symbol id="W"><path d="M.766.607.755.545A6.473 6.473 0 0 1 .257.537C.222.535.206.565.206.601v.142c0 .06-.019.073-.095.089l.011.026C.161.853.236.847.277.84A.677.677 0 0 1 .272.768V.622C.272.593.281.578.32.577c.1-.002.322.013.446.03m.149-.18L.905.363a5.644 5.644 0 0 1-.22.005A12.75 12.75 0 0 1 .174.354 2.358 2.358 0 0 1 .025.341L0 .409C.06.402.113.399.173.397c.098-.004.404.005.5.009.089.004.171.011.242.021M.794.065.783.005A5.185 5.185 0 0 1 .279.002C.243 0 .228.02.228.046v.108c0 .061-.008.07-.085.09l.011.025C.193.264.259.257.299.251A.677.677 0 0 1 .294.179V.077c0-.028.01-.034.048-.035.1-.002.338.006.452.023z"/></symbol><use xlink:href="#W" transform="matrix(10.9091 0 0 -10.9091 116.66 152.671)"/><symbol id="X"><path d="M.246.796C.353.785.431.715.431.626.431.527.337.454.214.454.092.454 0 .527 0 .626 0 .72.086.793.201.798.199.813.189.823.159.832l.01.019.09-.017C.254.822.249.81.246.796M.361.63a.14.14 0 0 1-.145.138C.133.768.07.706.07.63.07.552.133.494.216.494c.083 0 .145.058.145.136m.14.266.011.026C.577.914.648.9.699.89a.448.448 0 0 1-.01-.082V.581C.689.534.68.452.673.419L.63.413a.986.986 0 0 0-.007.115v.28c0 .044-.039.068-.122.088M.607.217.61.333A2.716 2.716 0 0 1 .356.327C.328.325.267.322.218.313l-.034.06a.812.812 0 0 1 .13-.012C.415.36.562.362.69.373A.585.585 0 0 1 .677.309L.662.221l.027.003L.684.177C.534.184.372.175.305.172A.51.51 0 0 1 .303.134V.072c0-.024.008-.028.041-.029C.441.04.622.05.734.068L.72.007A5.103 5.103 0 0 1 .286.002C.252 0 .238.021.238.051v.066c0 .051-.009.06-.07.079l.01.022C.319.203.483.208.607.217z"/></symbol><use xlink:href="#X" transform="matrix(10.9091 0 0 -10.9091 131.653 152.835)"/><use xlink:href="#O" transform="matrix(10.9091 0 0 -10.9091 141.514 152.988)"/><use xlink:href="#J" transform="matrix(10.9091 0 0 -10.9091 151.562 153.086)"/><use xlink:href="#q" transform="matrix(10.9091 0 0 -10.9091 162.297 153.086)"/><symbol id="Y"><path d="M.541.415v.373c0 .043-.022.066-.099.086l.011.025C.517.891.561.883.612.87a.448.448 0 0 1-.01-.082V.539C.642.54.669.541.71.546V.83C.71.873.683.897.601.918l.011.026C.676.935.733.923.784.912A.448.448 0 0 1 .774.83V.285C.774.204.765.072.756.006L.717 0A3.72 3.72 0 0 0 .71.212v.292A1.864 1.864 0 0 1 .602.499V.318C.602.237.593.105.584.039L.548.034a3.759 3.759 0 0 0-.007.213v.139A.751.751 0 0 0 .344.307C.306.298.287.31.282.35A.544.544 0 0 0 .138.295C.092.285.074.307.074.366v.27c0 .052-.012.071-.074.09l.009.026A.592.592 0 0 1 .26.756.448.448 0 0 1 .475.77L.467.715C.419.714.381.714.34.711V.396C.34.37.353.359.374.362a.681.681 0 0 1 .167.053M.279.382v.266c0 .026-.002.06-.025.059A.842.842 0 0 1 .136.699V.387C.136.361.15.35.17.352c.04.005.069.012.109.03z"/></symbol><use xlink:href="#Y" transform="matrix(10.9091 0 0 -10.9091 176.177 153.075)"/><symbol id="Z"><path d="m.691.585.04.004L.718.535a5.176 5.176 0 0 1-.432.001L.28.506.242.5a.676.676 0 0 0-.013.089L.212.753C.207.804.201.81.145.826l.011.025C.324.831.55.839.728.854.717.781.698.658.691.585M.639.581l.009.223A4.97 4.97 0 0 1 .279.799L.29.605A.124.124 0 0 0 .289.572c.1 0 .244.003.35.009M.525.374V.317C.525.27.519.203.511.156L.466.15a1.766 1.766 0 0 0-.008.153v.07a10.242 10.242 0 0 1-.284-.01A2.358 2.358 0 0 1 .025.35L0 .418C.06.411.113.408.173.406c.098-.004.404.005.5.009.089.004.171.011.242.021L.905.372a5.644 5.644 0 0 1-.38.002m.27-.309L.784.005A5.143 5.143 0 0 1 .282.002C.246 0 .231.02.231.046v.11c0 .061-.008.07-.085.09l.011.025C.196.266.262.259.302.253A.677.677 0 0 1 .297.181V.077c0-.028.01-.034.048-.035.1-.002.336.006.45.023z"/></symbol><use xlink:href="#Z" transform="matrix(10.9091 0 0 -10.9091 186.114 152.704)"/><symbol id="aa"><path d="M.236.714C.325.704.394.647.408.571a1.706 1.706 0 0 1 .117.002v.216c0 .043-.022.066-.099.086l.011.026C.501.893.547.885.598.872a.46.46 0 0 1-.01-.083v-.47A2.38 2.38 0 0 0 .57.04L.532.035C.528.085.525.173.525.248v.291A.637.637 0 0 1 .41.523C.402.429.316.361.206.361.088.361 0 .437 0 .539c0 .097.082.172.192.177C.191.734.182.744.151.754l.01.019.088-.017A.23.23 0 0 1 .236.714M.349.542c0 .08-.06.142-.142.142A.14.14 0 0 1 .065.542c0-.08.061-.14.142-.14.082 0 .142.06.142.14m.237.377.011.026C.661.936.719.924.77.913A.448.448 0 0 1 .76.831V.284A2.39 2.39 0 0 0 .743.005L.703 0C.699.05.695.138.695.213v.618c0 .043-.027.067-.109.088z"/></symbol><use xlink:href="#aa" transform="matrix(10.9091 0 0 -10.9091 197.122 153.086)"/><symbol id="ab"><path d="M.263.316h.17c.142 0 .281.104.281.216 0 .077-.066.151-.197.151H.193c-.019 0-.03 0-.03-.019 0-.012.009-.012.029-.012A.59.59 0 0 0 .235.65C.251.648.257.645.257.634L.253.615.119.078C.109.039.107.031.028.031.011.031 0 .031 0 .012 0 0 .012 0 .015 0l.127.003.064-.001L.271 0c.007 0 .02 0 .02.02 0 .011-.009.011-.028.011-.037 0-.065 0-.065.018C.198.055.2.06.201.066l.062.25m.072.298c.009.035.011.038.054.038h.096C.568.652.621.625.621.556.621.517.601.431.562.395A.224.224 0 0 0 .408.342H.267l.068.272z"/></symbol><use xlink:href="#ab" transform="matrix(10.9091 0 0 -10.9091 210.697 151.166)"/><symbol id="ac"><path d="M.666.043.643.041c-.079 0-.132.078-.166.13L.429.246C.453.3.52.424.639.424c.007 0 .016 0 .027-.003C.666.447.665.448.663.45a.148.148 0 0 1-.031.003C.505.453.431.331.407.281.367.342.353.364.316.395a.212.212 0 0 1-.141.058C.064.453 0 .341 0 .226 0 .114.062 0 .172 0c.127 0 .201.122.225.172C.437.111.451.089.488.058A.212.212 0 0 1 .629 0a.2.2 0 0 1 .037.004v.039M.375.207C.351.153.284.029.165.029.068.029.022.135.022.226c0 .099.056.186.139.186.079 0 .132-.078.166-.13L.375.207z"/></symbol><use xlink:href="#ac" transform="matrix(10.9091 0 0 -10.9091 222.42 151.286)"/><use xlink:href="#k" transform="matrix(10.9091 0 0 -10.9091 237.157 143.786)"/></g></svg>