<svg xmlns="http://www.w3.org/2000/svg" xmlns:xlink="http://www.w3.org/1999/xlink" width="435.414" height="147.663" viewBox="0 0 241.897 82.035"><clipPath id="a"><path transform="matrix(1 0 0 -1 -175.638 481.149)" d="M0 0h595.276v841.89H0z"/></clipPath><g clip-path="url(#a)"><symbol id="b"><path d="M.333.389C.315.426.286.453.241.453.124.453 0 .306 0 .16 0 .066.055 0 .133 0c.02 0 .07.004.13.075A.09.09 0 0 1 .354 0c.035 0 .058.023.074.055.017.036.03.097.03.099 0 .01-.009.01-.012.01C.436.164.435.16.432.146.415.081.397.022.356.022c-.027 0-.03.026-.03.046 0 .022.002.03.013.074l.022.09.036.14C.404.4.404.402.404.406c0 .017-.012.027-.029.027C.351.433.336.411.333.389M.268.13C.263.112.263.11.248.093.204.038.163.022.135.022c-.05 0-.064.055-.064.094 0 .05.032.173.055.219.031.059.076.096.116.096.065 0 .079-.082.079-.088C.321.337.319.331.318.326L.268.13z"/></symbol><use xlink:href="#b" transform="matrix(10.9091 0 0 -10.9091 39.376 20.703)"/><symbol id="c"><path d="M.366.696C.361.709.359.716.343.716S.324.71.319.696L.112.098C.094.047.054.032 0 .031V0c.023.001.066.003.102.003L.217 0v.031c-.05 0-.075.025-.075.051l.002.015.046.131h.247L.49.075.493.061c0-.03-.056-.03-.083-.03V0a2.274 2.274 0 0 0 .275 0v.031H.667c-.06 0-.074.007-.085.04L.366.696M.313.584.426.259H.201l.112.325z"/></symbol><symbol id="d"><path d="M.353.313h.279c.014 0 .033 0 .033.02s-.019.02-.033.02H.353v.28c0 .014 0 .033-.02.033S.313.647.313.633v-.28h-.28C.019.353 0 .353 0 .333s.019-.02.033-.02h.28v-.28c0-.014 0-.033.02-.033s.02.019.02.033v.28z"/></symbol><symbol id="e"><path d="M.186.366v.246c0 .033.002.04.049.04h.124C.456.652.491.567.491.514a.15.15 0 0 0-.16-.148H.186M.422.357C.519.376.588.44.588.514c0 .087-.092.169-.222.169H0V.652h.024C.101.652.103.641.103.605V.078C.103.042.101.031.024.031H0V0h.392c.133 0 .223.089.223.183C.615.27.533.345.422.357M.36.031H.235c-.047 0-.049.007-.049.04v.273h.188c.099 0 .141-.093.141-.16A.151.151 0 0 0 .36.031z"/></symbol><use xlink:href="#c" transform="matrix(10.9091 0 0 -10.9091 45.054 20.583)"/><use xlink:href="#d" transform="matrix(10.9091 0 0 -10.9091 84.752 21.488)"/><use xlink:href="#e" transform="matrix(10.9091 0 0 -10.9091 108.229 20.583)"/><symbol id="f"><path d="M.576 0c.017 0 .035 0 .035.02S.593.04.576.04H.035C.018.04 0 .04 0 .02S.018 0 .035 0h.541z"/></symbol><symbol id="g"><path d="M.779.241A.366.366 0 0 1 .636.012C.636 0 .648 0 .656 0c.017 0 .018.002.022.02a.312.312 0 0 0 .195.228c.012.004.015.006.015.013 0 .007-.006.01-.008.011a.311.311 0 0 0-.203.235C.674.519.673.522.656.522c-.008 0-.02 0-.02-.012A.36.36 0 0 1 .779.281H.036C.018.281 0 .281 0 .261s.018-.02.036-.02h.743z"/></symbol><use xlink:href="#f" transform="matrix(10.9091 0 0 -10.9091 131.67 18.074)"/><use xlink:href="#g" transform="matrix(10.9091 0 0 -10.9091 138.03 20.703)"/><symbol id="h"><path d="M.355.391c-.016 0-.03 0-.044-.014A.054.054 0 0 1 .293.338C.293.314.311.303.33.303c.029 0 .056.024.056.064 0 .049-.047.086-.118.086C.133.453 0 .31 0 .169 0 .079.058 0 .162 0c.143 0 .227.106.227.118 0 .006-.006.013-.012.013C.372.131.37.129.364.121.285.022.176.022.164.022c-.063 0-.09.049-.09.109 0 .041.02.138.054.2.031.057.086.1.141.1.034 0 .072-.013.086-.04z"/></symbol><use xlink:href="#h" transform="matrix(10.9091 0 0 -10.9091 186.476 20.703)"/><symbol id="i"><path d="M0 .364C0 .157.162 0 .348 0c.163 0 .261.139.261.255 0 .01 0 .017-.013.017C.585.272.585.266.584.256.576.113.469.031.36.031.299.031.103.065.103.363c0 .299.195.333.256.333.109 0 .198-.091.218-.237C.579.445.579.442.593.442c.016 0 .016.003.016.024v.237c0 .017 0 .024-.011.024-.004 0-.008 0-.016-.012L.532.641C.495.677.444.727.348.727A.357.357 0 0 1 0 .364z"/></symbol><symbol id="j"><path d="M.399.223c0 .119-.082.219-.19.219A.176.176 0 0 1 .082.391v.195A.317.317 0 0 1 .167.573C.29.573.36.664.36.677.36.683.357.688.35.688c-.001 0-.003 0-.008-.003A.33.33 0 0 0 .073.684L.061.687c-.01 0-.01-.008-.01-.024V.367c0-.018 0-.026.014-.026.007 0 .009.003.013.009.011.016.048.07.129.07C.259.42.284.374.292.356A.308.308 0 0 0 .31.23C.31.195.31.135.286.093A.125.125 0 0 0 .179.028.156.156 0 0 0 .032.14C.035.139.038.138.049.138c.033 0 .05.025.05.049a.048.048 0 0 1-.05.049C.035.236 0 .229 0 .183 0 .097.069 0 .181 0a.22.22 0 0 1 .218.223z"/></symbol><use xlink:href="#i" transform="matrix(10.9091 0 0 -10.9091 191.361 20.823)"/><use xlink:href="#j" transform="matrix(10.9091 0 0 -10.9091 45.023 37.082)"/><symbol id="k"><path d="M.214.694c0 .001 0 .011-.013.011C.178.705.105.697.079.695.071.694.06.693.06.674.06.663.07.663.085.663.133.663.134.654.134.646L.131.626l-.126-.5C.002.115 0 .108 0 .092A.09.09 0 0 1 .091 0c.033 0 .058.02.075.056.018.038.03.096.03.098 0 .01-.009.01-.012.01C.174.164.173.16.17.146.153.081.134.022.094.022c-.03 0-.03.032-.03.046A.14.14 0 0 0 .07.116l.144.578z"/></symbol><use xlink:href="#k" transform="matrix(10.9091 0 0 -10.9091 50.411 36.962)"/><use xlink:href="#f" transform="matrix(10.9091 0 0 -10.9091 56.73 34.333)"/><symbol id="l"><path d="M.205.64c0 .024 0 .026-.023.026C.12.602.032.602 0 .602V.571a.3.3 0 0 1 .131.026V.079C.131.043.128.031.038.031H.006V0c.035.003.122.003.162.003.04 0 .127 0 .162-.003v.031H.298c-.09 0-.093.011-.093.048V.64z"/></symbol><use xlink:href="#l" transform="matrix(10.9091 0 0 -10.9091 67.705 36.842)"/><symbol id="m"><path d="M.457.586C.461.6.461.602.461.609c0 .018-.014.027-.029.027A.043.043 0 0 1 .397.615 1.87 1.87 0 0 1 .363.481L.318.301C.314.286.271.216.205.216.154.216.143.26.143.297c0 .046.017.108.051.196.016.041.02.052.02.072a.08.08 0 0 1-.082.082C.037.647 0 .502 0 .493c0-.01.01-.01.012-.01.01 0 .011.002.016.018.027.094.067.124.101.124.008 0 .025 0 .025-.032 0-.025-.01-.051-.017-.07a.66.66 0 0 1-.058-.21c0-.089.063-.119.122-.119.039 0 .073.017.101.045C.289.187.277.138.237.085.211.051.173.022.127.022.113.022.068.025.051.064c.016 0 .029 0 .043.012.01.009.02.022.02.041 0 .031-.027.035-.037.035C.054.152.021.136.021.087.021.037.065 0 .127 0 .23 0 .333.091.361.204l.096.382z"/></symbol><use xlink:href="#m" transform="matrix(10.9091 0 0 -10.9091 113.386 39.078)"/><use xlink:href="#f" transform="matrix(10.9091 0 0 -10.9091 53.104 50.592)"/><use xlink:href="#b" transform="matrix(10.9091 0 0 -10.9091 61.12 53.221)"/><use xlink:href="#m" transform="matrix(10.9091 0 0 -10.9091 66.77 55.337)"/><use xlink:href="#f" transform="matrix(10.9091 0 0 -10.9091 105.49 50.592)"/><use xlink:href="#m" transform="matrix(10.9091 0 0 -10.9091 113.386 55.337)"/><symbol id="n"><path d="M.232.01c0 .003 0 .005-.017.022C.09.158.058.347.058.5c0 .174.038.348.161.473.013.012.013.014.013.017 0 .007-.004.01-.01.01-.01 0-.1-.068-.159-.195A.727.727 0 0 1 0 .5C0 .422.011.301.066.188A.432.432 0 0 1 .222 0c.006 0 .01.003.01.01z"/></symbol><use xlink:href="#d" transform="matrix(10.9091 0 0 -10.9091 160.906 54.007)"/><use xlink:href="#n" transform="matrix(10.9091 0 0 -10.9091 169.862 55.828)"/><use xlink:href="#b" transform="matrix(10.9091 0 0 -10.9091 173.459 53.221)"/><use xlink:href="#f" transform="matrix(10.9091 0 0 -10.9091 182.119 50.592)"/><use xlink:href="#k" transform="matrix(10.9091 0 0 -10.9091 192.602 53.221)"/><symbol id="o"><path d="M.232.5a.729.729 0 0 1-.066.312A.432.432 0 0 1 .01 1C.004 1 0 .996 0 .99 0 .987 0 .985.019.967.117.868.174.709.174.5.174.329.137.153.013.027 0 .015 0 .013 0 .01 0 .004.004 0 .01 0c.01 0 .1.068.159.195C.22.305.232.416.232.5z"/></symbol><use xlink:href="#d" transform="matrix(10.9091 0 0 -10.9091 198.627 54.007)"/><use xlink:href="#l" transform="matrix(10.9091 0 0 -10.9091 209.896 53.101)"/><use xlink:href="#o" transform="matrix(10.9091 0 0 -10.9091 215.002 55.828)"/><use xlink:href="#m" transform="matrix(10.9091 0 0 -10.9091 218.939 55.337)"/><path stroke-width=".398" stroke-miterlimit="10" fill="none" stroke="#000" d="M13.66 58.178h216.68"/><use xlink:href="#j" transform="matrix(10.9091 0 0 -10.9091 20.182 69.999)"/><use xlink:href="#k" transform="matrix(10.9091 0 0 -10.9091 25.572 69.879)"/><use xlink:href="#f" transform="matrix(10.9091 0 0 -10.9091 31.891 67.25)"/><use xlink:href="#l" transform="matrix(10.9091 0 0 -10.9091 42.866 69.759)"/><use xlink:href="#f" transform="matrix(10.9091 0 0 -10.9091 50.68 67.25)"/><use xlink:href="#b" transform="matrix(10.9091 0 0 -10.9091 61.12 69.879)"/><use xlink:href="#m" transform="matrix(10.9091 0 0 -10.9091 66.77 71.995)"/><symbol id="p"><path d="M.421.342c0 .08-.005.16-.04.234A.185.185 0 0 1 .037.569.535.535 0 0 1 0 .342C0 .267.004.177.045.101A.183.183 0 0 1 .21 0c.054 0 .13.021.174.116a.533.533 0 0 1 .037.226M.21.022C.171.022.112.047.094.143.083.203.083.295.083.354c0 .064 0 .13.008.184C.11.657.185.666.21.666.243.666.309.648.328.549c.01-.056.01-.132.01-.195 0-.075 0-.143-.011-.207C.312.052.255.022.21.022z"/></symbol><use xlink:href="#p" transform="matrix(10.9091 0 0 -10.9091 113.78 69.999)"/><use xlink:href="#n" transform="matrix(10.9091 0 0 -10.9091 169.864 72.486)"/><use xlink:href="#b" transform="matrix(10.9091 0 0 -10.9091 173.46 69.879)"/><use xlink:href="#f" transform="matrix(10.9091 0 0 -10.9091 182.118 67.25)"/><use xlink:href="#k" transform="matrix(10.9091 0 0 -10.9091 192.602 69.879)"/><use xlink:href="#d" transform="matrix(10.9091 0 0 -10.9091 198.627 70.664)"/><use xlink:href="#l" transform="matrix(10.9091 0 0 -10.9091 209.896 69.759)"/><use xlink:href="#o" transform="matrix(10.9091 0 0 -10.9091 215.001 72.486)"/><use xlink:href="#m" transform="matrix(10.9091 0 0 -10.9091 218.938 71.995)"/><use xlink:href="#n" transform="matrix(10.9091 0 0 -10.9091 29.872 100.596)"/><use xlink:href="#j" transform="matrix(10.9091 0 0 -10.9091 33.581 98.109)"/><use xlink:href="#k" transform="matrix(10.9091 0 0 -10.9091 38.969 97.989)"/><use xlink:href="#f" transform="matrix(10.9091 0 0 -10.9091 45.288 95.36)"/><use xlink:href="#l" transform="matrix(10.9091 0 0 -10.9091 56.263 97.869)"/><use xlink:href="#d" transform="matrix(10.9091 0 0 -10.9091 63.78 98.774)"/><use xlink:href="#m" transform="matrix(10.9091 0 0 -10.9091 74.396 100.105)"/><symbol id="q"><path d="M.106.378a.053.053 0 0 1-.053.053A.053.053 0 0 1 0 .378C0 .349.024.325.053.325c.029 0 .053.024.053.053m0-.325a.053.053 0 0 1-.053.053A.053.053 0 0 1 0 .053C0 .024.024 0 .053 0c.029 0 .053.024.053.053z"/></symbol><use xlink:href="#o" transform="matrix(10.9091 0 0 -10.9091 80.442 100.596)"/><use xlink:href="#q" transform="matrix(10.9091 0 0 -10.9091 90.456 97.869)"/><use xlink:href="#n" transform="matrix(10.9091 0 0 -10.9091 99.085 100.596)"/><use xlink:href="#j" transform="matrix(10.9091 0 0 -10.9091 102.795 98.109)"/><use xlink:href="#k" transform="matrix(10.9091 0 0 -10.9091 108.178 97.989)"/><use xlink:href="#f" transform="matrix(10.9091 0 0 -10.9091 114.497 95.36)"/><use xlink:href="#l" transform="matrix(10.9091 0 0 -10.9091 125.472 97.869)"/><use xlink:href="#f" transform="matrix(10.9091 0 0 -10.9091 133.285 95.36)"/><use xlink:href="#k" transform="matrix(10.9091 0 0 -10.9091 143.769 97.989)"/><use xlink:href="#m" transform="matrix(10.9091 0 0 -10.9091 147.074 100.105)"/><use xlink:href="#d" transform="matrix(10.9091 0 0 -10.9091 155.534 98.774)"/><use xlink:href="#m" transform="matrix(10.9091 0 0 -10.9091 166.148 100.105)"/><symbol id="r"><path d="M.631.194c.015 0 .034 0 .034.02s-.019.02-.033.02H.033C.019.234 0 .234 0 .214s.019-.02.034-.02h.597M.632 0c.014 0 .033 0 .033.02S.646.04.631.04H.034C.019.04 0 .04 0 .02S.019 0 .033 0h.599z"/></symbol><symbol id="s"><path d="M.266.165V.078C.266.042.264.031.19.031H.169V0C.21.003.262.003.304.003.346.003.399.003.44 0v.031H.419C.345.031.343.042.343.078v.087h.1v.031h-.1v.455c0 .02 0 .026-.016.026-.009 0-.012 0-.02-.012L0 .196V.165h.266m.006.031H.028l.244.373V.196z"/></symbol><symbol id="t"><path d="M.248.374c.082.027.14.097.14.176C.388.632.3.688.204.688.103.688.027.628.027.552.027.519.049.5.078.5.109.5.129.522.129.551c0 .05-.047.05-.062.05C.098.65.164.663.2.663.241.663.296.641.296.551A.25.25 0 0 0 .268.437C.238.389.204.386.179.385A.554.554 0 0 0 .14.382C.132.381.125.38.125.37c0-.011.007-.011.024-.011h.044C.275.359.312.291.312.193.312.057.243.028.199.028.156.028.081.045.046.104.081.099.112.121.112.159a.054.054 0 0 1-.056.056C.032.215 0 .201 0 .157 0 .066.093 0 .202 0c.122 0 .213.091.213.193 0 .082-.063.16-.167.181z"/></symbol><use xlink:href="#o" transform="matrix(10.9091 0 0 -10.9091 172.194 100.596)"/><use xlink:href="#r" transform="matrix(10.9091 0 0 -10.9091 179.46 96.418)"/><use xlink:href="#s" transform="matrix(10.9091 0 0 -10.9091 190.663 97.869)"/><use xlink:href="#q" transform="matrix(10.9091 0 0 -10.9091 202.205 97.869)"/><use xlink:href="#t" transform="matrix(10.9091 0 0 -10.9091 210.212 98.109)"/><use xlink:href="#l" transform="matrix(10.9091 0 0 -10.9091 44.005 121.899)"/><use xlink:href="#j" transform="matrix(10.9091 0 0 -10.9091 49.034 122.139)"/><use xlink:href="#k" transform="matrix(10.9091 0 0 -10.9091 54.423 122.019)"/><use xlink:href="#f" transform="matrix(10.9091 0 0 -10.9091 60.742 119.39)"/><use xlink:href="#t" transform="matrix(10.9091 0 0 -10.9091 71.204 122.139)"/><use xlink:href="#d" transform="matrix(10.9091 0 0 -10.9091 79.233 122.804)"/><use xlink:href="#t" transform="matrix(10.9091 0 0 -10.9091 89.99 122.139)"/><use xlink:href="#m" transform="matrix(10.9091 0 0 -10.9091 95.304 124.135)"/><symbol id="u"><path d="M.077.077.183.18c.156.138.216.192.216.292 0 .114-.09.194-.212.194A.185.185 0 0 1 0 .485C0 .429.05.429.053.429c.017 0 .052.012.052.053a.05.05 0 0 1-.053.052L.039.533a.144.144 0 0 0 .135.102C.265.635.308.554.308.472c0-.08-.05-.159-.105-.221L.011.037C0 .026 0 .024 0 0h.371l.028.174H.374C.369.144.362.1.352.085.345.077.279.077.257.077h-.18z"/></symbol><use xlink:href="#r" transform="matrix(10.9091 0 0 -10.9091 104.37 120.448)"/><use xlink:href="#u" transform="matrix(10.9091 0 0 -10.9091 115.824 121.899)"/><use xlink:href="#p" transform="matrix(10.9091 0 0 -10.9091 121.159 122.139)"/><use xlink:href="#k" transform="matrix(10.9091 0 0 -10.9091 126.663 122.019)"/><use xlink:href="#f" transform="matrix(10.9091 0 0 -10.9091 132.982 119.39)"/><use xlink:href="#s" transform="matrix(10.9091 0 0 -10.9091 143.291 121.899)"/><use xlink:href="#f" transform="matrix(10.9091 0 0 -10.9091 151.77 119.39)"/><use xlink:href="#s" transform="matrix(10.9091 0 0 -10.9091 162.08 121.899)"/><use xlink:href="#k" transform="matrix(10.9091 0 0 -10.9091 167.708 122.019)"/><use xlink:href="#m" transform="matrix(10.9091 0 0 -10.9091 171.013 124.135)"/><use xlink:href="#d" transform="matrix(10.9091 0 0 -10.9091 179.473 122.804)"/><use xlink:href="#s" transform="matrix(10.9091 0 0 -10.9091 190.077 121.899)"/><use xlink:href="#m" transform="matrix(10.9091 0 0 -10.9091 195.542 124.135)"/><use xlink:href="#j" transform="matrix(10.9091 0 0 -10.9091 75.154 146.169)"/><use xlink:href="#k" transform="matrix(10.9091 0 0 -10.9091 80.543 146.049)"/><use xlink:href="#f" transform="matrix(10.9091 0 0 -10.9091 86.862 143.42)"/><use xlink:href="#l" transform="matrix(10.9091 0 0 -10.9091 97.837 145.929)"/><use xlink:href="#f" transform="matrix(10.9091 0 0 -10.9091 105.65 143.42)"/><use xlink:href="#s" transform="matrix(10.9091 0 0 -10.9091 115.96 145.929)"/><use xlink:href="#k" transform="matrix(10.9091 0 0 -10.9091 121.588 146.049)"/><use xlink:href="#m" transform="matrix(10.9091 0 0 -10.9091 124.893 148.165)"/><use xlink:href="#d" transform="matrix(10.9091 0 0 -10.9091 133.353 146.834)"/><use xlink:href="#m" transform="matrix(10.9091 0 0 -10.9091 143.967 148.165)"/><use xlink:href="#r" transform="matrix(10.9091 0 0 -10.9091 153.033 144.478)"/><use xlink:href="#p" transform="matrix(10.9091 0 0 -10.9091 164.367 146.169)"/><use xlink:href="#m" transform="matrix(10.9091 0 0 -10.9091 81.811 172.195)"/><use xlink:href="#f" transform="matrix(10.9091 0 0 -10.9091 90.564 167.45)"/><use xlink:href="#l" transform="matrix(10.9091 0 0 -10.9091 101.539 169.959)"/><use xlink:href="#r" transform="matrix(10.9091 0 0 -10.9091 109.666 168.508)"/><use xlink:href="#n" transform="matrix(10.9091 0 0 -10.9091 121.655 172.686)"/><use xlink:href="#s" transform="matrix(10.9091 0 0 -10.9091 125.124 169.959)"/><use xlink:href="#m" transform="matrix(10.9091 0 0 -10.9091 130.581 172.195)"/><use xlink:href="#f" transform="matrix(10.9091 0 0 -10.9091 139.334 167.45)"/><use xlink:href="#j" transform="matrix(10.9091 0 0 -10.9091 149.883 170.199)"/><use xlink:href="#o" transform="matrix(10.9091 0 0 -10.9091 155.414 172.686)"/><use xlink:href="#k" transform="matrix(10.9091 0 0 -10.9091 159.515 170.079)"/><use xlink:href="#k" transform="matrix(10.9091 0 0 -10.9091 63.237 203.006)"/><use xlink:href="#r" transform="matrix(10.9091 0 0 -10.9091 69.868 201.435)"/><use xlink:href="#m" transform="matrix(10.9091 0 0 -10.9091 85.011 197.742)"/><use xlink:href="#f" transform="matrix(10.9091 0 0 -10.9091 93.764 192.997)"/><use xlink:href="#l" transform="matrix(10.9091 0 0 -10.9091 104.739 195.506)"/></g></svg>