<svg xmlns="http://www.w3.org/2000/svg" xmlns:xlink="http://www.w3.org/1999/xlink" width="325.615" height="200.669" viewBox="0 0 180.897 111.483"><rect width="100%" height="100%" fill="white"/><clipPath id="a"><path transform="matrix(1 0 0 -1 -208.241 262.39)" d="M0 0h595.276v841.89H0z"/></clipPath><g clip-path="url(#a)"><symbol id="b"><path d="M.248.374c.082.027.14.097.14.176C.388.632.3.688.204.688.103.688.027.628.027.552.027.519.049.5.078.5.109.5.129.522.129.551c0 .05-.047.05-.062.05C.098.65.164.663.2.663.241.663.296.641.296.551A.25.25 0 0 0 .268.437C.238.389.204.386.179.385A.554.554 0 0 0 .14.382C.132.381.125.38.125.37c0-.011.007-.011.024-.011h.044C.275.359.312.291.312.193.312.057.243.028.199.028.156.028.081.045.046.104.081.099.112.121.112.159a.054.054 0 0 1-.056.056C.032.215 0 .201 0 .157 0 .066.093 0 .202 0c.122 0 .213.091.213.193 0 .082-.063.16-.167.181z"/></symbol><symbol id="c"><path d="M.366.696C.361.709.359.716.343.716S.324.71.319.696L.112.098C.094.047.054.032 0 .031V0c.023.001.066.003.102.003L.217 0v.031c-.05 0-.075.025-.075.051l.002.015.046.131h.247L.49.075.493.061c0-.03-.056-.03-.083-.03V0a2.274 2.274 0 0 0 .275 0v.031H.667c-.06 0-.074.007-.085.04L.366.696M.313.584.426.259H.201l.112.325z"/></symbol><symbol id="d"><path d="M.353.313h.279c.014 0 .033 0 .033.02s-.019.02-.033.02H.353v.28c0 .014 0 .033-.02.033S.313.647.313.633v-.28h-.28C.019.353 0 .353 0 .333s.019-.02.033-.02h.28v-.28c0-.014 0-.033.02-.033s.02.019.02.033v.28z"/></symbol><symbol id="e"><path d="M.186.366v.246c0 .033.002.04.049.04h.124C.456.652.491.567.491.514a.15.15 0 0 0-.16-.148H.186M.422.357C.519.376.588.44.588.514c0 .087-.092.169-.222.169H0V.652h.024C.101.652.103.641.103.605V.078C.103.042.101.031.024.031H0V0h.392c.133 0 .223.089.223.183C.615.27.533.345.422.357M.36.031H.235c-.047 0-.049.007-.049.04v.273h.188c.099 0 .141-.093.141-.16A.151.151 0 0 0 .36.031z"/></symbol><use xlink:href="#b" transform="matrix(10.9091 0 0 -10.9091 16.042 20.242)"/><use xlink:href="#b" transform="matrix(10.9091 0 0 -10.9091 21.497 20.242)"/><use xlink:href="#c" transform="matrix(10.9091 0 0 -10.9091 26.842 20.002)"/><use xlink:href="#d" transform="matrix(10.9091 0 0 -10.9091 47.395 20.907)"/><use xlink:href="#e" transform="matrix(10.9091 0 0 -10.9091 77.46 20.002)"/><symbol id="f"><path d="M.576 0c.017 0 .035 0 .035.02S.593.04.576.04H.035C.018.04 0 .04 0 .02S.018 0 .035 0h.541z"/></symbol><symbol id="g"><path d="M.779.241A.366.366 0 0 1 .636.012C.636 0 .648 0 .656 0c.017 0 .018.002.022.02a.312.312 0 0 0 .195.228c.012.004.015.006.015.013 0 .007-.006.01-.008.011a.311.311 0 0 0-.203.235C.674.519.673.522.656.522c-.008 0-.02 0-.02-.012A.36.36 0 0 1 .779.281H.036C.018.281 0 .281 0 .261s.018-.02.036-.02h.743z"/></symbol><use xlink:href="#f" transform="matrix(10.9091 0 0 -10.9091 107.496 17.493)"/><use xlink:href="#g" transform="matrix(10.9091 0 0 -10.9091 113.856 20.122)"/><symbol id="h"><path d="M.077.077.183.18c.156.138.216.192.216.292 0 .114-.09.194-.212.194A.185.185 0 0 1 0 .485C0 .429.05.429.053.429c.017 0 .052.012.052.053a.05.05 0 0 1-.053.052L.039.533a.144.144 0 0 0 .135.102C.265.635.308.554.308.472c0-.08-.05-.159-.105-.221L.011.037C0 .026 0 .024 0 0h.371l.028.174H.374C.369.144.362.1.352.085.345.077.279.077.257.077h-.18z"/></symbol><symbol id="i"><path d="M.399.223c0 .119-.082.219-.19.219A.176.176 0 0 1 .082.391v.195A.317.317 0 0 1 .167.573C.29.573.36.664.36.677.36.683.357.688.35.688c-.001 0-.003 0-.008-.003A.33.33 0 0 0 .073.684L.061.687c-.01 0-.01-.008-.01-.024V.367c0-.018 0-.026.014-.026.007 0 .009.003.013.009.011.016.048.07.129.07C.259.42.284.374.292.356A.308.308 0 0 0 .31.23C.31.195.31.135.286.093A.125.125 0 0 0 .179.028.156.156 0 0 0 .032.14C.035.139.038.138.049.138c.033 0 .05.025.05.049a.048.048 0 0 1-.05.049C.035.236 0 .229 0 .183 0 .097.069 0 .181 0a.22.22 0 0 1 .218.223z"/></symbol><symbol id="j"><path d="M0 .364C0 .157.162 0 .348 0c.163 0 .261.139.261.255 0 .01 0 .017-.013.017C.585.272.585.266.584.256.576.113.469.031.36.031.299.031.103.065.103.363c0 .299.195.333.256.333.109 0 .198-.091.218-.237C.579.445.579.442.593.442c.016 0 .016.003.016.024v.237c0 .017 0 .024-.011.024-.004 0-.008 0-.016-.012L.532.641C.495.677.444.727.348.727A.357.357 0 0 1 0 .364z"/></symbol><symbol id="k"><path d="M.266.165V.078C.266.042.264.031.19.031H.169V0C.21.003.262.003.304.003.346.003.399.003.44 0v.031H.419C.345.031.343.042.343.078v.087h.1v.031h-.1v.455c0 .02 0 .026-.016.026-.009 0-.012 0-.02-.012L0 .196V.165h.266m.006.031H.028l.244.373V.196z"/></symbol><use xlink:href="#h" transform="matrix(10.9091 0 0 -10.9091 140.893 20.002)"/><use xlink:href="#i" transform="matrix(10.9091 0 0 -10.9091 146.347 20.242)"/><use xlink:href="#j" transform="matrix(10.9091 0 0 -10.9091 151.867 20.242)"/><use xlink:href="#k" transform="matrix(10.9091 0 0 -10.9091 24.223 36.261)"/><use xlink:href="#k" transform="matrix(10.9091 0 0 -10.9091 29.677 36.261)"/><symbol id="l"><path d="M.305.313c.006.026.029.118.099.118.005 0 .029 0 .05-.013A.058.058 0 0 1 .406.364c0-.016.011-.035.038-.035.022 0 .054.018.054.058 0 .052-.059.066-.093.066C.347.453.312.4.3.377a.11.11 0 0 1-.108.076C.088.453.031.324.031.299c0-.01.01-.01.012-.01.008 0 .011.002.013.011.034.106.1.131.134.131.019 0 .054-.009.054-.067C.244.333.227.266.19.126.174.064.139.022.095.022c-.006 0-.029 0-.05.013C.07.04.092.061.092.089.092.116.07.124.055.124A.057.057 0 0 1 0 .066C0 .02.05 0 .094 0 .16 0 .196.07.199.076A.11.11 0 0 1 .307 0c.103 0 .16.129.16.154 0 .01-.009.01-.012.01C.446.164.444.16.442.153.409.046.341.022.309.022.27.022.254.054.254.088c0 .022.006.044.017.088l.034.137z"/></symbol><use xlink:href="#l" transform="matrix(10.9091 0 0 -10.9091 88.717 36.381)"/><use xlink:href="#f" transform="matrix(10.9091 0 0 -10.9091 16.338 58.39)"/><use xlink:href="#k" transform="matrix(10.9091 0 0 -10.9091 24.223 60.899)"/><use xlink:href="#k" transform="matrix(10.9091 0 0 -10.9091 29.677 60.899)"/><use xlink:href="#f" transform="matrix(10.9091 0 0 -10.9091 79.21 58.39)"/><use xlink:href="#k" transform="matrix(10.9091 0 0 -10.9091 88.29 53.519)"/><path stroke-width=".436" stroke-miterlimit="10" fill="none" stroke="#000" d="M87.985 58.172h5.455"/><symbol id="m"><path d="M.205.64c0 .024 0 .026-.023.026C.12.602.032.602 0 .602V.571a.3.3 0 0 1 .131.026V.079C.131.043.128.031.038.031H.006V0c.035.003.122.003.162.003.04 0 .127 0 .162-.003v.031H.298c-.09 0-.093.011-.093.048V.64z"/></symbol><symbol id="n"><path d="M.421.342c0 .08-.005.16-.04.234A.185.185 0 0 1 .037.569.535.535 0 0 1 0 .342C0 .267.004.177.045.101A.183.183 0 0 1 .21 0c.054 0 .13.021.174.116a.533.533 0 0 1 .037.226M.21.022C.171.022.112.047.094.143.083.203.083.295.083.354c0 .064 0 .13.008.184C.11.657.185.666.21.666.243.666.309.648.328.549c.01-.056.01-.132.01-.195 0-.075 0-.143-.011-.207C.312.052.255.022.21.022z"/></symbol><use xlink:href="#b" transform="matrix(10.9091 0 0 -10.9091 88.443 68.622)"/><use xlink:href="#d" transform="matrix(10.9091 0 0 -10.9091 136.733 61.804)"/><use xlink:href="#m" transform="matrix(10.9091 0 0 -10.9091 146.773 53.519)"/><use xlink:href="#n" transform="matrix(10.9091 0 0 -10.9091 151.682 53.759)"/><use xlink:href="#n" transform="matrix(10.9091 0 0 -10.9091 157.137 53.759)"/><path stroke-width=".436" stroke-miterlimit="10" fill="none" stroke="#000" d="M145.802 58.172h16.364"/><use xlink:href="#b" transform="matrix(10.9091 0 0 -10.9091 151.715 68.622)"/><path stroke-width=".398" stroke-miterlimit="10" fill="none" stroke="#000" d="M9.455 73.932h159.884"/><use xlink:href="#n" transform="matrix(10.9091 0 0 -10.9091 29.797 94.131)"/><use xlink:href="#l" transform="matrix(10.9091 0 0 -10.9091 67.538 94.011)"/><use xlink:href="#f" transform="matrix(10.9091 0 0 -10.9091 76.786 91.382)"/><use xlink:href="#k" transform="matrix(10.9091 0 0 -10.9091 88.29 86.511)"/><path stroke-width=".436" stroke-miterlimit="10" fill="none" stroke="#000" d="M87.985 91.164h5.455"/><use xlink:href="#b" transform="matrix(10.9091 0 0 -10.9091 88.443 101.614)"/><use xlink:href="#m" transform="matrix(10.9091 0 0 -10.9091 146.773 86.511)"/><use xlink:href="#n" transform="matrix(10.9091 0 0 -10.9091 151.682 86.751)"/><use xlink:href="#n" transform="matrix(10.9091 0 0 -10.9091 157.137 86.751)"/><path stroke-width=".436" stroke-miterlimit="10" fill="none" stroke="#000" d="M145.802 91.164h16.364"/><use xlink:href="#b" transform="matrix(10.9091 0 0 -10.9091 151.715 101.614)"/><use xlink:href="#l" transform="matrix(10.9091 0 0 -10.9091 43.312 136.645)"/><use xlink:href="#f" transform="matrix(10.9091 0 0 -10.9091 52.56 134.016)"/><use xlink:href="#k" transform="matrix(10.9091 0 0 -10.9091 64.065 129.145)"/></g></svg>