<svg xmlns="http://www.w3.org/2000/svg" xmlns:xlink="http://www.w3.org/1999/xlink" width="545.215" height="206.349" viewBox="0 0 302.897 114.638"><clipPath id="a"><path transform="matrix(1 0 0 -1 -145.138 180.355)" d="M0 0h595.276v841.89H0z"/></clipPath><g clip-path="url(#a)"><symbol id="b"><path d="M.333.389C.315.426.286.453.241.453.124.453 0 .306 0 .16 0 .066.055 0 .133 0c.02 0 .07.004.13.075A.09.09 0 0 1 .354 0c.035 0 .058.023.074.055.017.036.03.097.03.099 0 .01-.009.01-.012.01C.436.164.435.16.432.146.415.081.397.022.356.022c-.027 0-.03.026-.03.046 0 .022.002.03.013.074l.022.09.036.14C.404.4.404.402.404.406c0 .017-.012.027-.029.027C.351.433.336.411.333.389M.268.13C.263.112.263.11.248.093.204.038.163.022.135.022c-.05 0-.064.055-.064.094 0 .05.032.173.055.219.031.059.076.096.116.096.065 0 .079-.082.079-.088C.321.337.319.331.318.326L.268.13z"/></symbol><use xlink:href="#b" transform="matrix(10.9091 0 0 -10.9091 35.975 21.25)"/><symbol id="c"><path d="M.366.696C.361.709.359.716.343.716S.324.71.319.696L.112.098C.094.047.054.032 0 .031V0c.023.001.066.003.102.003L.217 0v.031c-.05 0-.075.025-.075.051l.002.015.046.131h.247L.49.075.493.061c0-.03-.056-.03-.083-.03V0a2.274 2.274 0 0 0 .275 0v.031H.667c-.06 0-.074.007-.085.04L.366.696M.313.584.426.259H.201l.112.325z"/></symbol><symbol id="d"><path d="M.353.313h.279c.014 0 .033 0 .033.02s-.019.02-.033.02H.353v.28c0 .014 0 .033-.02.033S.313.647.313.633v-.28h-.28C.019.353 0 .353 0 .333s.019-.02.033-.02h.28v-.28c0-.014 0-.033.02-.033s.02.019.02.033v.28z"/></symbol><symbol id="e"><path d="M.186.366v.246c0 .033.002.04.049.04h.124C.456.652.491.567.491.514a.15.15 0 0 0-.16-.148H.186M.422.357C.519.376.588.44.588.514c0 .087-.092.169-.222.169H0V.652h.024C.101.652.103.641.103.605V.078C.103.042.101.031.024.031H0V0h.392c.133 0 .223.089.223.183C.615.27.533.345.422.357M.36.031H.235c-.047 0-.049.007-.049.04v.273h.188c.099 0 .141-.093.141-.16A.151.151 0 0 0 .36.031z"/></symbol><use xlink:href="#c" transform="matrix(10.9091 0 0 -10.9091 41.655 21.13)"/><use xlink:href="#d" transform="matrix(10.9091 0 0 -10.9091 77.415 22.035)"/><use xlink:href="#e" transform="matrix(10.9091 0 0 -10.9091 118.368 21.13)"/><symbol id="f"><path d="M.576 0c.017 0 .035 0 .035.02S.593.04.576.04H.035C.018.04 0 .04 0 .02S.018 0 .035 0h.541z"/></symbol><symbol id="g"><path d="M.779.241A.366.366 0 0 1 .636.012C.636 0 .648 0 .656 0c.017 0 .018.002.022.02a.312.312 0 0 0 .195.228c.012.004.015.006.015.013 0 .007-.006.01-.008.011a.311.311 0 0 0-.203.235C.674.519.673.522.656.522c-.008 0-.02 0-.02-.012A.36.36 0 0 1 .779.281H.036C.018.281 0 .281 0 .261s.018-.02.036-.02h.743z"/></symbol><use xlink:href="#f" transform="matrix(10.9091 0 0 -10.9091 159.286 18.62)"/><use xlink:href="#g" transform="matrix(10.9091 0 0 -10.9091 165.646 21.25)"/><symbol id="h"><path d="M.355.391c-.016 0-.03 0-.044-.014A.054.054 0 0 1 .293.338C.293.314.311.303.33.303c.029 0 .056.024.056.064 0 .049-.047.086-.118.086C.133.453 0 .31 0 .169 0 .079.058 0 .162 0c.143 0 .227.106.227.118 0 .006-.006.013-.012.013C.372.131.37.129.364.121.285.022.176.022.164.022c-.063 0-.09.049-.09.109 0 .041.02.138.054.2.031.057.086.1.141.1.034 0 .072-.013.086-.04z"/></symbol><use xlink:href="#h" transform="matrix(10.9091 0 0 -10.9091 230.517 21.25)"/><symbol id="i"><path d="M0 .364C0 .157.162 0 .348 0c.163 0 .261.139.261.255 0 .01 0 .017-.013.017C.585.272.585.266.584.256.576.113.469.031.36.031.299.031.103.065.103.363c0 .299.195.333.256.333.109 0 .198-.091.218-.237C.579.445.579.442.593.442c.016 0 .016.003.016.024v.237c0 .017 0 .024-.011.024-.004 0-.008 0-.016-.012L.532.641C.495.677.444.727.348.727A.357.357 0 0 1 0 .364z"/></symbol><symbol id="j"><path d="M.399.223c0 .119-.082.219-.19.219A.176.176 0 0 1 .082.391v.195A.317.317 0 0 1 .167.573C.29.573.36.664.36.677.36.683.357.688.35.688c-.001 0-.003 0-.008-.003A.33.33 0 0 0 .073.684L.061.687c-.01 0-.01-.008-.01-.024V.367c0-.018 0-.026.014-.026.007 0 .009.003.013.009.011.016.048.07.129.07C.259.42.284.374.292.356A.308.308 0 0 0 .31.23C.31.195.31.135.286.093A.125.125 0 0 0 .179.028.156.156 0 0 0 .032.14C.035.139.038.138.049.138c.033 0 .05.025.05.049a.048.048 0 0 1-.05.049C.035.236 0 .229 0 .183 0 .097.069 0 .181 0a.22.22 0 0 1 .218.223z"/></symbol><use xlink:href="#i" transform="matrix(10.9091 0 0 -10.9091 235.402 21.37)"/><use xlink:href="#j" transform="matrix(10.9091 0 0 -10.9091 37.687 37.629)"/><symbol id="k"><path d="M.214.694c0 .001 0 .011-.013.011C.178.705.105.697.079.695.071.694.06.693.06.674.06.663.07.663.085.663.133.663.134.654.134.646L.131.626l-.126-.5C.002.115 0 .108 0 .092A.09.09 0 0 1 .091 0c.033 0 .058.02.075.056.018.038.03.096.03.098 0 .01-.009.01-.012.01C.174.164.173.16.17.146.153.081.134.022.094.022c-.03 0-.03.032-.03.046A.14.14 0 0 0 .07.116l.144.578z"/></symbol><use xlink:href="#k" transform="matrix(10.9091 0 0 -10.9091 43.077 37.509)"/><use xlink:href="#f" transform="matrix(10.9091 0 0 -10.9091 49.396 34.88)"/><symbol id="l"><path d="M.205.64c0 .024 0 .026-.023.026C.12.602.032.602 0 .602V.571a.3.3 0 0 1 .131.026V.079C.131.043.128.031.038.031H.006V0c.035.003.122.003.162.003.04 0 .127 0 .162-.003v.031H.298c-.09 0-.093.011-.093.048V.64z"/></symbol><use xlink:href="#l" transform="matrix(10.9091 0 0 -10.9091 60.37 37.389)"/><symbol id="m"><path d="M.457.586C.461.6.461.602.461.609c0 .018-.014.027-.029.027A.043.043 0 0 1 .397.615 1.87 1.87 0 0 1 .363.481L.318.301C.314.286.271.216.205.216.154.216.143.26.143.297c0 .046.017.108.051.196.016.041.02.052.02.072a.08.08 0 0 1-.082.082C.037.647 0 .502 0 .493c0-.01.01-.01.012-.01.01 0 .011.002.016.018.027.094.067.124.101.124.008 0 .025 0 .025-.032 0-.025-.01-.051-.017-.07a.66.66 0 0 1-.058-.21c0-.089.063-.119.122-.119.039 0 .073.017.101.045C.289.187.277.138.237.085.211.051.173.022.127.022.113.022.068.025.051.064c.016 0 .029 0 .043.012.01.009.02.022.02.041 0 .031-.027.035-.037.035C.054.152.021.136.021.087.021.037.065 0 .127 0 .23 0 .333.091.361.204l.096.382z"/></symbol><use xlink:href="#m" transform="matrix(10.9091 0 0 -10.9091 141.002 39.625)"/><use xlink:href="#f" transform="matrix(10.9091 0 0 -10.9091 21.077 60.67)"/><symbol id="n"><path d="M.232.01c0 .003 0 .005-.017.022C.09.158.058.347.058.5c0 .174.038.348.161.473.013.012.013.014.013.017 0 .007-.004.01-.01.01-.01 0-.1-.068-.159-.195A.727.727 0 0 1 0 .5C0 .422.011.301.066.188A.432.432 0 0 1 .222 0c.006 0 .01.003.01.01z"/></symbol><use xlink:href="#n" transform="matrix(10.9091 0 0 -10.9091 29.737 65.906)"/><use xlink:href="#j" transform="matrix(10.9091 0 0 -10.9091 33.446 63.419)"/><use xlink:href="#k" transform="matrix(10.9091 0 0 -10.9091 38.834 63.299)"/><use xlink:href="#f" transform="matrix(10.9091 0 0 -10.9091 45.153 60.67)"/><symbol id="o"><path d="M.232.5a.729.729 0 0 1-.066.312A.432.432 0 0 1 .01 1C.004 1 0 .996 0 .99 0 .987 0 .985.019.967.117.868.174.709.174.5.174.329.137.153.013.027 0 .015 0 .013 0 .01 0 .004.004 0 .01 0c.01 0 .1.068.159.195C.22.305.232.416.232.5z"/></symbol><use xlink:href="#l" transform="matrix(10.9091 0 0 -10.9091 56.128 63.179)"/><use xlink:href="#o" transform="matrix(10.9091 0 0 -10.9091 61.233 65.906)"/><use xlink:href="#f" transform="matrix(10.9091 0 0 -10.9091 108.743 60.67)"/><use xlink:href="#j" transform="matrix(10.9091 0 0 -10.9091 118.063 56.039)"/><use xlink:href="#k" transform="matrix(10.9091 0 0 -10.9091 123.453 55.919)"/><use xlink:href="#f" transform="matrix(10.9091 0 0 -10.9091 129.772 53.29)"/><use xlink:href="#l" transform="matrix(10.9091 0 0 -10.9091 140.747 55.799)"/><path stroke-width=".436" stroke-miterlimit="10" fill="none" stroke="#000" d="M117.518 60.451h27.712"/><use xlink:href="#b" transform="matrix(10.9091 0 0 -10.9091 128.927 70.782)"/><use xlink:href="#d" transform="matrix(10.9091 0 0 -10.9091 188.523 64.084)"/><use xlink:href="#n" transform="matrix(10.9091 0 0 -10.9091 198.672 58.526)"/><use xlink:href="#j" transform="matrix(10.9091 0 0 -10.9091 202.381 56.039)"/><use xlink:href="#k" transform="matrix(10.9091 0 0 -10.9091 207.769 55.919)"/><use xlink:href="#f" transform="matrix(10.9091 0 0 -10.9091 214.088 53.29)"/><use xlink:href="#l" transform="matrix(10.9091 0 0 -10.9091 225.063 55.799)"/><use xlink:href="#o" transform="matrix(10.9091 0 0 -10.9091 230.168 58.526)"/><use xlink:href="#n" transform="matrix(10.9091 0 0 -10.9091 234.87 58.526)"/><use xlink:href="#b" transform="matrix(10.9091 0 0 -10.9091 238.468 55.919)"/><use xlink:href="#f" transform="matrix(10.9091 0 0 -10.9091 247.128 53.29)"/><use xlink:href="#k" transform="matrix(10.9091 0 0 -10.9091 257.612 55.919)"/><use xlink:href="#d" transform="matrix(10.9091 0 0 -10.9091 263.637 56.704)"/><use xlink:href="#l" transform="matrix(10.9091 0 0 -10.9091 274.906 55.799)"/><use xlink:href="#o" transform="matrix(10.9091 0 0 -10.9091 280.011 58.526)"/><path stroke-width=".436" stroke-miterlimit="10" fill="none" stroke="#000" d="M197.593 60.451h86.039"/><use xlink:href="#b" transform="matrix(10.9091 0 0 -10.9091 238.165 70.782)"/><path stroke-width=".398" stroke-miterlimit="10" fill="none" stroke="#000" d="M14.195 76.211h276.61"/><symbol id="p"><path d="M.421.342c0 .08-.005.16-.04.234A.185.185 0 0 1 .037.569.535.535 0 0 1 0 .342C0 .267.004.177.045.101A.183.183 0 0 1 .21 0c.054 0 .13.021.174.116a.533.533 0 0 1 .037.226M.21.022C.171.022.112.047.094.143.083.203.083.295.083.354c0 .064 0 .13.008.184C.11.657.185.666.21.666.243.666.309.648.328.549c.01-.056.01-.132.01-.195 0-.075 0-.143-.011-.207C.312.052.255.022.21.022z"/></symbol><use xlink:href="#p" transform="matrix(10.9091 0 0 -10.9091 59.825 97.562)"/><use xlink:href="#m" transform="matrix(10.9091 0 0 -10.9091 97.566 99.558)"/><use xlink:href="#f" transform="matrix(10.9091 0 0 -10.9091 106.32 94.813)"/><use xlink:href="#j" transform="matrix(10.9091 0 0 -10.9091 118.063 90.182)"/><use xlink:href="#k" transform="matrix(10.9091 0 0 -10.9091 123.453 90.062)"/><use xlink:href="#f" transform="matrix(10.9091 0 0 -10.9091 129.772 87.433)"/><use xlink:href="#l" transform="matrix(10.9091 0 0 -10.9091 140.747 89.942)"/><path stroke-width=".436" stroke-miterlimit="10" fill="none" stroke="#000" d="M117.518 94.595h27.712"/><use xlink:href="#b" transform="matrix(10.9091 0 0 -10.9091 128.927 104.925)"/><use xlink:href="#n" transform="matrix(10.9091 0 0 -10.9091 198.672 92.67)"/><use xlink:href="#j" transform="matrix(10.9091 0 0 -10.9091 202.381 90.182)"/><use xlink:href="#k" transform="matrix(10.9091 0 0 -10.9091 207.769 90.062)"/><use xlink:href="#f" transform="matrix(10.9091 0 0 -10.9091 214.088 87.433)"/><use xlink:href="#l" transform="matrix(10.9091 0 0 -10.9091 225.063 89.942)"/><use xlink:href="#o" transform="matrix(10.9091 0 0 -10.9091 230.168 92.67)"/><use xlink:href="#n" transform="matrix(10.9091 0 0 -10.9091 234.87 92.67)"/><use xlink:href="#b" transform="matrix(10.9091 0 0 -10.9091 238.468 90.062)"/><use xlink:href="#f" transform="matrix(10.9091 0 0 -10.9091 247.128 87.433)"/><use xlink:href="#k" transform="matrix(10.9091 0 0 -10.9091 257.612 90.062)"/><use xlink:href="#d" transform="matrix(10.9091 0 0 -10.9091 263.637 90.847)"/><use xlink:href="#l" transform="matrix(10.9091 0 0 -10.9091 274.906 89.942)"/><use xlink:href="#o" transform="matrix(10.9091 0 0 -10.9091 280.011 92.67)"/><path stroke-width=".436" stroke-miterlimit="10" fill="none" stroke="#000" d="M197.593 94.595h86.039"/><use xlink:href="#b" transform="matrix(10.9091 0 0 -10.9091 238.165 104.925)"/></g></svg>