<svg xmlns="http://www.w3.org/2000/svg" xmlns:xlink="http://www.w3.org/1999/xlink" width="445.76" height="309.06" viewBox="0 0 334.32 231.795"><rect width="100%" height="100%" fill="white"/><clipPath id="a"><path transform="matrix(1 0 0 -1 -424.958 343.056)" d="M0 0h841v1190H0z"/></clipPath><g clip-path="url(#a)"><path stroke-width=".36" stroke-miterlimit="10" fill="none" stroke="#000" d="m20.714 234.743-50.464 21.951"/><clipPath id="b"><path transform="matrix(1 0 0 -1 -424.958 343.056)" d="M0 1190h840.88V0H0z" fill-rule="evenodd"/></clipPath><g clip-path="url(#b)" stroke-width=".36" stroke-miterlimit="10" fill="none" stroke="#000"><path d="M20.714 234.743v21.951M-29.87 234.743h50.824M20.714 234.743v21.951M-29.87 234.743h50.824"/></g><clipPath id="c"><path transform="matrix(1 0 0 -1 -424.958 343.056)" d="M0 1190h840.88V0H0z" fill-rule="evenodd"/></clipPath><g clip-path="url(#c)"><symbol id="d"><path transform="matrix(.001 0 0 .001 -.018 .009)" d="M243-9v23c66 0 91 11 91 44v103H18v47l367 514h50V210h104v-49H435V56c0-32 35-41 90-41V-9zm91 604L65 210h269z"/></symbol><symbol id="e"><path transform="matrix(.001 0 0 .001 -.053 .015)" d="M158 134c105 0 105-149 0-149s-105 149 0 149z"/></symbol><use xlink:href="#d" transform="matrix(12.96 0 0 -12.96 11.715 23.293)"/><use xlink:href="#e" transform="matrix(12.96 0 0 -12.96 19.128 23.37)"/><symbol id="f"><path transform="matrix(.001 0 0 .001 -.014 .103)" d="M739 381s-59-3-98-5c-48-2-117-3-117-3l3 126c1 36 16 57-37 61-22 2-66 8-84 7-25-1-38-18-10-25 8-2 62-27 62-43l1-129s-91-3-164-4c-152-2-221 9-236 14-28 10-45-1-14-22 18-12 66-31 104-45 46-16 52 9 84 12 0 0 119 18 252 20 110 2 225 2 265 1 28 0 188-12 200-7 41 16 19 49-3 56-20 7-94 13-107 10-19-4-61-22-101-24zm-17 324s-9-60-22-126c-18-89-27-118-33-130-9-19 20-9 24-4s25 24 48 81c31 77 56 158 56 158 9 24 36 55 2 57-22 1-70 4-78 1-15-5-53-10-82-11 0 0-53-2-110-4-191-5-281 0-306 8-35 11-40-7-10-26 11-7 46-22 70-31 34-12 62 10 83 11 0 0 99 8 168 11 84 4 190 5 190 5zM478 270c-9-11 10-13 14-25 9-29-10-30-18-38 0 0-156-13-157-152-1-84 87-158 189-158 92 0 186 56 188 150 3 147-167 160-168 160 1 1 4 9 10 17s21 20-11 35c-23 11-40 20-47 11zm26-100c67 1 125-45 127-118 2-61-64-105-127-101-61 4-117 41-120 107-3 67 55 111 120 112z"/></symbol><symbol id="g"><path transform="matrix(.001 0 0 .001 -.085 .122)" d="M426 508c4-84-76-125-136-122-70 3-133 51-129 126s67 109 130 110c72 1 132-43 135-114zM271 666s-166 2-178-150c-8-101 85-177 194-180s205 69 201 172c-5 127-158 154-158 154 1 1 2 6 11 16 6 7 14 23-23 43-12 6-29 13-40 7-12-6 11-13 15-31 5-21-18-28-22-31zm459 58V603s-40-6-85-7c-40-1-113 1-126 6-12 4-39 3-14-19 9-8 32-21 47-27 29-12 35 3 60 5 24 2 37 3 61 4 22 1 57 3 57 2V426s-29-4-76-7c-43-3-114-5-136 0-25 6-43-3-15-20 10-6 30-16 49-23 21-8 38 6 63 8l115 10v-38c0-50 10-80 25-79 29 2 40 63 41 173l3 267c0 43 17 61-41 79-29 9-98 27-112 26-29-2-50-15-10-30 19-7 94-46 94-68zm-8-520V-38c0-29 2-84 21-83 26 1 40 78 42 159l4 149c1 33 22 53-13 56-11 1-43 2-58-2-16-4-14-8-37-9 0 0-43-2-136-5-80-3-195-5-240 5-24 5-44-3-18-19 12-8 60-25 87-35 30-11 48 9 74 11 0 0 77 5 133 8 86 4 140 7 141 7z"/></symbol><symbol id="h"><path transform="matrix(.001 0 0 .001 -.079 .124)" d="M427 397c0-76-52-120-136-121-52-1-140 43-138 130 2 70 65 118 134 120 75 2 140-50 140-129zM270 572S92 564 84 411c-5-95 82-182 211-184 105-2 201 73 200 170-1 150-169 174-171 174 0 0 3 12 10 17 19 13 19 27-12 43-15 8-52 17-57 7-6-12 10-14 18-29 10-20-8-33-13-37zm460 151V19c0-82 5-143 22-142 31 2 40 95 42 276l7 565c1 46 21 62-37 78-29 8-101 28-119 26-30-3-52-18-14-30 17-5 99-43 99-69z"/></symbol><use xlink:href="#f" transform="matrix(10.944 0 0 -11.52 30.475 25.683)"/><use xlink:href="#g" transform="matrix(10.944 0 0 -11.52 41.572 25.901)"/><use xlink:href="#h" transform="matrix(10.944 0 0 -11.52 51.827 25.925)"/><symbol id="i"><path d="M.219.976C.23.988.235.996.229 1 .224 1.004.215 1 .2.99A.51.51 0 0 1 .062.807.65.65 0 0 1 .015.66.806.806 0 0 1 .065.19.593.593 0 0 1 .201.015C.217.003.226 0 .23.007.23.014.227.023.215.035a.477.477 0 0 0-.077.104.754.754 0 0 0-.08.363c0 .046.003.09.008.13a.674.674 0 0 0 .076.244c.021.037.047.07.077.1z"/></symbol><use xlink:href="#i" transform="matrix(11.04 0 0 -11.04 68.142 25.972)"/><symbol id="j"><path d="M.42.342a.765.765 0 0 1-.013.156.259.259 0 0 1-.066.136.183.183 0 0 1-.13.054.171.171 0 0 1-.138-.06A.277.277 0 0 1 .012.49.823.823 0 0 1 0 .341.75.75 0 0 1 .014.188.255.255 0 0 1 .082.05.173.173 0 0 1 .141.014.18.18 0 0 1 .21 0c.039 0 .074.01.103.031.03.02.054.049.07.085a.365.365 0 0 1 .031.11c.005.031.007.07.007.116M.337.455A5.751 5.751 0 0 0 .336.246 1.29 1.29 0 0 0 .329.165.257.257 0 0 0 .31.087.132.132 0 0 0 .268.04.1.1 0 0 0 .154.039a.135.135 0 0 0-.04.044.238.238 0 0 0-.024.08.573.573 0 0 0-.006.083 5.282 5.282 0 0 0 0 .204c0 .032.003.06.006.081.004.034.013.06.024.077a.106.106 0 0 0 .15.042.133.133 0 0 0 .042-.042A.186.186 0 0 0 .33.534a.76.76 0 0 0 .007-.08v.001z"/></symbol><use xlink:href="#j" transform="matrix(11.04 0 0 -11.04 71.193 24.472)"/><symbol id="k"><path d="M.12.227a.077.077 0 0 1-.02.05A.061.061 0 0 1 .054.3.054.054 0 0 1 .015.286.053.053 0 0 1 0 .247C0 .231.005.22.015.21A.053.053 0 0 1 .054.194C.063.194.07.196.078.2a.078.078 0 0 1 .02.012.264.264 0 0 0-.03-.13L.062.071A.24.24 0 0 0 .018.016C.015.012.016.007.022.003.023 0 .027.001.032.004c.005.003.01.008.016.014A.522.522 0 0 1 .08.057a.24.24 0 0 1 .033.085.471.471 0 0 1 .005.079v.006H.12z"/></symbol><use xlink:href="#k" transform="matrix(11.04 0 0 -11.04 76.948 25.91)"/><symbol id="l"><path d="M.54.42C.54.43.535.437.526.44A.083.083 0 0 1 .5.443H.165a.15.15 0 0 1-.058-.01.127.127 0 0 1-.046-.036.408.408 0 0 1-.057-.08L.002.314A.015.015 0 0 1 0 .31C0 .307 0 .304.002.3.003.295.007.294.015.298a.1.1 0 0 1 .012.01.17.17 0 0 0 .076.069.095.095 0 0 0 .025.008h.084A2.437 2.437 0 0 0 .083.053a.066.066 0 0 1-.008-.03C.077.014.084.008.095.004.107 0 .118.002.126.009a.05.05 0 0 1 .015.02C.15.052.16.088.174.136l.034.137.03.113H.35L.338.33a2.185 2.185 0 0 1-.02-.1.674.674 0 0 1-.01-.102.36.36 0 0 1 .007-.074C.323.019.335.002.353.002c.015 0 .026.006.033.019a.044.044 0 0 1 .002.041.284.284 0 0 0-.023.08.516.516 0 0 0-.002.165l.014.079h.114a.07.07 0 0 1 .032.006A.03.03 0 0 1 .54.42z"/></symbol><use xlink:href="#l" transform="matrix(11.04 0 0 -11.04 82.824 24.375)"/><symbol id="m"><path d="M.235.502a.757.757 0 0 1-.063.306.602.602 0 0 1-.138.183C.019 1 .009 1.004.004 1 0 .995.005.987.017.975A.505.505 0 0 0 .143.757a.932.932 0 0 0 .001-.5A.615.615 0 0 0 .096.14.456.456 0 0 0 .02.035C.007.023.003.014.006.007.008 0 .018.003.034.015c.025.019.05.046.076.081a.633.633 0 0 1 .11.248c.01.05.015.103.015.158z"/></symbol><use xlink:href="#m" transform="matrix(11.04 0 0 -11.04 89.948 25.979)"/><symbol id="n"><path transform="matrix(.001 0 0 .001 -.113 .06)" d="M455 472c5-82-61-121-131-118-71 3-138 43-136 120s94 112 135 113c56 1 127-36 132-115zM288 626s-156-24-166-148c-9-110 87-168 194-171 104-3 214 46 208 157-8 148-175 162-175 162 1 1 5 13 13 19 9 7 26 17-10 36-14 7-49 21-57 15-12-9 18-17 20-34 2-19-23-32-27-36zm442 104V233c0-53 3-120 23-119 35 2 40 117 41 232l4 379c0 41 19 53-40 70-25 7-92 27-104 27-26-1-58-13-19-28 13-5 95-42 95-64zM434 124l3-98c1-34 1-59 22-72 22-14 57-11 94-11l155 1c62 0 150-3 159 0 44 15 26 50-7 55-18 3-62 6-79 2-18-4-38-23-79-23l-169-2c-13 0-22 1-29 6-2 1-4 16-4 23l2 120c1 32 15 61-32 65-29 3-107 8-123 6-30-4-49-21-7-28 10-2 93-25 94-44z"/></symbol><use xlink:href="#n" transform="matrix(10.944 0 0 -11.52 96.239 25.187)"/><symbol id="o"><path transform="matrix(.001 0 0 .001 -.04 .124)" d="M327 176c21-7 51-20 53-36l20-196c2-22 8-68 25-67 22 1 32 53 32 53 1 1 84 5 138 5 64 0 119-1 129-2 37-5 43 31 18 41-6 2-23 3-23 5-1 0 10 51 17 83 10 46 18 87 18 87 4 20 37 52 4 62-7 2-63 9-79 4s-4-8-116-12c-47-2-115-7-121-3-15 9-105 11-114 8-17-5-51-15-1-32zm360-2s-2-65-3-106c-1-35-3-90-3-91-1 0-64-6-105-8-46-2-117-2-117-2l-12 198zM232 741c-41 16-32-6-22-18s42-43 66-53c17-7 135-2 154 0 39 4 46 54-8 54-11 0-113 3-131 5-27 2-52 9-59 12zm218-360c-2-29-26-88-104-87-67 1-115 43-117 88-3 76 68 107 116 106 69-2 109-55 105-107zM308 565c2 0 13-13 17-20 6-11-1-17-11-26 0-1-153-13-150-139 1-59 69-137 184-135 109 2 165 75 164 137-2 125-149 138-149 138 2 1 15 18 12 27-4 11-32 22-31 22-1 1 76 5 120 6 39 1 76 1 103 2 37 2 35 42 10 49-14 4-76 9-95-4-17-12-50-23-165-27-121-4-194-6-228 2-49 11-25-16 13-33 77-34 50-15 97-9 0 0 35 5 58 7 20 2 51 3 51 3zm385 163V330c0-62 7-88 19-89 21-1 43 45 44 112l1 69s154 4 164 3c44-4 45 48 11 56-26 6-71 14-97-11-17-16-77-15-77-14l2 260c0 55 13 57-17 72-20 10-112 35-129 34-43-2-46-21-14-31 18-6 93-50 93-63z"/></symbol><symbol id="p"><path transform="matrix(.001 0 0 .001 -.024 .103)" d="M478 714c1-1-42-57-129-123-98-74-249-138-260-141-18-6-13-18 15-10 14 4 138 44 224 89 112 58 158 100 158 100s71-34 159-68c58-22 131-55 177-66 24-6 58 15 4 56-35 27-128 53-139 50-32-10-177 46-177 46s16 19 28 30c15 14 27 27 27 27 11 11 36 30-15 51-30 13-84 34-110 36-15 1-36-14-11-27 19-10 59-40 49-50zM226 305c5 1 46 7 117 12 57 4 132 8 132 8l3-319c1-72 5-108 16-108 40-1 44 120 45 200l3 230s258 2 377-7c51-4 59 47 12 57-26 6-102 14-115 7-41-24-77-19-312-30-280-13-406-3-438 7-42 13-29-15-14-21 23-9 72-37 97-46 30-11 60 8 77 10z"/></symbol><use xlink:href="#o" transform="matrix(10.944 0 0 -11.52 110.92 25.925)"/><use xlink:href="#p" transform="matrix(10.944 0 0 -11.52 121.065 25.683)"/><symbol id="q"><path d="M.568.84a.057.057 0 0 1-.025.052.094.094 0 0 1-.056.017A.117.117 0 0 1 .45.903.155.155 0 0 1 .376.845.217.217 0 0 1 .35.793 1.563 1.563 0 0 1 .302.635h-.07a.05.05 0 0 1-.02-.002C.205.63.202.624.201.615c0-.004.002-.008.007-.01A.045.045 0 0 1 .225.604h.069L.184.209.18.19A.692.692 0 0 0 .145.085C.126.043.105.022.082.022c-.01 0-.019.002-.026.005a.052.052 0 0 0-.02.013.066.066 0 0 1 .039.016c.011.01.018.022.02.038 0 .01-.003.02-.009.026A.035.035 0 0 1 .062.13.058.058 0 0 1 .019.11.075.075 0 0 1 0 .07.057.057 0 0 1 .024.02.086.086 0 0 1 .08 0C.12 0 .156.027.19.081c.022.033.042.077.062.132a6.767 6.767 0 0 1 .08.281l.03.11h.086c.01 0 .017 0 .021.002.006.003.01.009.012.018 0 .005-.003.009-.009.01a.072.072 0 0 1-.015.002L.454.635H.371a4.203 4.203 0 0 0 .057.2.09.09 0 0 0 .019.036.05.05 0 0 0 .038.017.063.063 0 0 0 .047-.019.076.076 0 0 1-.04-.015.051.051 0 0 1-.019-.04A.028.028 0 0 1 .481.79.036.036 0 0 1 .507.78C.523.78.537.786.55.8a.066.066 0 0 1 .019.04z"/></symbol><use xlink:href="#q" transform="matrix(11.04 0 0 -11.04 136.814 26.596)"/><symbol id="r"><path transform="matrix(.001 0 0 .001 -.037 .128)" d="M473 495c-1-50-56-99-121-101-58-2-126 44-127 108-1 68 76 114 126 111 69-4 123-46 122-118zm220-211s-109-24-179-35c-52-8-128-16-128-16-1 0 3 31 5 52 3 25 3 65 3 65s136 30 141 142c6 139-156 162-157 162 1 1 3 10 8 14 8 6 21 18-6 34-13 8-32 19-43 13-13-7 13-17 13-34 0-13-12-18-22-27-1-1-168-10-168-152 0-132 164-152 164-152s2-46 4-76c1-20 3-46 3-46s-75-11-152-12c-64-1-92 8-111 11-26 4-31-12-9-26 14-9 63-30 89-42 42-20 54 6 79 10 1 0 129 20 242 43 102 21 224 55 224 54V-17c0-66 6-111 23-108 32 5 38 138 39 228l3 188 45 3c54 4 126 3 138 8 38 15 18 49-11 51-19 1-59 3-70-1-17-6-33-26-67-29l-35-3 3 402c0 43 24 60-40 77-28 8-87 24-103 23-23-1-54-14-15-27 12-4 90-50 90-71z"/></symbol><use xlink:href="#r" transform="matrix(10.944 0 0 -11.52 145.207 25.97)"/><symbol id="s"><path transform="matrix(.001 0 0 .001 -.023 .102)" d="M390 454c-1 1 41 45 68 79 22 28 52 69 52 73 17 24 41 54 5 58-23 3-68 4-70 0-3-5-39-13-133-16-115-4-163 1-199 8-25 5-14-13 7-25 101-56 91-24 118-21 6-1 59 8 113 12 64 5 84 5 83 4 2 0-40-94-144-196C162 305 49 238 37 233c-14-6-4-20 16-10 14 7 111 59 190 113 82 56 127 102 128 101 1 1 31-38 60-82 25-38 38-58 47-70 20-28 47-8 41 28-4 24-28 78-57 89-24 9-74 50-72 52zm211-197c-16 4-30-3-13-15 34-23 0-45-1-46 0-1-168-1-165-153 2-84 85-141 182-143 78-2 179 47 180 141 2 142-156 154-156 154s37 29 18 41c-13 8-28 17-45 21zm5-97c73-3 112-49 111-113-1-71-56-96-115-96-53 0-108 41-114 95-6 50 31 118 118 114zm124 163c0-35 0-110 15-110 42 0 48 128 49 209l4 298c1 38 26 57-29 74-38 12-95 29-119 28-17-1-46-17-7-27 18-5 87-49 87-67V492c0-1-145-12-204-4-38 5-37-6-7-24 71-42 78-12 99-10l112 11z"/></symbol><symbol id="t"><path transform="matrix(.001 0 0 .001 -.031 .125)" d="M494 524c4-67-49-114-123-113-70 1-133 43-132 113 1 80 82 108 133 107 37-1 117-21 122-107zM337 675c-1-1-161-12-166-148-4-113 116-168 202-166 101 2 194 58 185 172-10 126-157 143-157 143 1 1 2 4 8 10 9 9 10 24-25 42-15 8-39 14-47 9-10-6 17-19 19-34 2-20-12-22-19-28zm393-373s-178-42-367-63c-133-15-232-20-290-6-34 8-42-10-13-28 9-6 76-37 100-46 49-19 63 9 89 14 0 0 125 21 212 40 146 32 269 71 269 71V5c0-61 1-130 22-128 37 3 41 137 42 267l5 584c0 44 21 51-47 72-30 9-77 22-93 22-21 0-55-16-17-28 11-3 88-40 88-63z"/></symbol><use xlink:href="#s" transform="matrix(10.944 0 0 -11.52 160.534 25.671)"/><use xlink:href="#t" transform="matrix(10.944 0 0 -11.52 170.941 25.936)"/><use xlink:href="#g" transform="matrix(10.944 0 0 -11.52 181.853 25.901)"/><use xlink:href="#h" transform="matrix(10.944 0 0 -11.52 192.107 25.925)"/><use xlink:href="#i" transform="matrix(11.04 0 0 -11.04 208.302 25.972)"/><symbol id="u"><path d="M.646.02c0 .009-.004.015-.012.018A.09.09 0 0 1 .61.04H.034C.024.04.015.04.011.038.004.035 0 .028 0 .02 0 .01.003.006.01.003A.06.06 0 0 1 .033 0h.58c.01 0 .018.001.022.003.007.003.01.008.01.017z"/></symbol><use xlink:href="#u" transform="matrix(11.04 0 0 -11.04 211.657 20.897)"/><symbol id="v"><path d="M.33 0v.031H.283a.15.15 0 0 0-.056.007C.212.044.205.058.205.08v.587H.182a.24.24 0 0 0-.05-.037A.277.277 0 0 0 0 .602V.57h.021a.474.474 0 0 1 .11.027V.079C.13.06.124.045.109.04A.146.146 0 0 0 .054.03H.006V0l.08.004H.25C.279.004.306.002.33 0z"/></symbol><use xlink:href="#v" transform="matrix(11.04 0 0 -11.04 221.743 24.234)"/><use xlink:href="#k" transform="matrix(11.04 0 0 -11.04 226.948 25.91)"/><use xlink:href="#v" transform="matrix(11.04 0 0 -11.04 233.503 24.234)"/><use xlink:href="#m" transform="matrix(11.04 0 0 -11.04 239.108 25.979)"/><use xlink:href="#n" transform="matrix(10.944 0 0 -11.52 245.519 25.187)"/><use xlink:href="#o" transform="matrix(10.944 0 0 -11.52 260.2 25.925)"/><use xlink:href="#p" transform="matrix(10.944 0 0 -11.52 270.345 25.683)"/><symbol id="w"><path d="M.456.582C.46.596.46.606.456.613.452.623.444.627.431.627A.038.038 0 0 1 .4.614.047.047 0 0 1 .39.584.139.139 0 0 1 .35.63a.093.093 0 0 1-.054.016.181.181 0 0 1-.09-.025A.322.322 0 0 1 .08.47.29.29 0 0 1 .06.363c0-.022.003-.042.008-.061A.134.134 0 0 1 .14.217.118.118 0 0 1 .19.205c.021 0 .042.006.064.018.017.01.035.023.052.04L.309.263.283.164A.485.485 0 0 0 .27.118.158.158 0 0 0 .192.035.133.133 0 0 0 .13.021a.234.234 0 0 0-.04.003.175.175 0 0 0-.04.008c.012.004.022.01.03.019a.05.05 0 0 1 .01.033c0 .011-.003.02-.01.026a.037.037 0 0 1-.026.01.05.05 0 0 1-.04-.018.056.056 0 0 1-.007-.068A.063.063 0 0 1 .03.016a.118.118 0 0 1 .04-.012A.42.42 0 0 1 .134 0 .255.255 0 0 1 .28.047a.232.232 0 0 1 .04.04C.331.105.34.122.345.14l.11.443M.377.539A6.445 6.445 0 0 0 .33.35L.326.335a.103.103 0 0 0-.02-.04.194.194 0 0 0-.068-.057.093.093 0 0 0-.044-.01c-.022 0-.04.01-.051.03A.139.139 0 0 0 .13.319a.49.49 0 0 0 .017.113.482.482 0 0 0 .039.104.197.197 0 0 0 .044.06c.023.02.045.029.067.029C.317.625.336.617.352.6A.103.103 0 0 0 .377.54z"/></symbol><use xlink:href="#w" transform="matrix(11.04 0 0 -11.04 286.204 26.498)"/><symbol id="x"><path transform="matrix(.001 0 0 .001 -.021 .123)" d="M429 571c0-1-46-148-190-304C131 150 44 83 31 71c-10-9 9-11 15-8s99 63 212 166c179 163 246 328 246 328 13 17 35 47 3 53-13 2-58 4-74-6-9-6-117-10-167-11-85-1-131 0-161 6-37 7-39-8-18-21 11-7 46-25 86-38 19-6 48 14 68 16 0 0 51 5 105 8 49 3 82 7 83 7zm264 157V-7c0-94 9-116 24-115 37 2 41 136 41 225l1 201s179 5 191 9c43 16 17 62-19 60-18-1-64 4-77-9-28-29-94-27-94-26l3 383c0 46 22 59-39 76-29 8-92 25-114 25-25 0-46-12-14-24 12-5 97-44 97-70z"/></symbol><use xlink:href="#x" transform="matrix(10.944 0 0 -11.52 293.472 25.913)"/><symbol id="y"><path d="M.363.94A1.3 1.3 0 0 1 .27.656V.654a3.845 3.845 0 0 1-.054-.27A2.734 2.734 0 0 0 .143.079.271.271 0 0 0 .13.05.11.11 0 0 0 .105.028a.04.04 0 0 0-.023-.01.11.11 0 0 0-.02.003.063.063 0 0 0-.015.004.022.022 0 0 0-.009.007L.036.035c.005 0 .01 0 .014.002C.06.04.066.043.07.05a.042.042 0 0 1 .007.025.038.038 0 0 1-.022.03.042.042 0 0 1-.015.002.04.04 0 0 1-.03-.01.04.04 0 0 1-.01-.03.05.05 0 0 1 .003-.015A.069.069 0 0 1 .01.034a.042.042 0 0 1 .008-.01.7.7 0 0 0 .01-.008.144.144 0 0 1 .023-.011A.12.12 0 0 1 .085 0c.024 0 .047.012.068.035A.394.394 0 0 1 .23.181a.788.788 0 0 1 .014.044h.001a25.8 25.8 0 0 0 .03.128 64.186 64.186 0 0 1 .04.195l.02.103c.003.02.007.047.015.083a3.425 3.425 0 0 0 .032.154 1.51 1.51 0 0 0 .022.06.094.094 0 0 0 .011.016.049.049 0 0 0 .013.01C.433.979.438.98.44.98A.09.09 0 0 0 .476.973C.479.97.48.97.479.97A.033.033 0 0 1 .45.957.038.038 0 0 1 .441.933c0-.01.004-.017.01-.024A.035.035 0 0 1 .48.897c.009 0 .017.004.024.01a.03.03 0 0 1 .014.027L.515.948a.072.072 0 0 1-.023.035A.083.083 0 0 1 .4.985.132.132 0 0 1 .363.94z"/></symbol><use xlink:href="#y" transform="matrix(21.96 0 0 -21.96 92.114 60.028)"/><use xlink:href="#j" transform="matrix(7.44 0 0 -7.44 103.093 62.561)"/><symbol id="z"><path d="M.498.387c0 .023-.01.04-.032.051a.126.126 0 0 1-.06.014.105.105 0 0 1-.064-.021A.13.13 0 0 1 .3.377a.11.11 0 0 1-.041.056.116.116 0 0 1-.068.02.15.15 0 0 1-.036-.005.208.208 0 0 1-.081-.06.187.187 0 0 1-.033-.055L.039.33A.162.162 0 0 1 .031.307C.03.297.031.29.036.29a.018.018 0 0 1 .012 0A.02.02 0 0 1 .056.3a.259.259 0 0 0 .026.06c.012.019.026.035.041.046.01.008.02.014.031.018A.096.096 0 0 0 .19.43C.201.43.21.428.22.423a.05.05 0 0 0 .02-.024.105.105 0 0 0 .003-.055A.637.637 0 0 0 .23.287L.19.125A.208.208 0 0 0 .156.058C.14.034.12.02.095.02a.083.083 0 0 0-.027.004.064.064 0 0 0-.023.01c.013.003.024.01.032.019a.05.05 0 0 1 .015.035c0 .01-.004.02-.01.026a.04.04 0 0 1-.027.009.051.051 0 0 1-.04-.017A.06.06 0 0 1 0 .067C0 .043.01.026.031.015A.12.12 0 0 1 .094 0a.1.1 0 0 1 .061.022C.172.035.186.053.2.076A.103.103 0 0 1 .212.05.16.16 0 0 1 .235.024a.082.082 0 0 1 .03-.017A.113.113 0 0 1 .308 0C.32 0 .332.002.343.006A.126.126 0 0 1 .376.02a.283.283 0 0 1 .085.11.14.14 0 0 1 .006.02C.467.16.465.163.46.164.453.165.449.164.446.161A.042.042 0 0 1 .44.147V.145A.243.243 0 0 0 .375.047.19.19 0 0 0 .344.029.09.09 0 0 0 .309.021a.056.056 0 0 0-.026.006.046.046 0 0 0-.016.015.077.077 0 0 0-.013.04c0 .012 0 .026.005.042l.046.189a.228.228 0 0 0 .03.078c.02.026.043.04.07.04L.43.429A.064.064 0 0 0 .454.418.061.061 0 0 1 .42.399.05.05 0 0 1 .405.364C.405.354.41.345.416.34a.04.04 0 0 1 .028-.01C.46.33.471.335.482.347c.01.011.016.025.016.04z"/></symbol><use xlink:href="#z" transform="matrix(7.44 0 0 -7.44 105.42 41.961)"/><symbol id="A"><path d="M.325 0C.25.012.197.037.166.076a.141.141 0 0 0-.03.094v.21c0 .036-.007.062-.022.078C.094.482.055.494 0 .494v.023c.057 0 .095.012.114.037C.13.57.136.602.136.646v.188c0 .035.009.065.027.09.03.04.085.066.162.076V.981C.275.975.238.956.217.924A.169.169 0 0 1 .19.825V.652A.166.166 0 0 0 .168.555C.15.529.118.513.071.505.12.496.151.48.168.462.184.445.191.42.191.386V.182c0-.045.01-.08.028-.104.02-.027.055-.046.106-.06V0z"/></symbol><use xlink:href="#A" transform="matrix(11.04 0 0 -11.28 112.3 54.572)"/><use xlink:href="#q" transform="matrix(11.04 0 0 -11.04 116.294 54.916)"/><symbol id="B"><path d="M.145.219c.008.014.01.027.005.039A.038.038 0 0 1 .126.28a.042.042 0 0 1-.034 0C.08.274.072.263.067.247L.003.024C0 .011 0 .004.004.002.008 0 .014.005.022.018l.123.2z"/></symbol><use xlink:href="#B" transform="matrix(11.04 0 0 -11.04 124.434 46.603)"/><use xlink:href="#i" transform="matrix(11.04 0 0 -11.04 128.622 54.412)"/><symbol id="C"><path d="M.307.43c0 .006-.003.01-.01.011a.08.08 0 0 1-.014.001H.19l.011.045a3.684 3.684 0 0 1 .03.115c.001.01 0 .02-.004.025C.22.633.214.637.203.637A.036.036 0 0 1 .177.626.048.048 0 0 1 .163.601L.124.44H.03L.027.442A.043.043 0 0 1 .007.44C.004.437 0 .431 0 .423c0-.006.002-.01.007-.01A.045.045 0 0 1 .022.41h.094L.072.24.043.12A.1.1 0 0 1 .055.035C.072.012.097 0 .132 0a.11.11 0 0 1 .035.006C.179.01.19.016.2.022c.018.015.033.03.046.048A.257.257 0 0 1 .28.127L.281.13.29.15C.291.16.288.164.28.164A.015.015 0 0 1 .268.16.023.023 0 0 1 .264.15.255.255 0 0 0 .235.097a.242.242 0 0 0-.04-.05.135.135 0 0 0-.029-.018.075.075 0 0 0-.032-.008c-.02 0-.03.013-.031.038a.141.141 0 0 0 .006.057L.184.41h.092c.01 0 .018.001.022.003.006.003.009.009.009.018z"/></symbol><use xlink:href="#C" transform="matrix(11.04 0 0 -11.04 131.5 52.673)"/><use xlink:href="#m" transform="matrix(11.04 0 0 -11.04 136.388 54.419)"/><symbol id="D"><path d="M.325.494v.023C.268.517.23.529.21.554.196.57.19.602.19.646v.188C.19.869.18.899.16.924.131.964.077.99 0 1V.981C.05.975.086.956.107.924A.164.164 0 0 0 .134.825V.652C.134.61.14.576.156.555.174.529.207.513.254.505.206.496.174.48.156.462.141.445.134.42.134.386V.182c0-.045-.01-.08-.028-.104A.192.192 0 0 0 0 .018V0c.075.012.128.037.158.076.02.026.03.057.031.094v.21c0 .036.007.062.021.078.02.024.06.036.115.036z"/></symbol><use xlink:href="#D" transform="matrix(11.04 0 0 -11.28 140.74 54.572)"/><symbol id="E"><path d="M.4.175H.373L.371.158a.837.837 0 0 0-.008-.04.07.07 0 0 0-.016-.033C.342.082.329.079.309.078a.83.83 0 0 0-.046 0H.078L.185.18.24.234a2.117 2.117 0 0 1 .11.107C.368.36.38.38.388.4a.2.2 0 0 1 .011.07.188.188 0 0 1-.131.182.255.255 0 0 1-.081.013A.17.17 0 0 1 .05.608.176.176 0 0 1 0 .485C-.001.47.004.455.013.445A.05.05 0 0 1 .054.43.05.05 0 0 1 .09.444c.01.01.014.023.014.037C.105.498.1.511.09.521a.054.054 0 0 1-.038.013H.039a.137.137 0 0 0 .136.102C.195.634.214.63.23.622A.138.138 0 0 0 .3.531.216.216 0 0 0 .3.412.33.33 0 0 0 .242.301 1.25 1.25 0 0 0 .203.25L0 .023V0h.371L.4.175z"/></symbol><use xlink:href="#E" transform="matrix(7.44 0 0 -7.44 145.173 47.761)"/><symbol id="F"><path d="M.475.69.474.701C.472.704.468.706.463.705L.336.695A.017.017 0 0 1 .324.687.027.027 0 0 1 .321.675C.321.67.324.666.33.665A.044.044 0 0 1 .346.661h.028A.03.03 0 0 0 .389.656C.393.655.395.652.396.647c0-.004 0-.009-.002-.016V.626L.333.39a.133.133 0 0 1-.036.046.097.097 0 0 1-.056.016.18.18 0 0 1-.093-.027A.324.324 0 0 1 0 .16C0 .118.01.081.032.05a.118.118 0 0 1 .1-.05c.025 0 .049.008.073.023a.274.274 0 0 1 .059.052A.09.09 0 0 1 .354 0c.017 0 .031.006.044.017.012.009.022.021.03.038a.574.574 0 0 1 .028.088v.003c.001.006.002.01.001.012C.456.162.452.164.445.164c-.004 0-.008 0-.01-.003a.025.025 0 0 1-.002-.01L.432.146A.484.484 0 0 0 .403.06a.107.107 0 0 0-.02-.026.04.04 0 0 0-.028-.013C.337.021.327.034.326.06a.182.182 0 0 0 .006.056L.475.69M.32.343V.334L.27.13.265.12.26.111A.271.271 0 0 0 .2.046.111.111 0 0 0 .134.02c-.023 0-.04.011-.051.033a.139.139 0 0 0-.013.062c0 .03.006.068.018.115.012.046.024.08.037.104a.203.203 0 0 0 .046.064c.023.021.046.032.07.032C.261.43.28.42.293.404A.119.119 0 0 0 .32.343z"/></symbol><use xlink:href="#F" transform="matrix(11.04 0 0 -11.04 148.964 52.673)"/><use xlink:href="#C" transform="matrix(11.04 0 0 -11.04 154.06 52.673)"/><symbol id="G"><path d="M.665.214C.665.223.661.229.653.23a.09.09 0 0 1-.022.002H.034c-.01 0-.019 0-.023-.002C.004.23 0 .223 0 .214 0 .204.003.199.01.196A.066.066 0 0 1 .033.193h.599c.01 0 .018.001.022.003.007.004.011.01.011.018m0-.193C.665.03.661.035.653.038A.09.09 0 0 1 .631.04H.034C.024.04.015.04.011.038.004.035 0 .03 0 .021 0 .01.003.006.01.003A.066.066 0 0 1 .033 0h.599c.01 0 .018.001.022.003.007.003.011.009.011.018z"/></symbol><use xlink:href="#G" transform="matrix(11.04 0 0 -11.04 160.417 50.448)"/><symbol id="H"><path d="M.234 0H.011v.028c.017 0 .03.002.04.004.01.003.018.006.022.011.005.005.009.01.01.016a.08.08 0 0 1 .002.017v.518c0 .014-.007.028-.02.04C.05.649.028.655 0 .655v.022a.34.34 0 0 1 .05.01 1.25 1.25 0 0 1 .11.04V.077L.16.061A.031.031 0 0 1 .17.045.057.057 0 0 1 .192.032.145.145 0 0 1 .234.027V0z"/></symbol><use xlink:href="#H" transform="matrix(11.04 0 0 -11.04 170.696 52.6)"/><symbol id="I"><path d="M.518 0H.31v.027c.016 0 .029.003.038.007.01.004.017.01.021.017a.044.044 0 0 1 .008.022l.002.028v.218a.18.18 0 0 1-.003.024.12.12 0 0 1-.04.07.067.067 0 0 1-.046.015.16.16 0 0 1-.088-.03A.252.252 0 0 1 .17.373L.146.349V.088L.147.069a.052.052 0 0 1 .01-.02.047.047 0 0 1 .02-.015.096.096 0 0 1 .04-.007V0H.01v.027c.018 0 .032.003.04.007A.04.04 0 0 1 .07.05a.033.033 0 0 1 .006.018V.36a.038.038 0 0 1-.003.013.043.043 0 0 1-.01.017.065.065 0 0 1-.024.013A.107.107 0 0 1 0 .41v.024A1.489 1.489 0 0 1 .146.48V.383a.503.503 0 0 0 .073.061c.015.01.03.017.048.023.017.006.034.01.052.01.03 0 .054-.007.07-.02A.117.117 0 0 0 .43.412.164.164 0 0 0 .444.357.326.326 0 0 0 .448.313V.09c0-.007 0-.013.002-.02A.044.044 0 0 1 .46.048a.047.047 0 0 1 .02-.016.1.1 0 0 1 .039-.006V0z"/></symbol><use xlink:href="#I" transform="matrix(11.04 0 0 -11.04 173.729 52.6)"/><symbol id="J"><path d="M.06 1H0V0h.06v1z"/></symbol><use xlink:href="#J" transform="matrix(10.98889 0 0 -25.8 181.777 62.023)"/><symbol id="K"><path d="M.5 0v.04H0V0h.5z"/></symbol><use xlink:href="#K" transform="matrix(114.48 0 0 -11.04 185.722 49.729)"/><symbol id="L"><path d="M.39.151A.138.138 0 0 0 .34.043a.164.164 0 0 0-.105-.04.524.524 0 0 0-.096.021.052.052 0 0 1-.018.003A.122.122 0 0 1 .063 0L0 .158.022.17C.04.154.054.137.07.12A.362.362 0 0 1 .117.08.223.223 0 0 1 .173.048a.18.18 0 0 1 .07-.013C.257.035.27.038.28.043a.077.077 0 0 1 .03.02.079.079 0 0 1 .02.028.08.08 0 0 1 .006.032c0 .025-.008.045-.024.058a.166.166 0 0 1-.058.03.707.707 0 0 1-.077.018A.385.385 0 0 0 .1.252a.163.163 0 0 0-.059.043.12.12 0 0 0-.023.079.13.13 0 0 0 .01.053c.008.016.018.03.03.042.014.011.029.02.045.027A.167.167 0 0 0 .232.491.49.49 0 0 1 .256.483a.033.033 0 0 1 .02 0 .109.109 0 0 1 .019.01c.009.004.017.01.022.016L.372.363.348.354A.593.593 0 0 1 .31.398a.302.302 0 0 1-.091.067.123.123 0 0 1-.05.01.098.098 0 0 1-.067-.023C.085.437.076.416.076.388.076.366.084.35.1.338A.189.189 0 0 1 .157.313L.232.296A.328.328 0 0 0 .308.272.158.158 0 0 0 .366.23.115.115 0 0 0 .39.15z"/></symbol><use xlink:href="#L" transform="matrix(11.04 0 0 -11.04 196.693 60.254)"/><symbol id="M"><path d="M.217 0H0v.03c.017 0 .03 0 .04.003.01.003.017.006.022.01a.025.025 0 0 1 .01.016.085.085 0 0 1 .002.018v.28A.048.048 0 0 1 .06.394C.049.404.029.409 0 .409v.023a.312.312 0 0 1 .05.01.857.857 0 0 1 .103.04V.061c0-.006.002-.012.005-.016C.161.04.168.035.177.033a.125.125 0 0 1 .04-.005V0M.162.661A.051.051 0 0 0 .147.625.047.047 0 0 0 .113.61a.051.051 0 0 0-.036.015.051.051 0 0 0-.014.036c0 .013.004.025.014.034a.048.048 0 0 0 .07 0A.047.047 0 0 0 .162.661z"/></symbol><use xlink:href="#M" transform="matrix(11.04 0 0 -11.04 201.285 59.92)"/><use xlink:href="#I" transform="matrix(11.04 0 0 -11.04 204.329 59.92)"/><use xlink:href="#q" transform="matrix(11.04 0 0 -11.04 211.214 62.236)"/><use xlink:href="#i" transform="matrix(11.04 0 0 -11.04 219.222 61.612)"/><use xlink:href="#z" transform="matrix(11.04 0 0 -11.04 222.165 59.993)"/><use xlink:href="#m" transform="matrix(11.04 0 0 -11.04 229.148 61.619)"/><use xlink:href="#v" transform="matrix(11.04 0 0 -11.04 188.383 45.354)"/><symbol id="N"><path d="M.665.333c0 .01-.004.015-.012.018a.09.09 0 0 1-.022.002H.35v.28c0 .01 0 .018-.002.022C.346.662.34.665.332.665.322.665.317.661.313.655.312.65.311.642.312.63V.353H.034L.011.35C.004.348 0 .342 0 .333 0 .323.003.318.01.315A.066.066 0 0 1 .033.312h.28V.031c0-.01 0-.017.002-.021C.318.003.325 0 .334 0c.007 0 .012.004.015.012a.103.103 0 0 1 .003.022v.278h.28c.01 0 .018.001.022.003.007.004.011.01.011.018z"/></symbol><use xlink:href="#N" transform="matrix(11.04 0 0 -11.04 194.857 45.521)"/><symbol id="O"><path d="M.42.123a.177.177 0 0 0-.063-.08.25.25 0 0 0-.215-.03A.216.216 0 0 0 .02.12.295.295 0 0 0 .023.34a.266.266 0 0 0 .134.136.23.23 0 0 0 .162.004A.153.153 0 0 0 .37.45.085.085 0 0 0 .402.403.049.049 0 0 0 .387.368.047.047 0 0 0 .354.354c-.01 0-.019.002-.028.008a.078.078 0 0 0-.021.023.136.136 0 0 0-.01.02.102.102 0 0 1-.013.023.065.065 0 0 1-.02.02.053.053 0 0 1-.033.008A.122.122 0 0 1 .168.44.14.14 0 0 1 .121.396a.218.218 0 0 1-.028-.07.38.38 0 0 1-.01-.09c0-.021.003-.043.01-.066a.2.2 0 0 1 .03-.06A.167.167 0 0 1 .17.064.13.13 0 0 1 .239.048c.024 0 .046.004.065.012a.237.237 0 0 1 .1.073l.017-.01z"/></symbol><use xlink:href="#O" transform="matrix(11.04 0 0 -11.04 204.296 45.594)"/><symbol id="P"><path d="M.441.241c0-.03-.005-.06-.017-.089A.27.27 0 0 0 .376.075.234.234 0 0 0 .305.021a.194.194 0 0 0-.174 0 .263.263 0 0 0-.13.22.266.266 0 0 0 .059.17.206.206 0 0 0 .25.056A.218.218 0 0 0 .38.41.254.254 0 0 0 .425.33.25.25 0 0 0 .44.241M.36.251c0 .03-.003.058-.008.083a.206.206 0 0 1-.027.065.129.129 0 0 1-.044.044A.113.113 0 0 1 .22.46.11.11 0 0 1 .156.442.142.142 0 0 1 .113.397.216.216 0 0 1 .09.331.378.378 0 0 1 .115.1.146.146 0 0 1 .158.05a.103.103 0 0 1 .06-.019.11.11 0 0 1 .066.019.132.132 0 0 1 .044.047C.34.118.347.14.352.167a.438.438 0 0 1 .007.084z"/></symbol><use xlink:href="#P" transform="matrix(11.04 0 0 -11.04 209.576 45.616)"/><use xlink:href="#L" transform="matrix(11.04 0 0 -11.04 214.813 45.734)"/><use xlink:href="#q" transform="matrix(11.04 0 0 -11.04 220.334 47.716)"/><use xlink:href="#i" transform="matrix(11.04 0 0 -11.04 228.222 47.092)"/><use xlink:href="#z" transform="matrix(11.04 0 0 -11.04 231.165 45.473)"/><use xlink:href="#m" transform="matrix(11.04 0 0 -11.04 238.268 47.099)"/><use xlink:href="#J" transform="matrix(10.98889 0 0 -25.8 246.577 62.023)"/><use xlink:href="#w" transform="matrix(11.04 0 0 -11.04 23.884 116.979)"/><use xlink:href="#i" transform="matrix(11.04 0 0 -11.04 30.822 116.452)"/><use xlink:href="#z" transform="matrix(11.04 0 0 -11.04 33.885 114.833)"/><use xlink:href="#m" transform="matrix(11.04 0 0 -11.04 40.868 116.459)"/><use xlink:href="#G" transform="matrix(11.04 0 0 -11.04 47.017 112.488)"/><symbol id="Q"><path d="M.812 0H.604v.027c.017 0 .03.002.04.005.01.003.016.007.02.012a.033.033 0 0 1 .008.02.155.155 0 0 1 .002.025v.219C.674.318.673.33.67.344a.113.113 0 0 1-.015.038.081.081 0 0 1-.027.03.077.077 0 0 1-.046.013A.145.145 0 0 1 .499.4.486.486 0 0 1 .444.348V.07C.444.057.45.047.46.04.469.03.491.026.523.026V0h-.22v.027L.34.03c.01.002.016.004.02.008A.02.02 0 0 1 .37.052a.106.106 0 0 1 .002.022V.34a.105.105 0 0 1-.009.04.067.067 0 0 1-.025.031.096.096 0 0 1-.053.012A.149.149 0 0 1 .17.373.815.815 0 0 0 .147.35V.07L.148.056a.026.026 0 0 1 .01-.014.047.047 0 0 1 .02-.01.162.162 0 0 1 .04-.005V0H.002v.027C.02.027.033.03.043.031c.01.002.017.005.021.01a.021.021 0 0 1 .008.014C.074.06.074.065.074.07v.294a.032.032 0 0 1-.003.013.025.025 0 0 1-.01.013A.056.056 0 0 1 .04.4.127.127 0 0 1 0 .406V.43a.68.68 0 0 1 .1.032.669.669 0 0 1 .047.018v-.1a.54.54 0 0 1 .028.027.243.243 0 0 0 .077.054c.017.007.037.01.06.01a.127.127 0 0 0 .09-.033C.412.43.42.418.425.408A.19.19 0 0 0 .438.374.553.553 0 0 0 .5.435c.014.01.03.019.049.026a.152.152 0 0 0 .06.012C.637.473.66.468.676.458A.116.116 0 0 0 .736.38.158.158 0 0 0 .742.34V.09c0-.007 0-.013.002-.02a.044.044 0 0 1 .009-.02.047.047 0 0 1 .02-.016.1.1 0 0 1 .039-.006V0z"/></symbol><use xlink:href="#H" transform="matrix(13.2 0 0 -13.2 57.362 116.345)"/><use xlink:href="#M" transform="matrix(13.2 0 0 -13.2 61.309 116.345)"/><use xlink:href="#Q" transform="matrix(13.2 0 0 -13.2 64.964 116.345)"/><use xlink:href="#C" transform="matrix(7.44 0 0 -7.44 58.816 124.161)"/><symbol id="R"><path d="M.995.186.71.363.704.352.844.2H0V.17h.84L.706.01.714 0l.281.186z"/></symbol><use xlink:href="#R" transform="matrix(7.44 0 0 -7.44 62.482 123.29)"/><use xlink:href="#j" transform="matrix(7.44 0 0 -7.44 71.293 124.241)"/><use xlink:href="#K" transform="matrix(476.39997 0 0 -11.04 77.482 111.769)"/><use xlink:href="#y" transform="matrix(21.96 0 0 -21.96 86.114 141.988)"/><symbol id="S"><path d="M.776.96v.038H.752L.31.104.14.5 0 .393.016.377l.07.053L.27 0H.29C.295 0 .3.002.303.005A.059.059 0 0 1 .31.017L.313.02.776.96z"/></symbol><use xlink:href="#S" transform="matrix(7.33371 0 0 -8.28 94.73 145.401)"/><use xlink:href="#K" transform="matrix(11.52 0 0 -7.44 100.402 137.511)"/><use xlink:href="#l" transform="matrix(7.44 0 0 -7.44 100.725 144.456)"/><use xlink:href="#C" transform="matrix(7.44 0 0 -7.44 99.256 123.921)"/><use xlink:href="#y" transform="matrix(21.96 0 0 -21.96 110.234 141.988)"/><use xlink:href="#j" transform="matrix(7.44 0 0 -7.44 121.213 144.521)"/><symbol id="T"><path d="M.512.143a.08.08 0 0 1 .001.011C.513.16.512.161.508.162c-.005.003-.01.003-.013 0C.492.16.489.154.488.146A.3.3 0 0 0 .462.063a.124.124 0 0 0-.02-.028.041.041 0 0 0-.03-.014C.398.021.388.03.384.046a.094.094 0 0 0 0 .043 2.754 2.754 0 0 0 .06.245l.019.072c0 .01 0 .02-.005.026-.005.006-.013.01-.024.01a.038.038 0 0 1-.026-.01.042.042 0 0 1-.013-.025L.372.322A13.883 13.883 0 0 1 .319.105.173.173 0 0 0 .272.047.107.107 0 0 0 .205.02a.06.06 0 0 0-.03.007.059.059 0 0 0-.021.02.085.085 0 0 0-.01.028.327.327 0 0 0 .015.122C.165.22.175.252.19.295l.019.05C.214.359.215.374.212.39a.086.086 0 0 1-.02.04.078.078 0 0 1-.026.017.105.105 0 0 1-.034.005.097.097 0 0 1-.078-.037.234.234 0 0 1-.03-.047.242.242 0 0 1-.021-.055L.002.31A.036.036 0 0 1 0 .296C0 .29.005.289.012.289c.005 0 .008.002.01.005.002.001.004.005.005.01l.001.003a.337.337 0 0 0 .021.057.111.111 0 0 0 .025.037C.082.411.09.42.1.424.11.428.12.43.13.43.144.43.152.423.154.406A.128.128 0 0 0 .148.36L.122.288a1.08 1.08 0 0 1-.03-.085A.314.314 0 0 1 .078.12C.079.1.08.083.087.068A.111.111 0 0 1 .12.024.15.15 0 0 1 .202 0a.13.13 0 0 1 .067.019.198.198 0 0 1 .052.047.101.101 0 0 1 .014-.029.07.07 0 0 1 .02-.02A.095.095 0 0 1 .41 0c.015.001.03.007.043.018.01.009.02.021.03.038a.45.45 0 0 1 .023.07l.005.018z"/></symbol><use xlink:href="#T" transform="matrix(7.44 0 0 -7.44 123.415 123.921)"/><use xlink:href="#E" transform="matrix(5.04 0 0 -5.04 128.013 120.246)"/><use xlink:href="#y" transform="matrix(21.96 0 0 -21.96 132.554 141.988)"/><symbol id="U"><path d="M.44.383a.1.1 0 0 1-.01.045C.423.444.41.452.393.452A.047.047 0 0 1 .36.438.047.047 0 0 1 .346.405.03.03 0 0 1 .351.39.156.156 0 0 1 .363.373.129.129 0 0 0 .384.345.107.107 0 0 0 .396.293a.32.32 0 0 0-.028-.11.426.426 0 0 0-.052-.1A.264.264 0 0 0 .271.04.088.088 0 0 0 .218.021a.08.08 0 0 0-.034.007.054.054 0 0 0-.022.018.088.088 0 0 0-.014.028.145.145 0 0 0-.004.035c0 .024.005.052.014.084.005.02.015.048.03.086l.024.067a.105.105 0 0 1 0 .045.08.08 0 0 1-.02.039.078.078 0 0 1-.026.017A.105.105 0 0 1 .09.442.122.122 0 0 1 .056.415.242.242 0 0 1 .002.312V.31A.036.036 0 0 1 0 .296C0 .29.005.289.012.289c.005 0 .008.002.01.005.002.001.004.005.005.01l.001.003c.005.02.012.038.02.053a.155.155 0 0 0 .03.047.078.078 0 0 0 .023.018C.111.429.12.43.13.43c.01 0 .016-.003.02-.008A.045.045 0 0 0 .154.399.106.106 0 0 0 .149.37.189.189 0 0 0 .14.34L.137.33A1.29 1.29 0 0 1 .1.226.376.376 0 0 1 .08.124.15.15 0 0 1 .09.065a.108.108 0 0 1 .08-.06A.182.182 0 0 1 .214 0C.24 0 .266.009.29.026c.02.015.038.036.056.062.016.025.03.053.042.084a.796.796 0 0 1 .05.21z"/></symbol><use xlink:href="#U" transform="matrix(7.44 0 0 -7.44 143.455 144.441)"/><use xlink:href="#q" transform="matrix(7.44 0 0 -7.44 145.476 125.433)"/><use xlink:href="#i" transform="matrix(7.44 0 0 -7.44 150.463 124.976)"/><use xlink:href="#z" transform="matrix(7.44 0 0 -7.44 152.94 123.921)"/><use xlink:href="#m" transform="matrix(7.44 0 0 -7.44 158.157 124.98)"/><use xlink:href="#y" transform="matrix(21.96 0 0 -21.96 161.954 141.988)"/><use xlink:href="#j" transform="matrix(7.44 0 0 -7.44 172.813 144.521)"/><use xlink:href="#K" transform="matrix(14.88 0 0 -7.44 175.642 121.791)"/><use xlink:href="#E" transform="matrix(7.44 0 0 -7.44 177.933 128.641)"/><symbol id="V"><path d="M.662.388a.087.087 0 0 1-.01.043.039.039 0 0 1-.036.021.046.046 0 0 1-.033-.015.048.048 0 0 1-.015-.035C.568.398.569.394.572.39A.257.257 0 0 1 .594.366a.108.108 0 0 0 .023-.06.158.158 0 0 0-.003-.05A1.092 1.092 0 0 0 .579.144.272.272 0 0 0 .517.046.098.098 0 0 0 .423.027a.057.057 0 0 0-.024.017.09.09 0 0 0-.018.05.188.188 0 0 0 .002.057l.038.155.023.089C.448.41.448.424.444.43.441.438.434.44.422.44.41.441.4.44.395.435.387.428.382.415.378.397A2.11 2.11 0 0 1 .346.278 1.34 1.34 0 0 1 .318.151V.15A.594.594 0 0 0 .314.127c0-.01 0-.017.002-.022A.186.186 0 0 0 .282.05.076.076 0 0 0 .224.02C.197.021.176.03.163.047a.104.104 0 0 0-.018.065c0 .028.006.06.017.098.006.021.018.053.034.096V.31a.24.24 0 0 1 .017.06.083.083 0 0 1-.022.06.056.056 0 0 1-.025.018A.105.105 0 0 1 .09.442.152.152 0 0 1 .054.415a.234.234 0 0 1-.03-.047.242.242 0 0 1-.021-.055L.002.31A.036.036 0 0 1 0 .296C0 .29.005.289.012.289c.005 0 .008.002.01.005.002.001.004.005.005.01l.001.003a.365.365 0 0 0 .022.06.113.113 0 0 0 .027.037.067.067 0 0 0 .052.026C.147.43.156.419.153.394a.26.26 0 0 0-.016-.06V.327L.132.32A1.97 1.97 0 0 1 .098.222.35.35 0 0 1 .08.126C.08.085.093.053.12.031A.154.154 0 0 1 .222 0a.1.1 0 0 1 .062.02c.015.01.03.028.043.05a.102.102 0 0 1 .06-.06A.186.186 0 0 1 .452 0 .11.11 0 0 1 .5.01a.181.181 0 0 1 .043.03.297.297 0 0 1 .061.105 1.221 1.221 0 0 1 .05.181.365.365 0 0 1 .008.062z"/></symbol><use xlink:href="#V" transform="matrix(7.44 0 0 -7.44 176.935 119.001)"/><use xlink:href="#y" transform="matrix(21.96 0 0 -21.96 186.434 141.988)"/><use xlink:href="#K" transform="matrix(13.44 0 0 -7.44 197.842 142.311)"/><use xlink:href="#E" transform="matrix(7.44 0 0 -7.44 199.773 149.161)"/><use xlink:href="#l" transform="matrix(7.44 0 0 -7.44 199.125 139.536)"/><use xlink:href="#E" transform="matrix(7.44 0 0 -7.44 199.773 123.841)"/><symbol id="W"><path d="M.462.602a.03.03 0 0 1-.006.024C.45.632.443.636.432.636A.036.036 0 0 1 .403.623a.077.077 0 0 1-.014-.03L.371.517A281.53 281.53 0 0 1 .32.314.15.15 0 0 0 .28.25.106.106 0 0 0 .205.216C.183.216.166.224.155.24a.105.105 0 0 0-.012.056c0 .027.006.06.017.1.007.024.018.056.034.096l.003.008a.368.368 0 0 1 .01.031.112.112 0 0 1 .007.033.078.078 0 0 1-.081.081C.1.646.072.631.048.601A.263.263 0 0 1 .003.507L.002.504A.036.036 0 0 1 0 .49C0 .486.005.483.012.483c.005 0 .008.002.01.005C.024.49.026.493.027.5l.001.002c.008.033.02.06.034.081.02.029.041.043.067.043.018 0 .027-.013.024-.04A.256.256 0 0 0 .137.523L.13.503A1.277 1.277 0 0 1 .095.409.35.35 0 0 1 .08.313c0-.037.01-.066.032-.086a.123.123 0 0 1 .09-.033c.02 0 .037.005.055.013a.172.172 0 0 1 .046.032.757.757 0 0 0-.025-.08.34.34 0 0 0-.04-.074A.194.194 0 0 0 .188.04a.109.109 0 0 0-.06-.019.097.097 0 0 0-.046.011.06.06 0 0 0-.03.032.058.058 0 0 1 .041.012c.014.01.02.024.02.041 0 .012-.003.02-.01.027a.038.038 0 0 1-.026.008.05.05 0 0 1-.041-.02A.072.072 0 0 1 .02.088c0-.012.002-.024.007-.034A.087.087 0 0 1 .051.024.13.13 0 0 1 .127 0C.154 0 .18.006.206.018a.27.27 0 0 1 .122.108.294.294 0 0 1 .034.078l.04.161.06.237z"/></symbol><use xlink:href="#W" transform="matrix(7.44 0 0 -7.44 203.335 125.367)"/><use xlink:href="#L" transform="matrix(11.04 0 0 -11.04 208.693 134.894)"/><use xlink:href="#M" transform="matrix(11.04 0 0 -11.04 213.165 134.56)"/><use xlink:href="#I" transform="matrix(11.04 0 0 -11.04 216.209 134.56)"/><use xlink:href="#C" transform="matrix(11.04 0 0 -11.04 222.1 134.633)"/><use xlink:href="#L" transform="matrix(11.04 0 0 -11.04 227.293 134.894)"/><use xlink:href="#M" transform="matrix(11.04 0 0 -11.04 231.885 134.56)"/><use xlink:href="#I" transform="matrix(11.04 0 0 -11.04 234.929 134.56)"/><symbol id="X"><path d="M.42.452C.415.454.41.454.407.452L.398.442a.571.571 0 0 0-.04-.05.265.265 0 0 0-.017-.01.047.047 0 0 0-.047.006.146.146 0 0 0-.022.022v.001a.318.318 0 0 1-.03.03.067.067 0 0 1-.038.011.099.099 0 0 1-.05-.014.12.12 0 0 1-.04-.036.182.182 0 0 1-.02-.029.084.084 0 0 1-.012-.034L.085.33C.087.328.09.327.095.327A.01.01 0 0 1 .103.33l.003.007.001.002a.062.062 0 0 0 .035.036.12.12 0 0 0 .08.007A.208.208 0 0 0 .25.373L.255.371l.01-.004A.481.481 0 0 0 .29.36.093.093 0 0 1 .314.355h.018A1.21 1.21 0 0 0 .234.262L.194.225.18.214A1.716 1.716 0 0 1 .098.136.591.591 0 0 1 0 .01.01.01 0 0 1 .003.002.016.016 0 0 1 .012 0L.02.003A.038.038 0 0 1 .025.01l.003.003C.038.03.05.044.063.055c.017.013.033.02.05.02a.053.053 0 0 0 .033-.01.26.26 0 0 0 .023-.026L.17.037A.142.142 0 0 1 .198.011.064.064 0 0 1 .235 0c.03 0 .057.011.083.034a.24.24 0 0 1 .073.112C.393.158.39.164.38.164.376.164.373.164.37.161A.021.021 0 0 1 .367.154V.151a.13.13 0 0 0-.154-.08.453.453 0 0 1-.063.021.15.15 0 0 1-.033.005L.091.095a.788.788 0 0 0 .114.11L.22.216c.046.041.082.075.107.101C.37.361.4.4.42.432v.004a.03.03 0 0 1 .004.01c0 .003 0 .005-.004.006z"/></symbol><use xlink:href="#X" transform="matrix(11.04 0 0 -11.04 241.036 134.633)"/><use xlink:href="#F" transform="matrix(11.04 0 0 -11.04 247.604 134.633)"/><use xlink:href="#X" transform="matrix(11.04 0 0 -11.04 252.796 134.633)"/><use xlink:href="#F" transform="matrix(11.04 0 0 -11.04 259.484 134.633)"/><use xlink:href="#W" transform="matrix(11.04 0 0 -11.04 264.518 136.779)"/><use xlink:href="#F" transform="matrix(11.04 0 0 -11.04 271.364 134.633)"/><use xlink:href="#V" transform="matrix(11.04 0 0 -11.04 276.398 134.633)"/><use xlink:href="#F" transform="matrix(11.04 0 0 -11.04 285.404 134.633)"/><use xlink:href="#U" transform="matrix(11.04 0 0 -11.04 290.558 134.633)"/><use xlink:href="#F" transform="matrix(11.04 0 0 -11.04 297.284 134.633)"/><use xlink:href="#T" transform="matrix(11.04 0 0 -11.04 302.438 134.633)"/><use xlink:href="#y" transform="matrix(21.96 0 0 -21.96 80.234 100.948)"/><use xlink:href="#j" transform="matrix(7.44 0 0 -7.44 91.213 103.481)"/><use xlink:href="#C" transform="matrix(7.44 0 0 -7.44 93.376 82.881)"/><use xlink:href="#y" transform="matrix(21.96 0 0 -21.96 98.714 100.948)"/><use xlink:href="#S" transform="matrix(7.33371 0 0 -8.28 107.33 104.361)"/><use xlink:href="#K" transform="matrix(11.52 0 0 -7.44 113.002 96.471)"/><use xlink:href="#l" transform="matrix(7.44 0 0 -7.44 113.445 103.416)"/><symbol id="Y"><path d="M.368.367A.067.067 0 0 1 .36.4a.078.078 0 0 1-.023.028.1.1 0 0 1-.038.02.197.197 0 0 1-.05.005A.211.211 0 0 1 .175.44a.14.14 0 0 1-.06-.044A.129.129 0 0 1 .09.354.128.128 0 0 1 .08.307C.08.29.083.277.09.264A.095.095 0 0 1 .12.23.143.143 0 0 1 .157.214a.746.746 0 0 1 .04-.01L.221.2A.097.097 0 0 0 .267.178a.057.057 0 0 0 .02-.046.084.084 0 0 0-.009-.034A.107.107 0 0 0 .26.066.126.126 0 0 0 .207.031a.19.19 0 0 0-.062-.01.182.182 0 0 0-.067.011.077.077 0 0 0-.048.043.057.057 0 0 1 .044.013c.013.01.02.024.02.04 0 .011-.004.02-.011.026a.045.045 0 0 1-.027.008.051.051 0 0 1-.042-.02A.075.075 0 0 1 0 .098C0 .063.016.038.049.02A.249.249 0 0 1 .232.015a.173.173 0 0 1 .112.151.104.104 0 0 1-.022.063.097.097 0 0 1-.052.038L.226.278a4.356 4.356 0 0 0-.037.01.154.154 0 0 0-.028.009.043.043 0 0 0-.018.018.052.052 0 0 0-.006.026c0 .01.002.021.006.031A.06.06 0 0 0 .16.396.111.111 0 0 0 .25.431L.273.43A.09.09 0 0 0 .298.423.081.081 0 0 0 .322.409.065.065 0 0 0 .34.385.047.047 0 0 1 .306.372.04.04 0 0 1 .29.34C.291.33.294.324.299.318A.033.033 0 0 1 .32.311C.337.31.35.317.357.329c.008.01.011.023.011.038z"/></symbol><use xlink:href="#Y" transform="matrix(7.44 0 0 -7.44 112.067 82.881)"/><use xlink:href="#y" transform="matrix(21.96 0 0 -21.96 122.834 100.948)"/><use xlink:href="#j" transform="matrix(7.44 0 0 -7.44 133.813 103.481)"/><use xlink:href="#T" transform="matrix(7.44 0 0 -7.44 136.015 82.881)"/><use xlink:href="#E" transform="matrix(5.04 0 0 -5.04 140.613 79.206)"/><use xlink:href="#y" transform="matrix(21.96 0 0 -21.96 145.154 100.948)"/><use xlink:href="#U" transform="matrix(7.44 0 0 -7.44 156.055 103.401)"/><use xlink:href="#q" transform="matrix(7.44 0 0 -7.44 158.076 84.393)"/><use xlink:href="#i" transform="matrix(7.44 0 0 -7.44 163.063 83.936)"/><use xlink:href="#z" transform="matrix(7.44 0 0 -7.44 165.54 82.881)"/><use xlink:href="#m" transform="matrix(7.44 0 0 -7.44 170.757 83.94)"/><use xlink:href="#y" transform="matrix(21.96 0 0 -21.96 174.554 100.948)"/><use xlink:href="#j" transform="matrix(7.44 0 0 -7.44 185.533 103.481)"/><use xlink:href="#K" transform="matrix(14.88 0 0 -7.44 188.242 80.751)"/><use xlink:href="#E" transform="matrix(7.44 0 0 -7.44 190.533 87.601)"/><use xlink:href="#V" transform="matrix(7.44 0 0 -7.44 189.655 77.961)"/><use xlink:href="#y" transform="matrix(21.96 0 0 -21.96 199.034 100.948)"/><use xlink:href="#K" transform="matrix(13.44 0 0 -7.44 210.442 101.271)"/><use xlink:href="#E" transform="matrix(7.44 0 0 -7.44 212.373 108.121)"/><use xlink:href="#l" transform="matrix(7.44 0 0 -7.44 211.845 98.496)"/><use xlink:href="#E" transform="matrix(7.44 0 0 -7.44 212.373 82.801)"/><use xlink:href="#W" transform="matrix(7.44 0 0 -7.44 216.055 84.327)"/><use xlink:href="#L" transform="matrix(11.04 0 0 -11.04 221.293 93.854)"/><use xlink:href="#M" transform="matrix(11.04 0 0 -11.04 225.885 93.52)"/><use xlink:href="#I" transform="matrix(11.04 0 0 -11.04 228.929 93.52)"/><use xlink:href="#X" transform="matrix(11.04 0 0 -11.04 235.036 93.593)"/><use xlink:href="#F" transform="matrix(11.04 0 0 -11.04 241.604 93.593)"/><use xlink:href="#X" transform="matrix(11.04 0 0 -11.04 246.916 93.593)"/><use xlink:href="#F" transform="matrix(11.04 0 0 -11.04 253.484 93.593)"/><use xlink:href="#W" transform="matrix(11.04 0 0 -11.04 258.638 95.739)"/><use xlink:href="#F" transform="matrix(11.04 0 0 -11.04 265.364 93.593)"/><use xlink:href="#V" transform="matrix(11.04 0 0 -11.04 270.398 93.593)"/><use xlink:href="#F" transform="matrix(11.04 0 0 -11.04 279.404 93.593)"/><use xlink:href="#U" transform="matrix(11.04 0 0 -11.04 284.558 93.593)"/><use xlink:href="#F" transform="matrix(11.04 0 0 -11.04 291.284 93.593)"/><use xlink:href="#T" transform="matrix(11.04 0 0 -11.04 296.438 93.593)"/><use xlink:href="#F" transform="matrix(11.04 0 0 -11.04 303.884 93.593)"/><use xlink:href="#Y" transform="matrix(11.04 0 0 -11.04 309.293 93.593)"/><symbol id="Z"><path transform="matrix(.001 0 0 .001 -.025 .07)" d="M413 459c4 0 90 2 148 3 97 2 157 4 168 8 39 14 23 50-15 50-27 0-47 4-65-7-35-21-56-18-133-23-51-3-124-2-125-2-15 0-21-3-27 3-2 2-2 6-2 20l2 78c1 0 39 3 128 7 208 9 222-2 227 21 4 19-33 20-32 22-1 1-2 4 10 37 7 19 19 51 19 53 6 17 42 41-9 44-10 1-56 7-61-1-3-5-117-9-175-11-118-5-201-4-224 3-29 9-37-4-16-19 12-8 50-25 72-32 19-6 39 10 71 12 0 0 29 4 130 9 88 4 142 4 143 4 0-1 2-20 0-53-3-52-4-48-4-50-3 0-64-7-152-11-66-3-131-5-133-3-9 9-98 11-106 11-23-1-52-14-15-26 13-4 56-16 56-31l1-46c1-29 6-49 33-62 23-11 52-9 86-8zm399-70c-28-18-231-21-344-26-165-7-334-7-405 10-28 7-38-7-10-23 11-6 59-28 99-43 29-11 52 13 89 15 2 0 94 10 251 16 107 4 179 3 297 2 55-1 122-6 141-6 38-1 49 41 5 56-9 3-101 13-123-1zM252 229c15-11 50-25 70-34 17-8 35 9 65 11 0 0 49 4 108 8 63 4 145 8 146 8 0-1 3-24 2-53-1-37-3-54-3-56-3 0-63-4-109-6-85-4-146-6-149-2-10 13-108 17-123 15-20-3-47-19-7-27 14-3 55-15 55-28l2-62c1-24 2-47 26-61 21-12 54-12 85-11 0 0 95 3 147 4 76 1 186-1 196 3 41 17 12 50-22 52-21 1-78 6-97-11-23-21-230-17-232-17-13-1-26-2-31 4-4 5-4 14-4 27l1 81c3 0 55 0 166 6 134 7 174-10 179 19 3 16-37 19-36 21-1 1 3 13 10 40 6 25 13 43 13 45 5 17 38 47-8 48-9 0-66 3-73-2-4-3-68-8-153-10-105-3-187-2-203 3-25 8-41-1-21-15z"/></symbol><use xlink:href="#Z" transform="matrix(10.944 0 0 -11.52 22.796 168.942)"/><symbol id="aa"><path transform="matrix(.001 0 0 .001 -.055 .015)" d="M451 603s0-51-1-102c-1-63-6-113-7-113 0 0-39-2-98-4-58-2-108-2-110-2 0 2-5 55-6 118-1 40 0 96 0 97zm-34 28s-19-3-80-4c-36-1-96-3-96-3-16-1-25 8-50 10-22 2-56 4-86 4-21 0-50-13-8-23 14-3 63-20 64-36 0 0 5-47 8-90 5-63 12-135 12-136 3-33 5-57 17-57 33-1 35 53 33 55 1-2 160 8 257 8 28 0 27 21 13 26-8 3-23 7-23 7 0 2 8 33 20 95 8 42 19 93 19 94 5 23 41 54-1 57-15 1-44 3-59 1-9-1-23-7-40-8zm333-190 5 274c1 46 28 64-27 80-24 7-98 27-118 27-21 0-40-20-4-27 17-3 87-45 87-58V243c0-24 3-90 21-89 31 1 33 101 34 160l2 99 72 1c35 0 70 3 97 4 23 1 36 49-1 50-22 1-52 5-68-1-18-7-39-24-60-25zM406 157l6-96c2-24-1-48 18-61s45-13 75-13c11-2 291 1 316 1 36 0 31 44 5 50-20 4-63 6-81 4-20-2-47-21-69-22-1 0-51-5-88-5-34 0-80 1-86 2-6 0-20-2-24 5-3 5-3 21-3 32l2 101c1 29 18 59-24 61-20 1-78 7-103 6-28-1-54-21-17-27 19-3 72-20 73-38z"/></symbol><symbol id="ab"><path transform="matrix(.001 0 0 .001 -.017 .127)" d="M530 598c-1 0 55 33 105 71 52 39 84 67 85 71 32 27 38 39 8 45-21 4-78 2-82-3s-64-8-183-14c-115-6-206-3-247 4-28 5-27-11-6-23 97-57 111-26 126-24 6-1 68 11 157 16 91 5 136 9 135 8 2 0-67-75-201-151C241 493 95 456 83 452s-3-18 23-12c17 4 109 22 209 60 130 49 177 82 178 82s73-22 156-44c80-21 120-35 170-43 40-6 50 27 18 48-26 17-82 37-107 35-85-6-203 18-200 20zm285-207c-32-25-274-32-274-31l2 69c1 36 14 47-27 52-31 4-69 7-89 5s-32-14-11-21c15-5 57-19 57-34l1-74c0-1-98-2-157-4-157-4-233 5-261 13-39 12-31-12-16-21 140-82 149-38 171-36 2 0 139 17 297 22 255 8 294 8 429-4 44-4 55 56-13 62-32 3-101 8-109 2zM658 183V-42c0-29 2-78 14-80 32-5 48 81 49 153l2 135c0 32 30 55-11 56-20 0-56 4-60-2-7-11-324-29-408-14-50 9-34-15 13-36 79-36 76-10 102-8 0 0 79 8 156 13 46 3 142 8 143 8z"/></symbol><symbol id="ac"><path transform="matrix(.001 0 0 .001 -.022 .067)" d="m387 116 2-110c0-25 10-47 27-56 19-10 49-12 69-12 1 0 275 6 306 2 50-7 60 41 30 52-14 5-84 17-112 1-31-18-36-17-125-21-37-2-91-3-94-2-5 0-22 1-27 5-4 3-4 19-4 29v112c0 37 12 53-26 61-15 3-103 7-116 5-32-4-48-26-8-29 8-1 78-20 78-37zm306 617V172c0-35 3-72 17-71 29 2 43 80 44 146l2 123s159 4 169 3c44-4 48 46 10 54-36 7-75 6-102-12-20-13-76-14-76-13l3 321c0 44 13 55-16 65-21 7-108 34-122 34-43 0-46-17-15-28 19-7 86-45 86-61zm-465-2c-38 14-29-3-20-13 10-11 41-48 62-56 15-6 134-6 153-4 39 4 40 53-8 53-11 0-97 5-115 7-19 2-65 10-72 13zm209-368c-2-29-36-86-107-85-85 1-117 54-118 91-3 76 73 100 121 99 69-2 108-61 104-105zM293 558c2 0 13-15 17-22 6-11 1-21-9-30 0-1-149-6-155-137-3-56 51-146 188-143 109 2 164 73 166 135 3 133-150 145-150 145 2 2 16 14 12 23s-40 31-39 31c-1 1 80 4 124 5 48 1 89 0 116 1 39 2 34 39 9 46-14 4-78 11-93 2-18-11-52-23-176-27-121-4-198-2-232 6-49 11-25-14 13-32 75-35 57-18 104-12 0 0 35 5 58 7 18 1 47 2 47 2z"/></symbol><symbol id="ad"><path transform="matrix(.001 0 0 .001 -.024 .125)" d="m213 254 4 290 157 9c32 2 121 4 133 8 32 11 30 48-12 51-22 2-46 3-58 0-18-5-47-25-71-28-2-1-46-6-76-8-45-3-68-3-68-3-17-1-33 8-64 11-19 2-70 8-84 7-24-2-50-18-13-28 12-3 80-23 80-47l3-267c0-32 11-76 30-88 17-11 163 23 267 54 158 48 252 95 252 95V-10c0-44 2-115 21-113 35 4 39 98 41 222l3 203 48 2c53 2 123 1 135 6 47 19 22 53-2 56-19 2-51 3-66-1-16-4-54-31-89-31h-25l4 387c0 47 21 58-39 76-29 9-94 26-109 25-22-1-51-13-17-27 12-5 95-44 95-70V330s-96-42-278-79c-82-17-182-28-193-22-6 4-9 14-9 25z"/></symbol><use xlink:href="#aa" transform="matrix(10.944 0 0 -11.52 38.604 168.309)"/><use xlink:href="#ab" transform="matrix(10.944 0 0 -11.52 48.508 169.599)"/><use xlink:href="#ac" transform="matrix(10.944 0 0 -11.52 58.883 168.908)"/><use xlink:href="#ad" transform="matrix(10.944 0 0 -11.52 69.225 169.576)"/><symbol id="ae"><path transform="matrix(.001 0 0 .001 -.069 .021)" d="M121 87c35 0 52-27 52-54s-17-54-52-54S69 6 69 33s17 54 52 54z"/></symbol><use xlink:href="#ae" transform="matrix(10.944 0 0 -11.52 80.037 168.378)"/><use xlink:href="#w" transform="matrix(11.04 0 0 -11.04 87.724 170.138)"/><use xlink:href="#i" transform="matrix(11.04 0 0 -11.04 94.662 169.612)"/><symbol id="af"><path d="M.814.162C.806.164.801.164.8.162.798.161.795.157.793.15V.146A12.726 12.726 0 0 0 .776.103a.222.222 0 0 0-.02-.039.125.125 0 0 0-.029-.029A.06.06 0 0 0 .69.021C.675.021.667.031.666.05.665.063.667.077.673.092l.006.02.03.086a.934.934 0 0 1 .029.097c.006.027.008.05.006.068a.094.094 0 0 1-.028.06.096.096 0 0 1-.037.022.188.188 0 0 1-.102 0A.132.132 0 0 1 .535.424.27.27 0 0 1 .467.355a.169.169 0 0 1-.01.04.082.082 0 0 1-.022.032.094.094 0 0 1-.039.02.198.198 0 0 1-.1-.003.175.175 0 0 1-.05-.026A.154.154 0 0 1 .22.395.16.16 0 0 1 .197.366a.092.092 0 0 1-.028.062.088.088 0 0 1-.103.013A.074.074 0 0 1 .04.412.387.387 0 0 1 0 .295C.002.292.005.29.008.289c.006 0 .01 0 .013.004A.046.046 0 0 1 .03.312a.438.438 0 0 0 .03.087c.005.01.01.019.018.024A.042.042 0 0 0 .102.43C.12.43.13.42.133.402A.133.133 0 0 0 .131.355L.053.045a.05.05 0 0 1 0-.03C.055.006.063 0 .077 0 .086 0 .094.003.1.008a.034.034 0 0 1 .015.02l.042.168.03.114a.287.287 0 0 0 .04.061.206.206 0 0 0 .059.046c.009.005.019.008.03.01A.196.196 0 0 0 .35.432C.36.43.368.429.375.426a.058.058 0 0 0 .02-.019.089.089 0 0 0 .009-.042.198.198 0 0 0-.005-.044 8.126 8.126 0 0 1-.04-.16L.329.035A.028.028 0 0 1 .334.011C.339.004.347 0 .357 0c.014 0 .024.006.031.018.005.007.01.019.013.036l.001.003.06.238a.2.2 0 0 0 .075.103c.013.011.026.02.037.024A.147.147 0 0 0 .628.43.06.06 0 0 0 .653.426.034.034 0 0 0 .671.409.1.1 0 0 0 .68.36.228.228 0 0 0 .673.31a1.017 1.017 0 0 0-.03-.1A3.61 3.61 0 0 0 .613.121a.093.093 0 0 1 .003-.08C.63.014.654 0 .688 0 .7 0 .711.002.72.006A.08.08 0 0 1 .75.02a.328.328 0 0 1 .063.105l.001.005a.162.162 0 0 1 .005.018c.001.009 0 .013-.004.013z"/></symbol><use xlink:href="#af" transform="matrix(11.04 0 0 -11.04 97.598 167.993)"/><use xlink:href="#m" transform="matrix(11.04 0 0 -11.04 107.708 169.619)"/><use xlink:href="#G" transform="matrix(11.04 0 0 -11.04 113.737 165.648)"/><symbol id="ag"><path d="M.454.39c0 .02-.007.036-.021.047a.07.07 0 0 1-.047.015.138.138 0 0 1-.069-.018.296.296 0 0 1-.06-.05L.229.354A.678.678 0 0 0 .182.308.195.195 0 0 0 .129.272l.103.423C.232.699.232.7.23.703A.727.727 0 0 1 .083.69C.08.689.079.684.079.676.08.67.081.666.086.665A.034.034 0 0 1 .1.661H.13A.03.03 0 0 0 .146.657C.15.656.152.65.152.645A.08.08 0 0 0 .15.628V.626L.005.05A.062.062 0 0 1 .002.02C.004.009.012.003.025 0a.033.033 0 0 1 .03.011c.006.006.01.015.014.027a2.131 2.131 0 0 1 .035.143L.12.241A.227.227 0 0 0 .175.229.118.118 0 0 0 .222.197.066.066 0 0 0 .234.146L.231.126A.286.286 0 0 1 .23.114V.1C.229.085.23.07.234.059A.089.089 0 0 1 .32 0c.03 0 .056.017.076.05a.319.319 0 0 1 .038.095v.014c0 .003-.004.005-.01.005-.004 0-.008 0-.01-.002L.411.154.408.143.405.135A.326.326 0 0 0 .378.063C.363.035.344.022.322.022c-.017 0-.027.01-.03.028a.123.123 0 0 0 .002.048l.003.02.005.025A.089.089 0 0 1 .26.23.196.196 0 0 1 .209.25a.34.34 0 0 1-.055.01C.167.27.183.281.2.297l.047.047.038.036a.29.29 0 0 0 .048.038.101.101 0 0 0 .07.011.03.03 0 0 0 .014-.01.059.059 0 0 1-.04-.016A.05.05 0 0 1 .36.365c0-.011.004-.02.011-.027A.04.04 0 0 1 .398.33c.016 0 .03.007.04.019.01.012.016.026.016.042z"/></symbol><use xlink:href="#ag" transform="matrix(11.04 0 0 -11.04 124.286 167.997)"/><use xlink:href="#Z" transform="matrix(10.944 0 0 -11.52 131.156 168.942)"/><symbol id="ah"><path transform="matrix(.001 0 0 .001 -.028 .124)" d="M693 728V-18c0-76 4-105 16-105 30-1 48 78 49 202l2 217s156 9 166 8c44-4 45 52 8 58s-67 5-102-19c-20-14-71-13-71-12l2 381c0 44 14 64-15 76-21 9-118 35-132 34-44-2-47-21-15-31 18-6 92-47 92-63zM461 268c-4-43-34-99-119-98-67 1-122 46-124 101-3 76 69 114 122 112 69-2 126-56 121-115zM314 421c0-1-167-14-165-149 1-79 82-155 197-153 109 2 178 72 180 149 3 132-161 155-161 155 2 1 29 22 24 36-6 17-43 28-51 28-14 0-34-1-8-22 16-13-6-35-16-44zm-126 62s75 10 160 14c95 5 202 8 227 8 45 1 54 44 13 51-12 2-62 17-98-9-22-16-45-13-181-23-108-8-191 0-216 5-65 12-36-20 7-39 70-30 51-10 88-7zm37 206c-45 12-40-1-22-20 9-10 60-50 71-53 23-6 137-2 159-1 50 3 52 47 9 55-12 2-90 1-157 9-27 3-54 8-60 10z"/></symbol><symbol id="ai"><path transform="matrix(.001 0 0 .001 -.025 .035)" d="M331 681c0 45 14 60-48 62-33 1-68 4-81 3-24-2-58-18-11-30 13-3 68-21 68-41l2-105c1-29-1-61 29-76 21-11 56-11 94-10l235 4c62 1 149 3 160 7 40 13 35 51-7 58-13 2-67 6-79 2s-49-32-83-34c-1 0-56-4-113-6-40-1-126-2-126-2-15 0-32 3-36 6s-5 13-5 24zm386-348s-141-7-373-14c-150-5-261 8-280 14-32 10-39-7-13-24 15-10 55-30 98-44 35-12 48 10 77 12 0 0 98 15 245 18 106 2 189 5 257 3 68 1 194-8 207-7 38 2 48 39 10 55-16 7-90 15-104 12-16-3-40-22-124-25zM285 153V57c0-35 0-61 27-75 26-13 51-15 85-15h203c71 0 173-2 183 1 46 12 37 51 4 55-16 2-73 6-92 2-16-3-55-25-90-26-1 0-43-1-118-3-40-1-102 0-102 0-13 0-21 4-28 9-2 1-3 12-3 20l4 123c1 42 18 59-31 64-28 3-85 9-101 7-28-4-49-22-8-29 10-2 67-19 67-37z"/></symbol><use xlink:href="#aa" transform="matrix(10.944 0 0 -11.52 146.964 168.309)"/><use xlink:href="#ab" transform="matrix(10.944 0 0 -11.52 156.868 169.599)"/><use xlink:href="#ah" transform="matrix(10.944 0 0 -11.52 167.309 169.564)"/><use xlink:href="#ai" transform="matrix(10.944 0 0 -11.52 177.596 168.54)"/><use xlink:href="#af" transform="matrix(11.04 0 0 -11.04 193.718 167.993)"/><use xlink:href="#h" transform="matrix(10.944 0 0 -11.52 205.187 169.564)"/><symbol id="aj"><path d="M.556.374v.003A.062.062 0 0 1 .56.395C.559.4.555.405.549.405.544.404.54.402.539.398A.04.04 0 0 1 .533.388V.383A.713.713 0 0 0 .436.186v.061A.281.281 0 0 1 .422.34.174.174 0 0 1 .38.41a.167.167 0 0 1-.111.043.233.233 0 0 1-.102-.025.312.312 0 0 1-.145-.153A.267.267 0 0 1 0 .168.2.2 0 0 1 .01.105.157.157 0 0 1 .16 0a.292.292 0 0 1 .102.02.447.447 0 0 1 .11.064.116.116 0 0 1 .033-.063.064.064 0 0 1 .026-.015A.081.081 0 0 1 .464 0c.012 0 .023.003.033.009.01.004.02.012.028.021A.069.069 0 0 1 .544.06C.55.074.548.08.536.08.532.081.527.08.523.074A.083.083 0 0 1 .516.06.043.043 0 0 1 .51.049.064.064 0 0 0 .507.044.165.165 0 0 0 .488.028.043.043 0 0 0 .467.021C.454.021.446.031.44.053a.138.138 0 0 0-.004.045v.048A.49.49 0 0 1 .505.25a.56.56 0 0 1 .05.125M.37.11A.378.378 0 0 0 .248.037.362.362 0 0 0 .164.021C.133.021.11.033.094.055a.132.132 0 0 0-.02.076c0 .029.006.065.018.108a.358.358 0 0 0 .04.1.234.234 0 0 0 .056.063.135.135 0 0 0 .08.029.077.077 0 0 0 .056-.02.122.122 0 0 0 .03-.056.423.423 0 0 0 .01-.065L.366.222V.203A.821.821 0 0 1 .368.11z"/></symbol><use xlink:href="#aj" transform="matrix(11.04 0 0 -11.04 220.855 167.993)"/><symbol id="ak"><path transform="matrix(.001 0 0 .001 -.013 .069)" d="m254 459 137 7s-1-40 16-41c26-2 42 54 43 114l2 162c0 22 24 50-35 62-23 5-58 10-74 8-18-2-30-16-12-21s59-28 59-42v-63l-129-4 1 54c0 22 11 32-39 42-25 5-74 10-89 6-19-5-33-20-14-26 26-8 79-26 79-38l1-195c0-24 0-74 19-73 23 1 34 48 35 48zm6 29 1 124 129 3 1-123zm343-15 136 5s3-35 19-35c21 0 43 49 44 107l4 181c0 19 25 45-30 56-28 6-65 14-79 12-15-2-30-14-9-21 18-6 50-29 50-41v-81l-131-3 3 70c1 22 16 37-36 49-29 7-44 11-63 9-20-2-38-15-12-22 18-5 47-27 47-40V501c0-14 0-74 16-75 29-2 40 47 41 47zm1 25 3 124 131 6V504zM213 305c6-1 35 8 145 13 83 4 122 5 122 5V165c0-74 7-120 19-120 35 0 49 96 50 162l1 121s212 10 390-5c36-3 47 43-1 53-30 6-91 18-108 7-42-26-142-20-330-30-205-11-373-10-438 7-50 13-36-11-11-25 137-75 129-33 161-30zm76-197 1-100c0-24 6-47 20-58 22-18 51-17 84-17 12-2 244 1 369 1 33 0 41 47 0 56-24 5-78 11-92 1-58-43-257-30-265-29-7-1-42-3-46 5-3 7-3 31-3 45l3 101c1 31 23 56-40 59-28 1-90 5-112 0-16-4-33-20-7-24 22-3 88-22 88-40z"/></symbol><symbol id="al"><path transform="matrix(.001 0 0 .001 -.104 .064)" d="M439 509c7-86-69-120-127-117-86 4-138 56-132 125 7 76 83 103 134 102 72-1 120-55 125-110zM288 660s-162-5-175-140c-9-98 87-170 194-175 122-6 204 83 197 158-14 142-170 153-170 153 1 1 8 14 14 20 8 8 24 19-19 38-16 7-39 12-46 6-11-9 15-20 18-26 8-17-10-32-13-34zm442 73V406c0-43 3-98 23-98 30 0 40 96 42 195l4 215c1 47 21 60-40 78-27 8-90 27-107 26-23-1-48-13-10-27 13-5 88-42 88-62zM330 259c15-9 49-25 71-33 33-12 41 5 69 8 0 0 56 7 107 10 65 4 142 8 143 8 0-1 1-24 0-52-1-30-5-68-5-70-3 0-45-4-93-7-88-5-130-4-132-4-16 0-31 10-57 11-13 1-66 6-82 4-21-3-41-18-7-26 13-3 63-17 63-34l1-69c0-19 4-44 23-56 21-13 53-12 84-12l191 2c84 1 144-3 154 1 36 15 22 51-4 54-11 1-63 6-78 3-14-3-37-24-89-25l-177-5c-13 0-26 1-31 4s-6 13-6 23l2 95 245 8c40 1 77-5 75 21-1 16-38 16-38 17 0 0 6 35 12 60 6 26 14 47 14 48 4 13 40 43-11 45-9 0-43 1-53-2-12-3-19-6-41-7 0 0-36-4-126-8-96-4-178-3-203 5-28 8-46-1-21-17z"/></symbol><use xlink:href="#ak" transform="matrix(10.944 0 0 -11.52 229.184 168.93)"/><use xlink:href="#al" transform="matrix(10.944 0 0 -11.52 240.5 168.873)"/><symbol id="am"><path transform="matrix(.001 0 0 .001 -.068 .123)" d="M604 276V54c0-56 4-87 21-86 24 2 36 80 37 166l2 197 96 5 1-337c0-88 1-122 19-120 34 4 43 124 44 247l4 598c0 41 15 54-27 69-22 8-93 29-112 29-22 0-46-13-11-26 8-3 82-47 82-67V372l-96-5 3 300c0 35 18 49-34 66-23 7-70 23-83 23-21 0-47-14-12-25 11-3 66-41 66-57V300c0-1-42-21-76-30-29-8-76-17-82-14s-7 10-7 27l2 255s89 5 97 7c44 10 30 45 3 48-18 2-49 1-59-9-17-17-47-19-58-13-15 8-60 21-75 20-24-1-35-9-12-22 9-5 39-26 39-41l3-230c0-1-37-21-82-35-30-9-62-19-68-14-4 3-5 6-5 23l2 261s56 2 68 5c37 8 28 33 6 41-8 3-38 8-49-3-10-10-33-23-41-19-18 10-83 17-101 15-23-2-41-20-11-25 12-2 59-17 60-41l6-253c1-22 16-72 31-76s60 17 101 40c24 13 83 58 83 57l1-22c1-27 14-57 32-62 16-4 73 21 105 38 36 19 87 49 87 48z"/></symbol><use xlink:href="#am" transform="matrix(10.944 0 0 -11.52 255.586 169.553)"/><symbol id="an"><path transform="matrix(.001 0 0 .001 -.055 .177)" d="M55-162c32 26 59 63 68 98 6 25-4 46-26 46-15 0-37 19-37 53 0 28 25 50 51 50 31 0 66-18 66-65 0-85-52-154-111-197z"/></symbol><use xlink:href="#an" transform="matrix(10.944 0 0 -11.52 265.764 170.175)"/><use xlink:href="#y" transform="matrix(21.96 0 0 -21.96 24.434 201.628)"/><use xlink:href="#j" transform="matrix(7.44 0 0 -7.44 31.693 204.161)"/><use xlink:href="#l" transform="matrix(7.44 0 0 -7.44 37.605 183.576)"/><use xlink:href="#K" transform="matrix(41.04 0 0 -11.04 43.162 191.329)"/><use xlink:href="#S" transform="matrix(11.04 0 0 -12 47.802 204.692)"/><use xlink:href="#K" transform="matrix(11.28 0 0 -11.04 55.642 193.249)"/><use xlink:href="#C" transform="matrix(11.04 0 0 -11.04 56.14 203.273)"/><use xlink:href="#L" transform="matrix(11.04 0 0 -11.04 45.133 187.334)"/><use xlink:href="#M" transform="matrix(11.04 0 0 -11.04 49.605 187)"/><use xlink:href="#I" transform="matrix(11.04 0 0 -11.04 52.649 187)"/><use xlink:href="#C" transform="matrix(11.04 0 0 -11.04 58.54 187.073)"/><use xlink:href="#F" transform="matrix(11.04 0 0 -11.04 65.204 194.393)"/><use xlink:href="#C" transform="matrix(11.04 0 0 -11.04 70.3 194.393)"/><use xlink:href="#G" transform="matrix(11.04 0 0 -11.04 76.777 192.048)"/><use xlink:href="#u" transform="matrix(11.04 0 0 -11.04 87.337 190.937)"/><use xlink:href="#K" transform="matrix(27.6 0 0 -11.04 97.522 191.329)"/><symbol id="ao"><path d="M.521.477c0 .043-.01.079-.034.109a.114.114 0 0 1-.097.05.137.137 0 0 1-.073-.022A.264.264 0 0 1 .26.562a.086.086 0 0 1-.031.054.09.09 0 0 1-.06.02A.073.073 0 0 1 .13.625a.082.082 0 0 1-.028-.03.543.543 0 0 1-.036-.102L.063.492a.03.03 0 0 1 0-.012c0-.004.005-.006.011-.006.005 0 .01.002.012.006A.06.06 0 0 1 .09.492v.003a.469.469 0 0 0 .031.088c.005.01.01.018.018.023a.042.042 0 0 0 .025.008c.02 0 .03-.012.031-.036A.197.197 0 0 0 .19.518L.077.073.075.065a.06.06 0 0 0-.008-.02A.025.025 0 0 0 .05.033L.023.031A.034.034 0 0 1 .007.028C.003.026 0 .021 0 .013 0 .009.002.006.004.003A.013.013 0 0 1 .014 0l.04.002.043.002.052-.002L.196 0C.203 0 .207.002.21.006.213.009.215.014.215.02c0 .005-.003.008-.008.01a.034.034 0 0 1-.014.001h-.02A.06.06 0 0 0 .16.033C.15.033.143.037.141.042c-.002.003 0 .01.003.022a1.616 1.616 0 0 0 .045.184A.125.125 0 0 1 .227.2.09.09 0 0 1 .28.184c.03 0 .06.009.091.028A.304.304 0 0 1 .5.37a.285.285 0 0 1 .021.107M.451.52A.46.46 0 0 0 .43.412.64.64 0 0 0 .4.31.216.216 0 0 0 .353.24C.328.217.304.205.279.205a.064.064 0 0 0-.052.026A.138.138 0 0 0 .2.295a7.057 7.057 0 0 0 .054.21c.005.026.023.05.053.074.029.024.055.035.079.035.023 0 .04-.01.05-.03A.133.133 0 0 0 .45.521z"/></symbol><use xlink:href="#ao" transform="matrix(11.04 0 0 -11.04 98.868 203.62)"/><use xlink:href="#ag" transform="matrix(11.04 0 0 -11.04 105.086 201.597)"/><use xlink:href="#aj" transform="matrix(11.04 0 0 -11.04 101.575 187.073)"/><use xlink:href="#l" transform="matrix(11.04 0 0 -11.04 114.144 194.415)"/><use xlink:href="#K" transform="matrix(12 0 0 -7.44 120.562 182.511)"/><symbol id="ap"><path d="M.412.625c0 .007-.003.01-.01.01A.023.023 0 0 1 .39.63a.177.177 0 0 1-.03-.03.162.162 0 0 1-.025-.033.135.135 0 0 1-.036.05.088.088 0 0 1-.057.02.18.18 0 0 1-.093-.028.264.264 0 0 1-.072-.063A.308.308 0 0 1 .021.45.297.297 0 0 1 0 .344C0 .3.01.265.032.234a.116.116 0 0 1 .1-.05c.021 0 .043.006.064.018A.22.22 0 0 1 .25.244L.24.205a5.414 5.414 0 0 1-.017-.07L.205.065A.049.049 0 0 0 .192.041.052.052 0 0 0 .166.033L.133.031c-.01 0-.015 0-.018-.003C.112.026.11.02.11.011A.01.01 0 0 1 .113.003C.115 0 .118 0 .123 0l.05.002.05.002.048-.001L.326 0c.006 0 .01.002.014.006.002.003.004.008.004.015C.344.026.34.029.335.03A.042.042 0 0 1 .32.031H.302L.29.033C.279.035.272.038.27.043l.002.02.002.006.138.556M.32.526A2.257 2.257 0 0 0 .261.297a.198.198 0 0 0-.053-.06.12.12 0 0 0-.073-.032c-.023 0-.04.01-.051.032A.139.139 0 0 0 .071.3c0 .024.005.058.016.102C.096.44.106.471.117.5a.243.243 0 0 0 .047.075c.025.027.051.04.077.04.02 0 .039-.01.056-.028A.09.09 0 0 0 .32.526z"/></symbol><use xlink:href="#ap" transform="matrix(7.44 0 0 -7.44 122.42 190.807)"/><symbol id="aq"><path d="M.408.39c0 .02-.01.037-.029.05a.103.103 0 0 1-.055.014.135.135 0 0 1-.081-.028.201.201 0 0 1-.026-.021.25.25 0 0 1-.021-.027.093.093 0 0 1-.03.055.11.11 0 0 1-.03.017.12.12 0 0 1-.031.004.073.073 0 0 1-.067-.04.543.543 0 0 1-.036-.102V.307C0 .301 0 .297.001.296.001.292.005.29.011.29c.005 0 .009.002.01.006a.042.042 0 0 1 .005.012l.002.004a.502.502 0 0 0 .03.088c.004.01.01.018.017.023a.042.042 0 0 0 .026.008c.02 0 .03-.012.031-.037a.246.246 0 0 0-.008-.06L.09.2A3.635 3.635 0 0 1 .05.02C.052.01.058.005.07.002a.038.038 0 0 1 .03.004c.01.006.015.015.019.027l.069.28c.002.012.011.03.026.05C.228.387.242.4.253.41a.117.117 0 0 0 .07.023A.09.09 0 0 0 .35.428.059.059 0 0 0 .366.421.062.062 0 0 1 .328.403.05.05 0 0 1 .314.366c0-.011.003-.02.01-.026A.042.042 0 0 1 .353.33C.367.33.38.338.39.349A.058.058 0 0 1 .408.39z"/></symbol><use xlink:href="#aq" transform="matrix(7.44 0 0 -7.44 121.858 179.733)"/><use xlink:href="#h" transform="matrix(10.944 0 0 -11.52 130.067 196.084)"/><use xlink:href="#ad" transform="matrix(10.944 0 0 -11.52 139.664 196.096)"/><use xlink:href="#ae" transform="matrix(10.944 0 0 -11.52 150.237 194.898)"/><use xlink:href="#ao" transform="matrix(11.04 0 0 -11.04 157.188 196.54)"/><symbol id="ar"><path d="M.624.53.601.551.31.298.02.55 0 .529.29.275 0 .025.025 0l.287.252.287-.251.021.02-.286.253.29.255z"/></symbol><use xlink:href="#ar" transform="matrix(11.04 0 0 -11.04 165.408 194.006)"/><use xlink:href="#i" transform="matrix(11.04 0 0 -11.04 175.182 196.132)"/><use xlink:href="#ap" transform="matrix(11.04 0 0 -11.04 178.244 196.54)"/><use xlink:href="#N" transform="matrix(11.04 0 0 -11.04 184.537 194.561)"/><use xlink:href="#aq" transform="matrix(11.04 0 0 -11.04 193.962 194.531)"/><use xlink:href="#m" transform="matrix(11.04 0 0 -11.04 199.508 196.139)"/><use xlink:href="#t" transform="matrix(10.944 0 0 -11.52 205.021 196.096)"/><symbol id="as"><path transform="matrix(.001 0 0 .001 -.028 .119)" d="M423 634c-2-3-55-119-172-229C144 304 57 258 45 251c-17-10 5-16 14-11 8 4 100 43 224 139 139 107 204 228 204 228 20 22 51 64 10 66-20 1-51 3-61 1-18-4-31-12-48-13 0 0-70-7-149-8-33 0-110 1-138 7-33 7-34-11-15-21 11-6 60-26 82-32 30-8 35 9 69 12 0 0 33 5 84 8 48 3 101 7 102 7zm270 89V377c0-26 4-65 23-64 37 2 40 121 40 121l49 1c51 1 119 4 131 9 34 15 17 49-14 51-18 1-46 2-59-1-17-4-43-27-72-29l-34-2 4 261c1 33 21 55-39 73-29 9-92 26-110 25-27-2-47-14-11-29 12-5 92-52 92-70zm-29-488c1-1-11-82-78-196-56-95-99-131-109-140-14-12 6-14 14-7 5 4 55 37 110 99 56 63 89 130 89 130l41-63c44-67 85-138 93-143 30-19 43 1 34 50-4 21-33 70-41 77-13 11-59 38-84 71l-28 37s3 14 11 35c5 12 14 40 14 40 8 24 34 43-22 62-22 7-67 22-81 24-22 3-56-5-17-26 8-4 62-30 54-50zM283 112l136 8V-10l-138-7zM477 3l5 215c1 43 19 54-30 64-22 5-61 15-75 14-23-1-44-14-9-26 12-4 50-28 50-43v-73l-135-8v42c0 29 15 52-46 58-32 3-50 5-73 6s-48-17-15-24c16-3 72-25 72-46l4-217c1-56 8-81 21-82 26-2 33 63 33 63 1 1 42 5 67 6 28 1 73 7 73 6 0 0 4-57 24-55 25 3 33 49 34 100z"/></symbol><symbol id="at"><path transform="matrix(.001 0 0 .001 -.018 .048)" d="M635 583c5-72-54-111-128-114s-146 40-146 119c0 72 77 116 139 114 73-3 130-48 135-119zM465 741s-160-9-168-152c-6-96 91-167 201-168 92-1 204 59 201 164-4 136-174 157-176 157 0 0 5 15 14 23 18 16 10 30-13 40-17 8-46 20-52 12-9-12 21-21 22-38 1-27-22-32-29-38zm259-404s-150-14-311-18c-206-5-338 9-357 15-32 10-38-4-13-21 15-10 70-34 110-48 37-13 49 10 77 12 0 0 98 12 246 16 106 3 198 8 267 5 67 1 183-10 196-9 36 2 49 40 9 57-16 7-97 15-112 12s-27-16-112-21zM290 131l2-86c1-35 5-64 31-79 24-14 48-13 80-13l182 2c67 1 162-2 172 1 46 12 37 51 3 55-15 2-70 6-88 2-16-4-43-24-83-26 0 0-22-4-97-6-39-1-101 0-101 0-15 0-19 3-26 8-2 1-3 14-3 21l2 122c1 41 16 58-33 63-28 3-82 7-98 5-28-4-50-20-9-27 10-2 66-26 66-42z"/></symbol><use xlink:href="#as" transform="matrix(10.944 0 0 -11.52 220.108 196.027)"/><use xlink:href="#at" transform="matrix(10.944 0 0 -11.52 230.08 195.209)"/><symbol id="au"><path transform="matrix(.001 0 0 .001 -.049 .016)" d="M221 187c0 49-5 108 55 185 35 47 98 112 98 199 0 62-27 125-116 125-67 0-124-40-124-78 0-32 23-30 23-69 0-60-108-71-108 17 0 76 88 156 211 156 116 0 198-63 198-163 0-120-100-142-165-232-35-53-43-91-43-140zm17-95c37 0 54-27 54-54s-17-54-54-54c-38 0-55 27-55 54s17 54 55 54z"/></symbol><use xlink:href="#au" transform="matrix(10.944 0 0 -11.52 240.618 194.84)"/><symbol id="av"><path transform="matrix(.001 0 0 .001 -.096 .081)" d="M319 776C208 638 155 483 155 349c0-156 53-300 168-422l-11-8C153 44 96 189 96 353c0 136 64 291 214 432z"/></symbol><use xlink:href="#av" transform="matrix(10.944 0 0 -11.52 251.333 195.59)"/><symbol id="aw"><path transform="matrix(.001 0 0 .001 -.043 .046)" d="M693 421s-92-37-277-67c-72-12-182-27-191-19-5 4-6 14-6 30l2 226 153 9c32 2 109 3 121 7 34 11 20 46-12 48-21 2-48 2-61-2-14-4-42-24-67-26-1 0-39-3-64-4-33-1-62-2-62-2-16-1-27 8-59 10-18 1-63 7-77 6-24-2-50-17-12-27 11-3 69-24 69-45l4-214c1-31 12-69 31-81 14-9 182 27 257 48 157 44 251 87 251 87V179c0-34 5-84 23-83 28 1 40 95 41 163l2 139 61 3c46 2 110 2 119 6 39 18 14 47-12 49-17 1-52 4-66-2-13-6-40-24-68-25l-33-1 6 292c1 48 20 60-39 76-29 8-92 26-104 26-25 0-54-14-19-27 12-5 89-42 89-66zM393 137l2-94c1-34 2-60 28-76 18-11 42-13 70-13l182 2c58 1 139-2 148 1 44 16 28 51-8 56-17 2-54 7-68 3-16-5-43-27-88-28l-169-4c-12 0-19 1-26 6-3 2-5 15-5 23l4 124c1 40 18 64-43 64-28 0-74 6-90 4-28-4-50-22-10-31 9-2 73-18 73-37z"/></symbol><use xlink:href="#aw" transform="matrix(10.944 0 0 -11.52 254.713 195.186)"/><use xlink:href="#an" transform="matrix(10.944 0 0 -11.52 264.924 196.695)"/><use xlink:href="#ao" transform="matrix(11.04 0 0 -11.04 272.028 196.54)"/><use xlink:href="#ai" transform="matrix(10.944 0 0 -11.52 279.836 195.06)"/><symbol id="ax"><path transform="matrix(.001 0 0 .001 -.024 .123)" d="M622 590c-3-70-62-110-123-110-55 0-135 37-132 117 3 70 61 103 123 104 73 1 134-54 132-111zM466 748s-161-10-167-154c-4-103 95-163 193-161 117 2 202 66 197 161-7 136-175 151-177 151 0 0 11 12 18 18 11 10 9 25-23 39-8 3-36 13-43 4-6-8 4-11 9-17 15-17-3-37-7-41zm273-390s-117-9-359-17c-150-5-280 0-321 13-30 9-35-7-10-22 10-6 60-30 100-46 28-11 55 13 70 14 0 0 39 2 69 5 31 3 59 4 59 4l1-294c0-52 5-107 25-105 26 3 39 94 40 197l1 204s51 5 97 8c33 2 84 1 84 1l6-325c1-55 3-118 25-117 35 2 38 114 39 236l1 208h102c66 0 155-14 168-13 54 5 32 47 9 56-17 6-98 16-113 14-16-2-45-19-93-21z"/></symbol><symbol id="ay"><path transform="matrix(.001 0 0 .001 -.054 .123)" d="M101 436c-26-3-47-18-8-25 12-2 65-21 66-40l5-179c1-26 14-56 32-67 15-9 167 27 267 57 176 53 267 91 267 90V-5c0-83 3-118 22-114 30 6 36 100 38 228l8 615c1 46 16 56-38 73-28 9-94 26-109 24-21-3-51-13-12-26 12-4 91-40 91-67V295c0-1-134-44-293-73-83-15-195-35-202-29-5 4-6 13-6 26l1 169c1 0 59 5 129 9 106 6 162-3 159 26-1 14-40 14-40 16-1 0 7 33 14 69s16 75 16 77c4 18 39 52-11 53-9 0-61 3-64-2s-55-8-142-12c-96-4-164-1-180 3-31 8-43-3-21-17 15-9 65-28 87-34 25-7 34 8 64 11 0 0 45 6 89 9 63 4 107 7 108 7 0-1 5-53 2-86-4-52-8-81-8-83-3 0-64-7-110-10-63-4-87-4-91-1-9 7-112 15-130 13z"/></symbol><use xlink:href="#ax" transform="matrix(10.944 0 0 -11.52 294.945 196.073)"/><use xlink:href="#ay" transform="matrix(10.944 0 0 -11.52 305.353 196.073)"/><use xlink:href="#p" transform="matrix(10.944 0 0 -11.52 315.225 195.843)"/><use xlink:href="#an" transform="matrix(10.944 0 0 -11.52 325.644 196.695)"/><use xlink:href="#ap" transform="matrix(11.04 0 0 -11.04 23.804 220.3)"/><use xlink:href="#an" transform="matrix(10.944 0 0 -11.52 30.444 220.455)"/><use xlink:href="#aq" transform="matrix(11.04 0 0 -11.04 38.322 218.291)"/><use xlink:href="#at" transform="matrix(10.944 0 0 -11.52 44.559 218.969)"/><symbol id="az"><path transform="matrix(.001 0 0 .001 -.004 .13)" d="M356 578c1-1-31-95-130-214-77-93-193-187-205-193-17-9-5-24 20-7 16 11 73 43 149 107 95 80 127 129 128 128 1 1 43-57 80-110 40-57 62-95 78-111 17-17 59 1 30 55-18 33-28 68-76 94-40 22-92 92-91 93-1 1 31 41 61 91 22 36 38 70 38 71 8 15 31 37-17 53-24 8-101 33-124 32-15-1-39-13-10-26 16-7 81-43 69-63zM730-14c0-44 0-112 16-113 39-3 46 130 47 230l6 611c0 41 29 66-43 84-32 8-82 25-107 24-22-1-44-20-18-26 21-5 99-47 99-64V440c0-1-204-14-227-7-31 9-31-7-13-18 13-8 39-21 61-30 21-8 42 10 56 11l123 10z"/></symbol><symbol id="aA"><path transform="matrix(.001 0 0 .001 -.015 .002)" d="M338 489c-8 9-104 14-112 13-26-3-50-14-12-27 13-4 62-20 62-39l2-94c1-29 6-59 34-73 21-11 51-12 85-11l71 3c1 0 2-63 2-111 0-28 2-73 2-73 0-1-110-6-172-5-153 2-226 8-240 14-28 11-45-2-19-21 10-7 68-37 108-53 34-14 48 14 85 17 2 0 115 15 272 20 106 4 184 7 301 2 52-2 115-11 134-9 40 4 39 47 1 61-13 5-101 23-132 4-22-13-134-21-173-24-35-3-112-5-112-4-1 0 10 43 12 75 3 43 3 109 4 109 0 1 67 3 104 6 45 4 104-1 116 3 40 14 26 55-14 55-27 0-64 8-91-10-38-25-88-23-142-27-39-3-126-4-127-4-15 0-30 0-36 6-4 4-6 10-6 24l2 140c1 0 61 4 150 9 200 11 242-4 244 26 1 20-40 20-40 22-1 1 4 20 13 56 5 19 23 75 23 77 8 26 43 57-4 60-9 1-60 6-71-2-17-12-125-18-219-22-124-5-200-2-215 3-29 9-41-3-20-17 16-11 52-29 74-35 25-7 46 9 76 11 0 0 69 6 112 9 63 4 197 11 198 11 0-1 1-54-2-87-4-52-10-69-10-71-3 0-76-9-164-13-66-3-151-7-154-4z"/></symbol><symbol id="aB"><path transform="matrix(.001 0 0 .001 -.014 .01)" d="M475 634c1-1-48-81-153-170-94-80-214-137-226-141-20-7-14-20 15-11 15 5 136 48 219 102 113 73 153 124 154 124 1 1 89-46 176-86 59-27 136-69 183-84 28-9 46 17 19 46-22 24-89 58-128 65-133 24-231 76-230 77-1 0 19 22 31 36 23 27 32 42 32 43 10 14 30 31-20 48-24 8-106 36-129 36-15 0-42-12-10-22 15-5 84-44 67-63zM818 93c-20-19-284-30-284-29l8 187c2 36 23 53-21 61-26 5-73 10-100 10-17 0-38-14-15-22 13-5 67-27 67-47l2-193c0-1-90 0-149-2-157-4-232 4-270 14-42 11-27-15-12-23 24-13 65-33 105-49 24-10 49 12 71 14 2 0 154 17 291 21 150 4 288 3 422-11 39-4 59 47 7 58-47 10-110 22-122 11z"/></symbol><use xlink:href="#az" transform="matrix(10.944 0 0 -11.52 59.886 219.914)"/><use xlink:href="#aA" transform="matrix(10.944 0 0 -11.52 70.326 218.44)"/><use xlink:href="#aB" transform="matrix(10.944 0 0 -11.52 80.636 218.531)"/><use xlink:href="#n" transform="matrix(10.944 0 0 -11.52 92.04 219.107)"/><symbol id="aC"><path transform="matrix(.001 0 0 .001 -.018 .122)" d="m336 544 3 166c0 1 77 0 127 1 47 1 86 3 125 5 27 1 148 5 158 10 31 15 24 44-10 46-21 1-68 5-81 1-14-5-40-25-83-26l-218-6c-17 0-36 10-68 12-18 1-73 7-90 5-23-2-57-15-9-29 13-4 75-27 75-45l1-115c0-29 2-62 30-77s59-15 97-14l203 6c63 2 142-1 154 3 38 12 30 50-13 53-12 1-53 2-64-2-12-4-39-23-64-24-1 0-62-2-118-4-41-1-115-3-115-3-14 0-27 3-33 9-5 5-7 17-7 28zm429-185s-110-10-273-17c-287-12-417 6-435 12-29 9-39-4-15-21 16-11 58-27 99-44 32-13 61 4 76 6 0 0 83 10 133 14 69 5 120 3 120 3l1-326c0-51 2-108 23-107 28 1 42 84 44 198l4 239s83 4 135 5c99 2 250-10 263-11 27-2 49 35 13 52-19 9-94 19-109 15s-34-15-79-18z"/></symbol><use xlink:href="#aC" transform="matrix(10.944 0 0 -11.52 106.479 219.821)"/><symbol id="aD"><path transform="matrix(.001 0 0 .001 -.014 .123)" d="M398 393c-1 1 35 41 65 86 31 47 56 87 56 91 17 27 43 46 1 53-22 4-68 1-70-3-4-7-79-12-125-14-115-6-184-4-207 2-42 11-30-12-2-27 90-49 104-19 119-17 6-1 38 6 95 10 64 4 112 8 111 7 2 0-30-84-114-188C211 250 40 131 29 125c-15-9 0-22 23-9 17 10 72 44 151 101 99 71 174 157 175 156 1 1 30-32 65-85 40-60 51-85 70-108 26-31 55-11 47 31-6 31-27 86-66 104-50 23-98 76-96 78zm359-62 3 385c0 43 26 59-27 75-35 11-107 33-128 30-18-3-41-16-8-28 20-7 96-42 96-64V-11c0-27 0-112 15-112 36 0 45 106 46 204l3 217 61 3c39 2 91 1 116 5 32 5 37 48 2 55-20 4-76 6-83-3-22-27-96-30-96-27z"/></symbol><symbol id="aE"><path transform="matrix(.001 0 0 .001 -.088 .064)" d="M422 470c6-96-73-127-135-124-73 3-130 38-128 117 2 78 70 114 127 115 60 1 131-34 136-108zM260 620S93 611 90 459c-2-100 94-158 193-160s213 58 205 169c-10 130-170 148-170 148 1 1 8 12 15 21s21 26-20 41c-12 5-32 14-41 6-10-9 10-15 14-29 5-18-22-31-26-35zm152-519 3-88c1-30 2-48 29-63 24-14 49-10 80-10 0 0 322-4 331 0 43 18 22 49-10 55-17 3-69 6-81 2-16-5-38-22-76-23l-176-4c-12 0-19 2-26 7-2 1-4 11-4 19v107c0 40 15 68-45 68-35 0-71 4-91 1-25-3-57-23-15-30 23-4 80-20 81-41zm318 627V571s-36-3-81-6c-41-3-110-5-130 0-22 6-39 1-16-17 10-8 40-20 52-25 32-12 36 4 61 6 1 0 29 3 57 5 22 2 57 3 57 2V373s-51-7-99-10c-42-3-100-5-118 0-24 6-39-2-16-19 9-7 36-18 54-25 22-9 35 6 59 9 18 3 31 5 56 7s64 6 64 6V193c0-50 1-108 23-107 31 1 41 123 42 196l7 435c1 43 18 60-33 76-27 9-102 30-116 29-29-3-55-15-19-30 18-8 96-46 96-64z"/></symbol><use xlink:href="#aD" transform="matrix(10.944 0 0 -11.52 121.915 219.833)"/><use xlink:href="#aE" transform="matrix(10.944 0 0 -11.52 133.045 219.153)"/><use xlink:href="#p" transform="matrix(10.944 0 0 -11.52 142.665 219.603)"/><use xlink:href="#h" transform="matrix(10.944 0 0 -11.52 153.587 219.845)"/><use xlink:href="#ad" transform="matrix(10.944 0 0 -11.52 163.306 219.856)"/><symbol id="aF"><path transform="matrix(.001 0 0 .001 -.074 .08)" d="M83 785c163-140 213-295 213-434 0-161-55-299-211-431l-11 9C192 59 236 194 236 353c0 128-42 288-162 427z"/></symbol><use xlink:href="#ae" transform="matrix(10.944 0 0 -11.52 174.117 218.658)"/><use xlink:href="#aF" transform="matrix(10.944 0 0 -11.52 176.692 219.338)"/></g></g></svg>