<svg xmlns="http://www.w3.org/2000/svg" xmlns:xlink="http://www.w3.org/1999/xlink" width="451.703" height="378.4" viewBox="0 0 338.777 283.8"><rect width="100%" height="100%" fill="white"/><clipPath id="a"><path transform="matrix(1 0 0 -1 -77.265 1039.927)" d="M0 0h841v1190H0z"/></clipPath><g clip-path="url(#a)"><clipPath id="b"><path transform="matrix(1 0 0 -1 -77.265 1039.927)" d="M0 1190h840.88V0H0z" fill-rule="evenodd"/></clipPath><g clip-path="url(#b)" stroke-width="1.079" stroke-miterlimit="10" fill="none" stroke="#000"><path d="M10.359-2.657h665.632M10.359-2.657h665.632"/></g><clipPath id="c"><path transform="matrix(1 0 0 -1 -77.265 1039.927)" d="M0 1190h840.88V0H0z" fill-rule="evenodd"/></clipPath><g clip-path="url(#c)"><symbol id="d"><path transform="matrix(.001 0 0 .001 -.03 .025)" d="M226 360c-25-8-47-4-48 15 1 20 18 20 45 14 128 0 163 44 163 165 0 66-17 143-106 143-101 0-95-83-96-121 0-86-124-86-125 6 0 88 91 142 230 142 156 0 216-69 216-175 0-96-93-164-192-174 135-8 215-90 215-200 0-114-91-200-298-200-98 0-196 55-200 154 0 89 141 91 141-7 4-33-44-121 50-121 134 0 188 55 188 175 0 101-49 185-173 185z"/></symbol><symbol id="e"><path transform="matrix(.001 0 0 .001 -.053 .015)" d="M158 134c105 0 105-149 0-149s-105 149 0 149z"/></symbol><use xlink:href="#d" transform="matrix(12.96 0 0 -12.96 10.964 20.171)"/><use xlink:href="#e" transform="matrix(12.96 0 0 -12.96 18.221 20.041)"/><symbol id="f"><path transform="matrix(.001 0 0 .001 -.024 .125)" d="m213 254 4 290 157 9c32 2 121 4 133 8 32 11 30 48-12 51-22 2-46 3-58 0-18-5-47-25-71-28-2-1-46-6-76-8-45-3-68-3-68-3-17-1-33 8-64 11-19 2-70 8-84 7-24-2-50-18-13-28 12-3 80-23 80-47l3-267c0-32 11-76 30-88 17-11 163 23 267 54 158 48 252 95 252 95V-10c0-44 2-115 21-113 35 4 39 98 41 222l3 203 48 2c53 2 123 1 135 6 47 19 22 53-2 56-19 2-51 3-66-1-16-4-54-31-89-31h-25l4 387c0 47 21 58-39 76-29 9-94 26-109 25-22-1-51-13-17-27 12-5 95-44 95-70V330s-96-42-278-79c-82-17-182-28-193-22-6 4-9 14-9 25z"/></symbol><symbol id="g"><path transform="matrix(.001 0 0 .001 -.026 .124)" d="M625 586c4-68-41-114-119-117-74-3-141 48-140 116 1 78 75 110 129 111 71 1 126-46 130-110zM473 742s-170-12-177-151c-5-102 103-166 203-164s202 63 194 161c-11 132-167 150-169 150 0 0 10 13 14 17 24 22-8 40-28 45-15 4-44 11-49 2-7-13 16-16 20-25 8-19-1-29-8-35zm274-394s-90-9-280-15c-236-7-367 2-401 13-31 10-40-3-14-22 15-11 64-31 104-46 36-13 60 12 91 14 0 0 172 11 257 14 119 4 185 6 253 3 68 1 169-10 182-9 41 4 33 43 3 51-13 4-96 17-112 15-14-2-27-15-83-18zM391-38s-1 56-3 98c-3 57-5 108-5 108l261 5c0-1 0-58-3-113-2-39-4-88-4-89-1 0-62-5-120-8-54-3-126-1-126-1zM250 185c12-4 60-20 63-41 0 0 10-57 14-105 3-41 8-95 8-96 3-41 7-67 23-66 23 1 31 54 30 55 2 0 81 2 127 3 59 1 152 2 152 2 30 0 50-6 49 17-1 17-40 23-40 24 0 0 7 31 18 85 9 47 21 92 20 96 4 18 37 43-10 48-9 1-52 4-65 1-14-3-20-6-43-7-1 0-34-1-81-3-77-3-130-4-130-4-17-1-32 9-53 10-24 1-56 9-69 8-24-2-51-15-13-27z"/></symbol><symbol id="h"><path transform="matrix(.001 0 0 .001 -.018 .048)" d="M635 583c5-72-54-111-128-114s-146 40-146 119c0 72 77 116 139 114 73-3 130-48 135-119zM465 741s-160-9-168-152c-6-96 91-167 201-168 92-1 204 59 201 164-4 136-174 157-176 157 0 0 5 15 14 23 18 16 10 30-13 40-17 8-46 20-52 12-9-12 21-21 22-38 1-27-22-32-29-38zm259-404s-150-14-311-18c-206-5-338 9-357 15-32 10-38-4-13-21 15-10 70-34 110-48 37-13 49 10 77 12 0 0 98 12 246 16 106 3 198 8 267 5 67 1 183-10 196-9 36 2 49 40 9 57-16 7-97 15-112 12s-27-16-112-21zM290 131l2-86c1-35 5-64 31-79 24-14 48-13 80-13l182 2c67 1 162-2 172 1 46 12 37 51 3 55-15 2-70 6-88 2-16-4-43-24-83-26 0 0-22-4-97-6-39-1-101 0-101 0-15 0-19 3-26 8-2 1-3 14-3 21l2 122c1 41 16 58-33 63-28 3-82 7-98 5-28-4-50-20-9-27 10-2 66-26 66-42z"/></symbol><use xlink:href="#f" transform="matrix(10.944 0 0 -11.52 29.678 21.527)"/><use xlink:href="#g" transform="matrix(10.944 0 0 -11.52 40.02 21.515)"/><use xlink:href="#h" transform="matrix(10.944 0 0 -11.52 50.252 20.64)"/><symbol id="i"><path d="M.755 0H.46v.031a.433.433 0 0 1 .065.013c.011.004.02.01.026.017.006.007.008.016.004.029L.5.25H.206L.162.114C.157.1.157.088.162.077A.073.073 0 0 1 .186.052.109.109 0 0 1 .22.036.143.143 0 0 1 .254.031V0H0v.031c.02 0 .037.003.05.007.015.004.027.01.036.017a.08.08 0 0 1 .022.024c.006.01.01.019.014.03l.21.607.08.028.234-.646A.086.086 0 0 1 .685.052a.129.129 0 0 1 .07-.019V0M.489.285l-.137.38-.133-.38h.27z"/></symbol><use xlink:href="#i" transform="matrix(11.04 0 0 -11.04 65.978 20.95)"/><symbol id="j"><path transform="matrix(.001 0 0 .001 -.096 .081)" d="M319 776C208 638 155 483 155 349c0-156 53-300 168-422l-11-8C153 44 96 189 96 353c0 136 64 291 214 432z"/></symbol><use xlink:href="#j" transform="matrix(10.944 0 0 -11.52 75.466 21.02)"/><symbol id="k"><path d="M.231.626A.206.206 0 0 1 .098.585.141.141 0 0 1 .043.468a.154.154 0 0 1 .089-.14.331.331 0 0 1-.056-.024C.055.29.044.278.044.264.044.252.05.24.065.23a.24.24 0 0 1 .08-.026A.315.315 0 0 1 .05.168C.017.148 0 .127 0 .104 0 .071.018.044.054.027A.436.436 0 0 1 .23 0c.075 0 .132.008.172.024.047.02.07.049.07.09a.087.087 0 0 1-.036.073.214.214 0 0 1-.091.034l-.09.014-.111.018C.128.256.117.26.11.269.107.273.105.279.105.287.105.293.11.3.12.305c.01.005.021.01.036.012A.25.25 0 0 1 .231.308c.053 0 .097.015.131.043C.4.38.417.419.417.467a.154.154 0 0 1-.01.054.204.204 0 0 1-.025.046C.392.576.402.58.41.58A.066.066 0 0 0 .433.57L.444.563A.035.035 0 0 1 .46.56.03.03 0 0 1 .484.57c.008.007.011.016.011.027C.495.608.49.616.48.622a.055.055 0 0 1-.03.009.093.093 0 0 1-.043-.012.152.152 0 0 1-.042-.033.136.136 0 0 1-.049.027.259.259 0 0 1-.084.013M.248.024a.377.377 0 0 0-.143.022C.075.06.06.077.06.1c0 .018.01.035.029.05C.11.165.145.18.19.19A.998.998 0 0 0 .298.174L.32.17A.143.143 0 0 0 .395.143.06.06 0 0 0 .418.096C.418.076.402.06.369.046A.3.3 0 0 0 .248.024M.231.602C.271.602.302.588.324.56a.141.141 0 0 0 .03-.092.144.144 0 0 0-.03-.092.11.11 0 0 0-.093-.043.113.113 0 0 0-.094.043.141.141 0 0 0-.03.092c0 .037.01.067.03.092A.114.114 0 0 0 .23.602z"/></symbol><use xlink:href="#k" transform="matrix(10.56 0 3.67632 -11.04 78.438 22.73)"/><symbol id="l"><path transform="matrix(.001 0 0 .001 -.074 .08)" d="M83 785c163-140 213-295 213-434 0-161-55-299-211-431l-11 9C192 59 236 194 236 353c0 128-42 288-162 427z"/></symbol><use xlink:href="#l" transform="matrix(10.944 0 0 -11.52 85.905 21.009)"/><symbol id="m"><path transform="matrix(.001 0 0 .001 -.037 .128)" d="M473 495c-1-50-56-99-121-101-58-2-126 44-127 108-1 68 76 114 126 111 69-4 123-46 122-118zm220-211s-109-24-179-35c-52-8-128-16-128-16-1 0 3 31 5 52 3 25 3 65 3 65s136 30 141 142c6 139-156 162-157 162 1 1 3 10 8 14 8 6 21 18-6 34-13 8-32 19-43 13-13-7 13-17 13-34 0-13-12-18-22-27-1-1-168-10-168-152 0-132 164-152 164-152s2-46 4-76c1-20 3-46 3-46s-75-11-152-12c-64-1-92 8-111 11-26 4-31-12-9-26 14-9 63-30 89-42 42-20 54 6 79 10 1 0 129 20 242 43 102 21 224 55 224 54V-17c0-66 6-111 23-108 32 5 38 138 39 228l3 188 45 3c54 4 126 3 138 8 38 15 18 49-11 51-19 1-59 3-70-1-17-6-33-26-67-29l-35-3 3 402c0 43 24 60-40 77-28 8-87 24-103 23-23-1-54-14-15-27 12-4 90-50 90-71z"/></symbol><use xlink:href="#m" transform="matrix(10.944 0 0 -11.52 89.34 21.562)"/><symbol id="n"><path d="M.622.19A.16.16 0 0 0 .535.04a.272.272 0 0 0-.09-.031A.612.612 0 0 0 .341 0H0v.031c.038 0 .063.004.077.012.014.008.02.018.02.03V.63c0 .01-.001.019-.004.025A.027.027 0 0 1 .078.67a.08.08 0 0 1-.03.008.462.462 0 0 1-.046.002V.71h.347C.388.71.422.706.45.697A.229.229 0 0 0 .526.664.133.133 0 0 0 .57.485a.185.185 0 0 0-.046-.05A.307.307 0 0 0 .464.4.599.599 0 0 0 .402.378.397.397 0 0 0 .487.355a.244.244 0 0 0 .07-.038.177.177 0 0 0 .047-.055.148.148 0 0 0 .018-.073M.487.544a.205.205 0 0 1-.006.048.105.105 0 0 1-.022.044.117.117 0 0 1-.047.033.184.184 0 0 1-.077.014.565.565 0 0 1-.074-.004.145.145 0 0 1-.044-.012.045.045 0 0 1-.022-.02A.068.068 0 0 1 .19.621V.39h.082C.3.39.324.392.35.396a.206.206 0 0 1 .068.022c.02.011.037.027.05.047.013.02.02.046.02.079M.523.19a.172.172 0 0 1-.018.086.134.134 0 0 1-.048.051.172.172 0 0 1-.065.025.358.358 0 0 1-.069.006H.19V.1A.13.13 0 0 1 .194.063C.198.054.205.048.217.043A.168.168 0 0 1 .27.033L.369.031A.167.167 0 0 1 .476.07C.49.082.502.1.51.12.52.138.524.161.524.19z"/></symbol><use xlink:href="#n" transform="matrix(11.04 0 0 -11.04 104.738 20.95)"/><use xlink:href="#j" transform="matrix(10.944 0 0 -11.52 113.506 21.02)"/><use xlink:href="#k" transform="matrix(10.56 0 3.67632 -11.04 116.478 22.73)"/><use xlink:href="#l" transform="matrix(10.944 0 0 -11.52 123.945 21.009)"/><symbol id="o"><path transform="matrix(.001 0 0 .001 -.021 .123)" d="M429 571c0-1-46-148-190-304C131 150 44 83 31 71c-10-9 9-11 15-8s99 63 212 166c179 163 246 328 246 328 13 17 35 47 3 53-13 2-58 4-74-6-9-6-117-10-167-11-85-1-131 0-161 6-37 7-39-8-18-21 11-7 46-25 86-38 19-6 48 14 68 16 0 0 51 5 105 8 49 3 82 7 83 7zm264 157V-7c0-94 9-116 24-115 37 2 41 136 41 225l1 201s179 5 191 9c43 16 17 62-19 60-18-1-64 4-77-9-28-29-94-27-94-26l3 383c0 46 22 59-39 76-29 8-92 25-114 25-25 0-46-12-14-24 12-5 97-44 97-70z"/></symbol><use xlink:href="#o" transform="matrix(10.944 0 0 -11.52 127.205 21.504)"/><symbol id="p"><path transform="matrix(.001 0 0 .001 -.028 .059)" d="M193 285s74 4 122 6 122 2 122 2 2-40 21-40c42 0 41 114 41 147l3 206c0 26 21 49-31 60-26 6-73 20-100 20-23 0-33-17-12-23 19-6 76-41 76-57v-87l-237-6v70c0 23 20 51-30 56-27 3-82 13-106 11-21-2-34-21-8-26 24-4 78-28 78-46l6-255c0-21-1-93 18-93 31 0 37 55 37 55zm5 32v164l237 7V325s-46-2-128-3c-73-1-109-5-109-5zm561 80 9 313c1 45 21 67-32 82-23 7-88 30-115 30s-53-21-16-31c16-4 88-44 88-60V191c0-26 6-97 25-97 34 0 39 105 40 168l2 105h73c38 0 86 3 114 3 27 0 24 49-12 53-20 2-45 5-61 1-19-5-41-27-65-27zM382 115l3-91c1-22 4-55 27-65 24-10 46-13 76-13 9-2 224-5 319-5 53 0 35 54 3 56-22 1-52 4-72 0-16-3-50-22-72-23 0 0-39-3-80-3-33 0-79 2-85 3-4 0-30-2-42 5-8 4-7 27-7 39l1 92c0 31 19 65-33 65-35 0-82 5-107 3-24-2-42-21-14-24 21-2 83-25 83-39z"/></symbol><symbol id="q"><path transform="matrix(.001 0 0 .001 -.023 .095)" d="M627 594c9-63-49-114-118-115-68-1-136 41-134 114 2 72 71 104 128 105 71 1 116-48 124-104zM472 741s-154-13-164-144c-9-112 110-164 198-162 96 2 192 61 185 162-9 130-162 143-164 143 0 0 3 13 11 19 23 18-5 29-20 36-14 7-42 9-45 2-5-11 10-14 16-24 10-16-14-29-17-32zM632 68c3-66-58-105-118-107-65-2-135 35-134 109 1 71 68 105 122 106 66 1 127-47 130-108zM475 213S320 200 313 70C307-38 427-95 514-92c92 3 188 63 181 163-9 132-166 142-168 142 0 0 1 12 6 17 15 16-9 28-28 37-13 6-31 7-34 0-4-9 13-13 18-28 4-12-9-22-14-26zm258 156s-116-11-275-15c-238-6-363 1-396 11-31 10-39-3-13-22 15-11 70-33 111-48 35-13 53 14 88 16 0 0 130 13 252 16 120 3 222 8 270 5 67 1 156-11 169-9 30 4 48 39 5 56-13 5-76 15-96 14-19-1-49-20-115-24z"/></symbol><symbol id="r"><path transform="matrix(.001 0 0 .001 -.028 .124)" d="M693 728V-18c0-76 4-105 16-105 30-1 48 78 49 202l2 217s156 9 166 8c44-4 45 52 8 58s-67 5-102-19c-20-14-71-13-71-12l2 381c0 44 14 64-15 76-21 9-118 35-132 34-44-2-47-21-15-31 18-6 92-47 92-63zM461 268c-4-43-34-99-119-98-67 1-122 46-124 101-3 76 69 114 122 112 69-2 126-56 121-115zM314 421c0-1-167-14-165-149 1-79 82-155 197-153 109 2 178 72 180 149 3 132-161 155-161 155 2 1 29 22 24 36-6 17-43 28-51 28-14 0-34-1-8-22 16-13-6-35-16-44zm-126 62s75 10 160 14c95 5 202 8 227 8 45 1 54 44 13 51-12 2-62 17-98-9-22-16-45-13-181-23-108-8-191 0-216 5-65 12-36-20 7-39 70-30 51-10 88-7zm37 206c-45 12-40-1-22-20 9-10 60-50 71-53 23-6 137-2 159-1 50 3 52 47 9 55-12 2-90 1-157 9-27 3-54 8-60 10z"/></symbol><symbol id="s"><path transform="matrix(.001 0 0 .001 -.074 .121)" d="M432 424c3-84-69-135-141-132-81 3-144 63-142 134 2 65 57 126 138 126 71 0 142-45 145-128zM294 631c5-23-24-30-29-34 0 0-171-17-182-161-9-122 107-191 205-192 116-1 219 69 208 188-13 142-173 158-173 158s7 14 12 18c12 10 30 19-4 43-21 15-51 18-55 11-6-11 14-13 18-31zm338-121 98 9V318s-65-7-106-8-79-4-106 2c-24 5-43-2-17-20 8-5 33-22 54-29 25-9 45 10 66 12l109 12V1c0-75 3-122 21-122 34 0 43 127 44 233l6 611c0 47 20 62-37 78-29 8-86 22-113 21-28-1-44-15-9-26 17-5 88-40 88-61V552s-44-2-72-4c-36-2-119-2-140 3-29 7-38-6-10-23 9-5 38-22 61-27 22-5 36 7 63 9z"/></symbol><use xlink:href="#p" transform="matrix(10.944 0 0 -11.52 142.281 20.767)"/><use xlink:href="#q" transform="matrix(10.944 0 0 -11.52 152.547 21.181)"/><use xlink:href="#r" transform="matrix(10.944 0 0 -11.52 162.922 21.515)"/><use xlink:href="#s" transform="matrix(10.944 0 0 -11.52 173.745 21.48)"/><symbol id="t"><path d="M.606.209A.387.387 0 0 0 .505.071a.305.305 0 0 0-.083-.05.302.302 0 0 0-.338.089A.39.39 0 0 0 0 .35a.432.432 0 0 0 .103.285c.03.032.062.056.096.072a.234.234 0 0 0 .098.024c.021 0 .04 0 .057-.003a.543.543 0 0 0 .08-.014.076.076 0 0 1 .025 0c.01.001.017.005.024.01a.132.132 0 0 0 .028.017L.58.557.557.545a.362.362 0 0 1-.084.093.329.329 0 0 1-.07.046.175.175 0 0 1-.08.02A.178.178 0 0 1 .211.67a.248.248 0 0 1-.07-.083A.381.381 0 0 1 .105.48.555.555 0 0 1 .1.316a.43.43 0 0 1 .046-.14.218.218 0 0 1 .201-.12.19.19 0 0 1 .088.02.265.265 0 0 1 .115.102.88.88 0 0 1 .031.05L.606.209z"/></symbol><use xlink:href="#t" transform="matrix(11.04 0 0 -11.04 188.87 21.059)"/><use xlink:href="#j" transform="matrix(10.944 0 0 -11.52 196.906 21.02)"/><use xlink:href="#k" transform="matrix(10.56 0 3.67632 -11.04 199.878 22.73)"/><use xlink:href="#l" transform="matrix(10.944 0 0 -11.52 207.225 21.009)"/><use xlink:href="#o" transform="matrix(10.944 0 0 -11.52 210.485 21.504)"/><symbol id="u"><path transform="matrix(.001 0 0 .001 -.071 .117)" d="M357 578c2-2-20-71-114-183-73-87-146-141-157-145-15-6-6-23 18-9 11 6 64 33 130 88 74 62 114 116 115 115 1 1 27-28 66-95 30-51 30-50 49-74 16-20 44-4 41 24-5 45-20 78-58 99-26 15-82 64-81 65-2 2 21 31 37 55 21 31 35 57 34 59 9 16 18 33-19 47-29 11-92 33-114 33s-35-13-18-20c18-7 79-46 71-59zm403-169V284c0-20 3-96 18-96 37-1 48 140 49 245l3 292c0 34 27 47-33 67-42 14-90 29-111 30-16 1-39-12-8-26 24-11 82-47 82-65V443l-112-6 4 230c1 33 26 44-39 64-22 7-72 23-96 23-15 0-35-13-10-25 16-8 79-39 79-61V346c0-49 3-92 17-93 33-3 42 77 44 129l1 22zM630 240c-18 4-28-7-13-16 13-8 18-14 20-20 4-11-11-26-12-27 0-1-169-17-162-153 4-75 85-141 182-141 93 0 178 48 178 149 0 117-157 145-157 145s39 28 15 41c-11 6-36 19-51 22zm12-101c52 0 112-36 112-105 0-71-54-100-113-97-69 3-107 43-109 95-2 59 42 107 110 107z"/></symbol><symbol id="v"><path transform="matrix(.001 0 0 .001 -.026 .107)" d="M353 645c2-2-50-116-153-226-69-74-142-137-155-144s-19-27 16-12c17 7 93 61 159 117 76 64 114 118 115 117 1 1 32-41 74-104 31-46 46-72 64-90 14-14 36-1 35 29-2 49-18 76-59 103-49 32-96 80-95 81-2 2 21 36 38 60 24 34 37 58 36 60 11 18 26 40-24 56-34 11-87 31-106 32-25 1-38-13-17-22 19-8 81-43 72-57zm248-371c-23 5-28-6-11-19 7-5 13-23 8-32-6-11-16-19-17-20S416 191 419 50c2-84 86-146 180-151 104-6 190 64 189 152-1 133-159 154-159 154s50 28 18 47c-13 8-30 19-46 22zm5-111c73-3 123-44 122-108-1-71-70-106-129-104-64 2-107 43-111 100-4 56 31 116 118 112zm124 155c0-35 3-97 20-97 39 0 43 115 44 196l4 298c0 30 24 63-33 79-46 13-89 28-108 28-18 0-53-12-11-30 24-10 84-44 84-65V542c0-1-160-17-200-9-46 9-63-3-22-25 78-42 74-13 101-10l121 12z"/></symbol><symbol id="w"><path transform="matrix(.001 0 0 .001 -.038 .115)" d="M362 296c0-35 1-90 1-90s-111-13-154-15c-48-2-107 1-127 6-32 8-44-8-13-25 17-10 56-29 98-46 40-16 35 5 76 13 1 0 91 15 204 39 183 39 283 74 283 73V-11c0-59 5-104 23-104 31 0 39 129 40 214l8 628c1 43 22 51-45 72-28 9-83 23-99 23-22 0-52-15-14-27 11-3 87-40 87-61V268s-116-23-187-36c-88-16-127-20-127-20s9 50 11 94c1 30 2 78 2 78l45 4c47 4 109 2 121 8 35 18 21 47-8 51-13 2-51 3-67-1-12-3-40-24-72-27-2-1-38-5-82-8-40-3-71-4-71-4-9-1-25-2-34 5-4 3-7 14-7 26l2 166s50 2 93 4c38 2 60 5 98 7 32 2 126 1 139 8 39 20 17 47-15 50-21 2-51 1-66-2s-42-24-77-27c-1 0-20-5-81-7-29-1-77-3-77-3-17-1-30 3-58 8-24 4-70 7-83 5-22-3-49-16-12-27 11-3 71-22 71-41l3-126c1-24 7-52 33-66 18-10 45-9 79-8l58 2s1-52 1-85z"/></symbol><symbol id="x"><path transform="matrix(.001 0 0 .001 -.025 .035)" d="M331 681c0 45 14 60-48 62-33 1-68 4-81 3-24-2-58-18-11-30 13-3 68-21 68-41l2-105c1-29-1-61 29-76 21-11 56-11 94-10l235 4c62 1 149 3 160 7 40 13 35 51-7 58-13 2-67 6-79 2s-49-32-83-34c-1 0-56-4-113-6-40-1-126-2-126-2-15 0-32 3-36 6s-5 13-5 24zm386-348s-141-7-373-14c-150-5-261 8-280 14-32 10-39-7-13-24 15-10 55-30 98-44 35-12 48 10 77 12 0 0 98 15 245 18 106 2 189 5 257 3 68 1 194-8 207-7 38 2 48 39 10 55-16 7-90 15-104 12-16-3-40-22-124-25zM285 153V57c0-35 0-61 27-75 26-13 51-15 85-15h203c71 0 173-2 183 1 46 12 37 51 4 55-16 2-73 6-92 2-16-3-55-25-90-26-1 0-43-1-118-3-40-1-102 0-102 0-13 0-21 4-28 9-2 1-3 12-3 20l4 123c1 42 18 59-31 64-28 3-85 9-101 7-28-4-49-22-8-29 10-2 67-19 67-37z"/></symbol><use xlink:href="#u" transform="matrix(10.944 0 0 -11.52 226.032 21.435)"/><use xlink:href="#v" transform="matrix(10.944 0 0 -11.52 235.86 21.32)"/><use xlink:href="#w" transform="matrix(10.944 0 0 -11.52 246.311 21.412)"/><use xlink:href="#x" transform="matrix(10.944 0 0 -11.52 256.49 20.49)"/><symbol id="y"><path transform="matrix(.001 0 0 .001 -.031 .125)" d="M494 524c4-67-49-114-123-113-70 1-133 43-132 113 1 80 82 108 133 107 37-1 117-21 122-107zM337 675c-1-1-161-12-166-148-4-113 116-168 202-166 101 2 194 58 185 172-10 126-157 143-157 143 1 1 2 4 8 10 9 9 10 24-25 42-15 8-39 14-47 9-10-6 17-19 19-34 2-20-12-22-19-28zm393-373s-178-42-367-63c-133-15-232-20-290-6-34 8-42-10-13-28 9-6 76-37 100-46 49-19 63 9 89 14 0 0 125 21 212 40 146 32 269 71 269 71V5c0-61 1-130 22-128 37 3 41 137 42 267l5 584c0 44 21 51-47 72-30 9-77 22-93 22-21 0-55-16-17-28 11-3 88-40 88-63z"/></symbol><use xlink:href="#p" transform="matrix(10.944 0 0 -11.52 271.521 20.767)"/><use xlink:href="#q" transform="matrix(10.944 0 0 -11.52 281.787 21.181)"/><use xlink:href="#y" transform="matrix(10.944 0 0 -11.52 292.195 21.527)"/><symbol id="z"><path transform="matrix(.001 0 0 .001 -.01 .123)" d="M197 386c3-104 137-123 137-125 0 0-1-32 2-53 1-10 5-25 5-25 0-1-179-32-268-9-35 9-63-10 40-58 82-38 75-14 113-5 1 0 82 18 204 46 188 43 263 75 263 74V-19c0-77 6-103 18-103 27-1 45 58 47 200l3 226s150 8 160 9c41 4 50 50 13 56s-67 13-98-16c-18-17-75-15-75-14l1 384c0 44 12 58-19 67-20 6-107 34-124 32-44-4-39-22-12-32 19-7 86-44 86-60V250s-81-21-155-34c-35-6-140-26-140-25 0 0 2 18 3 30 2 19 3 44 3 44 0 2 128 14 126 124-2 116-147 120-147 120 2 1 15 14 9 29-2 5-28 16-27 16-1 1 39 5 83 6 39 1 118 5 145 5 40 0 38 38 7 48-11 4-69 10-95-6-25-16-47-16-187-27-96-8-168-3-201 6-48 13-37-16 12-35 78-30 47-13 94-8 0 0 41 5 67 7 14 1 36 2 36 2 2 0 13-8 16-18 5-15-3-18-10-24 0-1-138-9-135-124zm52 339c-41 13-35-1-25-12 9-10 60-53 71-57 21-7 148 0 167 2 32 4 44 45-17 50-11 1-119 5-137 7-25 3-47 6-59 10zm220-338c0-38-33-76-98-80-45-3-106 35-108 81-3 63 49 86 101 85 56-1 105-25 105-86z"/></symbol><symbol id="A"><path transform="matrix(.001 0 0 .001 -.039 .123)" d="M693 731V303c0-27 4-67 16-67 23 0 45 40 47 119l2 70s162 8 172 8c42-1 39 54 4 58-37 4-72 6-92-13s-84-20-84-19l2 260c0 44 14 54-17 70-13 7-104 33-120 33-43 0-45-19-12-30 19-6 82-44 82-61zM304 199c-42 10-53-3 5-34 90-48 73-15 108-12 1 0 100 9 146 12 69 5 130 14 130 14V-57c0-38 4-63 15-64 21-2 46 65 47 122l3 156c1 37 21 50-5 58-8 2-63 2-68-1-13-9-83-15-167-19-124-6-182-4-214 4zm-73 543c-41 16-29-6-19-18s39-45 63-55c17-7 139-5 158-3 39 4 53 56-1 56-11 0-114 5-132 7-19 2-62 10-69 13zm204-360c-2-29-30-78-101-77-67 1-104 45-105 82-3 76 59 95 107 94 69-2 103-55 99-99zM300 567c2 0 15-14 19-21 6-11-3-20-13-29 0-1-148-5-145-131 1-56 62-133 177-131 109 2 161 65 163 127 3 118-137 135-137 135 1 2 9 15 5 28-4 11-36 25-35 25-1 1 76 2 120 5 47 3 93 1 120 2 39 2 37 43 12 50-14 4-77 12-95-3-15-13-65-25-180-29-121-4-189 0-223 8-49 11-20-19 18-36 77-34 56-14 103-9 0 0 24 3 39 4 20 2 52 5 52 5z"/></symbol><use xlink:href="#z" transform="matrix(10.944 0 0 -11.52 306.964 21.504)"/><use xlink:href="#A" transform="matrix(10.944 0 0 -11.52 317.602 21.504)"/><symbol id="B"><path transform="matrix(.001 0 0 .001 -.021 .132)" d="M362 632c1-1-36-81-135-188-66-71-175-146-188-153-18-9-2-24 23-9 14 8 108 59 183 120 85 69 111 111 112 110 1 1 36-35 82-90 39-47 65-83 79-93 16-11 31 0 33 24 4 43-36 97-68 109-44 17-105 69-104 70-2 1 19 27 36 51 24 34 33 45 32 47 15 22 18 39-22 52-33 11-88 34-112 35-17 1-38-16-14-27 16-8 71-47 63-58zm368-424V-42c0-29 3-86 16-87 34-3 48 84 49 147l2 168c0 26 33 60-12 63-16 1-51 3-55-2-14-16-390-25-420-15-46 16-40-8-19-19 13-7 54-28 80-37 28-10 37 10 58 12 0 0 66 10 143 15 46 3 157 5 158 5zm65 251 5 255c1 40 26 66-32 81-34 9-95 28-120 27-20-1-42-21-18-28 20-6 100-46 100-72V387c0-29 1-103 15-104 31-2 48 78 50 176z"/></symbol><symbol id="C"><path transform="matrix(.001 0 0 .001 -.079 .124)" d="M427 397c0-76-52-120-136-121-52-1-140 43-138 130 2 70 65 118 134 120 75 2 140-50 140-129zM270 572S92 564 84 411c-5-95 82-182 211-184 105-2 201 73 200 170-1 150-169 174-171 174 0 0 3 12 10 17 19 13 19 27-12 43-15 8-52 17-57 7-6-12 10-14 18-29 10-20-8-33-13-37zm460 151V19c0-82 5-143 22-142 31 2 40 95 42 276l7 565c1 46 21 62-37 78-29 8-101 28-119 26-30-3-52-18-14-30 17-5 99-43 99-69z"/></symbol><use xlink:href="#p" transform="matrix(10.944 0 0 -11.52 22.161 40.207)"/><use xlink:href="#q" transform="matrix(10.944 0 0 -11.52 32.427 40.621)"/><use xlink:href="#B" transform="matrix(10.944 0 0 -11.52 42.725 41.048)"/><use xlink:href="#C" transform="matrix(10.944 0 0 -11.52 53.68 40.955)"/><use xlink:href="#f" transform="matrix(10.944 0 0 -11.52 63.398 40.967)"/><symbol id="D"><path transform="matrix(.001 0 0 .001 -.069 .021)" d="M121 87c35 0 52-27 52-54s-17-54-52-54S69 6 69 33s17 54 52 54z"/></symbol><use xlink:href="#D" transform="matrix(10.944 0 0 -11.52 74.21 39.769)"/><use xlink:href="#i" transform="matrix(11.04 0 0 -11.04 85.778 67.87)"/><use xlink:href="#j" transform="matrix(10.944 0 0 -11.52 95.386 69.02)"/><use xlink:href="#k" transform="matrix(10.56 0 3.67632 -11.04 98.358 69.65)"/><use xlink:href="#l" transform="matrix(10.944 0 0 -11.52 105.705 69.009)"/><symbol id="E"><path d="M.665.333c0 .01-.004.015-.012.018a.09.09 0 0 1-.022.002H.35v.28c0 .01 0 .018-.002.022C.346.662.34.665.332.665.322.665.317.661.313.655.312.65.311.642.312.63V.353H.034L.011.35C.004.348 0 .342 0 .333 0 .323.003.318.01.315A.066.066 0 0 1 .033.312h.28V.031c0-.01 0-.017.002-.021C.318.003.325 0 .334 0c.007 0 .012.004.015.012a.103.103 0 0 1 .003.022v.278h.28c.01 0 .018.001.022.003.007.004.011.01.011.018z"/></symbol><use xlink:href="#E" transform="matrix(11.04 0 0 -11.04 114.27 68.112)"/><symbol id="F"><path d="M.4.175H.373L.371.158a.837.837 0 0 0-.008-.04.07.07 0 0 0-.016-.033C.342.082.329.079.309.078a.83.83 0 0 0-.046 0H.078L.185.18.24.234a2.117 2.117 0 0 1 .11.107C.368.36.38.38.388.4a.2.2 0 0 1 .011.07.188.188 0 0 1-.131.182.255.255 0 0 1-.081.013A.17.17 0 0 1 .05.608.176.176 0 0 1 0 .485C-.001.47.004.455.013.445A.05.05 0 0 1 .054.43.05.05 0 0 1 .09.444c.01.01.014.023.014.037C.105.498.1.511.09.521a.054.054 0 0 1-.038.013H.039a.137.137 0 0 0 .136.102C.195.634.214.63.23.622A.138.138 0 0 0 .3.531.216.216 0 0 0 .3.412.33.33 0 0 0 .242.301 1.25 1.25 0 0 0 .203.25L0 .023V0h.371L.4.175z"/></symbol><use xlink:href="#F" transform="matrix(11.04 0 0 -11.04 126.685 67.825)"/><use xlink:href="#n" transform="matrix(11.04 0 0 -11.04 133.058 67.87)"/><use xlink:href="#j" transform="matrix(10.944 0 0 -11.52 141.826 69.02)"/><use xlink:href="#k" transform="matrix(10.56 0 3.67632 -11.04 144.798 69.65)"/><use xlink:href="#l" transform="matrix(10.944 0 0 -11.52 152.265 69.009)"/><symbol id="G"><path d="M.995.186.71.363.704.352.844.2H0V.17h.84L.706.01.714 0l.281.186z"/></symbol><use xlink:href="#G" transform="matrix(11.04 0 0 -11.04 159.975 66.65)"/><use xlink:href="#t" transform="matrix(11.04 0 0 -11.04 174.95 67.979)"/><use xlink:href="#j" transform="matrix(10.944 0 0 -11.52 182.986 69.02)"/><use xlink:href="#k" transform="matrix(10.56 0 3.67632 -11.04 185.958 69.65)"/><use xlink:href="#l" transform="matrix(10.944 0 0 -11.52 193.305 69.009)"/><symbol id="H"><path d="M.44.383a.1.1 0 0 1-.01.045C.423.444.41.452.393.452A.047.047 0 0 1 .36.438.047.047 0 0 1 .346.405.03.03 0 0 1 .351.39.156.156 0 0 1 .363.373.129.129 0 0 0 .384.345.107.107 0 0 0 .396.293a.32.32 0 0 0-.028-.11.426.426 0 0 0-.052-.1A.264.264 0 0 0 .271.04.088.088 0 0 0 .218.021a.08.08 0 0 0-.034.007.054.054 0 0 0-.022.018.088.088 0 0 0-.014.028.145.145 0 0 0-.004.035c0 .024.005.052.014.084.005.02.015.048.03.086l.024.067a.105.105 0 0 1 0 .045.08.08 0 0 1-.02.039.078.078 0 0 1-.026.017A.105.105 0 0 1 .09.442.122.122 0 0 1 .056.415.242.242 0 0 1 .002.312V.31A.036.036 0 0 1 0 .296C0 .29.005.289.012.289c.005 0 .008.002.01.005.002.001.004.005.005.01l.001.003c.005.02.012.038.02.053a.155.155 0 0 0 .03.047.078.078 0 0 0 .023.018C.111.429.12.43.13.43c.01 0 .016-.003.02-.008A.045.045 0 0 0 .154.399.106.106 0 0 0 .149.37.189.189 0 0 0 .14.34L.137.33A1.29 1.29 0 0 1 .1.226.376.376 0 0 1 .08.124.15.15 0 0 1 .09.065a.108.108 0 0 1 .08-.06A.182.182 0 0 1 .214 0C.24 0 .266.009.29.026c.02.015.038.036.056.062.016.025.03.053.042.084a.796.796 0 0 1 .05.21z"/></symbol><use xlink:href="#H" transform="matrix(11.04 0 0 -11.04 207.571 68.064)"/><symbol id="I"><path d="M.665.214C.665.223.661.229.653.23a.09.09 0 0 1-.022.002H.034c-.01 0-.019 0-.023-.002C.004.23 0 .223 0 .214 0 .204.003.199.01.196A.066.066 0 0 1 .033.193h.599c.01 0 .018.001.022.003.007.004.011.01.011.018m0-.193C.665.03.661.035.653.038A.09.09 0 0 1 .631.04H.034C.024.04.015.04.011.038.004.035 0 .03 0 .021 0 .01.003.006.01.003A.066.066 0 0 1 .033 0h.599c.01 0 .018.001.022.003.007.003.011.009.011.018z"/></symbol><use xlink:href="#I" transform="matrix(11.04 0 0 -11.04 215.43 65.719)"/><symbol id="J"><path d="M.454.39c0 .02-.007.036-.021.047a.07.07 0 0 1-.047.015.138.138 0 0 1-.069-.018.296.296 0 0 1-.06-.05L.229.354A.678.678 0 0 0 .182.308.195.195 0 0 0 .129.272l.103.423C.232.699.232.7.23.703A.727.727 0 0 1 .083.69C.08.689.079.684.079.676.08.67.081.666.086.665A.034.034 0 0 1 .1.661H.13A.03.03 0 0 0 .146.657C.15.656.152.65.152.645A.08.08 0 0 0 .15.628V.626L.005.05A.062.062 0 0 1 .002.02C.004.009.012.003.025 0a.033.033 0 0 1 .03.011c.006.006.01.015.014.027a2.131 2.131 0 0 1 .035.143L.12.241A.227.227 0 0 0 .175.229.118.118 0 0 0 .222.197.066.066 0 0 0 .234.146L.231.126A.286.286 0 0 1 .23.114V.1C.229.085.23.07.234.059A.089.089 0 0 1 .32 0c.03 0 .056.017.076.05a.319.319 0 0 1 .038.095v.014c0 .003-.004.005-.01.005-.004 0-.008 0-.01-.002L.411.154.408.143.405.135A.326.326 0 0 0 .378.063C.363.035.344.022.322.022c-.017 0-.027.01-.03.028a.123.123 0 0 0 .002.048l.003.02.005.025A.089.089 0 0 1 .26.23.196.196 0 0 1 .209.25a.34.34 0 0 1-.055.01C.167.27.183.281.2.297l.047.047.038.036a.29.29 0 0 0 .048.038.101.101 0 0 0 .07.011.03.03 0 0 0 .014-.01.059.059 0 0 1-.04-.016A.05.05 0 0 1 .36.365c0-.011.004-.02.011-.027A.04.04 0 0 1 .398.33c.016 0 .03.007.04.019.01.012.016.026.016.042z"/></symbol><use xlink:href="#J" transform="matrix(11.04 0 0 -11.04 225.979 68.068)"/><symbol id="K"><path d="M.137 0v.04H.04v.92h.097v.041H0V0h.137z"/></symbol><use xlink:href="#K" transform="matrix(11.04 0 0 -11.04 232.68 69.686)"/><use xlink:href="#i" transform="matrix(11.04 0 0 -11.04 234.698 67.99)"/><symbol id="L"><path d="M.137 0v1.001H0v-.04h.097V.04H0V0h.137z"/></symbol><use xlink:href="#L" transform="matrix(11.04 0 0 -11.04 243.612 69.686)"/><use xlink:href="#K" transform="matrix(11.04 0 0 -11.04 247.68 69.686)"/><use xlink:href="#n" transform="matrix(11.04 0 0 -11.04 249.698 67.99)"/><use xlink:href="#L" transform="matrix(11.04 0 0 -11.04 257.892 69.686)"/><use xlink:href="#F" transform="matrix(7.44 0 0 -7.44 261.026 63.032)"/><use xlink:href="#p" transform="matrix(10.944 0 0 -11.52 32.481 91.087)"/><use xlink:href="#q" transform="matrix(10.944 0 0 -11.52 42.627 91.501)"/><symbol id="M"><path transform="matrix(.001 0 0 .001 -.039 .067)" d="M388 456c-1 1 51 54 78 88 22 28 45 63 45 67 16 24 46 43 6 52-19 4-71 4-76-3-5-8-53-8-99-10-115-5-186-5-215 2-44 10-18-18 9-31 86-40 92-13 107-11 6-1 50 7 104 11 64 5 90 6 89 5 2 0-32-83-144-192C164 309 65 248 53 243c-14-6-4-20 16-11 15 6 96 54 175 108 82 56 120 100 121 99 1 1 36-45 64-88 28-42 37-58 56-82 26-33 60-12 42 39-8 23-24 65-61 82-39 18-80 64-78 66zm19-337 2-106c0-24 4-51 27-63 21-11 44-15 73-15 12-2 232 9 336 2 46-3 53 50 7 57-33 5-78 10-88 0-39-38-241-30-249-29-7-1-28-1-34 5-5 5-5 23-5 37v118c0 31 15 54-35 57-27 2-101 6-123 0-18-5-31-18-7-24 21-5 96-22 96-39zm323 79c0-41 0-98 17-98 28 0 44 89 46 207l6 413c1 39 26 58-38 75-42 11-91 28-114 27s-40-15-15-24c20-7 98-51 98-70V483c0-1-199-10-223-5-16 3-43-1 0-24 75-39 72-15 102-12l121 12z"/></symbol><use xlink:href="#M" transform="matrix(10.944 0 0 -11.52 57.082 91.179)"/><use xlink:href="#K" transform="matrix(11.04 0 0 -11.04 72.72 92.006)"/><use xlink:href="#i" transform="matrix(11.04 0 0 -11.04 74.738 90.31)"/><use xlink:href="#L" transform="matrix(11.04 0 0 -11.04 83.652 92.006)"/><use xlink:href="#m" transform="matrix(10.944 0 0 -11.52 87.42 91.882)"/><use xlink:href="#K" transform="matrix(11.04 0 0 -11.04 103.2 92.006)"/><use xlink:href="#n" transform="matrix(11.04 0 0 -11.04 105.218 90.31)"/><use xlink:href="#L" transform="matrix(11.04 0 0 -11.04 113.412 92.006)"/><symbol id="N"><path transform="matrix(.001 0 0 .001 -.025 .07)" d="M413 459c4 0 90 2 148 3 97 2 157 4 168 8 39 14 23 50-15 50-27 0-47 4-65-7-35-21-56-18-133-23-51-3-124-2-125-2-15 0-21-3-27 3-2 2-2 6-2 20l2 78c1 0 39 3 128 7 208 9 222-2 227 21 4 19-33 20-32 22-1 1-2 4 10 37 7 19 19 51 19 53 6 17 42 41-9 44-10 1-56 7-61-1-3-5-117-9-175-11-118-5-201-4-224 3-29 9-37-4-16-19 12-8 50-25 72-32 19-6 39 10 71 12 0 0 29 4 130 9 88 4 142 4 143 4 0-1 2-20 0-53-3-52-4-48-4-50-3 0-64-7-152-11-66-3-131-5-133-3-9 9-98 11-106 11-23-1-52-14-15-26 13-4 56-16 56-31l1-46c1-29 6-49 33-62 23-11 52-9 86-8zm399-70c-28-18-231-21-344-26-165-7-334-7-405 10-28 7-38-7-10-23 11-6 59-28 99-43 29-11 52 13 89 15 2 0 94 10 251 16 107 4 179 3 297 2 55-1 122-6 141-6 38-1 49 41 5 56-9 3-101 13-123-1zM252 229c15-11 50-25 70-34 17-8 35 9 65 11 0 0 49 4 108 8 63 4 145 8 146 8 0-1 3-24 2-53-1-37-3-54-3-56-3 0-63-4-109-6-85-4-146-6-149-2-10 13-108 17-123 15-20-3-47-19-7-27 14-3 55-15 55-28l2-62c1-24 2-47 26-61 21-12 54-12 85-11 0 0 95 3 147 4 76 1 186-1 196 3 41 17 12 50-22 52-21 1-78 6-97-11-23-21-230-17-232-17-13-1-26-2-31 4-4 5-4 14-4 27l1 81c3 0 55 0 166 6 134 7 174-10 179 19 3 16-37 19-36 21-1 1 3 13 10 40 6 25 13 43 13 45 5 17 38 47-8 48-9 0-66 3-73-2-4-3-68-8-153-10-105-3-187-2-203 3-25 8-41-1-21-15z"/></symbol><use xlink:href="#N" transform="matrix(10.944 0 0 -11.52 116.929 91.213)"/><symbol id="O"><path transform="matrix(.001 0 0 .001 -.025 .123)" d="M426 634c-1-3-48-124-173-246C150 287 55 236 38 224c-13-9 6-15 13-12 6 3 135 58 288 200 105 97 158 207 158 207 13 17 39 45 9 54-9 3-64 4-79-5-6-4-60-8-142-10-35-1-116-3-150 3s-40-6-16-18c22-11 38-22 70-33 30-10 43 9 67 11 0 0 23 2 75 7 48 5 94 6 95 6zm267-412V-12c0-77 5-111 22-109 24 3 35 69 39 155l7 165c1 29 21 37 3 54-8 8-75 11-87 2-7-5-68-10-161-12-80-2-178-5-227 6-29 6-43-2-22-18 16-12 55-28 90-42 29-12 49 12 73 14 0 0 68 6 124 11 105 9 138 8 139 8zm0 507V368c0-56 7-81 21-80 29 2 40 68 44 131l1 18s177 1 186 5c45 21 24 54-9 56-18 1-67 7-85-9-25-22-92-22-92-21l6 250c1 47 22 63-38 79-28 8-95 26-116 25-25-1-47-14-14-25 12-4 96-49 96-68z"/></symbol><use xlink:href="#O" transform="matrix(10.944 0 0 -11.52 131.209 91.824)"/><use xlink:href="#O" transform="matrix(10.944 0 0 -11.52 141.408 91.824)"/><use xlink:href="#K" transform="matrix(11.04 0 0 -11.04 157.2 92.006)"/><use xlink:href="#i" transform="matrix(11.04 0 0 -11.04 159.218 90.19)"/><use xlink:href="#L" transform="matrix(11.04 0 0 -11.04 168.252 92.006)"/><symbol id="P"><path d="M.42.342a.765.765 0 0 1-.013.156.259.259 0 0 1-.066.136.183.183 0 0 1-.13.054.171.171 0 0 1-.138-.06A.277.277 0 0 1 .012.49.823.823 0 0 1 0 .341.75.75 0 0 1 .014.188.255.255 0 0 1 .082.05.173.173 0 0 1 .141.014.18.18 0 0 1 .21 0c.039 0 .074.01.103.031.03.02.054.049.07.085a.365.365 0 0 1 .031.11c.005.031.007.07.007.116M.337.455A5.751 5.751 0 0 0 .336.246 1.29 1.29 0 0 0 .329.165.257.257 0 0 0 .31.087.132.132 0 0 0 .268.04.1.1 0 0 0 .154.039a.135.135 0 0 0-.04.044.238.238 0 0 0-.024.08.573.573 0 0 0-.006.083 5.282 5.282 0 0 0 0 .204c0 .032.003.06.006.081.004.034.013.06.024.077a.106.106 0 0 0 .15.042.133.133 0 0 0 .042-.042A.186.186 0 0 0 .33.534a.76.76 0 0 0 .007-.08v.001z"/></symbol><use xlink:href="#P" transform="matrix(7.44 0 0 -7.44 171.306 93.432)"/><symbol id="Q"><path transform="matrix(.001 0 0 .001 -.055 .177)" d="M55-162c32 26 59 63 68 98 6 25-4 46-26 46-15 0-37 19-37 53 0 28 25 50 51 50 31 0 66-18 66-65 0-85-52-154-111-197z"/></symbol><use xlink:href="#Q" transform="matrix(10.944 0 0 -11.52 175.937 92.446)"/><use xlink:href="#K" transform="matrix(11.04 0 0 -11.04 183.48 92.006)"/><use xlink:href="#n" transform="matrix(11.04 0 0 -11.04 185.498 90.19)"/><use xlink:href="#L" transform="matrix(11.04 0 0 -11.04 193.692 92.006)"/><use xlink:href="#P" transform="matrix(7.44 0 0 -7.44 196.746 93.432)"/><symbol id="R"><path transform="matrix(.001 0 0 .001 -.039 .126)" d="M84 435c-20-3-45-16-8-25 12-3 62-18 63-37l5-171c1-26 7-51 25-63 15-10 185 30 285 60 153 46 239 85 239 84V3c0-49 2-129 20-125 33 7 38 119 40 239l3 193c0 1 171 2 183 7 38 14 26 49-2 54-17 3-76 8-93-10-21-22-88-19-88-18l4 383c0 46 15 56-37 73-28 9-90 24-105 23-21-1-50-11-16-25 12-5 91-40 91-67V304c0-1-109-42-267-72-83-16-208-31-215-25-5 4-3 23-3 36l1 144c1 0 72 7 141 12 106 7 126-5 132 26 3 14-37 15-36 17-1 0 9 33 18 69 5 19 23 80 23 82 5 17 38 54-12 55-9 0-61 2-64-3s-39-9-126-13c-96-4-169-3-185 1-31 8-43-3-21-17 15-9 55-29 77-35 25-7 37 10 67 13 0 0 51 6 93 10 63 6 102 7 103 7 0-1 0-59-3-92-4-52-11-81-11-83-3 0-53-8-99-10-66-3-103-7-105-3s-99 15-117 12z"/></symbol><use xlink:href="#C" transform="matrix(10.944 0 0 -11.52 201.64 91.835)"/><use xlink:href="#R" transform="matrix(10.944 0 0 -11.52 211.402 91.859)"/><symbol id="S"><path transform="matrix(.001 0 0 .001 -.016 .007)" d="M744 83c-1 0-47-3-88-6-55-4-144-7-144-6l11 230c2 49 19 67-29 73-28 4-80 8-95 8-16 0-53-14-14-28 10-4 69-19 69-45l2-240c0-1-96-4-152-5C142 61 78 75 63 79c-40 11-47-5-20-22 12-8 67-37 109-53 29-11 62 18 91 20 3 1 81 12 244 17 91 3 196 7 257 3 76 1 174-16 194-13 47 7 42 53 6 62-40 10-99 16-114 12s-41-19-86-22zm0 512c0-1-11-99-33-205-24-119-41-166-46-179-10-26 10-22 26-5 9 10 29 41 61 140 42 131 69 227 69 227 8 25 36 58-6 62-14 1-52 4-64 1-18-5-45-12-72-14 0 0-95-8-207-13-117-5-244 2-275 11-32 9-36-5-9-22 12-8 56-32 92-43 35-11 56 15 86 17 0 0 100 5 189 11 107 7 188 12 189 12z"/></symbol><use xlink:href="#r" transform="matrix(10.944 0 0 -11.52 225.561 91.835)"/><use xlink:href="#S" transform="matrix(10.944 0 0 -11.52 235.63 90.488)"/><use xlink:href="#Q" transform="matrix(10.944 0 0 -11.52 246.257 92.446)"/><use xlink:href="#p" transform="matrix(10.944 0 0 -11.52 252.321 91.087)"/><use xlink:href="#q" transform="matrix(10.944 0 0 -11.52 262.466 91.501)"/><use xlink:href="#C" transform="matrix(10.944 0 0 -11.52 273.28 91.835)"/><symbol id="T"><path transform="matrix(.001 0 0 .001 -.03 .072)" d="M460 528c-1-54-47-90-114-93-54-2-117 33-119 95-2 78 56 107 116 105 78-3 118-56 117-107zM321 295s-84-10-127-13c-38-2-101-1-120 3-29 6-44-3-13-24 15-10 59-23 100-39 39-15 44 5 67 10 1 0 99 19 211 42 155 32 254 67 254 66V166c0-50 2-84 20-83 27 2 41 86 42 157l2 121s168 3 181 6c41 10 14 50-11 51-12 0-55 2-67-2s-38-22-72-24l-31-2 5 343c1 43 20 48-52 68-29 8-75 22-91 21-23-1-55-14-15-27 11-4 89-44 89-62V355s-82-22-178-37c-94-15-138-17-138-17-1 0 2 18 3 42 1 20 1 50 1 50s136 23 138 130c3 136-142 157-143 157 0 1-2 10 4 14 11 8 15 14-10 30-11 7-40 17-47 9-10-12 10-16 12-27 3-15-8-17-14-23-1-1-160-11-157-152 3-121 152-142 152-142s2-30 3-49c1-20 2-45 2-45zm80-205 3-85c1-31 3-49 27-63 22-13 62-11 88-11 0 0 297-3 306 0 37 14 23 44-9 49-17 3-63 6-76 3-15-3-46-23-84-23l-153-1c-10 0-24 0-31 5-2 1-3 15-3 23l1 102c0 40 13 68-43 68-26 0-75 5-95 2-24-4-50-24-14-28 15-2 82-18 83-41z"/></symbol><symbol id="U"><path transform="matrix(.001 0 0 .001 -.056 .066)" d="M337 251c15-10 44-23 64-31 32-13 40 1 70 4 0 0 45 5 96 8 66 4 156 9 157 9 0-1-1-26-2-56-1-39-6-65-6-67-3 0-74-4-122-6-88-4-104-4-106-4-14-1-31 10-52 11-28 1-58 6-78 5-24-1-45-15-15-23 15-4 58-15 58-33V1c0-19 6-43 26-55 16-9 39-11 70-11l194 2c83 1 140-3 151-1 46 8 37 49 4 55-10 2-56 9-73 3-12-5-39-25-72-25l-204-2c-6 0-10-2-19 3-7 4-9 17-9 21v88l279 7c41 1 64 12 45 30-10 9-35 9-35 10 0 0 8 21 16 50 7 25 12 46 12 47 6 24 30 46-5 52-9 2-51 4-60 1-12-4-24-7-45-8-3-1-30-2-120-6-100-4-180 0-198 5-31 9-47 1-21-16zm107 391c-2-4-60-137-166-243C161 282 84 238 71 227c-15-13 4-18 17-9 7 5 120 61 232 158 127 109 189 239 189 239 13 17 50 66 7 65-10 0-49 5-58 2-11-4-34-11-68-12 0 0-53-5-123-5-60 0-91 1-121 7-31 6-43-2-18-18 12-8 48-28 68-35 29-11 45 6 69 8 0 0 26 3 75 7s103 8 104 8zm286 89V593s-36-1-80-4c-40-3-95-1-110 3-34 8-38-4-15-19 11-7 36-21 49-26 26-10 40 5 65 8 0 0 23 4 37 5 21 2 54 3 54 2V432s-29-3-88-7c-43-3-106-5-128 0-28 7-38-1-16-18 12-9 38-21 55-28 20-8 39 9 70 12l107 9 1-21c2-43 2-83 21-81 22 2 40 45 43 154l7 272c1 44 17 58-49 75-24 6-85 24-98 23-29-2-45-15-10-28 17-6 85-40 85-63z"/></symbol><symbol id="V"><path transform="matrix(.001 0 0 .001 -.034 .123)" d="M442 571c0-1-46-148-190-304C144 150 57 83 44 71c-10-9 9-11 15-8s99 63 212 166c179 163 246 328 246 328 13 17 35 47 3 53-13 2-58 4-74-6-9-6-117-10-167-11-85-1-131 0-161 6-37 7-39-8-18-21 11-7 46-25 86-38 19-6 48 14 68 16 0 0 51 5 105 8 49 3 82 7 83 7zm288 157V-7c0-94 9-116 24-115 37 2 44 136 44 225l2 618c0 46 22 59-39 76-29 8-92 25-114 25-25 0-46-12-14-24 12-5 97-44 97-70z"/></symbol><use xlink:href="#T" transform="matrix(10.944 0 0 -11.52 287.023 91.236)"/><use xlink:href="#U" transform="matrix(10.944 0 0 -11.52 297.508 91.167)"/><use xlink:href="#w" transform="matrix(10.944 0 0 -11.52 307.391 91.732)"/><use xlink:href="#V" transform="matrix(10.944 0 0 -11.52 317.547 91.824)"/><use xlink:href="#M" transform="matrix(10.944 0 0 -11.52 22.282 109.899)"/><use xlink:href="#p" transform="matrix(10.944 0 0 -11.52 36.921 109.807)"/><use xlink:href="#q" transform="matrix(10.944 0 0 -11.52 47.187 110.221)"/><symbol id="W"><path transform="matrix(.001 0 0 .001 -.061 .123)" d="M419 591c1-1-32-89-145-208C169 272 86 214 75 207c-14-9 3-23 28-6 16 11 113 70 189 135 78 67 108 107 109 106 1 1 36-41 77-102s66-98 80-113c19-20 47-2 40 27-7 32-27 86-57 103-64 37-123 104-122 105-1 1 26 38 44 63 26 37 43 68 43 69 9 14 27 36-24 52-52 17-98 43-127 39-15-2-41-13-12-25 16-7 91-48 76-69zM791 48l10 667c1 43 27 67-33 82-45 11-95 25-120 25-22 0-47-20-6-29 21-5 88-45 88-66V-36c0-27 2-85 17-86 29-1 43 72 44 170z"/></symbol><symbol id="X"><path transform="matrix(.001 0 0 .001 -.029 .127)" d="M390 493c-1 1 38 34 65 68 22 28 43 53 43 57 20 26 41 39 2 48-21 5-64 1-66-2-4-6-93-12-139-14-115-6-125-3-150 3-38 9-40-7-2-30 67-41 72-18 87-16 6-1 29 7 83 11 64 5 103 8 102 7 2 0-64-105-156-183C136 338 56 298 44 292c-15-7 0-19 22-10 15 6 84 37 165 89 99 63 138 105 139 104 1 1 37-36 75-79 36-41 31-38 51-60 27-30 65-20 48 31-8 24-26 51-60 68-49 24-96 56-94 58zm368-39 4 263c1 41 29 56-23 71-32 9-95 35-121 33-18-1-39-14-9-27 22-9 84-48 84-64V348c0-23 4-74 18-75 36-2 46 92 46 118v29h62c39 0 71 1 116 2 39 1 38 58-7 59-29 1-60 4-75-7-31-23-95-23-95-20zm-65-245V-30c0-25 2-91 13-92 41-5 46 115 48 177l4 139c1 21 24 51-11 56-18 3-60 4-63-2-8-16-324-30-388-12-36 10-34-13 15-39 77-42 81-12 97-10 0 0 47 8 142 14 50 3 142 8 143 8z"/></symbol><use xlink:href="#W" transform="matrix(10.944 0 0 -11.52 62.363 110.544)"/><use xlink:href="#X" transform="matrix(10.944 0 0 -11.52 72.333 110.59)"/><symbol id="Y"><path transform="matrix(.001 0 0 .001 -.015 -.034)" d="M644 514c7-84-58-137-141-140-74-3-155 54-149 141 5 72 62 119 142 120 74 1 142-47 148-121zM466 680s-174-10-183-163c-6-102 84-189 220-192 105-2 218 65 208 189-13 156-187 163-189 163 0 0 5 13 14 21 16 14 5 28-20 43-26 16-40 15-48 9-11-8 15-18 18-35 4-23-16-31-20-35zm266-552s-163-15-396-19c-149-3-263 10-282 16-32 10-39-7-12-24 15-9 63-33 105-50 41-17 60 13 89 15 0 0 91 14 239 17 106 2 178 7 247 5 68 1 211-8 225-7 31 2 41 45 1 60-17 6-91 15-105 12-16-3-46-22-111-25z"/></symbol><symbol id="Z"><path transform="matrix(.001 0 0 .001 -.015 .002)" d="M338 489c-8 9-104 14-112 13-26-3-50-14-12-27 13-4 62-20 62-39l2-94c1-29 6-59 34-73 21-11 51-12 85-11l71 3c1 0 2-63 2-111 0-28 2-73 2-73 0-1-110-6-172-5-153 2-226 8-240 14-28 11-45-2-19-21 10-7 68-37 108-53 34-14 48 14 85 17 2 0 115 15 272 20 106 4 184 7 301 2 52-2 115-11 134-9 40 4 39 47 1 61-13 5-101 23-132 4-22-13-134-21-173-24-35-3-112-5-112-4-1 0 10 43 12 75 3 43 3 109 4 109 0 1 67 3 104 6 45 4 104-1 116 3 40 14 26 55-14 55-27 0-64 8-91-10-38-25-88-23-142-27-39-3-126-4-127-4-15 0-30 0-36 6-4 4-6 10-6 24l2 140c1 0 61 4 150 9 200 11 242-4 244 26 1 20-40 20-40 22-1 1 4 20 13 56 5 19 23 75 23 77 8 26 43 57-4 60-9 1-60 6-71-2-17-12-125-18-219-22-124-5-200-2-215 3-29 9-41-3-20-17 16-11 52-29 74-35 25-7 46 9 76 11 0 0 69 6 112 9 63 4 197 11 198 11 0-1 1-54-2-87-4-52-10-69-10-71-3 0-76-9-164-13-66-3-151-7-154-4z"/></symbol><symbol id="aa"><path transform="matrix(.001 0 0 .001 -.033 .1)" d="M373 452c1 1 88 3 152 5 43 1 110 5 110 4 0 0 2-43 19-44 36-2 44 85 45 114l4 171c1 31 22 46-26 57-23 5-66 16-85 16-21 0-32-18-8-24 17-4 49-22 49-38l2-81-258-7 1 58c0 21 15 45-28 50-28 3-77 14-100 11s-38-19-9-26c16-4 72-25 72-44l3-211c0-24 2-68 17-69 34-2 39 58 40 58zm1 30 2 113 258 8 1-113c0-1-35-2-111-5-70-3-150-3-150-3zM218 296c6 1 83 7 132 10 51 3 130 7 130 7V13c0-74 4-110 15-111 41-2 45 122 47 203l5 209s123 4 202 2c71-1 81-3 181-9 33-2 38 44-10 53-26 5-66 12-88 7-17-4-52-15-87-17-1 0-127-8-232-13s-237-4-301-3c-50 1-99 6-128 11-51 9-36-8-24-16 17-11 70-32 97-43 30-12 42 9 61 10z"/></symbol><symbol id="ab"><path transform="matrix(.001 0 0 .001 -.022 .123)" d="M397 161c128 49 152 69 170 79 20 12 19 28-12 14-29-14-63-30-174-58-97-24-159-29-164-27s-5 10-5 22v183l124 5c32 1 53 2 83 6 33 4 43 45 7 50-20 3-53 3-72-1-27-5-47-27-69-28l-73-4v179l187 7c32 1 44-2 62 2 53 11 41 50 10 52-9 1-64 3-73 0-22-7-56-25-75-27-1 0-38-4-47-4-47-2-64-2-64-2-4 0-17 4-41 8-29 5-85 6-101 4-20-2-48-21-5-27 6-1 79-26 79-46V193c0-45 18-80 41-90 16-7 114 20 212 58zm333 566V441s-87-9-109-10c-56-2-87 1-97 2-48 6-23-12-16-17 8-6 38-22 60-30 26-9 46 11 64 13l98 9V3c0-50 1-126 17-126 17 0 48 38 49 213l4 618c0 39 18 62-21 82-19 10-119 34-128 33-41-5-40-20-22-27 25-10 101-45 101-69z"/></symbol><use xlink:href="#W" transform="matrix(10.944 0 0 -11.52 87.443 110.544)"/><use xlink:href="#O" transform="matrix(10.944 0 0 -11.52 97.369 110.544)"/><use xlink:href="#Y" transform="matrix(10.944 0 0 -11.52 107.58 108.735)"/><use xlink:href="#Z" transform="matrix(10.944 0 0 -11.52 117.9 109.15)"/><use xlink:href="#aa" transform="matrix(10.944 0 0 -11.52 128.417 110.279)"/><use xlink:href="#ab" transform="matrix(10.944 0 0 -11.52 138.617 110.544)"/><symbol id="ac"><path transform="matrix(.001 0 0 .001 -.038 .067)" d="M392 129V21c0-34-1-57 26-72 18-10 48-13 80-13 0 0 327-3 338 0 48 11 28 55-5 58-17 2-71 12-102-9-25-17-67-14-142-16-38-1-97 0-97 0-13 0-19 1-26 6-3 2-4 16-4 23l1 135c0 32 13 51-27 57-28 4-100 9-115 7-28-4-44-22-6-30 10-2 79-18 79-38zm33 484c-1-3-48-131-171-255C153 256 69 203 54 193c-16-11 7-14 13-11 7 3 112 63 199 132 159 127 230 281 230 281 14 17 38 46 3 54-11 2-64 5-83-4-8-4-56-7-138-8-59-1-113-2-147 4s-41-6-16-19c22-11 36-19 68-32 25-10 37 6 60 9 0 0 30 4 82 10 49 6 99 4 100 4zm268 116V164c0-61 9-80 24-79 22 1 37 69 39 159l3 138s167 3 176 7c48 22 19 60-13 59-17-1-69 6-85-12-20-23-78-25-78-22l5 304c1 47 18 59-40 77-30 9-82 27-106 27-25 0-50-16-16-26 12-4 91-46 91-67z"/></symbol><use xlink:href="#W" transform="matrix(10.944 0 0 -11.52 153.803 110.544)"/><use xlink:href="#ac" transform="matrix(10.944 0 0 -11.52 163.871 109.899)"/><use xlink:href="#C" transform="matrix(10.944 0 0 -11.52 174.64 110.555)"/><symbol id="ad"><path d="M.307.43c0 .006-.003.01-.01.011a.08.08 0 0 1-.014.001H.19l.011.045a3.684 3.684 0 0 1 .03.115c.001.01 0 .02-.004.025C.22.633.214.637.203.637A.036.036 0 0 1 .177.626.048.048 0 0 1 .163.601L.124.44H.03L.027.442A.043.043 0 0 1 .007.44C.004.437 0 .431 0 .423c0-.006.002-.01.007-.01A.045.045 0 0 1 .022.41h.094L.072.24.043.12A.1.1 0 0 1 .055.035C.072.012.097 0 .132 0a.11.11 0 0 1 .035.006C.179.01.19.016.2.022c.018.015.033.03.046.048A.257.257 0 0 1 .28.127L.281.13.29.15C.291.16.288.164.28.164A.015.015 0 0 1 .268.16.023.023 0 0 1 .264.15.255.255 0 0 0 .235.097a.242.242 0 0 0-.04-.05.135.135 0 0 0-.029-.018.075.075 0 0 0-.032-.008c-.02 0-.03.013-.031.038a.141.141 0 0 0 .006.057L.184.41h.092c.01 0 .018.001.022.003.006.003.009.009.009.018z"/></symbol><use xlink:href="#ad" transform="matrix(11.04 0 0 -11.04 189.394 108.984)"/><symbol id="ae"><path transform="matrix(.001 0 0 .001 -.055 .015)" d="M451 603s0-51-1-102c-1-63-6-113-7-113 0 0-39-2-98-4-58-2-108-2-110-2 0 2-5 55-6 118-1 40 0 96 0 97zm-34 28s-19-3-80-4c-36-1-96-3-96-3-16-1-25 8-50 10-22 2-56 4-86 4-21 0-50-13-8-23 14-3 63-20 64-36 0 0 5-47 8-90 5-63 12-135 12-136 3-33 5-57 17-57 33-1 35 53 33 55 1-2 160 8 257 8 28 0 27 21 13 26-8 3-23 7-23 7 0 2 8 33 20 95 8 42 19 93 19 94 5 23 41 54-1 57-15 1-44 3-59 1-9-1-23-7-40-8zm333-190 5 274c1 46 28 64-27 80-24 7-98 27-118 27-21 0-40-20-4-27 17-3 87-45 87-58V243c0-24 3-90 21-89 31 1 33 101 34 160l2 99 72 1c35 0 70 3 97 4 23 1 36 49-1 50-22 1-52 5-68-1-18-7-39-24-60-25zM406 157l6-96c2-24-1-48 18-61s45-13 75-13c11-2 291 1 316 1 36 0 31 44 5 50-20 4-63 6-81 4-20-2-47-21-69-22-1 0-51-5-88-5-34 0-80 1-86 2-6 0-20-2-24 5-3 5-3 21-3 32l2 101c1 29 18 59-24 61-20 1-78 7-103 6-28-1-54-21-17-27 19-3 72-20 73-38z"/></symbol><symbol id="af"><path transform="matrix(.001 0 0 .001 -.005 .125)" d="M359-39s-3 74-4 114c-2 59-1 106-1 106l258 8c0-1 2-61-1-117-2-37-8-96-8-97-1 0-41-7-99-10-54-3-145-4-145-4zM208 202c12-3 70-23 72-42 0 0 8-64 11-105s8-110 8-111c4-49 4-69 22-67 25 2 35 47 35 48 2 0 73 3 147 6 52 2 161-5 174 3 56 34-34 47-34 48 0 0 6 29 18 83 15 69 25 106 25 109 3 13 40 47-1 56-8 2-52 8-91-7-5-2-72-5-118-7-77-3-126 1-126 1-21 0-24 6-47 8s-61 7-79 5c-22-3-52-18-16-28zm447 285c-11-53-26-103-26-103s-139-10-295-13c-190-4-262 3-288 11-32 10-41-5-16-23 20-14 67-32 107-48 33-14 39 10 95 14 0 0 71 9 239 17 101 5 198 13 262 8 63 2 169-13 182-13 35 1 38 51-4 62-26 7-59 13-88 13-16 0-39-17-82-20l-78-5s38 84 71 190c23 75 38 119 38 119 5 15 35 49-10 51-14 1-62 8-80-4-3-2-60-8-213-13-112-4-259 0-270 5-22 10-54 3-15-25 14-10 59-29 83-38 29-11 39 8 65 10 0 0 135 17 222 21 105 5 137 4 138 4 0-1-2-16-7-59-3-24-8-48-9-52-1 0-51-14-217-33-184-21-268-21-313-11-31 7-31-11-13-25 29-22 51-22 85-40 30-16 44 4 68 8 0 0 106 17 196 34 91 17 184 39 187 40-1-4-5-37-14-82z"/></symbol><use xlink:href="#ae" transform="matrix(10.944 0 0 -11.52 195.377 109.3)"/><use xlink:href="#af" transform="matrix(10.944 0 0 -11.52 205.15 110.567)"/><symbol id="ag"><path transform="matrix(.001 0 0 .001 -.046 .097)" d="M449 642c-1-3-41-122-169-254C164 268 70 211 58 202s4-17 17-8c7 5 118 62 243 173 136 121 201 255 201 255 22 28 50 54 0 58-10 1-43 3-52 0-11-4-28-10-59-11 0 0-61-5-131-5-60 0-124 1-144 7-24 8-42-1-12-21 13-9 51-26 69-31 32-8 51 10 78 12 0 0 41 2 91 7 49 5 89 4 90 4zm281 83V565s-44-3-89-6c-40-3-100-4-125 1-23 5-43 0-15-19 11-7 31-20 44-25 30-12 30 3 54 5 10 1 49 6 77 8 21 2 54 3 54 2V389s-58-6-106-9c-43-3-119-6-137-2-25 6-40-3-12-20 11-7 31-16 50-23 22-9 40 9 64 11 19 3 51 4 76 6s65 4 65 4v-24c0-49-7-137 20-135 34 2 45 117 46 240l3 282c0 43 19 59-37 75-28 8-96 29-110 28-29-2-45-13-9-28 17-7 87-42 87-69zM566 263c-10-10 14-19 17-27 11-27-4-29-13-38 0 0-150-7-153-146-2-77 77-143 183-146 90-3 177 57 176 150-2 133-149 143-150 143 0 1 1 8 4 12 6 8 25 20-10 38-17 9-45 23-54 14zm27-97c62-1 123-36 122-107-1-66-65-97-113-99-56-2-116 35-121 97-5 65 58 110 112 109z"/></symbol><symbol id="ah"><path transform="matrix(.001 0 0 .001 -.034 .125)" d="M500 610s3-49-10-130c-15-97-23-136-25-143-8-26 20-14 30-1 7 9 25 50 43 116 21 75 34 136 34 136 8 33 32 55-7 58-10 1-56 2-64 0-7-2-35-8-62-10 0 0-74-6-121-7-40-1-150-4-182 3-33 7-44-1-22-19 9-7 45-24 80-33 31-8 47 10 72 13 0 0 39 6 97 10 66 5 137 7 137 7zM693-14c0-66 8-111 24-108 32 5 40 138 41 228l2 200h44c55 0 131 0 142 4 46 18 18 55-11 57-19 1-51 3-62-1-17-6-46-28-80-29l-33-1 3 388c0 43 22 58-45 75-28 7-82 24-97 23-23-1-56-14-16-27 11-4 88-43 88-64V302s-135-29-183-38c-94-17-155-22-155-22l5 143c1 38 17 62-45 69-28 3-70 8-85 8-24 0-45-19-13-26 17-4 77-34 77-51V235s-50-6-93-9c-47-3-107-1-122 2-33 6-45-9-13-27 17-10 53-26 94-42 34-13 39 7 79 15 1 0 91 19 206 43 110 23 248 69 248 68z"/></symbol><symbol id="ai"><path transform="matrix(.001 0 0 .001 -.083 .11)" d="M419 494c0-63-46-121-129-121-75 0-135 50-131 134 3 62 52 107 131 106 67-1 129-54 129-119zM278 656s-177 4-189-159c-6-90 83-174 200-171 116 3 199 71 194 172-6 132-160 151-162 151 0 0 9 10 19 22 7 8 28 23-16 40-13 5-43 18-49 7-5-9 16-11 20-26 4-16-4-25-17-36zm108-467c1-1-31-74-84-140C248-18 165-80 153-89c-14-10 8-15 16-8 5 4 58 27 129 84C363 39 407 98 407 98l14-17c14-17 63-105 73-114 25-23 52-23 51 22 0 21-23 56-37 68-13 11-62 35-75 50l-10 12s10 19 16 29 16 28 16 28c15 27 40 51-14 65-21 5-69 17-88 19-26 2-55-12-17-24 13-4 59-32 50-47zm321 25c1-1-19-78-82-171C578-26 513-86 504-94c-14-12 8-16 15-10 5 4 32 16 95 77C669 26 719 92 719 92l31-50c36-58 60-113 70-123 21-22 47-19 48 29 0 21-28 68-37 76-13 11-63 46-78 68l-17 25s11 22 22 42c6 11 18 41 18 41 14 32 35 48-18 66-21 7-69 19-84 21-22 3-57-7-20-23 10-4 65-26 53-50zm23 321s-58-6-100-7-96-3-108 1c-26 8-35-3-13-20 8-6 37-22 60-27 27-6 35 11 68 13l93 6v-97c0-30 2-109 24-109 35 0 44 109 45 187l3 246c0 39 19 56-38 71-31 8-92 24-105 23-29-3-53-15-16-29 19-7 87-41 87-61z"/></symbol><symbol id="aj"><path transform="matrix(.001 0 0 .001 -.023 .072)" d="M622 599c3-62-37-110-115-113-89-3-140 45-139 114s69 105 126 106c71 1 125-43 128-107zM471 753s-164-17-169-150c-4-104 96-162 197-163 97-1 192 61 185 162-9 131-166 147-168 147 0 0 5 11 9 14 20 16 0 31-19 38-24 8-43 14-49 7-8-9 14-17 20-29s1-20-6-26zm269-373s-93-10-283-16c-236-7-361 3-396 14-31 10-38-4-13-22 16-12 62-32 103-47 35-13 57 12 85 14 0 0 178 13 262 16 120 4 183 8 252 5 67 1 177-9 190-8 36 3 36 41 5 52-12 4-94 17-109 15-11-2-38-20-96-23zM242 225c15-9 47-23 69-31 36-13 44 6 73 8 0 0 63 5 114 8 66 4 143 7 144 7 0-1 2-21 1-49-1-31-3-56-3-58-3 0-45-4-93-7-88-5-146-6-148-6-20-1-27 9-56 11-13 1-66 7-82 5-21-3-46-18-7-26 14-3 60-15 60-32l1-57c0-24 5-44 24-56 22-14 54-12 86-11l185 5c83 2 144-4 153-1 38 13 21 47-6 52-11 2-66 6-81 3-14-3-34-20-79-22l-179-6c-13 0-22 1-27 4-6 3-7 14-7 23l2 83 265 4c41 1 68-3 65 20-2 15-30 17-30 18 0 0 7 21 13 46 6 26 15 46 15 48 4 13 37 33-6 42-9 2-49 4-58 2-12-3-22-8-42-9 0 0-36-2-126-6-96-4-194-4-218 3-28 8-47 1-22-15z"/></symbol><use xlink:href="#ag" transform="matrix(10.944 0 0 -11.52 220.358 110.244)"/><use xlink:href="#ah" transform="matrix(10.944 0 0 -11.52 230.547 110.567)"/><use xlink:href="#w" transform="matrix(10.944 0 0 -11.52 240.911 110.452)"/><use xlink:href="#ai" transform="matrix(10.944 0 0 -11.52 251.724 110.394)"/><use xlink:href="#aj" transform="matrix(10.944 0 0 -11.52 261.387 109.956)"/><symbol id="ak"><path transform="matrix(.001 0 0 .001 -.068 .123)" d="M604 276V54c0-56 4-87 21-86 24 2 36 80 37 166l2 197 96 5 1-337c0-88 1-122 19-120 34 4 43 124 44 247l4 598c0 41 15 54-27 69-22 8-93 29-112 29-22 0-46-13-11-26 8-3 82-47 82-67V372l-96-5 3 300c0 35 18 49-34 66-23 7-70 23-83 23-21 0-47-14-12-25 11-3 66-41 66-57V300c0-1-42-21-76-30-29-8-76-17-82-14s-7 10-7 27l2 255s89 5 97 7c44 10 30 45 3 48-18 2-49 1-59-9-17-17-47-19-58-13-15 8-60 21-75 20-24-1-35-9-12-22 9-5 39-26 39-41l3-230c0-1-37-21-82-35-30-9-62-19-68-14-4 3-5 6-5 23l2 261s56 2 68 5c37 8 28 33 6 41-8 3-38 8-49-3-10-10-33-23-41-19-18 10-83 17-101 15-23-2-41-20-11-25 12-2 59-17 60-41l6-253c1-22 16-72 31-76s60 17 101 40c24 13 83 58 83 57l1-22c1-27 14-57 32-62 16-4 73 21 105 38 36 19 87 49 87 48z"/></symbol><use xlink:href="#ak" transform="matrix(10.944 0 0 -11.52 276.64 110.544)"/><use xlink:href="#y" transform="matrix(10.944 0 0 -11.52 286.554 110.567)"/><use xlink:href="#K" transform="matrix(11.04 0 0 -11.04 302.88 110.606)"/><use xlink:href="#i" transform="matrix(11.04 0 0 -11.04 304.898 108.91)"/><use xlink:href="#L" transform="matrix(11.04 0 0 -11.04 313.812 110.606)"/><use xlink:href="#m" transform="matrix(10.944 0 0 -11.52 317.58 110.602)"/><use xlink:href="#K" transform="matrix(11.04 0 0 -11.04 23.76 127.286)"/><use xlink:href="#n" transform="matrix(11.04 0 0 -11.04 25.778 125.59)"/><use xlink:href="#L" transform="matrix(11.04 0 0 -11.04 33.972 127.286)"/><use xlink:href="#N" transform="matrix(10.944 0 0 -11.52 37.489 126.613)"/><use xlink:href="#O" transform="matrix(10.944 0 0 -11.52 52.969 127.224)"/><use xlink:href="#O" transform="matrix(10.944 0 0 -11.52 63.289 127.224)"/><use xlink:href="#K" transform="matrix(11.04 0 0 -11.04 80.4 127.406)"/><use xlink:href="#i" transform="matrix(11.04 0 0 -11.04 82.418 125.71)"/><use xlink:href="#L" transform="matrix(11.04 0 0 -11.04 91.332 127.406)"/><use xlink:href="#ad" transform="matrix(7.44 0 0 -7.44 94.27 128.632)"/><use xlink:href="#Q" transform="matrix(10.944 0 0 -11.52 98.297 127.846)"/><use xlink:href="#K" transform="matrix(11.04 0 0 -11.04 107.16 127.406)"/><use xlink:href="#n" transform="matrix(11.04 0 0 -11.04 109.178 125.71)"/><use xlink:href="#L" transform="matrix(11.04 0 0 -11.04 117.372 127.406)"/><use xlink:href="#ad" transform="matrix(7.44 0 0 -7.44 120.31 128.632)"/><use xlink:href="#R" transform="matrix(10.944 0 0 -11.52 124.162 127.259)"/><symbol id="al"><path transform="matrix(.001 0 0 .001 -.029 .075)" d="M686 217s-2-29-3-47c-2-24-6-60-6-62-2 0-210-15-214-10-7 8-97 19-124 14-24-4-33-18-13-23 16-4 66-23 67-40l2-66c1-24 8-37 27-47 12-6 40-9 65-9 1 0 247 2 303 0 54-2 54 50 20 56-21 4-64 11-90 0-48-20-57-22-126-24-44-1-103-1-108 0-10 0-20-1-21 4-2 7-2 10-2 21v82c1 0 87 5 143 6 51 1 80-1 131 1 33 1 32 26 15 35-8 4-24 7-24 7-2 1 3 21 10 43 6 19 12 44 12 44 6 21 22 44-3 50-15 3-71 5-77-1-5-5-41-7-132-12-106-6-165-2-190 4-48 11-38-9 20-38 64-32 62-8 93-5 0 0 62 7 114 11s110 6 111 6zm7 511V370c0-62 7-92 19-92 21 0 45 48 45 115v39s148 6 158 5c44-4 49 50 15 58-26 6-80 9-102-13-16-16-70-19-70-18l2 252c0 55 15 58-17 74-21 10-110 33-127 32-43-2-47-21-16-32 19-7 93-46 93-62zm-465 16c-41 13-26-14-16-23 11-10 43-39 64-49 16-8 122-3 141-1 39 4 47 50-3 56-11 1-104 1-123 4s-56 11-63 13zm212-346c-2-29-34-74-102-77-67-3-108 44-109 81-3 76 61 94 109 93 69-2 106-53 102-97zM302 572c2 0 10-11 15-18 5-8-1-15-11-24 0-1-148-5-145-131 1-56 63-124 178-122 109 2 166 66 167 126 2 114-145 126-145 126 1 1 11 13 7 23-4 11-32 23-31 23-1 1 75 0 119 3 38 3 71 1 98 2 39 2 41 38 15 46-13 4-75 17-95 3-16-11-49-25-164-29-121-4-198-1-232 7-49 11-22-17 16-34 79-35 56-14 103-10 0 0 33 3 54 5 20 2 51 4 51 4z"/></symbol><use xlink:href="#al" transform="matrix(10.944 0 0 -11.52 139.532 126.671)"/><use xlink:href="#ak" transform="matrix(10.944 0 0 -11.52 155.44 127.224)"/><use xlink:href="#Q" transform="matrix(10.944 0 0 -11.52 165.617 127.846)"/><symbol id="am"><path d="M.234 0H.011v.028c.017 0 .03.002.04.004.01.003.018.006.022.011.005.005.009.01.01.016a.08.08 0 0 1 .002.017v.518c0 .014-.007.028-.02.04C.05.649.028.655 0 .655v.022a.34.34 0 0 1 .05.01 1.25 1.25 0 0 1 .11.04V.077L.16.061A.031.031 0 0 1 .17.045.057.057 0 0 1 .192.032.145.145 0 0 1 .234.027V0z"/></symbol><use xlink:href="#am" transform="matrix(11.04 0 0 -11.04 51.47 159.07)"/><symbol id="an"><path d="M.518 0H.31v.027c.016 0 .029.003.038.007.01.004.017.01.021.017a.044.044 0 0 1 .008.022l.002.028v.218a.18.18 0 0 1-.003.024.12.12 0 0 1-.04.07.067.067 0 0 1-.046.015.16.16 0 0 1-.088-.03A.252.252 0 0 1 .17.373L.146.349V.088L.147.069a.052.052 0 0 1 .01-.02.047.047 0 0 1 .02-.015.096.096 0 0 1 .04-.007V0H.01v.027c.018 0 .032.003.04.007A.04.04 0 0 1 .07.05a.033.033 0 0 1 .006.018V.36a.038.038 0 0 1-.003.013.043.043 0 0 1-.01.017.065.065 0 0 1-.024.013A.107.107 0 0 1 0 .41v.024A1.489 1.489 0 0 1 .146.48V.383a.503.503 0 0 0 .073.061c.015.01.03.017.048.023.017.006.034.01.052.01.03 0 .054-.007.07-.02A.117.117 0 0 0 .43.412.164.164 0 0 0 .444.357.326.326 0 0 0 .448.313V.09c0-.007 0-.013.002-.02A.044.044 0 0 1 .46.048a.047.047 0 0 1 .02-.016.1.1 0 0 1 .039-.006V0z"/></symbol><use xlink:href="#an" transform="matrix(11.04 0 0 -11.04 54.502 159.07)"/><symbol id="ao"><path d="M.5 0v.04H0V0h.5z"/></symbol><use xlink:href="#ao" transform="matrix(42.72 0 0 -11.04 61.215 156.2)"/><use xlink:href="#K" transform="matrix(11.04 0 0 -11.04 64.2 168.086)"/><use xlink:href="#i" transform="matrix(11.04 0 0 -11.04 66.218 166.39)"/><use xlink:href="#L" transform="matrix(11.04 0 0 -11.04 75.132 168.086)"/><use xlink:href="#ad" transform="matrix(7.44 0 0 -7.44 78.07 169.432)"/><use xlink:href="#K" transform="matrix(11.04 0 0 -11.04 64.56 151.286)"/><use xlink:href="#n" transform="matrix(11.04 0 0 -11.04 66.578 149.59)"/><use xlink:href="#L" transform="matrix(11.04 0 0 -11.04 74.772 151.286)"/><use xlink:href="#ad" transform="matrix(7.44 0 0 -7.44 77.71 152.632)"/><use xlink:href="#E" transform="matrix(11.04 0 0 -11.04 84.27 159.312)"/><use xlink:href="#ao" transform="matrix(41.04 0 0 -11.04 94.575 156.2)"/><use xlink:href="#K" transform="matrix(11.04 0 0 -11.04 97.56 168.086)"/><use xlink:href="#n" transform="matrix(11.04 0 0 -11.04 99.578 166.39)"/><use xlink:href="#L" transform="matrix(11.04 0 0 -11.04 107.652 168.086)"/><use xlink:href="#ad" transform="matrix(7.44 0 0 -7.44 110.59 169.432)"/><symbol id="ap"><path d="M.33 0v.031H.283a.15.15 0 0 0-.056.007C.212.044.205.058.205.08v.587H.182a.24.24 0 0 0-.05-.037A.277.277 0 0 0 0 .602V.57h.021a.474.474 0 0 1 .11.027V.079C.13.06.124.045.109.04A.146.146 0 0 0 .054.03H.006V0l.08.004H.25C.279.004.306.002.33 0z"/></symbol><use xlink:href="#ap" transform="matrix(11.04 0 0 -11.04 103.236 151.825)"/><symbol id="aq"><path d="M.568.84a.057.057 0 0 1-.025.052.094.094 0 0 1-.056.017A.117.117 0 0 1 .45.903.155.155 0 0 1 .376.845.217.217 0 0 1 .35.793 1.563 1.563 0 0 1 .302.635h-.07a.05.05 0 0 1-.02-.002C.205.63.202.624.201.615c0-.004.002-.008.007-.01A.045.045 0 0 1 .225.604h.069L.184.209.18.19A.692.692 0 0 0 .145.085C.126.043.105.022.082.022c-.01 0-.019.002-.026.005a.052.052 0 0 0-.02.013.066.066 0 0 1 .039.016c.011.01.018.022.02.038 0 .01-.003.02-.009.026A.035.035 0 0 1 .062.13.058.058 0 0 1 .019.11.075.075 0 0 1 0 .07.057.057 0 0 1 .024.02.086.086 0 0 1 .08 0C.12 0 .156.027.19.081c.022.033.042.077.062.132a6.767 6.767 0 0 1 .08.281l.03.11h.086c.01 0 .017 0 .021.002.006.003.01.009.012.018 0 .005-.003.009-.009.01a.072.072 0 0 1-.015.002L.454.635H.371a4.203 4.203 0 0 0 .057.2.09.09 0 0 0 .019.036.05.05 0 0 0 .038.017.063.063 0 0 0 .047-.019.076.076 0 0 1-.04-.015.051.051 0 0 1-.019-.04A.028.028 0 0 1 .481.79.036.036 0 0 1 .507.78C.523.78.537.786.55.8a.066.066 0 0 1 .019.04z"/></symbol><use xlink:href="#aq" transform="matrix(11.04 0 0 -11.04 116.107 161.507)"/><symbol id="ar"><path d="M.219.976C.23.988.235.996.229 1 .224 1.004.215 1 .2.99A.51.51 0 0 1 .062.807.65.65 0 0 1 .015.66.806.806 0 0 1 .065.19.593.593 0 0 1 .201.015C.217.003.226 0 .23.007.23.014.227.023.215.035a.477.477 0 0 0-.077.104.754.754 0 0 0-.08.363c0 .046.003.09.008.13a.674.674 0 0 0 .076.244c.021.037.047.07.077.1z"/></symbol><use xlink:href="#ar" transform="matrix(10.94316 0 0 -13.56 123.265 163.304)"/><use xlink:href="#K" transform="matrix(11.04 0 0 -11.04 127.32 160.886)"/><use xlink:href="#i" transform="matrix(11.04 0 0 -11.04 129.338 159.19)"/><use xlink:href="#L" transform="matrix(11.04 0 0 -11.04 138.252 160.886)"/><use xlink:href="#P" transform="matrix(7.44 0 0 -7.44 141.306 162.312)"/><symbol id="as"><path d="M.12.227a.077.077 0 0 1-.02.05A.061.061 0 0 1 .054.3.054.054 0 0 1 .015.286.053.053 0 0 1 0 .247C0 .231.005.22.015.21A.053.053 0 0 1 .054.194C.063.194.07.196.078.2a.078.078 0 0 1 .02.012.264.264 0 0 0-.03-.13L.062.071A.24.24 0 0 0 .018.016C.015.012.016.007.022.003.023 0 .027.001.032.004c.005.003.01.008.016.014A.522.522 0 0 1 .08.057a.24.24 0 0 1 .033.085.471.471 0 0 1 .005.079v.006H.12z"/></symbol><use xlink:href="#as" transform="matrix(11.04 0 0 -11.04 145.64 160.822)"/><use xlink:href="#K" transform="matrix(11.04 0 0 -11.04 153.36 160.886)"/><use xlink:href="#n" transform="matrix(11.04 0 0 -11.04 155.378 159.19)"/><use xlink:href="#L" transform="matrix(11.04 0 0 -11.04 163.572 160.886)"/><use xlink:href="#P" transform="matrix(7.44 0 0 -7.44 166.626 162.312)"/><symbol id="at"><path d="M.235.502a.757.757 0 0 1-.063.306.602.602 0 0 1-.138.183C.019 1 .009 1.004.004 1 0 .995.005.987.017.975A.505.505 0 0 0 .143.757a.932.932 0 0 0 .001-.5A.615.615 0 0 0 .096.14.456.456 0 0 0 .02.035C.007.023.003.014.006.007.008 0 .018.003.034.015c.025.019.05.046.076.081a.633.633 0 0 1 .11.248c.01.05.015.103.015.158z"/></symbol><use xlink:href="#at" transform="matrix(10.94316 0 0 -13.56 170.636 163.313)"/><use xlink:href="#I" transform="matrix(11.04 0 0 -11.04 175.83 156.919)"/><symbol id="au"><path d="M.456.582C.46.596.46.606.456.613.452.623.444.627.431.627A.038.038 0 0 1 .4.614.047.047 0 0 1 .39.584.139.139 0 0 1 .35.63a.093.093 0 0 1-.054.016.181.181 0 0 1-.09-.025A.322.322 0 0 1 .08.47.29.29 0 0 1 .06.363c0-.022.003-.042.008-.061A.134.134 0 0 1 .14.217.118.118 0 0 1 .19.205c.021 0 .042.006.064.018.017.01.035.023.052.04L.309.263.283.164A.485.485 0 0 0 .27.118.158.158 0 0 0 .192.035.133.133 0 0 0 .13.021a.234.234 0 0 0-.04.003.175.175 0 0 0-.04.008c.012.004.022.01.03.019a.05.05 0 0 1 .01.033c0 .011-.003.02-.01.026a.037.037 0 0 1-.026.01.05.05 0 0 1-.04-.018.056.056 0 0 1-.007-.068A.063.063 0 0 1 .03.016a.118.118 0 0 1 .04-.012A.42.42 0 0 1 .134 0 .255.255 0 0 1 .28.047a.232.232 0 0 1 .04.04C.331.105.34.122.345.14l.11.443M.377.539A6.445 6.445 0 0 0 .33.35L.326.335a.103.103 0 0 0-.02-.04.194.194 0 0 0-.068-.057.093.093 0 0 0-.044-.01c-.022 0-.04.01-.051.03A.139.139 0 0 0 .13.319a.49.49 0 0 0 .017.113.482.482 0 0 0 .039.104.197.197 0 0 0 .044.06c.023.02.045.029.067.029C.317.625.336.617.352.6A.103.103 0 0 0 .377.54z"/></symbol><use xlink:href="#au" transform="matrix(11.04 0 0 -11.04 185.937 161.41)"/><use xlink:href="#ar" transform="matrix(10.94316 0 0 -13.56 192.025 163.304)"/><use xlink:href="#K" transform="matrix(11.04 0 0 -11.04 196.08 160.886)"/><use xlink:href="#i" transform="matrix(11.04 0 0 -11.04 198.098 159.19)"/><use xlink:href="#L" transform="matrix(11.04 0 0 -11.04 207.012 160.886)"/><use xlink:href="#P" transform="matrix(7.44 0 0 -7.44 210.066 162.312)"/><use xlink:href="#as" transform="matrix(11.04 0 0 -11.04 214.4 160.822)"/><use xlink:href="#K" transform="matrix(11.04 0 0 -11.04 222.12 160.886)"/><use xlink:href="#n" transform="matrix(11.04 0 0 -11.04 224.138 159.19)"/><use xlink:href="#L" transform="matrix(11.04 0 0 -11.04 232.332 160.886)"/><use xlink:href="#P" transform="matrix(7.44 0 0 -7.44 235.386 162.312)"/><use xlink:href="#at" transform="matrix(10.94316 0 0 -13.56 239.396 163.313)"/><use xlink:href="#J" transform="matrix(11.04 0 0 -11.04 243.139 159.268)"/><use xlink:href="#ad" transform="matrix(11.04 0 0 -11.04 248.074 159.264)"/><use xlink:href="#E" transform="matrix(11.04 0 0 -11.04 253.71 159.312)"/><symbol id="av"><path d="M.486.162C.48.164.474.164.472.162.47.161.467.157.465.15V.146L.462.138A.493.493 0 0 0 .428.064.111.111 0 0 0 .399.035.06.06 0 0 0 .362.021C.347.021.34.031.338.05a.088.088 0 0 0 .007.042.978.978 0 0 0 .025.075L.393.23l.003.013.013.052a.21.21 0 0 1 .008.05c0 .036-.01.063-.032.082a.125.125 0 0 1-.083.025.24.24 0 0 1-.045-.004.15.15 0 0 1-.04-.016.177.177 0 0 1-.063-.056l.078.318C.232.7.23.704.221.705H.192L.097.694C.089.694.084.692.082.69.079.688.078.683.078.675.078.67.08.666.085.665A.037.037 0 0 1 .1.661H.13A.03.03 0 0 0 .146.656C.15.655.152.651.152.645A.08.08 0 0 0 .15.628V.626L.005.05A.069.069 0 0 1 .002.017C.005.006.014 0 .029 0c.008 0 .016.003.023.008a.04.04 0 0 1 .014.018L.135.3a.175.175 0 0 0 .03.055.167.167 0 0 0 .038.042.222.222 0 0 0 .047.026A.14.14 0 0 0 .3.43C.319.43.332.424.34.41A.087.087 0 0 0 .354.36.545.545 0 0 0 .334.263L.331.252A1.14 1.14 0 0 0 .308.185.713.713 0 0 1 .28.107a.083.083 0 0 1 .02-.085A.086.086 0 0 1 .362 0 .09.09 0 0 1 .42.023a.163.163 0 0 1 .05.073.839.839 0 0 0 .01.02l.004.011.001.004A.114.114 0 0 1 .49.149C.492.158.49.162.486.162z"/></symbol><use xlink:href="#av" transform="matrix(11.04 0 0 -11.04 263.419 159.264)"/><use xlink:href="#ar" transform="matrix(10.94316 0 0 -13.56 269.905 163.304)"/><use xlink:href="#K" transform="matrix(11.04 0 0 -11.04 273.96 160.886)"/><use xlink:href="#i" transform="matrix(11.04 0 0 -11.04 275.978 159.19)"/><use xlink:href="#L" transform="matrix(11.04 0 0 -11.04 284.892 160.886)"/><use xlink:href="#P" transform="matrix(7.44 0 0 -7.44 287.946 162.312)"/><use xlink:href="#as" transform="matrix(11.04 0 0 -11.04 292.28 160.822)"/><use xlink:href="#K" transform="matrix(11.04 0 0 -11.04 300 160.886)"/><use xlink:href="#n" transform="matrix(11.04 0 0 -11.04 302.018 159.19)"/><use xlink:href="#L" transform="matrix(11.04 0 0 -11.04 310.212 160.886)"/><use xlink:href="#P" transform="matrix(7.44 0 0 -7.44 313.266 162.312)"/><use xlink:href="#at" transform="matrix(10.94316 0 0 -13.56 317.276 163.313)"/><use xlink:href="#o" transform="matrix(10.944 0 0 -11.52 22.085 192.624)"/><symbol id="aw"><path transform="matrix(.001 0 0 .001 -.047 .112)" d="M95 538c-23-3-48-17-11-26 12-3 74-21 74-40l1-131c0-26 18-62 36-70 17-7 139 19 287 61 159 45 248 84 248 83v-12c0-55 7-87 21-84 23 5 41 61 42 154l4 254c1 43 18 54-33 69-28 8-92 27-107 26-21-1-51-12-14-26 12-5 87-41 87-61V432c0-1-107-37-279-68-90-16-217-34-222-27-3 4-4 6-4 19l3 131c1 0 87 3 145 7 89 6 135-7 137 21 1 15-35 18-34 20-1 1 4 23 15 58 6 19 24 62 23 64 6 17 39 47-15 47-10 0-68 2-72-4-2-4-55-5-133-9-99-5-158 0-179 5-32 8-37-7-14-19 16-8 52-25 74-32 26-8 33 8 62 10 0 0 52 4 94 7 54 4 108 2 109 2 0-1 0-34-2-67-3-53-8-65-8-67-3 0-60-6-106-8-59-3-92-3-97 1-9 7-114 17-132 15zM481-53l249 9s2-58 21-54c17 4 36 30 38 83l10 234c2 36 15 54-36 65-22 5-65 13-77 14-24 1-45-12-12-25 8-3 56-28 56-39v-79l-243-5v40c0 36 15 55-37 62-23 3-77 12-90 10-24-3-50-16-11-27 11-3 70-28 70-46l4-233c1-44 8-68 22-67 26 2 35 58 36 58zm2 33 4 137 243 7V-11z"/></symbol><symbol id="ax"><path transform="matrix(.001 0 0 .001 -.022 .067)" d="m387 116 2-110c0-25 10-47 27-56 19-10 49-12 69-12 1 0 275 6 306 2 50-7 60 41 30 52-14 5-84 17-112 1-31-18-36-17-125-21-37-2-91-3-94-2-5 0-22 1-27 5-4 3-4 19-4 29v112c0 37 12 53-26 61-15 3-103 7-116 5-32-4-48-26-8-29 8-1 78-20 78-37zm306 617V172c0-35 3-72 17-71 29 2 43 80 44 146l2 123s159 4 169 3c44-4 48 46 10 54-36 7-75 6-102-12-20-13-76-14-76-13l3 321c0 44 13 55-16 65-21 7-108 34-122 34-43 0-46-17-15-28 19-7 86-45 86-61zm-465-2c-38 14-29-3-20-13 10-11 41-48 62-56 15-6 134-6 153-4 39 4 40 53-8 53-11 0-97 5-115 7-19 2-65 10-72 13zm209-368c-2-29-36-86-107-85-85 1-117 54-118 91-3 76 73 100 121 99 69-2 108-61 104-105zM293 558c2 0 13-15 17-22 6-11 1-21-9-30 0-1-149-6-155-137-3-56 51-146 188-143 109 2 164 73 166 135 3 133-150 145-150 145 2 2 16 14 12 23s-40 31-39 31c-1 1 80 4 124 5 48 1 89 0 116 1 39 2 34 39 9 46-14 4-78 11-93 2-18-11-52-23-176-27-121-4-198-2-232 6-49 11-25-14 13-32 75-35 57-18 104-12 0 0 35 5 58 7 18 1 47 2 47 2z"/></symbol><use xlink:href="#v" transform="matrix(10.944 0 0 -11.52 37.62 192.44)"/><use xlink:href="#aw" transform="matrix(10.944 0 0 -11.52 48.17 192.497)"/><use xlink:href="#ax" transform="matrix(10.944 0 0 -11.52 58.216 191.979)"/><use xlink:href="#f" transform="matrix(10.944 0 0 -11.52 68.558 192.647)"/><use xlink:href="#D" transform="matrix(10.944 0 0 -11.52 79.37 191.449)"/><use xlink:href="#av" transform="matrix(11.04 0 0 -11.04 51.739 224.664)"/><use xlink:href="#ar" transform="matrix(10.94316 0 0 -13.56 58.225 228.704)"/><use xlink:href="#K" transform="matrix(11.04 0 0 -11.04 62.16 226.286)"/><use xlink:href="#i" transform="matrix(11.04 0 0 -11.04 64.178 224.59)"/><use xlink:href="#L" transform="matrix(11.04 0 0 -11.04 73.092 226.286)"/><use xlink:href="#P" transform="matrix(7.44 0 0 -7.44 76.146 227.712)"/><use xlink:href="#as" transform="matrix(11.04 0 0 -11.04 80.6 226.222)"/><use xlink:href="#K" transform="matrix(11.04 0 0 -11.04 88.2 226.286)"/><use xlink:href="#n" transform="matrix(11.04 0 0 -11.04 90.218 224.59)"/><use xlink:href="#L" transform="matrix(11.04 0 0 -11.04 98.412 226.286)"/><use xlink:href="#P" transform="matrix(7.44 0 0 -7.44 101.466 227.712)"/><use xlink:href="#at" transform="matrix(10.94316 0 0 -13.56 105.596 228.713)"/><use xlink:href="#I" transform="matrix(11.04 0 0 -11.04 112.95 222.319)"/><use xlink:href="#ao" transform="matrix(274.32005 0 0 -11.04 124.095 221.6)"/><symbol id="ay"><path d="M.521.477c0 .043-.01.079-.034.109a.114.114 0 0 1-.097.05.137.137 0 0 1-.073-.022A.264.264 0 0 1 .26.562a.086.086 0 0 1-.031.054.09.09 0 0 1-.06.02A.073.073 0 0 1 .13.625a.082.082 0 0 1-.028-.03.543.543 0 0 1-.036-.102L.063.492a.03.03 0 0 1 0-.012c0-.004.005-.006.011-.006.005 0 .01.002.012.006A.06.06 0 0 1 .09.492v.003a.469.469 0 0 0 .031.088c.005.01.01.018.018.023a.042.042 0 0 0 .025.008c.02 0 .03-.012.031-.036A.197.197 0 0 0 .19.518L.077.073.075.065a.06.06 0 0 0-.008-.02A.025.025 0 0 0 .05.033L.023.031A.034.034 0 0 1 .007.028C.003.026 0 .021 0 .013 0 .009.002.006.004.003A.013.013 0 0 1 .014 0l.04.002.043.002.052-.002L.196 0C.203 0 .207.002.21.006.213.009.215.014.215.02c0 .005-.003.008-.008.01a.034.034 0 0 1-.014.001h-.02A.06.06 0 0 0 .16.033C.15.033.143.037.141.042c-.002.003 0 .01.003.022a1.616 1.616 0 0 0 .045.184A.125.125 0 0 1 .227.2.09.09 0 0 1 .28.184c.03 0 .06.009.091.028A.304.304 0 0 1 .5.37a.285.285 0 0 1 .021.107M.451.52A.46.46 0 0 0 .43.412.64.64 0 0 0 .4.31.216.216 0 0 0 .353.24C.328.217.304.205.279.205a.064.064 0 0 0-.052.026A.138.138 0 0 0 .2.295a7.057 7.057 0 0 0 .054.21c.005.026.023.05.053.074.029.024.055.035.079.035.023 0 .04-.01.05-.03A.133.133 0 0 0 .45.521z"/></symbol><use xlink:href="#ay" transform="matrix(11.04 0 0 -11.04 161.68 233.89)"/><use xlink:href="#K" transform="matrix(11.04 0 0 -11.04 169.92 233.486)"/><use xlink:href="#i" transform="matrix(11.04 0 0 -11.04 171.938 231.79)"/><use xlink:href="#L" transform="matrix(11.04 0 0 -11.04 180.852 233.486)"/><use xlink:href="#P" transform="matrix(7.44 0 0 -7.44 183.906 234.912)"/><use xlink:href="#E" transform="matrix(11.04 0 0 -11.04 190.23 231.912)"/><symbol id="az"><path d="M.412.625c0 .007-.003.01-.01.01A.023.023 0 0 1 .39.63a.177.177 0 0 1-.03-.03.162.162 0 0 1-.025-.033.135.135 0 0 1-.036.05.088.088 0 0 1-.057.02.18.18 0 0 1-.093-.028.264.264 0 0 1-.072-.063A.308.308 0 0 1 .021.45.297.297 0 0 1 0 .344C0 .3.01.265.032.234a.116.116 0 0 1 .1-.05c.021 0 .043.006.064.018A.22.22 0 0 1 .25.244L.24.205a5.414 5.414 0 0 1-.017-.07L.205.065A.049.049 0 0 0 .192.041.052.052 0 0 0 .166.033L.133.031c-.01 0-.015 0-.018-.003C.112.026.11.02.11.011A.01.01 0 0 1 .113.003C.115 0 .118 0 .123 0l.05.002.05.002.048-.001L.326 0c.006 0 .01.002.014.006.002.003.004.008.004.015C.344.026.34.029.335.03A.042.042 0 0 1 .32.031H.302L.29.033C.279.035.272.038.27.043l.002.02.002.006.138.556M.32.526A2.257 2.257 0 0 0 .261.297a.198.198 0 0 0-.053-.06.12.12 0 0 0-.073-.032c-.023 0-.04.01-.051.032A.139.139 0 0 0 .071.3c0 .024.005.058.016.102C.096.44.106.471.117.5a.243.243 0 0 0 .047.075c.025.027.051.04.077.04.02 0 .039-.01.056-.028A.09.09 0 0 0 .32.526z"/></symbol><use xlink:href="#az" transform="matrix(11.04 0 0 -11.04 199.777 233.89)"/><use xlink:href="#K" transform="matrix(11.04 0 0 -11.04 206.52 233.486)"/><use xlink:href="#n" transform="matrix(11.04 0 0 -11.04 208.538 231.79)"/><use xlink:href="#L" transform="matrix(11.04 0 0 -11.04 216.732 233.486)"/><use xlink:href="#P" transform="matrix(7.44 0 0 -7.44 219.786 234.912)"/><use xlink:href="#aq" transform="matrix(11.04 0 0 -11.04 125.587 217.307)"/><use xlink:href="#ar" transform="matrix(10.94316 0 0 -13.56 132.745 219.104)"/><use xlink:href="#K" transform="matrix(11.04 0 0 -11.04 136.8 216.686)"/><use xlink:href="#i" transform="matrix(11.04 0 0 -11.04 138.818 214.99)"/><use xlink:href="#L" transform="matrix(11.04 0 0 -11.04 147.732 216.686)"/><use xlink:href="#P" transform="matrix(7.44 0 0 -7.44 150.786 218.112)"/><use xlink:href="#as" transform="matrix(11.04 0 0 -11.04 155.12 216.622)"/><use xlink:href="#K" transform="matrix(11.04 0 0 -11.04 162.84 216.686)"/><use xlink:href="#n" transform="matrix(11.04 0 0 -11.04 164.858 214.99)"/><use xlink:href="#L" transform="matrix(11.04 0 0 -11.04 173.052 216.686)"/><use xlink:href="#P" transform="matrix(7.44 0 0 -7.44 176.106 218.112)"/><use xlink:href="#at" transform="matrix(10.94316 0 0 -13.56 180.116 219.113)"/><symbol id="aA"><path d="M.456.143a.08.08 0 0 1 .001.011c0 .006 0 .008-.004.008C.445.164.44.164.437.162L.432.147V.146A.459.459 0 0 0 .407.069C.392.037.375.021.355.021.341.021.332.03.328.044a.092.092 0 0 0-.002.039A6.021 6.021 0 0 0 .37.27l.033.127c.002.012 0 .02-.006.026-.004.006-.012.01-.022.01A.038.038 0 0 1 .345.42.055.055 0 0 1 .334.39a.133.133 0 0 1-.036.046.097.097 0 0 1-.056.016.18.18 0 0 1-.093-.027A.324.324 0 0 1 0 .16C0 .14.003.118.009.1a.139.139 0 0 1 .03-.055.113.113 0 0 1 .04-.033A.122.122 0 0 1 .133 0C.157 0 .18.008.205.023a.274.274 0 0 1 .059.052A.09.09 0 0 1 .354 0c.03 0 .053.017.07.05.01.018.02.048.03.089l.002.004m-.136.2V.335A.062.062 0 0 1 .318.326L.268.13a.136.136 0 0 0-.02-.037.34.34 0 0 0-.05-.047A.103.103 0 0 0 .135.02a.05.05 0 0 0-.031.01.059.059 0 0 0-.02.024.117.117 0 0 0-.014.054.852.852 0 0 0 .056.226.203.203 0 0 0 .046.064c.023.021.046.032.07.032C.261.43.28.422.293.405A.145.145 0 0 0 .32.343z"/></symbol><use xlink:href="#aA" transform="matrix(7.44 0 0 -7.44 183.553 210.232)"/><symbol id="aB"><path d="M.624.53.601.551.31.298.02.55 0 .529.29.275 0 .025.025 0l.287.252.287-.251.021.02-.286.253.29.255z"/></symbol><use xlink:href="#aB" transform="matrix(11.04 0 0 -11.04 191.02 214.557)"/><use xlink:href="#au" transform="matrix(11.04 0 0 -11.04 199.857 217.21)"/><use xlink:href="#ar" transform="matrix(10.94316 0 0 -13.56 206.065 219.104)"/><use xlink:href="#K" transform="matrix(11.04 0 0 -11.04 210 216.686)"/><use xlink:href="#i" transform="matrix(11.04 0 0 -11.04 212.018 214.99)"/><use xlink:href="#L" transform="matrix(11.04 0 0 -11.04 220.932 216.686)"/><use xlink:href="#P" transform="matrix(7.44 0 0 -7.44 223.986 218.112)"/><use xlink:href="#as" transform="matrix(11.04 0 0 -11.04 228.44 216.622)"/><use xlink:href="#K" transform="matrix(11.04 0 0 -11.04 236.04 216.686)"/><use xlink:href="#n" transform="matrix(11.04 0 0 -11.04 238.058 214.99)"/><use xlink:href="#L" transform="matrix(11.04 0 0 -11.04 246.252 216.686)"/><use xlink:href="#P" transform="matrix(7.44 0 0 -7.44 249.306 218.112)"/><use xlink:href="#at" transform="matrix(10.94316 0 0 -13.56 253.316 219.113)"/><symbol id="aC"><path d="M.368.293a.184.184 0 0 1-.01.06.167.167 0 0 1-.027.054.127.127 0 0 1-.043.034.132.132 0 0 1-.117-.007.23.23 0 0 1-.053-.041l.073.301c0 .006-.003.01-.01.011H.153L.057.694C.049.694.044.692.042.69.039.688.038.683.038.675.038.67.04.666.045.665A.037.037 0 0 1 .06.661h.03A.03.03 0 0 0 .104.656C.11.655.111.651.111.645A.062.062 0 0 0 .107.627V.62A301.222 301.222 0 0 1 .003.21.367.367 0 0 1 0 .157C0 .134.003.112.009.093A.135.135 0 0 1 .035.042a.122.122 0 0 1 .04-.031A.12.12 0 0 1 .126 0c.015 0 .03.002.044.007.015.004.03.01.045.02a.29.29 0 0 1 .078.069.38.38 0 0 1 .054.09.45.45 0 0 1 .015.054.242.242 0 0 1 .006.053M.296.337A1.146 1.146 0 0 0 .279.235L.276.223a.651.651 0 0 0-.03-.094.233.233 0 0 0-.058-.08.183.183 0 0 0-.033-.02.066.066 0 0 0-.029-.008.051.051 0 0 0-.04.017.093.093 0 0 0-.02.038.327.327 0 0 0-.005.077v.004l.023.098.021.087a.255.255 0 0 0 .056.061.122.122 0 0 0 .072.028c.023 0 .04-.01.05-.032A.135.135 0 0 0 .296.337z"/></symbol><use xlink:href="#aC" transform="matrix(7.44 0 0 -7.44 256.924 210.232)"/><symbol id="aD"><path d="M.646.02c0 .009-.004.015-.012.018A.09.09 0 0 1 .61.04H.034C.024.04.015.04.011.038.004.035 0 .028 0 .02 0 .01.003.006.01.003A.06.06 0 0 1 .033 0h.58c.01 0 .018.001.022.003.007.003.01.008.01.017z"/></symbol><use xlink:href="#aD" transform="matrix(11.04 0 0 -11.04 262.95 221.208)"/><use xlink:href="#am" transform="matrix(11.04 0 0 -11.04 272.39 224.47)"/><use xlink:href="#an" transform="matrix(11.04 0 0 -11.04 275.422 224.47)"/><use xlink:href="#ao" transform="matrix(44.16 0 0 -11.04 282.135 221.6)"/><use xlink:href="#K" transform="matrix(11.04 0 0 -11.04 285.48 233.486)"/><use xlink:href="#n" transform="matrix(11.04 0 0 -11.04 287.498 231.79)"/><use xlink:href="#L" transform="matrix(11.04 0 0 -11.04 295.692 233.486)"/><use xlink:href="#P" transform="matrix(7.44 0 0 -7.44 298.746 234.912)"/><use xlink:href="#K" transform="matrix(11.04 0 0 -11.04 285.12 216.686)"/><use xlink:href="#i" transform="matrix(11.04 0 0 -11.04 287.138 214.99)"/><use xlink:href="#L" transform="matrix(11.04 0 0 -11.04 296.052 216.686)"/><use xlink:href="#P" transform="matrix(7.44 0 0 -7.44 299.106 218.112)"/><symbol id="aE"><path transform="matrix(.001 0 0 .001 -.104 .064)" d="M439 509c7-86-69-120-127-117-86 4-138 56-132 125 7 76 83 103 134 102 72-1 120-55 125-110zM288 660s-162-5-175-140c-9-98 87-170 194-175 122-6 204 83 197 158-14 142-170 153-170 153 1 1 8 14 14 20 8 8 24 19-19 38-16 7-39 12-46 6-11-9 15-20 18-26 8-17-10-32-13-34zm442 73V406c0-43 3-98 23-98 30 0 40 96 42 195l4 215c1 47 21 60-40 78-27 8-90 27-107 26-23-1-48-13-10-27 13-5 88-42 88-62zM330 259c15-9 49-25 71-33 33-12 41 5 69 8 0 0 56 7 107 10 65 4 142 8 143 8 0-1 1-24 0-52-1-30-5-68-5-70-3 0-45-4-93-7-88-5-130-4-132-4-16 0-31 10-57 11-13 1-66 6-82 4-21-3-41-18-7-26 13-3 63-17 63-34l1-69c0-19 4-44 23-56 21-13 53-12 84-12l191 2c84 1 144-3 154 1 36 15 22 51-4 54-11 1-63 6-78 3-14-3-37-24-89-25l-177-5c-13 0-26 1-31 4s-6 13-6 23l2 95 245 8c40 1 77-5 75 21-1 16-38 16-38 17 0 0 6 35 12 60 6 26 14 47 14 48 4 13 40 43-11 45-9 0-43 1-53-2-12-3-19-6-41-7 0 0-36-4-126-8-96-4-178-3-203 5-28 8-46-1-21-17z"/></symbol><use xlink:href="#aE" transform="matrix(10.944 0 0 -11.52 22.993 257.344)"/><use xlink:href="#ak" transform="matrix(10.944 0 0 -11.52 37.96 258.024)"/><use xlink:href="#Q" transform="matrix(10.944 0 0 -11.52 48.137 258.646)"/><use xlink:href="#aA" transform="matrix(11.04 0 0 -11.04 56.137 256.464)"/><use xlink:href="#aC" transform="matrix(11.04 0 0 -11.04 61.372 256.464)"/><use xlink:href="#o" transform="matrix(10.944 0 0 -11.52 67.565 258.024)"/><symbol id="aF"><path transform="matrix(.001 0 0 .001 -.069 .101)" d="M730 38c0-54 3-136 18-137 39-2 39 134 41 210l12 605c1 56 16 63-38 81-43 14-97 25-108 25-17 0-50-11-6-28 12-5 81-46 81-62V273s-79-19-126-28c-91-17-158-27-158-26 0 0 1 25 2 41 1 19 3 47 2 48 1 29 11 36-23 45-23 6-79 11-91 5-11-6-23-16 5-20 19-3 43-20 43-27l1-101c0-1-119-14-163-15-93-2-123 4-128 5-25 3-21-12-2-24 23-15 63-29 92-39 60-21 50 1 71 5 2 0 113 20 223 46 172 40 252 71 252 69zM148 575c8-8 54-28 71-32 24-6 36 6 42 7 4 1 69 11 102 13 63 4 121 9 120 8 1 0-45-65-170-143-122-76-213-106-223-111-13-6 1-16 14-11 9 3 73 23 135 47 113 44 169 89 171 88 2 1 42-19 142-44 40-10 70-21 84-20 28 2 33 24 18 39-6 6-28 21-63 29-18 4-84-4-107 1l-48 10c-2 0 32 23 61 45 35 27 70 61 71 62 6 5 30 21 28 32-3 16-60 13-67 12-11-2-25-9-47-10-2 0-94-7-154-8-75-1-111-5-151 1-44 7-42-2-29-15zm133 166c-36 9-10-17-4-24 11-13 52-44 62-44 10-7 123 0 133-1 28-2 55 36 4 52-11 3-103 3-127 5s-61 10-68 12z"/></symbol><symbol id="aG"><path transform="matrix(.001 0 0 .001 -.072 .113)" d="m570 417 1-83c1-50 5-70 19-69 25 2 38 74 41 132l1 17 128 7V275c0-70 2-108 19-105 32 5 42 114 44 210l6 345c1 41 14 54-28 69-22 8-81 28-100 28-22 0-53-11-14-28 7-3 73-37 73-59V451l-128-6 2 242c0 35 16 46-35 62-23 7-72 20-85 20-21 0-47-12-12-26 11-4 68-36 68-52V436c0-1-69-34-162-66-82-29-149-40-156-36-4 2-5 12-5 31l1 204c0 1 188 12 205 17 39 12 25 44-3 46-21 2-64 5-77-11-18-22-132-26-135-23-9 9-105 13-118 12-21-2-48-17-10-26 11-3 71-22 71-42l2-190c0-26 18-74 36-81 22-8 115 30 183 59 81 34 168 88 168 87zm8-229c1-1-39-85-125-163C366-54 285-88 276-94c-18-11 5-19 16-13 8 4 99 37 190 104 83 61 124 122 125 121 1 1 55-52 90-85C740-8 800-68 830-88c31-21 45 7 34 36-4 11-49 77-101 94-51 17-140 97-139 98-1 1 18 25 23 33 13 19 39 43-18 62-19 6-71 25-86 26-24 2-55-9-17-27 10-5 63-32 52-46z"/></symbol><symbol id="aH"><path transform="matrix(.001 0 0 .001 -.028 .119)" d="M423 634c-2-3-55-119-172-229C144 304 57 258 45 251c-17-10 5-16 14-11 8 4 100 43 224 139 139 107 204 228 204 228 20 22 51 64 10 66-20 1-51 3-61 1-18-4-31-12-48-13 0 0-70-7-149-8-33 0-110 1-138 7-33 7-34-11-15-21 11-6 60-26 82-32 30-8 35 9 69 12 0 0 33 5 84 8 48 3 101 7 102 7zm270 89V377c0-26 4-65 23-64 37 2 40 121 40 121l49 1c51 1 119 4 131 9 34 15 17 49-14 51-18 1-46 2-59-1-17-4-43-27-72-29l-34-2 4 261c1 33 21 55-39 73-29 9-92 26-110 25-27-2-47-14-11-29 12-5 92-52 92-70zm-29-488c1-1-11-82-78-196-56-95-99-131-109-140-14-12 6-14 14-7 5 4 55 37 110 99 56 63 89 130 89 130l41-63c44-67 85-138 93-143 30-19 43 1 34 50-4 21-33 70-41 77-13 11-59 38-84 71l-28 37s3 14 11 35c5 12 14 40 14 40 8 24 34 43-22 62-22 7-67 22-81 24-22 3-56-5-17-26 8-4 62-30 54-50zM283 112l136 8V-10l-138-7zM477 3l5 215c1 43 19 54-30 64-22 5-61 15-75 14-23-1-44-14-9-26 12-4 50-28 50-43v-73l-135-8v42c0 29 15 52-46 58-32 3-50 5-73 6s-48-17-15-24c16-3 72-25 72-46l4-217c1-56 8-81 21-82 26-2 33 63 33 63 1 1 42 5 67 6 28 1 73 7 73 6 0 0 4-57 24-55 25 3 33 49 34 100z"/></symbol><use xlink:href="#aF" transform="matrix(10.944 0 0 -11.52 83.45 257.77)"/><use xlink:href="#aG" transform="matrix(10.944 0 0 -11.52 93.803 257.909)"/><use xlink:href="#aH" transform="matrix(10.944 0 0 -11.52 103.642 257.978)"/><use xlink:href="#aj" transform="matrix(10.944 0 0 -11.52 113.907 257.436)"/><symbol id="aI"><path transform="matrix(.001 0 0 .001 -.031 .125)" d="M409 411c-1 1 33 33 66 85s54 77 54 81c18 27 44 48 2 55-22 4-63 3-65-1-5-9-91-12-137-14-115-6-187 0-205 6-29 9-36-5-8-22 98-60 109-30 124-28 6-1 42 9 99 13 64 4 117 6 116 5 2 0-37-89-153-214C197 264 57 166 46 160c-15-9 2-21 23-7 17 11 83 44 162 101 99 71 156 136 157 135 1 1 45-42 85-86 48-53 71-74 88-94 23-27 52-9 39 26-9 23-35 80-74 96-69 28-119 78-117 80zM795 97l3 618c0 43 25 64-35 81-44 12-93 26-118 26-21 0-49-12-10-27 21-8 95-41 95-62l1-769c0-27 3-86 17-87 38-2 46 112 47 220z"/></symbol><symbol id="aJ"><path transform="matrix(.001 0 0 .001 -.013 -.022)" d="M738 105c-1 0-54-1-95-4-55-4-102-6-102-6l7 138c2 38 15 52-31 60-23 4-62 6-76 6-16 0-53-13-12-26 10-3 48-14 48-37l2-144s-122-4-178-3c-159 2-228 14-242 19-29 11-46-1-19-21 11-8 67-37 108-53 32-12 64 16 94 17 2 0 90 7 272 13 92 3 197 5 257 1 67 0 152-13 172-11 35 3 39 48 3 59-17 5-108 18-123 14-14-4-28-20-85-22zM329 395l8 228 270 3c29 0 158 5 167 9 32 15 19 49-13 52-22 2-69 5-81 1-15-5-53-28-84-29l-251-6c-18 0-27 9-56 12-18 2-72 11-92 8-24-3-58-19-10-32 13-4 76-22 76-44l1-181c0-30 1-63 28-77 22-12 57-13 95-12l234 5c62 1 148 2 160 6 41 13 26 50-16 53-12 1-70 4-81 0-12-4-36-22-72-25-1 0-65-7-121-9-41-1-117-1-117-1-15 0-27 3-37 10-5 4-8 17-8 29z"/></symbol><symbol id="aK"><path transform="matrix(.001 0 0 .001 -.022 .124)" d="M341 595c-7 8-115 15-123 15-26-1-51-16-12-27 13-4 71-20 71-38l1-61c0-29 2-53 30-65 22-9 55-8 89-7l62 2c1 0 2-23 4-67 1-17 2-44 2-44 0-1-106-6-168-7-112-1-180 0-232 14-29 8-43-4-17-23 10-7 56-30 96-46 31-12 52 10 89 13 2 0 110 17 267 22 106 4 184 5 301 0 53-2 118-10 137-8 43 4 39 52-7 59-11 2-113 20-139 2-12-8-122-15-161-18-35-3-109-5-109-4-1 0 5 22 7 54 1 21 1 55 2 55 0 1 64 2 101 6 40 4 91 2 103 6 40 14 30 53-10 53-27 0-76 4-92-9-28-23-70-21-124-25-39-3-121-5-122-5-15-1-29-2-35 4-4 4-5 11-5 25l3 87c1 0 43 3 132 8 200 11 236-3 238 27 1 20-37 17-36 19-1 1 8 26 21 58 8 19 22 48 21 50 7 17 44 47-13 48-10 0-66 8-72-1-5-7-108-14-210-17-124-4-195-1-212 4-29 9-41-2-20-17 15-11 64-33 86-39 25-7 38 9 70 12 0 0 89 8 132 11 63 4 163 8 164 8 0-1 1-17-2-50-4-52-10-68-10-70-3 0-68-8-156-12-66-3-139-5-142-2zm313-440V-34c0-69 8-90 22-88 26 3 42 75 43 155l1 108c0 24 29 49-25 54-16 1-49 2-56-7-3-4-99-9-188-13-77-3-171-5-205 4-26 7-36-4-19-18 15-12 44-24 77-37 29-11 49 10 80 12 1 0 33 3 133 10 101 7 136 9 137 9z"/></symbol><use xlink:href="#o" transform="matrix(10.944 0 0 -11.52 129.365 258.024)"/><use xlink:href="#aI" transform="matrix(10.944 0 0 -11.52 139.794 258.047)"/><use xlink:href="#aJ" transform="matrix(10.944 0 0 -11.52 149.918 256.354)"/><use xlink:href="#aK" transform="matrix(10.944 0 0 -11.52 160.336 258.035)"/><use xlink:href="#r" transform="matrix(10.944 0 0 -11.52 175.761 258.035)"/><use xlink:href="#x" transform="matrix(10.944 0 0 -11.52 186.049 257.01)"/><symbol id="aL"><path transform="matrix(.001 0 0 .001 -.026 .049)" d="M461 717c1-1-31-45-136-121S107 477 92 475c-14-2-11-16 12-12 18 3 134 36 223 84 102 55 142 91 142 91s78-31 163-59c82-27 122-42 161-53 36-10 58 21 24 42-27 17-80 44-107 41-71-9-219 45-219 45s18 16 32 29c18 17 29 29 29 29 11 11 24 29-17 44-28 10-88 30-120 30-14 0-30-14-6-19 18-4 59-44 52-50zM222 330c5-1 74 10 129 12 76 3 118 9 118 9l1-179c0-35 0-115 16-115 33-1 49 74 50 174l1 124s222 7 368-13c66-9 64 48 21 57-41 9-99 19-113 10-28-18-96-18-316-28-178-8-355-10-429 7-42 10-27-14-3-27 127-69 133-33 157-31zm60-204V23c0-23 3-43 22-53 24-13 49-16 81-16 11-2 219 1 354-2 35-1 47 44 8 51-35 6-83 11-94 0-23-23-130-23-167-23-38 0-90-2-97 0-6 0-28 3-32 8-6 7-5 27-5 40l2 100c1 29 19 57-41 58-30 1-75 11-98 4-14-4-32-19-2-26 18-4 69-23 69-38z"/></symbol><symbol id="aM"><path transform="matrix(.001 0 0 .001 -.004 .13)" d="M356 578c1-1-31-95-130-214-77-93-193-187-205-193-17-9-5-24 20-7 16 11 73 43 149 107 95 80 127 129 128 128 1 1 43-57 80-110 40-57 62-95 78-111 17-17 59 1 30 55-18 33-28 68-76 94-40 22-92 92-91 93-1 1 31 41 61 91 22 36 38 70 38 71 8 15 31 37-17 53-24 8-101 33-124 32-15-1-39-13-10-26 16-7 81-43 69-63zM730-14c0-44 0-112 16-113 39-3 46 130 47 230l6 611c0 41 29 66-43 84-32 8-82 25-107 24-22-1-44-20-18-26 21-5 99-47 99-64V440c0-1-204-14-227-7-31 9-31-7-13-18 13-8 39-21 61-30 21-8 42 10 56 11l123 10z"/></symbol><symbol id="aN"><path transform="matrix(.001 0 0 .001 -.029 .108)" d="M251 602c2-2-20-48-68-112-64-85-134-140-141-145-13-8 2-17 17-8 14 9 60 39 110 82 64 55 88 91 89 90 1 1 16-20 26-39 13-24 18-33 27-49 10-18 44-18 45 8 1 23-1 49-35 67-19 10-47 30-46 31-2 1 9 15 26 38 11 15 19 25 19 27 11 16 28 33-9 50-16 7-72 31-94 32-21 1-32-12-10-20 15-5 53-37 44-52zm244 24c1-1-35-95-92-178-84-123-188-210-196-215-13-9 0-18 15-9 17 10 81 58 157 130 72 68 105 120 106 119 1 1 24-34 49-75 20-33 30-56 41-73 18-29 50-17 50 14 0 24-10 66-45 86-41 24-82 64-81 65-2 2 21 34 35 60 17 32 32 60 31 62 10 19 25 42-15 57-23 8-66 31-88 32-21 1-40-10-19-19 22-9 59-42 52-56zm260-193 5 283c1 30 30 61-37 79-32 9-92 29-111 26-24-4-41-17-7-30 18-7 88-38 88-56V270c0-26 5-79 15-80 32-4 41 70 43 123l4 90h63c39 0 84 4 109 4 31 0 38 47-3 53-27 4-68 7-79-3-31-29-90-27-90-24zM561 252c-24 2-20-10-9-18 37-28 8-49 7-50 0-2-166-5-162-153 2-62 75-139 186-136 97 3 169 72 164 151-7 113-149 136-149 136s40 26 19 42c-10 8-42 27-56 28zm9-107c58 4 116-34 115-98-1-61-42-103-107-103-53 0-100 26-113 82-13 57 28 114 105 119z"/></symbol><use xlink:href="#aL" transform="matrix(10.944 0 0 -11.52 201.42 257.171)"/><use xlink:href="#aM" transform="matrix(10.944 0 0 -11.52 211.499 258.105)"/><use xlink:href="#aN" transform="matrix(10.944 0 0 -11.52 222.093 257.851)"/><use xlink:href="#ar" transform="matrix(11.04 0 0 -11.04 238.835 258.083)"/><use xlink:href="#aA" transform="matrix(11.04 0 0 -11.04 241.897 256.464)"/><use xlink:href="#as" transform="matrix(11.04 0 0 -11.04 247.64 258.022)"/><use xlink:href="#aC" transform="matrix(11.04 0 0 -11.04 253.732 256.464)"/><use xlink:href="#at" transform="matrix(11.04 0 0 -11.04 259.08 258.09)"/><use xlink:href="#I" transform="matrix(11.04 0 0 -11.04 265.23 254.119)"/><use xlink:href="#ar" transform="matrix(11.04 0 0 -11.04 276.275 258.083)"/><symbol id="aO"><path d="M.814.162C.806.164.801.164.8.162.798.161.795.157.793.15V.146A12.726 12.726 0 0 0 .776.103a.222.222 0 0 0-.02-.039.125.125 0 0 0-.029-.029A.06.06 0 0 0 .69.021C.675.021.667.031.666.05.665.063.667.077.673.092l.006.02.03.086a.934.934 0 0 1 .029.097c.006.027.008.05.006.068a.094.094 0 0 1-.028.06.096.096 0 0 1-.037.022.188.188 0 0 1-.102 0A.132.132 0 0 1 .535.424.27.27 0 0 1 .467.355a.169.169 0 0 1-.01.04.082.082 0 0 1-.022.032.094.094 0 0 1-.039.02.198.198 0 0 1-.1-.003.175.175 0 0 1-.05-.026A.154.154 0 0 1 .22.395.16.16 0 0 1 .197.366a.092.092 0 0 1-.028.062.088.088 0 0 1-.103.013A.074.074 0 0 1 .04.412.387.387 0 0 1 0 .295C.002.292.005.29.008.289c.006 0 .01 0 .013.004A.046.046 0 0 1 .03.312a.438.438 0 0 0 .03.087c.005.01.01.019.018.024A.042.042 0 0 0 .102.43C.12.43.13.42.133.402A.133.133 0 0 0 .131.355L.053.045a.05.05 0 0 1 0-.03C.055.006.063 0 .077 0 .086 0 .094.003.1.008a.034.034 0 0 1 .015.02l.042.168.03.114a.287.287 0 0 0 .04.061.206.206 0 0 0 .059.046c.009.005.019.008.03.01A.196.196 0 0 0 .35.432C.36.43.368.429.375.426a.058.058 0 0 0 .02-.019.089.089 0 0 0 .009-.042.198.198 0 0 0-.005-.044 8.126 8.126 0 0 1-.04-.16L.329.035A.028.028 0 0 1 .334.011C.339.004.347 0 .357 0c.014 0 .024.006.031.018.005.007.01.019.013.036l.001.003.06.238a.2.2 0 0 0 .075.103c.013.011.026.02.037.024A.147.147 0 0 0 .628.43.06.06 0 0 0 .653.426.034.034 0 0 0 .671.409.1.1 0 0 0 .68.36.228.228 0 0 0 .673.31a1.017 1.017 0 0 0-.03-.1A3.61 3.61 0 0 0 .613.121a.093.093 0 0 1 .003-.08C.63.014.654 0 .688 0 .7 0 .711.002.72.006A.08.08 0 0 1 .75.02a.328.328 0 0 1 .063.105l.001.005a.162.162 0 0 1 .005.018c.001.009 0 .013-.004.013z"/></symbol><use xlink:href="#aO" transform="matrix(11.04 0 0 -11.04 279.211 256.464)"/><use xlink:href="#as" transform="matrix(11.04 0 0 -11.04 288.8 258.022)"/><symbol id="aP"><path d="M.537.162C.529.164.524.164.522.162.52.161.518.157.515.15V.146a.499.499 0 0 0-.04-.088A.106.106 0 0 0 .447.03a.063.063 0 0 0-.034-.01C.398.021.39.031.389.05a.098.098 0 0 0 .006.042l.006.016.032.09c.013.037.022.069.029.097.005.027.007.05.004.07a.096.096 0 0 1-.065.081.185.185 0 0 1-.103-.002.186.186 0 0 1-.079-.05.16.16 0 0 1-.022-.028.097.097 0 0 1-.028.063.09.09 0 0 1-.103.012A.085.085 0 0 1 .04.412.443.443 0 0 1 .003.31C0 .306 0 .3 0 .298.002.292.006.289.012.289c.005 0 .009.002.011.006a.096.096 0 0 1 .005.014l.001.003a.505.505 0 0 0 .03.087C.063.41.07.42.077.424A.046.046 0 0 0 .102.43c.02 0 .03-.013.03-.038A.254.254 0 0 0 .126.334V.333L.053.045a.054.054 0 0 1 0-.03C.055.005.063 0 .078 0a.039.039 0 0 1 .037.027l.033.135.038.148A.363.363 0 0 0 .21.349c.009.013.019.024.029.033.016.017.033.03.05.037A.152.152 0 0 0 .35.43C.36.43.368.429.375.426a.058.058 0 0 0 .02-.019.09.09 0 0 0 .009-.05.323.323 0 0 0-.008-.052A1.563 1.563 0 0 0 .342.139L.336.117A.084.084 0 0 1 .33.071.075.075 0 0 1 .352.024.074.074 0 0 1 .378.007.084.084 0 0 1 .412 0c.01 0 .021.002.031.006.01.004.02.01.028.016a.258.258 0 0 1 .065.105v.004A.114.114 0 0 1 .54.149C.542.158.54.162.537.162z"/></symbol><use xlink:href="#aP" transform="matrix(11.04 0 0 -11.04 294.691 256.464)"/><use xlink:href="#at" transform="matrix(11.04 0 0 -11.04 301.8 258.09)"/><use xlink:href="#C" transform="matrix(10.944 0 0 -11.52 307.72 258.035)"/><use xlink:href="#R" transform="matrix(10.944 0 0 -11.52 317.602 258.058)"/><symbol id="aQ"><path transform="matrix(.001 0 0 .001 -.014 .123)" d="M398 393c-1 1 35 41 65 86 31 47 56 87 56 91 17 27 43 46 1 53-22 4-68 1-70-3-4-7-79-12-125-14-115-6-184-4-207 2-42 11-30-12-2-27 90-49 104-19 119-17 6-1 38 6 95 10 64 4 112 8 111 7 2 0-30-84-114-188C211 250 40 131 29 125c-15-9 0-22 23-9 17 10 72 44 151 101 99 71 174 157 175 156 1 1 30-32 65-85 40-60 51-85 70-108 26-31 55-11 47 31-6 31-27 86-66 104-50 23-98 76-96 78zm359-62 3 385c0 43 26 59-27 75-35 11-107 33-128 30-18-3-41-16-8-28 20-7 96-42 96-64V-11c0-27 0-112 15-112 36 0 45 106 46 204l3 217 61 3c39 2 91 1 116 5 32 5 37 48 2 55-20 4-76 6-83-3-22-27-96-30-96-27z"/></symbol><use xlink:href="#r" transform="matrix(10.944 0 0 -11.52 22.161 274.715)"/><use xlink:href="#aQ" transform="matrix(10.944 0 0 -11.52 32.328 274.704)"/><use xlink:href="#D" transform="matrix(10.944 0 0 -11.52 43.25 273.529)"/><use xlink:href="#ap" transform="matrix(11.04 0 0 -11.04 51.756 273.025)"/><symbol id="aR"><path d="M.414.226a.245.245 0 0 1-.058.159.198.198 0 0 1-.064.048.19.19 0 0 1-.076.015A.117.117 0 0 1 .138.42.16.16 0 0 1 .09.35v.023c0 .03.001.06.005.086a.384.384 0 0 0 .014.066.216.216 0 0 0 .054.092.138.138 0 0 0 .15.036.08.08 0 0 0 .04-.03.072.072 0 0 1-.04-.01C.303.606.298.594.298.577.298.564.302.553.31.545A.043.043 0 0 1 .344.53c.013 0 .024.005.033.015C.385.555.39.566.39.58.39.596.387.61.382.622a.107.107 0 0 1-.024.034.11.11 0 0 1-.04.025.212.212 0 0 1-.155-.019.222.222 0 0 1-.08-.066.349.349 0 0 1-.064-.121A.485.485 0 0 1 0 .338c0-.053.004-.1.013-.139A.325.325 0 0 1 .069.07.174.174 0 0 1 .21 0a.19.19 0 0 1 .078.016c.024.01.046.025.067.045C.373.084.388.11.398.14c.01.027.016.056.016.087m-.09 0v-.01c0-.028 0-.049-.002-.063a.206.206 0 0 0-.014-.06.116.116 0 0 0-.04-.047A.101.101 0 0 0 .21.027a.096.096 0 0 0-.076.037.159.159 0 0 0-.034.079.327.327 0 0 0-.006.052L.092.247C.092.27.094.29.098.31A.187.187 0 0 0 .12.366c.012.02.025.035.04.044.015.01.033.016.055.016C.235.426.254.42.27.409A.13.13 0 0 0 .307.363.156.156 0 0 0 .32.303.545.545 0 0 0 .324.239V.227z"/></symbol><use xlink:href="#aR" transform="matrix(11.04 0 0 -11.04 56.519 273.263)"/><use xlink:href="#ar" transform="matrix(11.04 0 0 -11.04 63.155 274.763)"/><use xlink:href="#aO" transform="matrix(11.04 0 0 -11.04 66.091 273.144)"/><use xlink:href="#E" transform="matrix(11.04 0 0 -11.04 76.95 273.192)"/><use xlink:href="#aP" transform="matrix(11.04 0 0 -11.04 86.371 273.144)"/><use xlink:href="#E" transform="matrix(11.04 0 0 -11.04 94.23 273.192)"/><use xlink:href="#ay" transform="matrix(11.04 0 0 -11.04 103.12 275.17)"/><use xlink:href="#E" transform="matrix(11.04 0 0 -11.04 110.79 273.192)"/><use xlink:href="#az" transform="matrix(11.04 0 0 -11.04 120.457 275.17)"/><use xlink:href="#at" transform="matrix(11.04 0 0 -11.04 125.88 274.77)"/><use xlink:href="#y" transform="matrix(10.944 0 0 -11.52 131.274 274.727)"/><use xlink:href="#aH" transform="matrix(10.944 0 0 -11.52 146.721 274.658)"/><use xlink:href="#h" transform="matrix(10.944 0 0 -11.52 156.932 273.84)"/><symbol id="aS"><path transform="matrix(.001 0 0 .001 -.049 .016)" d="M221 187c0 49-5 108 55 185 35 47 98 112 98 199 0 62-27 125-116 125-67 0-124-40-124-78 0-32 23-30 23-69 0-60-108-71-108 17 0 76 88 156 211 156 116 0 198-63 198-163 0-120-100-142-165-232-35-53-43-91-43-140zm17-95c37 0 54-27 54-54s-17-54-54-54c-38 0-55 27-55 54s17 54 55 54z"/></symbol><use xlink:href="#aS" transform="matrix(10.944 0 0 -11.52 167.591 273.471)"/><use xlink:href="#j" transform="matrix(10.944 0 0 -11.52 178.546 274.22)"/><symbol id="aT"><path transform="matrix(.001 0 0 .001 -.043 .046)" d="M693 421s-92-37-277-67c-72-12-182-27-191-19-5 4-6 14-6 30l2 226 153 9c32 2 109 3 121 7 34 11 20 46-12 48-21 2-48 2-61-2-14-4-42-24-67-26-1 0-39-3-64-4-33-1-62-2-62-2-16-1-27 8-59 10-18 1-63 7-77 6-24-2-50-17-12-27 11-3 69-24 69-45l4-214c1-31 12-69 31-81 14-9 182 27 257 48 157 44 251 87 251 87V179c0-34 5-84 23-83 28 1 40 95 41 163l2 139 61 3c46 2 110 2 119 6 39 18 14 47-12 49-17 1-52 4-66-2-13-6-40-24-68-25l-33-1 6 292c1 48 20 60-39 76-29 8-92 26-104 26-25 0-54-14-19-27 12-5 89-42 89-66zM393 137l2-94c1-34 2-60 28-76 18-11 42-13 70-13l182 2c58 1 139-2 148 1 44 16 28 51-8 56-17 2-54 7-68 3-16-5-43-27-88-28l-169-4c-12 0-19 1-26 6-3 2-5 15-5 23l4 124c1 40 18 64-43 64-28 0-74 6-90 4-28-4-50-22-10-31 9-2 73-18 73-37z"/></symbol><use xlink:href="#aT" transform="matrix(10.944 0 0 -11.52 182.046 273.817)"/><use xlink:href="#Q" transform="matrix(10.944 0 0 -11.52 192.497 275.326)"/><use xlink:href="#aA" transform="matrix(11.04 0 0 -11.04 200.497 273.144)"/><use xlink:href="#Q" transform="matrix(10.944 0 0 -11.52 206.537 275.326)"/><use xlink:href="#aC" transform="matrix(11.04 0 0 -11.04 214.612 273.144)"/><use xlink:href="#Q" transform="matrix(10.944 0 0 -11.52 219.737 275.326)"/><use xlink:href="#ay" transform="matrix(11.04 0 0 -11.04 226.96 275.17)"/><use xlink:href="#Q" transform="matrix(10.944 0 0 -11.52 233.657 275.326)"/><use xlink:href="#az" transform="matrix(11.04 0 0 -11.04 241.657 275.17)"/><use xlink:href="#x" transform="matrix(10.944 0 0 -11.52 247.969 273.69)"/><symbol id="aU"><path transform="matrix(.001 0 0 .001 -.016 .105)" d="M347 615c1-1-43-87-152-190-68-64-142-115-154-120-13-5-25-28 14-13 17 6 78 35 147 86 87 64 137 123 138 122 1 1 38-42 82-98 36-46 49-69 69-86 14-12 37-3 34 27-5 45-34 91-82 112-40 18-87 61-86 62-2 1 27 32 44 56 24 34 29 42 28 44 11 18 22 34-33 52-29 10-75 29-94 30-28 1-37-13-18-23 18-9 73-48 63-61zm408-173 6 270c1 43 34 66-41 85-32 8-88 28-107 25-24-4-42-18-7-28 17-5 87-42 87-63V324c0-26 2-107 16-109 32-4 40 64 43 122l4 74h63c39 0 87 4 112 4 31 0 42 49 2 54-27 3-69 2-78-6-30-28-100-24-100-21zM566 272c-23 5-29-7-13-18 7-5 19-22 13-34-6-11-17-14-18-15S386 186 393 48c4-80 70-147 176-150 104-3 187 69 184 157-5 133-159 150-159 150s38 23 17 42c-10 9-32 22-45 25zm8-106c58 1 118-47 117-111-1-71-63-106-120-106-61 0-112 51-112 108 0 50 28 108 115 109z"/></symbol><symbol id="aV"><path transform="matrix(.001 0 0 .001 -.024 .103)" d="M478 714c1-1-42-57-129-123-98-74-249-138-260-141-18-6-13-18 15-10 14 4 138 44 224 89 112 58 158 100 158 100s71-34 159-68c58-22 131-55 177-66 24-6 58 15 4 56-35 27-128 53-139 50-32-10-177 46-177 46s16 19 28 30c15 14 27 27 27 27 11 11 36 30-15 51-30 13-84 34-110 36-15 1-36-14-11-27 19-10 59-40 49-50zM226 305c5 1 46 7 117 12 57 4 132 8 132 8l3-319c1-72 5-108 16-108 40-1 44 120 45 200l3 230s258 2 377-7c51-4 59 47 12 57-26 6-102 14-115 7-41-24-77-19-312-30-280-13-406-3-438 7-42 13-29-15-14-21 23-9 72-37 97-46 30-11 60 8 77 10z"/></symbol><use xlink:href="#aU" transform="matrix(10.944 0 0 -11.52 263.35 274.497)"/><use xlink:href="#aV" transform="matrix(10.944 0 0 -11.52 273.758 274.474)"/><use xlink:href="#C" transform="matrix(10.944 0 0 -11.52 284.68 274.715)"/><use xlink:href="#f" transform="matrix(10.944 0 0 -11.52 294.398 274.727)"/><use xlink:href="#D" transform="matrix(10.944 0 0 -11.52 305.21 273.529)"/><use xlink:href="#l" transform="matrix(10.944 0 0 -11.52 307.785 274.209)"/></g><clipPath id="aW"><path transform="matrix(1 0 0 -1 -77.265 1039.927)" d="M0 1190h840.88V0H0z" fill-rule="evenodd"/></clipPath></g></svg>