<svg xmlns="http://www.w3.org/2000/svg" xmlns:xlink="http://www.w3.org/1999/xlink" width="255.57" height="407.018" viewBox="0 0 141.983 226.121"><clipPath id="a"><path transform="matrix(1 0 0 -1 -226.121 318.132)" d="M0 0h595.276v841.89H0z"/></clipPath><g clip-path="url(#a)"><symbol id="b"><path d="M.266.165V.078C.266.042.264.031.19.031H.169V0C.21.003.262.003.304.003.346.003.399.003.44 0v.031H.419C.345.031.343.042.343.078v.087h.1v.031h-.1v.455c0 .02 0 .026-.016.026-.009 0-.012 0-.02-.012L0 .196V.165h.266m.006.031H.028l.244.373V.196z"/></symbol><symbol id="c"><path d="M.232.01c0 .003 0 .005-.017.022C.09.158.058.347.058.5c0 .174.038.348.161.473.013.012.013.014.013.017 0 .007-.004.01-.01.01-.01 0-.1-.068-.159-.195A.727.727 0 0 1 0 .5C0 .422.011.301.066.188A.432.432 0 0 1 .222 0c.006 0 .01.003.01.01z"/></symbol><symbol id="d"><path d="M.399.223c0 .119-.082.219-.19.219A.176.176 0 0 1 .082.391v.195A.317.317 0 0 1 .167.573C.29.573.36.664.36.677.36.683.357.688.35.688c-.001 0-.003 0-.008-.003A.33.33 0 0 0 .073.684L.061.687c-.01 0-.01-.008-.01-.024V.367c0-.018 0-.026.014-.026.007 0 .009.003.013.009.011.016.048.07.129.07C.259.42.284.374.292.356A.308.308 0 0 0 .31.23C.31.195.31.135.286.093A.125.125 0 0 0 .179.028.156.156 0 0 0 .032.14C.035.139.038.138.049.138c.033 0 .05.025.05.049a.048.048 0 0 1-.05.049C.035.236 0 .229 0 .183 0 .097.069 0 .181 0a.22.22 0 0 1 .218.223z"/></symbol><use xlink:href="#b" transform="matrix(10.9091 0 0 -10.9091 61.152 -52.011)"/><use xlink:href="#c" transform="matrix(10.9091 0 0 -10.9091 68.577 -56.767)"/><use xlink:href="#d" transform="matrix(10.9091 0 0 -10.9091 72.286 -59.254)"/><symbol id="e"><path d="M.214.694c0 .001 0 .011-.013.011C.178.705.105.697.079.695.071.694.06.693.06.674.06.663.07.663.085.663.133.663.134.654.134.646L.131.626l-.126-.5C.002.115 0 .108 0 .092A.09.09 0 0 1 .091 0c.033 0 .058.02.075.056.018.038.03.096.03.098 0 .01-.009.01-.012.01C.174.164.173.16.17.146.153.081.134.022.094.022c-.03 0-.03.032-.03.046A.14.14 0 0 0 .07.116l.144.578z"/></symbol><use xlink:href="#e" transform="matrix(10.9091 0 0 -10.9091 77.674 -59.374)"/><symbol id="f"><path d="M.576 0c.017 0 .035 0 .035.02S.593.04.576.04H.035C.018.04 0 .04 0 .02S.018 0 .035 0h.541z"/></symbol><use xlink:href="#f" transform="matrix(10.9091 0 0 -10.9091 83.993 -62.003)"/><symbol id="g"><path d="M.205.64c0 .024 0 .026-.023.026C.12.602.032.602 0 .602V.571a.3.3 0 0 1 .131.026V.079C.131.043.128.031.038.031H.006V0c.035.003.122.003.162.003.04 0 .127 0 .162-.003v.031H.298c-.09 0-.093.011-.093.048V.64z"/></symbol><symbol id="h"><path d="M.232.5a.729.729 0 0 1-.066.312A.432.432 0 0 1 .01 1C.004 1 0 .996 0 .99 0 .987 0 .985.019.967.117.868.174.709.174.5.174.329.137.153.013.027 0 .015 0 .013 0 .01 0 .004.004 0 .01 0c.01 0 .1.068.159.195C.22.305.232.416.232.5z"/></symbol><use xlink:href="#g" transform="matrix(10.9091 0 0 -10.9091 94.968 -59.494)"/><use xlink:href="#h" transform="matrix(10.9091 0 0 -10.9091 100.073 -56.767)"/><symbol id="i"><path d="M.257.735C.372.724.456.644.456.542A.158.158 0 0 0 .431.454.627.627 0 0 1 .543.447c.038.001.082.002.109.004v.215A1.294 1.294 0 0 1 .456.645L.43.702A.626.626 0 0 1 .543.695c.038.001.082.002.109.004v.132C.652.875.613.899.53.919l.011.026C.606.937.677.923.728.913a.448.448 0 0 1-.01-.082V.284C.718.203.711.064.701.005L.66 0a2.43 2.43 0 0 0-.008.213v.205A1.294 1.294 0 0 1 .456.397L.431.453C.395.388.319.347.227.347.097.347 0 .43 0 .542c0 .107.091.19.213.195C.212.755.203.765.171.775l.01.019.09-.017C.266.764.26.751.257.735m.13-.19a.155.155 0 0 1-.158.156.155.155 0 1 1 0-.31c.091 0 .158.066.158.154z"/></symbol><use xlink:href="#i" transform="matrix(10.9091 0 0 -10.9091 -149.033 -31.552)"/><symbol id="j"><path d="M.467.778.49.757A.995.995 0 0 0 .022.221L0 .242a.908.908 0 0 1 .395.481L.205.718A1.43 1.43 0 0 1 .067.704L.029.765a1.56 1.56 0 0 1 .438.013m.066.141.011.026C.609.937.68.923.731.913a.448.448 0 0 1-.01-.082V.284C.721.203.714.064.704.005L.663 0a2.43 2.43 0 0 0-.008.213v.618c0 .044-.039.068-.122.088z"/></symbol><use xlink:href="#j" transform="matrix(10.9091 0 0 -10.9091 -138.887 -31.552)"/><symbol id="k"><path d="M.236.714C.325.704.394.647.408.571a1.706 1.706 0 0 1 .117.002v.216c0 .043-.022.066-.099.086l.011.026C.501.893.547.885.598.872a.46.46 0 0 1-.01-.083v-.47A2.38 2.38 0 0 0 .57.04L.532.035C.528.085.525.173.525.248v.291A.637.637 0 0 1 .41.523C.402.429.316.361.206.361.088.361 0 .437 0 .539c0 .097.082.172.192.177C.191.734.182.744.151.754l.01.019.088-.017A.23.23 0 0 1 .236.714M.349.542c0 .08-.06.142-.142.142A.14.14 0 0 1 .065.542c0-.08.061-.14.142-.14.082 0 .142.06.142.14m.237.377.011.026C.661.936.719.924.77.913A.448.448 0 0 1 .76.831V.284A2.39 2.39 0 0 0 .743.005L.703 0C.699.05.695.138.695.213v.618c0 .043-.027.067-.109.088z"/></symbol><use xlink:href="#k" transform="matrix(10.9091 0 0 -10.9091 -128.426 -31.552)"/><symbol id="l"><path d="M.306.576C.376.504.457.427.553.357L.496.302C.426.383.362.462.287.547A1.008 1.008 0 0 0 .019.278L0 .298a.847.847 0 0 1 .302.443c.005.018.01.025-.006.036a.483.483 0 0 1-.06.034l.016.021C.305.818.353.806.404.786a.956.956 0 0 0-.098-.21M.69.568A1.813 1.813 0 0 1 .46.549L.434.606A.626.626 0 0 1 .547.599C.584.6.648.6.69.602v.229C.69.875.651.899.568.919l.011.026C.644.937.715.923.766.913a.448.448 0 0 1-.01-.082V.284C.756.203.749.064.739.005L.698 0A2.43 2.43 0 0 0 .69.213v.355z"/></symbol><use xlink:href="#l" transform="matrix(10.9091 0 0 -10.9091 -118.411 -31.552)"/><use xlink:href="#d" transform="matrix(10.9091 0 0 -10.9091 -104.379 -33.232)"/><use xlink:href="#e" transform="matrix(10.9091 0 0 -10.9091 -98.99 -33.352)"/><use xlink:href="#f" transform="matrix(10.9091 0 0 -10.9091 -92.67 -35.981)"/><use xlink:href="#g" transform="matrix(10.9091 0 0 -10.9091 -81.696 -33.472)"/><symbol id="m"><path d="M.257.735C.372.724.456.644.456.542.456.43.357.347.227.347S0 .43 0 .542c0 .107.091.19.213.195C.212.755.203.765.171.775l.01.019.09-.017C.266.764.26.751.257.735m.13-.19a.155.155 0 0 1-.158.156.155.155 0 1 1 0-.31c.091 0 .158.066.158.154m.142.374L.54.945C.605.937.676.923.727.913a.448.448 0 0 1-.01-.082V.284C.717.203.71.064.7.005L.659 0a2.43 2.43 0 0 0-.008.213v.618c0 .044-.039.068-.122.088z"/></symbol><use xlink:href="#m" transform="matrix(10.9091 0 0 -10.9091 -75.056 -31.552)"/><use xlink:href="#b" transform="matrix(10.9091 0 0 -10.9091 -61.733 -33.472)"/><symbol id="n"><path d="M.345.806C.456.795.536.722.536.629.536.526.44.45.314.45S.095.526.095.629c0 .098.087.174.205.179C.298.824.288.834.258.844l.01.019C.298.857.327.853.359.846L.345.806m.12-.173a.145.145 0 0 1-.149.143.145.145 0 0 1-.15-.143c0-.081.065-.141.15-.141.086 0 .149.06.149.141M.687.338a3.815 3.815 0 0 0-.503-.08A2.075 2.075 0 0 1 .038.243L0 .306A.743.743 0 0 1 .141.297c.194.007.393.034.546.068v.466c0 .044-.039.068-.122.088l.011.026C.641.937.712.923.763.913a.448.448 0 0 1-.01-.082V.284C.753.203.746.064.736.005L.695 0a2.43 2.43 0 0 0-.008.213v.125z"/></symbol><use xlink:href="#n" transform="matrix(10.9091 0 0 -10.9091 -55.841 -31.552)"/><symbol id="o"><path d="M.342.34A2.033 2.033 0 0 1 .133.335L.126.297.086.291a.641.641 0 0 0-.007.096v.275C.079.707.065.723 0 .738l.01.024a1.15 1.15 0 0 0 .142-.02.396.396 0 0 1-.01-.077V.599C.202.6.265.604.34.612v.092c0 .044-.019.06-.089.077l.01.025C.315.8.363.794.414.784a.396.396 0 0 1-.01-.077V.443A.694.694 0 0 0 .388.308L.347.302.342.34M.34.383v.185A1.463 1.463 0 0 1 .142.563V.43A.399.399 0 0 0 .138.371c.061.001.13.005.202.012m.243.149c.051 0 .08.001.129.008v.291c0 .043-.027.067-.109.088l.011.026C.678.936.736.924.787.913a.448.448 0 0 1-.01-.082V.284A2.39 2.39 0 0 0 .76.005L.72 0C.716.05.712.138.712.213v.285C.661.497.634.494.583.491V.319A2.38 2.38 0 0 0 .565.04L.527.035C.523.085.52.173.52.248v.541C.52.832.498.855.421.875l.011.026C.496.893.542.885.593.872a.46.46 0 0 1-.01-.083V.532z"/></symbol><use xlink:href="#o" transform="matrix(10.9091 0 0 -10.9091 -41.972 -31.552)"/><symbol id="p"><path d="M.462.777C.564.72.693.671.828.629L.77.572C.674.628.546.692.439.753A1.01 1.01 0 0 0 .081.537L.062.559c.157.06.302.173.367.283.01.016.011.024-.005.035C.412.885.4.893.367.91l.017.023C.437.919.489.9.54.88A.527.527 0 0 0 .462.777m.04-.374V.221C.502.152.496.062.486.007L.443 0a1.84 1.84 0 0 0-.007.188v.214a8.78 8.78 0 0 1-.262-.01A2.358 2.358 0 0 1 .025.379L0 .447C.06.44.113.437.173.435.271.431.563.44.659.444.748.448.83.455.901.465L.891.401a5.644 5.644 0 0 1-.389.002z"/></symbol><use xlink:href="#p" transform="matrix(10.9091 0 0 -10.9091 -31.925 -31.585)"/><symbol id="q"><path d="M.705.474v-.19C.705.203.698.064.688.005L.647 0a2.43 2.43 0 0 0-.008.213v.618C.639.875.6.899.517.919l.011.026C.593.937.664.923.715.913a.448.448 0 0 1-.01-.082V.515C.758.517.831.525.9.536L.891.474c-.054.002-.134 0-.186 0M.459.778.482.757a.981.981 0 0 0-.46-.536L0 .242a.895.895 0 0 1 .387.481L.205.718A1.43 1.43 0 0 1 .067.704L.029.765a1.476 1.476 0 0 1 .43.013z"/></symbol><use xlink:href="#q" transform="matrix(10.9091 0 0 -10.9091 -21.376 -31.552)"/><symbol id="r"><path d="M.307.483A4.11 4.11 0 0 1 .178.478C.142.476.123.501.123.534v.163c0 .057-.012.07-.085.09l.011.024C.214.783.419.799.538.818L.526.758A2.632 2.632 0 0 1 .189.755V.554c0-.028.01-.035.048-.036.07-.002.198.009.312.029L.537.487C.487.488.43.487.373.485V.311c.113.013.219.031.311.052v.468c0 .044-.039.068-.122.088l.011.026C.638.937.709.923.76.913A.448.448 0 0 1 .75.831V.284C.75.203.743.064.733.005L.692 0a2.43 2.43 0 0 0-.008.213v.123a3.764 3.764 0 0 0-.5-.081A2.075 2.075 0 0 1 .038.24L0 .303A.743.743 0 0 1 .141.294C.197.296.253.3.307.304v.179z"/></symbol><use xlink:href="#r" transform="matrix(10.9091 0 0 -10.9091 -7.081 -31.552)"/><symbol id="s"><path d="M.257.735C.358.725.436.663.452.577A.834.834 0 0 1 .54.574c.039.001.084.002.111.005v.252c0 .044-.039.068-.122.088L.54.945C.605.937.676.923.727.913a.448.448 0 0 1-.01-.082V.284C.717.203.71.064.7.005L.659 0a2.43 2.43 0 0 0-.008.213v.332A1.202 1.202 0 0 1 .454.524C.445.421.35.347.227.347.097.347 0 .43 0 .542c0 .107.091.19.213.195C.212.755.203.765.171.775l.01.019.09-.017C.266.764.26.751.257.735m.13-.19a.155.155 0 0 1-.158.156.155.155 0 1 1 0-.31c.091 0 .158.066.158.154z"/></symbol><symbol id="t"><path d="M.257.735C.372.724.456.644.456.542.456.43.357.347.227.347S0 .43 0 .542c0 .107.091.19.213.195C.212.755.203.765.171.775l.01.019.09-.017C.266.764.26.751.257.735m.13-.19a.155.155 0 0 1-.158.156.155.155 0 1 1 0-.31c.091 0 .158.066.158.154m.298.096V.412C.739.413.817.42.889.433L.88.371c-.056.002-.144 0-.195 0V.284C.685.203.678.064.668.005L.627 0a2.43 2.43 0 0 0-.008.213v.618C.619.875.58.899.497.919l.011.026C.573.937.644.923.695.913a.448.448 0 0 1-.01-.082V.682C.739.683.817.69.889.703L.88.641c-.056.002-.144 0-.195 0z"/></symbol><use xlink:href="#s" transform="matrix(10.9091 0 0 -10.9091 3.49 -31.552)"/><use xlink:href="#t" transform="matrix(10.9091 0 0 -10.9091 13.537 -31.552)"/><symbol id="u"><path d="M.716.464v-.18C.716.203.709.064.699.005L.658 0A2.43 2.43 0 0 0 .65.213v.618C.65.875.611.899.528.919l.011.026C.604.937.675.923.726.913a.448.448 0 0 1-.01-.082V.505c.054.002.13.009.2.021L.907.464c-.055.002-.139 0-.191 0M.567.725.557.669C.467.67.245.664.161.66A1.931 1.931 0 0 1 .03.648L0 .709A.827.827 0 0 1 .131.698c.09.001.317.006.436.027M.495.421C.495.328.406.253.29.253.175.253.084.33.084.421c0 .101.091.17.206.17.122 0 .205-.079.205-.17m-.34.005c0-.071.059-.133.137-.133.075 0 .134.059.134.133a.131.131 0 0 1-.134.131C.214.557.155.502.155.426m.268.421L.411.8C.366.801.31.798.275.798A.839.839 0 0 1 .176.791L.147.849A.553.553 0 0 1 .262.834c.032 0 .1.005.161.013z"/></symbol><use xlink:href="#u" transform="matrix(10.9091 0 0 -10.9091 27.264 -31.552)"/><symbol id="v"><path d="M.675.346.717.35.704.296A5.466 5.466 0 0 1 .26.297a.168.168 0 0 0-.005-.04L.217.251a.597.597 0 0 0-.015.094L.185.583C.181.633.174.64.118.656l.011.025C.297.661.53.669.708.684A6.915 6.915 0 0 1 .675.346M.623.342l.008.292C.548.638.325.634.252.629l.01-.266v-.03c.1 0 .252.003.361.009M.881.087.871.023C.819.026.739.026.651.027.541.028.254.017.174.012.124.009.073.006.025 0L0 .068C.06.061.113.058.173.056c.098-.004.37.005.466.009.089.004.171.012.242.022z"/></symbol><use xlink:href="#v" transform="matrix(10.9091 0 0 -10.9091 37.671 -33.145)"/><symbol id="w"><path d="m.496.06.143.005C.728.069.81.077.881.087L.871.023C.819.026.739.026.651.027.541.028.254.017.174.012.124.009.073.006.025 0L0 .068C.06.061.113.058.173.056c.053-.002.159 0 .258.002v.178A5.035 5.035 0 0 1 .224.23C.19.228.176.249.176.279v.115c0 .051-.009.06-.07.079l.01.022C.255.48.473.485.618.494l.01.171A4.767 4.767 0 0 1 .291.659C.263.657.202.654.153.645L.119.706a.804.804 0 0 1 .13-.013 6.32 6.32 0 0 1 .463.012.548.548 0 0 1-.014-.064L.677.498l.038.003L.71.454A6.502 6.502 0 0 1 .245.449L.243.411V.3c0-.022.009-.028.041-.029.097-.003.347.007.459.025L.729.235a4.332 4.332 0 0 1-.233.002V.06z"/></symbol><use xlink:href="#w" transform="matrix(10.9091 0 0 -10.9091 48.034 -33.014)"/><use xlink:href="#e" transform="matrix(10.9091 0 0 -10.9091 62.078 -33.352)"/><symbol id="x"><path d="M.631.194c.015 0 .034 0 .034.02s-.019.02-.033.02H.033C.019.234 0 .234 0 .214s.019-.02.034-.02h.597M.632 0c.014 0 .033 0 .033.02S.646.04.631.04H.034C.019.04 0 .04 0 .02S.019 0 .033 0h.599z"/></symbol><use xlink:href="#x" transform="matrix(10.9091 0 0 -10.9091 68.709 -34.923)"/><use xlink:href="#g" transform="matrix(10.9091 0 0 -10.9091 80.589 -33.472)"/><symbol id="y"><path d="M.117.194C.117.26.092.299.053.299A.051.051 0 0 1 0 .246C0 .219.02.193.053.193c.012 0 .025.004.035.013l.005.003C.094.209.095.208.095.194A.242.242 0 0 0 .027.027C.016.016.016.014.016.011.016.004.021 0 .026 0c.011 0 .091.077.091.194z"/></symbol><use xlink:href="#y" transform="matrix(10.9091 0 0 -10.9091 86.006 -31.367)"/><use xlink:href="#d" transform="matrix(10.9091 0 0 -10.9091 92.886 -33.232)"/><use xlink:href="#y" transform="matrix(10.9091 0 0 -10.9091 98.733 -31.367)"/><symbol id="z"><path d="M.325.34V.308c0-.234-.104-.28-.162-.28C.146.028.092.03.065.064c.044 0 .052.029.052.046 0 .031-.024.046-.046.046C.055.156.025.147.025.108.025.041.079 0 .164 0c.129 0 .251.136.251.351C.415.62.3.688.211.688A.193.193 0 0 1 .064.625.214.214 0 0 1 0 .463C0 .338.088.24.2.24c.061 0 .102.042.125.1M.201.263c-.016 0-.062 0-.093.063C.09.363.09.413.09.462.09.516.09.563.111.6c.027.05.065.063.1.063C.257.663.29.629.307.584A.497.497 0 0 0 .323.443C.323.36.289.263.201.263z"/></symbol><use xlink:href="#z" transform="matrix(10.9091 0 0 -10.9091 105.526 -33.232)"/><use xlink:href="#y" transform="matrix(10.9091 0 0 -10.9091 111.46 -31.367)"/><symbol id="A"><path d="M.106.053a.053.053 0 0 1-.053.053A.053.053 0 0 1 0 .053C0 .024.024 0 .053 0c.029 0 .053.024.053.053z"/></symbol><use xlink:href="#A" transform="matrix(10.9091 0 0 -10.9091 118.733 -35.621)"/><use xlink:href="#A" transform="matrix(10.9091 0 0 -10.9091 123.588 -35.621)"/><use xlink:href="#A" transform="matrix(10.9091 0 0 -10.9091 128.431 -35.621)"/><symbol id="B"><path d="M.172.442a.131.131 0 0 0-.108.126c0 .068.057.131.142.131.138 0 .191-.101.205-.203C.413.483.413.478.424.478c.013 0 .013.005.013.024v.201c0 .017 0 .024-.011.024C.419.727.419.726.411.714L.374.655a.217.217 0 0 1-.169.072A.199.199 0 0 1 0 .533C0 .469.034.424.047.409.094.36.124.353.207.333L.256.322C.315.308.335.303.366.269.372.262.402.228.402.174A.141.141 0 0 0 .258.031a.268.268 0 0 0-.164.051C.029.133.026.206.025.24.024.247.018.249.013.249 0 .249 0 .242 0 .224v-.2C0 .007 0 0 .011 0 .018 0 .02.003.026.012l.037.06A.272.272 0 0 1 .259 0c.125 0 .207.101.207.207 0 .08-.048.175-.158.202L.172.442z"/></symbol><symbol id="C"><path d="M.505.508H.014L0 .339h.025c.009.126.029.144.14.144.056 0 .059 0 .059-.043V.076C.224.036.22.025.143.025H.122V0C.161.003.22.003.26.003.3.003.359.003.398 0v.025H.377C.3.025.296.036.296.076V.44c0 .043.003.043.059.043.108 0 .13-.017.139-.144h.025L.505.508z"/></symbol><symbol id="D"><path d="M.445.511H0V.486C.067.486.072.48.072.439V.072C.072.031.067.025 0 .025V0h.457l.029.194H.461C.444.073.42.025.292.025H.184c-.035 0-.04.003-.04.043v.185h.07C.288.253.3.233.3.166h.025v.199H.3C.3.298.288.278.214.278h-.07v.165c0 .04.005.043.04.043h.102C.402.486.428.451.439.342h.025L.445.511z"/></symbol><symbol id="E"><path d="M.278.234c.1 0 .184.063.184.139 0 .072-.076.141-.191.141H0V.489C.067.489.072.483.072.442v-.37C.072.031.067.025 0 .025V0l.108.003L.216 0v.025C.149.025.144.031.144.072v.162h.134M.141.446c0 .04.005.043.04.043H.25C.376.489.376.413.376.373c0-.039 0-.116-.126-.116H.141v.189z"/></symbol><symbol id="F"><path d="M.055.367c0-.018 0-.026.013-.026.008 0 .009.002.018.013A.16.16 0 0 0 .219.42C.262.42.29.393.306.366A.283.283 0 0 0 .331.229c0-.035 0-.095-.029-.14A.135.135 0 0 0 .19.028.167.167 0 0 0 .032.14C.035.139.038.138.049.138c.033 0 .05.025.05.049a.048.048 0 0 1-.05.049C.03.236 0 .225 0 .184A.19.19 0 0 1 .192 0C.315 0 .42.098.42.223.42.34.336.442.221.442A.188.188 0 0 1 .086.389v.198C.132.573.166.573.179.573c.125 0 .2.09.2.104 0 .006-.003.011-.01.011-.001 0-.003 0-.013-.005a.367.367 0 0 0-.279 0C.068.688.066.688.065.688.055.688.055.68.055.664V.367z"/></symbol><use xlink:href="#B" transform="matrix(10.9091 0 0 -10.9091 -160.138 -3.025)"/><use xlink:href="#C" transform="matrix(10.9091 0 0 -10.9091 -153.866 -3.265)"/><use xlink:href="#D" transform="matrix(10.9091 0 0 -10.9091 -147.342 -3.265)"/><use xlink:href="#E" transform="matrix(10.9091 0 0 -10.9091 -141.233 -3.265)"/><use xlink:href="#F" transform="matrix(10.9091 0 0 -10.9091 -130.793 -3.025)"/><symbol id="G"><path d="M.106.053a.053.053 0 0 1-.053.053A.053.053 0 0 1 0 .053C0 .024.024 0 .053 0c.029 0 .053.024.053.053z"/></symbol><use xlink:href="#G" transform="matrix(10.9091 0 0 -10.9091 -124.55 -3.265)"/><use xlink:href="#c" transform="matrix(10.9091 0 0 -10.9091 -116.532 -.538)"/><symbol id="H"><path d="M.333.389C.315.426.286.453.241.453.124.453 0 .306 0 .16 0 .066.055 0 .133 0c.02 0 .07.004.13.075A.09.09 0 0 1 .354 0c.035 0 .058.023.074.055.017.036.03.097.03.099 0 .01-.009.01-.012.01C.436.164.435.16.432.146.415.081.397.022.356.022c-.027 0-.03.026-.03.046 0 .022.002.03.013.074l.022.09.036.14C.404.4.404.402.404.406c0 .017-.012.027-.029.027C.351.433.336.411.333.389M.268.13C.263.112.263.11.248.093.204.038.163.022.135.022c-.05 0-.064.055-.064.094 0 .05.032.173.055.219.031.059.076.096.116.096.065 0 .079-.082.079-.088C.321.337.319.331.318.326L.268.13z"/></symbol><symbol id="I"><path d="M.457.586C.461.6.461.602.461.609c0 .018-.014.027-.029.027A.043.043 0 0 1 .397.615 1.87 1.87 0 0 1 .363.481L.318.301C.314.286.271.216.205.216.154.216.143.26.143.297c0 .046.017.108.051.196.016.041.02.052.02.072a.08.08 0 0 1-.082.082C.037.647 0 .502 0 .493c0-.01.01-.01.012-.01.01 0 .011.002.016.018.027.094.067.124.101.124.008 0 .025 0 .025-.032 0-.025-.01-.051-.017-.07a.66.66 0 0 1-.058-.21c0-.089.063-.119.122-.119.039 0 .073.017.101.045C.289.187.277.138.237.085.211.051.173.022.127.022.113.022.068.025.051.064c.016 0 .029 0 .043.012.01.009.02.022.02.041 0 .031-.027.035-.037.035C.054.152.021.136.021.087.021.037.065 0 .127 0 .23 0 .333.091.361.204l.096.382z"/></symbol><symbol id="J"><path d="M.355.391c-.016 0-.03 0-.044-.014A.054.054 0 0 1 .293.338C.293.314.311.303.33.303c.029 0 .056.024.056.064 0 .049-.047.086-.118.086C.133.453 0 .31 0 .169 0 .079.058 0 .162 0c.143 0 .227.106.227.118 0 .006-.006.013-.012.013C.372.131.37.129.364.121.285.022.176.022.164.022c-.063 0-.09.049-.09.109 0 .041.02.138.054.2.031.057.086.1.141.1.034 0 .072-.013.086-.04z"/></symbol><symbol id="K"><path d="M.059.07C.056.055.05.032.05.027.05.009.064 0 .079 0a.04.04 0 0 1 .037.028 2.1 2.1 0 0 1 .019.074l.022.09.017.067.013.05C.202.34.255.431.35.431c.045 0 .054-.037.054-.07C.404.299.355.171.339.128a.114.114 0 0 1-.01-.046A.08.08 0 0 1 .411 0c.094 0 .131.146.131.154 0 .01-.009.01-.012.01C.52.164.52.161.515.146.495.078.462.022.413.022c-.017 0-.024.01-.024.033a.19.19 0 0 0 .018.071c.019.053.061.163.061.22 0 .067-.043.107-.115.107A.193.193 0 0 1 .197.366a.09.09 0 0 1-.092.087C.059.453.04.414.03.396A.504.504 0 0 1 0 .299c0-.01.01-.01.012-.01.01 0 .011.001.017.023.017.071.037.119.073.119.02 0 .031-.013.031-.046C.133.364.13.353.117.301L.059.07z"/></symbol><use xlink:href="#H" transform="matrix(10.9091 0 0 -10.9091 -112.93 -3.145)"/><use xlink:href="#y" transform="matrix(10.9091 0 0 -10.9091 -106.658 -1.16)"/><use xlink:href="#e" transform="matrix(10.9091 0 0 -10.9091 -99.84 -3.145)"/><use xlink:href="#y" transform="matrix(10.9091 0 0 -10.9091 -95.912 -1.16)"/><use xlink:href="#I" transform="matrix(10.9091 0 0 -10.9091 -89.269 -1.029)"/><use xlink:href="#y" transform="matrix(10.9091 0 0 -10.9091 -82.909 -1.16)"/><use xlink:href="#J" transform="matrix(10.9091 0 0 -10.9091 -76.123 -3.145)"/><use xlink:href="#y" transform="matrix(10.9091 0 0 -10.9091 -70.909 -1.16)"/><use xlink:href="#K" transform="matrix(10.9091 0 0 -10.9091 -64.254 -3.145)"/><use xlink:href="#h" transform="matrix(10.9091 0 0 -10.9091 -57.41 -.538)"/><use xlink:href="#n" transform="matrix(10.9091 0 0 -10.9091 -51.872 -1.345)"/><symbol id="L"><path d="M.471.735C.575.676.701.621.835.58L.777.523.449.711A.922.922 0 0 0 .096.492l-.02.022a.744.744 0 0 1 .36.285c.01.016.011.024-.005.035C.419.842.407.85.374.867L.391.89C.444.876.496.858.547.838A.637.637 0 0 0 .471.735m.324-.67L.784.005A5.143 5.143 0 0 1 .282.002C.246 0 .231.02.231.046v.107c0 .061-.008.07-.085.09l.011.025C.196.263.262.256.302.25A.677.677 0 0 1 .297.178V.077c0-.028.01-.034.048-.035.1-.002.336.006.45.023M.524.378V.317C.524.27.518.203.51.156L.465.15a1.766 1.766 0 0 0-.008.153v.074a10.132 10.132 0 0 1-.283-.01A2.358 2.358 0 0 1 .025.354L0 .422C.06.415.113.412.173.41c.098-.004.404.005.5.009C.762.423.844.43.915.44L.905.376a5.644 5.644 0 0 1-.381.002z"/></symbol><use xlink:href="#L" transform="matrix(10.9091 0 0 -10.9091 -38.396 -1.727)"/><use xlink:href="#l" transform="matrix(10.9091 0 0 -10.9091 -27.738 -1.345)"/><symbol id="M"><path d="M.458.634C.518.575.58.521.651.478L.595.434A5.359 5.359 0 0 1 .44.605.858.858 0 0 0 .236.379L.218.394c.032.03.061.061.085.092a1.8 1.8 0 0 1-.107.107.762.762 0 0 0-.178-.171L0 .436c.108.089.19.212.217.326C.221.781.223.789.207.8a.302.302 0 0 1-.05.026l.017.021C.225.834.262.827.311.81A.817.817 0 0 0 .214.619.637.637 0 0 1 .338.532a.87.87 0 0 1 .113.237c.006.019.007.029-.009.04a.508.508 0 0 1-.057.03l.017.022C.455.847.497.838.546.819A1.013 1.013 0 0 0 .458.634M.571.322C.674.313.749.247.749.161.749.069.66 0 .544 0 .427 0 .34.069.34.161c0 .088.079.156.186.162C.523.338.513.347.484.355l.01.019.089-.017A.143.143 0 0 1 .571.322M.678.166c0 .071-.059.127-.135.127C.467.293.408.237.408.166.408.095.467.04.543.04.62.04.678.095.678.166m.069.416V.504C.747.457.738.375.731.342L.688.336a.986.986 0 0 0-.007.115v.371C.681.866.642.89.559.91L.57.936C.635.928.706.914.757.904a.448.448 0 0 1-.01-.082V.621C.8.623.872.631.938.642L.929.582c-.052.002-.13 0-.182 0z"/></symbol><use xlink:href="#M" transform="matrix(10.9091 0 0 -10.9091 -17.778 -1.443)"/><symbol id="N"><path d="M.496.862C.606.852.685.785.685.701.685.606.59.537.464.537.339.537.245.606.245.701c0 .089.087.159.206.163C.448.878.437.888.408.897l.009.017.092-.016A.382.382 0 0 1 .496.862m.12-.157C.616.776.55.836.465.836.38.836.314.776.314.705.314.63.38.576.465.576c.086 0 .151.054.151.129M.915.491.905.427a5.644 5.644 0 0 1-.22.005A12.75 12.75 0 0 1 .174.418 2.358 2.358 0 0 1 .025.405L0 .473C.06.466.113.463.173.461c.098-.004.404.005.5.009.089.004.171.011.242.021M.652.197l.003.102A3.807 3.807 0 0 1 .354.293C.326.291.265.288.216.279L.182.34a.804.804 0 0 1 .13-.013C.413.326.609.328.737.339.733.327.729.299.724.275L.71.202l.026.002L.731.158A5.398 5.398 0 0 1 .305.153.566.566 0 0 1 .303.114V.072c0-.024.006-.028.041-.029C.441.04.669.05.781.068L.767.007A6.337 6.337 0 0 1 .284.002C.25 0 .236.021.236.051v.046c0 .051-.009.06-.07.079l.01.022C.318.182.516.188.652.197z"/></symbol><use xlink:href="#N" transform="matrix(10.9091 0 0 -10.9091 -7.306 -1.64)"/><symbol id="O"><path d="M.352.585A.979.979 0 0 1 .58.459L.526.409.327.562A1.096 1.096 0 0 0 .02.375L0 .396a.912.912 0 0 1 .391.335L.234.724A1.782 1.782 0 0 1 .096.711L.058.77a1.276 1.276 0 0 1 .41.013L.492.761a.765.765 0 0 0-.14-.176M.42.891.407.844C.362.845.314.842.279.842A.839.839 0 0 1 .18.835L.151.893A.553.553 0 0 1 .266.878c.032 0 .093.005.154.013M.536.307A.574.574 0 0 0 .484.233C.579.173.693.116.798.075L.74.02C.64.089.559.144.463.206A.726.726 0 0 0 .159 0L.141.019C.28.079.398.183.46.304L.336.297A2.272 2.272 0 0 1 .198.285L.171.346C.21.339.276.334.316.334.41.334.592.348.75.367L.735.31C.685.313.61.311.536.307m.185.272v-.02C.721.512.712.43.705.397L.662.391a.986.986 0 0 0-.007.115V.83c0 .044-.039.068-.122.088l.011.026C.609.936.68.922.731.912A.448.448 0 0 1 .721.83V.618c.053.002.125.01.194.021L.906.579c-.054.002-.133 0-.185 0z"/></symbol><use xlink:href="#O" transform="matrix(10.9091 0 0 -10.9091 6.727 -1.356)"/><symbol id="P"><path d="M.257.735C.372.724.456.644.456.542.456.43.357.347.227.347S0 .43 0 .542c0 .107.091.19.213.195C.212.755.203.765.171.775l.01.019.09-.017C.266.764.26.751.257.735m.13-.19a.155.155 0 0 1-.158.156.155.155 0 1 1 0-.31c.091 0 .158.066.158.154M.692.508V.284C.692.203.685.064.675.005L.634 0a2.43 2.43 0 0 0-.008.213v.618c0 .044-.039.068-.122.088l.011.026C.58.937.651.923.702.913a.448.448 0 0 1-.01-.082V.549C.745.551.819.558.889.57L.88.508c-.055.002-.136 0-.188 0z"/></symbol><use xlink:href="#P" transform="matrix(10.9091 0 0 -10.9091 17.506 -1.345)"/><symbol id="Q"><path d="M.631.273C.587.275.536.274.483.273V.059l.156.006C.728.069.81.077.881.087L.871.023C.819.026.739.026.651.027.541.028.254.017.174.012.124.009.073.006.025 0L0 .068C.06.061.113.058.173.056.224.054.323.055.418.057v.215C.36.271.303.268.249.266L.242.23.202.224A.641.641 0 0 0 .195.32v.278C.195.642.178.66.113.674l.01.024C.167.694.217.689.268.678a.396.396 0 0 1-.01-.077V.529c.111.001.247.004.37.014v.093c0 .044-.023.06-.093.077l.01.025C.599.732.651.726.702.716a.396.396 0 0 1-.01-.077v-.26A.728.728 0 0 0 .676.241L.635.235a.371.371 0 0 0-.004.038M.628.316v.182a4.195 4.195 0 0 1-.37-.006V.363a.31.31 0 0 0-.005-.06c.113.001.259.006.375.013z"/></symbol><use xlink:href="#Q" transform="matrix(10.9091 0 0 -10.9091 27.64 -2.85)"/><symbol id="R"><path d="M.343.504C.411.443.478.39.577.33L.52.279C.45.353.395.404.321.478A.985.985 0 0 0 .02.241L0 .262c.186.11.346.293.4.473L.219.729A1.43 1.43 0 0 1 .081.715L.043.776a1.466 1.466 0 0 1 .429.013L.495.768A.814.814 0 0 0 .343.504M.714.495V.284C.714.203.707.064.697.005L.656 0a2.43 2.43 0 0 0-.008.213v.618c0 .044-.039.068-.122.088l.011.026C.602.937.673.923.724.913a.448.448 0 0 1-.01-.082V.536c.054.002.129.009.199.021L.904.495c-.054.002-.138 0-.19 0z"/></symbol><use xlink:href="#R" transform="matrix(10.9091 0 0 -10.9091 37.883 -1.345)"/><use xlink:href="#G" transform="matrix(10.9091 0 0 -10.9091 48.87 -3.265)"/><use xlink:href="#H" transform="matrix(10.9091 0 0 -10.9091 19.418 17.938)"/><use xlink:href="#e" transform="matrix(10.9091 0 0 -10.9091 43.484 17.938)"/><use xlink:href="#I" transform="matrix(10.9091 0 0 -10.9091 66.24 20.054)"/><use xlink:href="#J" transform="matrix(10.9091 0 0 -10.9091 90.928 17.938)"/><use xlink:href="#K" transform="matrix(10.9091 0 0 -10.9091 115.484 17.938)"/><path stroke-width=".398" stroke-miterlimit="10" fill="none" stroke="#000" d="M10.433 22.895H132.6"/><symbol id="S"><path d="M.248.374c.082.027.14.097.14.176C.388.632.3.688.204.688.103.688.027.628.027.552.027.519.049.5.078.5.109.5.129.522.129.551c0 .05-.047.05-.062.05C.098.65.164.663.2.663.241.663.296.641.296.551A.25.25 0 0 0 .268.437C.238.389.204.386.179.385A.554.554 0 0 0 .14.382C.132.381.125.38.125.37c0-.011.007-.011.024-.011h.044C.275.359.312.291.312.193.312.057.243.028.199.028.156.028.081.045.046.104.081.099.112.121.112.159a.054.054 0 0 1-.056.056C.032.215 0 .201 0 .157 0 .066.093 0 .202 0c.122 0 .213.091.213.193 0 .082-.063.16-.167.181z"/></symbol><use xlink:href="#S" transform="matrix(10.9091 0 0 -10.9091 19.596 43.094)"/><use xlink:href="#g" transform="matrix(10.9091 0 0 -10.9091 42.974 42.854)"/><use xlink:href="#b" transform="matrix(10.9091 0 0 -10.9091 66.367 35.474)"/><path stroke-width=".436" stroke-miterlimit="10" fill="none" stroke="#000" d="M66.062 40.127h5.455"/><symbol id="T"><path d="M.121.479C.075.509.071.543.071.56c0 .061.065.103.136.103C.28.663.344.611.344.539.344.482.305.434.245.399l-.124.08M.267.384c.072.037.121.089.121.155 0 .092-.089.149-.18.149-.1 0-.181-.074-.181-.167a.16.16 0 0 1 .044-.11C.082.399.119.374.144.357.086.328 0 .272 0 .173 0 .067.102 0 .207 0 .32 0 .415.083.415.19a.18.18 0 0 1-.049.123.422.422 0 0 1-.099.071m-.1-.042L.29.264C.318.245.365.215.365.154.365.08.29.028.208.028.122.028.05.09.05.173c0 .058.032.122.117.169z"/></symbol><use xlink:href="#S" transform="matrix(10.9091 0 0 -10.9091 66.52 50.577)"/><use xlink:href="#S" transform="matrix(10.9091 0 0 -10.9091 90.58 43.094)"/><use xlink:href="#b" transform="matrix(10.9091 0 0 -10.9091 116.02 42.854)"/><use xlink:href="#g" transform="matrix(10.9091 0 0 -10.9091 17.382 75.552)"/><use xlink:href="#T" transform="matrix(10.9091 0 0 -10.9091 22.324 75.792)"/><use xlink:href="#d" transform="matrix(10.9091 0 0 -10.9091 42.55 75.792)"/><use xlink:href="#T" transform="matrix(10.9091 0 0 -10.9091 66.52 68.412)"/><path stroke-width=".436" stroke-miterlimit="10" fill="none" stroke="#000" d="M66.062 72.825h5.455"/><symbol id="U"><path d="M.077.077.183.18c.156.138.216.192.216.292 0 .114-.09.194-.212.194A.185.185 0 0 1 0 .485C0 .429.05.429.053.429c.017 0 .052.012.052.053a.05.05 0 0 1-.053.052L.039.533a.144.144 0 0 0 .135.102C.265.635.308.554.308.472c0-.08-.05-.159-.105-.221L.011.037C0 .026 0 .024 0 0h.371l.028.174H.374C.369.144.362.1.352.085.345.077.279.077.257.077h-.18z"/></symbol><symbol id="V"><path d="M.09.35v.024c0 .253.124.289.175.289.024 0 .066-.006.088-.04-.015 0-.055 0-.055-.045 0-.031.024-.046.046-.046C.36.532.39.541.39.58.39.64.346.688.263.688.135.688 0 .559 0 .338 0 .071.116 0 .209 0 .32 0 .415.094.415.226c0 .127-.089.223-.2.223C.147.449.11.398.09.35M.209.028C.146.028.116.088.11.103.092.15.092.23.092.248c0 .078.032.178.122.178.016 0 .062 0 .093-.062C.325.327.325.276.325.227c0-.048 0-.098-.017-.134C.278.033.232.028.209.028z"/></symbol><use xlink:href="#S" transform="matrix(10.9091 0 0 -10.9091 66.52 83.275)"/><use xlink:href="#g" transform="matrix(10.9091 0 0 -10.9091 88.366 75.552)"/><use xlink:href="#b" transform="matrix(10.9091 0 0 -10.9091 93.155 75.552)"/><use xlink:href="#U" transform="matrix(10.9091 0 0 -10.9091 113.533 75.552)"/><use xlink:href="#b" transform="matrix(10.9091 0 0 -10.9091 118.748 75.552)"/><use xlink:href="#S" transform="matrix(10.9091 0 0 -10.9091 16.87 105.461)"/><use xlink:href="#S" transform="matrix(10.9091 0 0 -10.9091 22.324 105.461)"/><use xlink:href="#z" transform="matrix(10.9091 0 0 -10.9091 42.462 105.461)"/><use xlink:href="#b" transform="matrix(10.9091 0 0 -10.9091 66.364 105.221)"/><use xlink:href="#U" transform="matrix(10.9091 0 0 -10.9091 87.942 105.221)"/><use xlink:href="#d" transform="matrix(10.9091 0 0 -10.9091 93.397 105.461)"/><use xlink:href="#b" transform="matrix(10.9091 0 0 -10.9091 113.295 105.221)"/><use xlink:href="#b" transform="matrix(10.9091 0 0 -10.9091 118.75 105.221)"/><use xlink:href="#b" transform="matrix(10.9091 0 0 -10.9091 16.716 135.313)"/><use xlink:href="#T" transform="matrix(10.9091 0 0 -10.9091 22.324 135.553)"/><use xlink:href="#g" transform="matrix(10.9091 0 0 -10.9091 40.247 135.313)"/><use xlink:href="#S" transform="matrix(10.9091 0 0 -10.9091 45.19 135.553)"/><use xlink:href="#g" transform="matrix(10.9091 0 0 -10.9091 64.306 127.933)"/><use xlink:href="#V" transform="matrix(10.9091 0 0 -10.9091 69.248 128.173)"/><path stroke-width=".436" stroke-miterlimit="10" fill="none" stroke="#000" d="M63.335 132.586h10.909"/><symbol id="W"><path d="M.42.631c.009.012.009.014.009.035H.186C.064.666.062.679.058.698H.033L0 .492h.025C.028.508.037.571.05.583c.007.006.085.006.098.006h.207C.344.573.265.464.243.431A.699.699 0 0 1 .12.055C.12.045.12 0 .166 0s.046.045.046.055v.051c0 .055.003.11.011.164.004.023.018.109.062.171l.135.19z"/></symbol><symbol id="X"><path d="M.421.342c0 .08-.005.16-.04.234A.185.185 0 0 1 .037.569.535.535 0 0 1 0 .342C0 .267.004.177.045.101A.183.183 0 0 1 .21 0c.054 0 .13.021.174.116a.533.533 0 0 1 .037.226M.21.022C.171.022.112.047.094.143.083.203.083.295.083.354c0 .064 0 .13.008.184C.11.657.185.666.21.666.243.666.309.648.328.549c.01-.056.01-.132.01-.195 0-.075 0-.143-.011-.207C.312.052.255.022.21.022z"/></symbol><use xlink:href="#S" transform="matrix(10.9091 0 0 -10.9091 66.52 143.036)"/><use xlink:href="#S" transform="matrix(10.9091 0 0 -10.9091 87.853 135.553)"/><use xlink:href="#V" transform="matrix(10.9091 0 0 -10.9091 93.308 135.553)"/><use xlink:href="#V" transform="matrix(10.9091 0 0 -10.9091 113.446 135.553)"/><use xlink:href="#b" transform="matrix(10.9091 0 0 -10.9091 118.748 135.313)"/><use xlink:href="#V" transform="matrix(10.9091 0 0 -10.9091 16.87 168.251)"/><use xlink:href="#S" transform="matrix(10.9091 0 0 -10.9091 22.324 168.251)"/><use xlink:href="#g" transform="matrix(10.9091 0 0 -10.9091 40.247 168.011)"/><use xlink:href="#W" transform="matrix(10.9091 0 0 -10.9091 45.342 168.251)"/><use xlink:href="#U" transform="matrix(10.9091 0 0 -10.9091 63.88 160.631)"/><use xlink:href="#X" transform="matrix(10.9091 0 0 -10.9091 69.215 160.871)"/><path stroke-width=".436" stroke-miterlimit="10" fill="none" stroke="#000" d="M63.335 165.284h10.909"/><use xlink:href="#S" transform="matrix(10.9091 0 0 -10.9091 66.52 175.734)"/><use xlink:href="#b" transform="matrix(10.9091 0 0 -10.9091 87.7 168.011)"/><use xlink:href="#W" transform="matrix(10.9091 0 0 -10.9091 93.46 168.251)"/><use xlink:href="#T" transform="matrix(10.9091 0 0 -10.9091 113.446 168.251)"/><use xlink:href="#b" transform="matrix(10.9091 0 0 -10.9091 118.748 168.011)"/><use xlink:href="#W" transform="matrix(10.9091 0 0 -10.9091 17.022 197.92)"/><use xlink:href="#T" transform="matrix(10.9091 0 0 -10.9091 22.324 197.92)"/><use xlink:href="#U" transform="matrix(10.9091 0 0 -10.9091 39.822 197.68)"/><use xlink:href="#g" transform="matrix(10.9091 0 0 -10.9091 45.702 197.68)"/><use xlink:href="#T" transform="matrix(10.9091 0 0 -10.9091 66.516 197.92)"/><use xlink:href="#d" transform="matrix(10.9091 0 0 -10.9091 87.942 197.92)"/><use xlink:href="#T" transform="matrix(10.9091 0 0 -10.9091 93.31 197.92)"/><use xlink:href="#g" transform="matrix(10.9091 0 0 -10.9091 111.233 197.68)"/><use xlink:href="#X" transform="matrix(10.9091 0 0 -10.9091 116.142 197.92)"/><use xlink:href="#b" transform="matrix(10.9091 0 0 -10.9091 121.477 197.68)"/><use xlink:href="#G" transform="matrix(10.9091 0 0 -10.9091 21.288 209.687)"/><use xlink:href="#G" transform="matrix(10.9091 0 0 -10.9091 21.288 213.672)"/><use xlink:href="#G" transform="matrix(10.9091 0 0 -10.9091 21.288 217.657)"/><use xlink:href="#G" transform="matrix(10.9091 0 0 -10.9091 44.153 209.687)"/><use xlink:href="#G" transform="matrix(10.9091 0 0 -10.9091 44.153 213.672)"/><use xlink:href="#G" transform="matrix(10.9091 0 0 -10.9091 44.153 217.657)"/><use xlink:href="#G" transform="matrix(10.9091 0 0 -10.9091 68.212 209.687)"/><use xlink:href="#G" transform="matrix(10.9091 0 0 -10.9091 68.212 213.672)"/><use xlink:href="#G" transform="matrix(10.9091 0 0 -10.9091 68.212 217.657)"/><use xlink:href="#G" transform="matrix(10.9091 0 0 -10.9091 92.272 209.687)"/><use xlink:href="#G" transform="matrix(10.9091 0 0 -10.9091 92.272 213.672)"/><use xlink:href="#G" transform="matrix(10.9091 0 0 -10.9091 92.272 217.657)"/><use xlink:href="#G" transform="matrix(10.9091 0 0 -10.9091 117.864 209.687)"/><use xlink:href="#G" transform="matrix(10.9091 0 0 -10.9091 117.864 213.672)"/><use xlink:href="#G" transform="matrix(10.9091 0 0 -10.9091 117.864 217.657)"/><use xlink:href="#m" transform="matrix(10.9091 0 0 -10.9091 -149.033 251.773)"/><symbol id="Y"><path d="M.513.704C.606.672.718.651.83.637L.784.581C.706.609.566.652.472.682a1.448 1.448 0 0 0-.367-.13L.087.573C.285.626.464.714.594.84.516.84.409.831.342.83.313.83.246.823.202.816L.164.877A.922.922 0 0 1 .3.867C.397.866.582.871.694.891L.717.868A.79.79 0 0 0 .513.704M.509.453V.427A.433.433 0 0 0 .501.339C.609.33.687.26.687.171.687.072.595 0 .474 0S.263.072.263.171c0 .089.077.158.183.167A.615.615 0 0 0 .44.413v.039a8.907 8.907 0 0 1-.266-.01A2.358 2.358 0 0 1 .025.429L0 .497C.06.49.113.487.173.485c.098-.004.404.005.5.009.089.004.171.011.242.021L.905.451a5.644 5.644 0 0 1-.396.002m.109-.28c0 .075-.062.134-.144.134C.393.307.332.248.332.173c0-.074.061-.131.142-.131.083 0 .144.057.144.131z"/></symbol><use xlink:href="#Y" transform="matrix(10.9091 0 0 -10.9091 -135.797 251.675)"/><use xlink:href="#I" transform="matrix(10.9091 0 0 -10.9091 -121.699 252.09)"/><use xlink:href="#q" transform="matrix(10.9091 0 0 -10.9091 -114.621 251.773)"/><symbol id="Z"><path d="M.677.613A1.339 1.339 0 0 1 .481.594L.455.651A.626.626 0 0 1 .568.644l.109.002v.176C.677.866.638.89.555.91l.011.026C.631.928.702.914.753.904a.448.448 0 0 1-.01-.082V.51C.743.463.734.381.727.348L.684.342a.986.986 0 0 0-.007.115v.156M.565.326C.668.317.743.25.743.164.743.07.654 0 .538 0 .421 0 .334.07.334.164c0 .088.079.157.186.163C.517.342.507.351.478.36l.01.019.09-.017C.573.351.568.34.565.326M.672.169a.13.13 0 0 1-.135.128.13.13 0 0 1-.135-.128c0-.072.059-.127.135-.127.077 0 .135.055.135.127M.344.601C.405.552.471.509.558.46L.502.41C.438.467.387.521.321.578A.943.943 0 0 0 .02.369L0 .39a.814.814 0 0 1 .383.388L.228.772A1.782 1.782 0 0 1 .09.759L.052.818a1.219 1.219 0 0 1 .404.013L.479.809A.722.722 0 0 0 .344.601z"/></symbol><use xlink:href="#Z" transform="matrix(10.9091 0 0 -10.9091 -100.392 251.675)"/><use xlink:href="#p" transform="matrix(10.9091 0 0 -10.9091 -90.442 251.74)"/><symbol id="aa"><path d="M.247.753C.356.742.434.669.434.576.434.474.34.398.216.398S0 .474 0 .576C0 .674.086.75.202.755.2.771.19.781.16.79l.01.019.09-.017A.198.198 0 0 1 .247.753M.364.581a.144.144 0 0 1-.147.143A.144.144 0 0 1 .07.581C.07.499.134.44.217.44c.084 0 .147.059.147.141m.138.303L.513.91C.578.902.649.888.7.878A.448.448 0 0 1 .69.796V.391C.69.332.683.251.674.207L.631.2a1.8 1.8 0 0 0-.007.158v.438C.624.84.585.864.502.884M.756.07.745.01A5.64 5.64 0 0 1 .297.002C.261 0 .246.02.246.046v.12c0 .061-.008.07-.085.09l.011.025C.211.276.277.269.317.263A.677.677 0 0 1 .312.191V.077c0-.028.01-.034.048-.035C.46.04.642.053.756.07z"/></symbol><use xlink:href="#aa" transform="matrix(10.9091 0 0 -10.9091 -79.163 251.391)"/><use xlink:href="#L" transform="matrix(10.9091 0 0 -10.9091 -66.156 251.391)"/><use xlink:href="#l" transform="matrix(10.9091 0 0 -10.9091 -55.497 251.773)"/><use xlink:href="#M" transform="matrix(10.9091 0 0 -10.9091 -45.537 251.675)"/><symbol id="ab"><path d="M.495.838C.612.829.696.758.696.67.696.571.597.499.465.499.335.499.238.571.238.67c0 .092.089.164.21.17C.445.854.434.864.405.874l.009.018.095-.016L.495.838m.13-.164c0 .073-.069.137-.156.137C.38.811.311.747.311.674.311.596.38.54.469.54c.088 0 .156.056.156.134m.29-.256L.905.354a5.644 5.644 0 0 1-.22.005A12.75 12.75 0 0 1 .174.345 2.358 2.358 0 0 1 .025.332L0 .4C.06.393.113.39.173.388c.098-.004.404.005.5.009.089.004.171.011.242.021M.795.065.784.005A5.143 5.143 0 0 1 .282.002C.246 0 .231.02.231.046v.098c0 .061-.008.07-.085.09l.011.025C.196.254.262.247.302.241A.677.677 0 0 1 .297.169V.077c0-.028.01-.034.048-.035.1-.002.336.006.45.023z"/></symbol><use xlink:href="#ab" transform="matrix(10.9091 0 0 -10.9091 -35.065 251.391)"/><use xlink:href="#e" transform="matrix(10.9091 0 0 -10.9091 -20.803 249.973)"/><use xlink:href="#x" transform="matrix(10.9091 0 0 -10.9091 -14.172 248.402)"/><use xlink:href="#z" transform="matrix(10.9091 0 0 -10.9091 -2.805 250.093)"/><use xlink:href="#y" transform="matrix(10.9091 0 0 -10.9091 3.125 251.958)"/><use xlink:href="#U" transform="matrix(10.9091 0 0 -10.9091 10.004 249.853)"/><use xlink:href="#g" transform="matrix(10.9091 0 0 -10.9091 15.884 249.853)"/><use xlink:href="#y" transform="matrix(10.9091 0 0 -10.9091 21.307 251.958)"/><use xlink:href="#S" transform="matrix(10.9091 0 0 -10.9091 28.705 250.093)"/><use xlink:href="#S" transform="matrix(10.9091 0 0 -10.9091 34.16 250.093)"/><use xlink:href="#y" transform="matrix(10.9091 0 0 -10.9091 40.094 251.958)"/><use xlink:href="#A" transform="matrix(10.9091 0 0 -10.9091 47.367 247.704)"/><use xlink:href="#A" transform="matrix(10.9091 0 0 -10.9091 52.222 247.704)"/><use xlink:href="#A" transform="matrix(10.9091 0 0 -10.9091 57.065 247.704)"/><symbol id="ac"><path d="M.246.796C.353.785.431.715.431.626.431.527.337.454.214.454.092.454 0 .527 0 .626 0 .72.086.793.201.798.199.813.189.823.159.832l.01.019.09-.017C.254.822.249.81.246.796M.361.63a.14.14 0 0 1-.145.138C.133.768.07.706.07.63.07.552.133.494.216.494c.083 0 .145.058.145.136m.14.266.011.026C.577.914.648.9.699.89a.448.448 0 0 1-.01-.082V.581C.689.534.68.452.673.419L.63.413a.986.986 0 0 0-.007.115v.28c0 .044-.039.068-.122.088M.607.217.61.333A2.716 2.716 0 0 1 .356.327C.328.325.267.322.218.313l-.034.06a.812.812 0 0 1 .13-.012C.415.36.562.362.69.373A.585.585 0 0 1 .677.309L.662.221l.027.003L.684.177C.534.184.372.175.305.172A.51.51 0 0 1 .303.134V.072c0-.024.008-.028.041-.029C.441.04.622.05.734.068L.72.007A5.103 5.103 0 0 1 .286.002C.252 0 .238.021.238.051v.066c0 .051-.009.06-.07.079l.01.022C.319.203.483.208.607.217z"/></symbol><use xlink:href="#ac" transform="matrix(10.9091 0 0 -10.9091 63.36 251.522)"/><symbol id="ad"><path d="M.541.415v.373c0 .043-.022.066-.099.086l.011.025C.517.891.561.883.612.87a.448.448 0 0 1-.01-.082V.539C.642.54.669.541.71.546V.83C.71.873.683.897.601.918l.011.026C.676.935.733.923.784.912A.448.448 0 0 1 .774.83V.285C.774.204.765.072.756.006L.717 0A3.72 3.72 0 0 0 .71.212v.292A1.864 1.864 0 0 1 .602.499V.318C.602.237.593.105.584.039L.548.034a3.759 3.759 0 0 0-.007.213v.139A.751.751 0 0 0 .344.307C.306.298.287.31.282.35A.544.544 0 0 0 .138.295C.092.285.074.307.074.366v.27c0 .052-.012.071-.074.09l.009.026A.592.592 0 0 1 .26.756.448.448 0 0 1 .475.77L.467.715C.419.714.381.714.34.711V.396C.34.37.353.359.374.362a.681.681 0 0 1 .167.053M.279.382v.266c0 .026-.002.06-.025.059A.842.842 0 0 1 .136.699V.387C.136.361.15.35.17.352c.04.005.069.012.109.03z"/></symbol><use xlink:href="#ad" transform="matrix(10.9091 0 0 -10.9091 76.793 251.762)"/><symbol id="ae"><path d="M.622.442v.389C.622.875.583.899.5.919l.011.026C.576.937.647.923.698.913a.448.448 0 0 1-.01-.082V.549C.741.551.816.557.886.57L.877.508c-.055.002-.138 0-.189 0V.284C.688.203.681.064.671.005L.63 0a2.43 2.43 0 0 0-.008.213v.198A2.315 2.315 0 0 0 .167.287C.109.279.086.3.086.36v.285c0 .052-.013.07-.086.09L.011.76C.153.738.337.75.471.772L.459.714A2.585 2.585 0 0 1 .152.707V.38C.152.354.168.346.19.347c.106.007.314.052.432.095z"/></symbol><use xlink:href="#ae" transform="matrix(10.9091 0 0 -10.9091 87.09 251.773)"/><use xlink:href="#G" transform="matrix(10.9091 0 0 -10.9091 97.814 249.853)"/></g></svg>